<svg xmlns="http://www.w3.org/2000/svg" viewBox="0 0 180 252"><defs><style>.cls-1{fill:#f7f7f7;}.cls-2,.cls-3{fill:#f6c22d;stroke:#b77731;stroke-miterlimit:10;}.cls-2{stroke-width:4px;}.cls-3{stroke-width:2px;}</style></defs><g id="Card"><rect class="cls-1" width="180" height="252" rx="9.92"/></g><g id="_1" data-name="1"><path class="cls-2" d="M74.22,197.17V105.54q0-5.1-5.1-5.1H62.66V68H80.34q23.46,0,23.46,23.46V197.17Z"/><path class="cls-2" d="M74.29,197.1V105.47q0-5.1-5.1-5.1H62.73V67.9H80.41q23.46,0,23.46,23.46V197.1Z"/><path class="cls-2" d="M74.37,197V105.4q0-5.1-5.1-5.1H62.81V67.83H80.49Q104,67.83,104,91.29V197Z"/><path class="cls-2" d="M74.44,197V105.32q0-5.1-5.1-5.1H62.88V67.75H80.56Q104,67.75,104,91.21V197Z"/><path class="cls-2" d="M74.51,196.88V105.25q0-5.1-5.1-5.1H63V67.68H80.63q23.46,0,23.46,23.46V196.88Z"/><path class="cls-2" d="M74.58,196.81V105.18q0-5.1-5.1-5.1H63V67.61H80.7q23.46,0,23.46,23.46V196.81Z"/><path class="cls-2" d="M74.65,196.74V105.11q0-5.1-5.1-5.1H63.09V67.54H80.77q23.46,0,23.46,23.46V196.74Z"/><path class="cls-2" d="M74.73,196.67V105q0-5.1-5.1-5.1H63.17V67.47H80.85q23.46,0,23.46,23.46V196.67Z"/><path class="cls-2" d="M74.8,196.59V105q0-5.1-5.1-5.1H63.24V67.39H80.92q23.46,0,23.46,23.46V196.59Z"/><path class="cls-2" d="M74.87,196.52V104.89q0-5.1-5.1-5.1H63.31V67.32H81q23.46,0,23.46,23.46V196.52Z"/><path class="cls-2" d="M74.94,196.45V104.82q0-5.1-5.1-5.1H63.38V67.25H81.06q23.46,0,23.46,23.46V196.45Z"/><path class="cls-2" d="M75,196.38V104.75q0-5.1-5.1-5.1H63.45V67.18H81.13q23.46,0,23.46,23.46V196.38Z"/><path class="cls-2" d="M75.09,196.31V104.68q0-5.1-5.1-5.1H63.53V67.11H81.21q23.46,0,23.46,23.46V196.31Z"/><path class="cls-2" d="M75.16,196.23V104.6q0-5.1-5.1-5.1H63.6V67H81.28q23.46,0,23.46,23.46V196.23Z"/><path class="cls-2" d="M75.23,196.16V104.53q0-5.1-5.1-5.1H63.67V67H81.35q23.46,0,23.46,23.46V196.16Z"/><path class="cls-2" d="M75.3,196.09V104.46q0-5.1-5.1-5.1H63.74V66.89H81.42q23.46,0,23.46,23.46V196.09Z"/><path class="cls-2" d="M75.37,196V104.39q0-5.1-5.1-5.1H63.81V66.82H81.49Q105,66.82,105,90.28V196Z"/><path class="cls-2" d="M75.45,196V104.32q0-5.1-5.1-5.1H63.89V66.75H81.57Q105,66.75,105,90.21V196Z"/><path class="cls-2" d="M75.52,195.87V104.24q0-5.1-5.1-5.1H64V66.67H81.64q23.46,0,23.46,23.46V195.87Z"/><path class="cls-2" d="M75.59,195.8V104.17q0-5.1-5.1-5.1H64V66.6H81.71q23.46,0,23.46,23.46V195.8Z"/><path class="cls-2" d="M75.66,195.73V104.1q0-5.1-5.1-5.1H64.1V66.53H81.78q23.46,0,23.46,23.46V195.73Z"/><path class="cls-2" d="M75.73,195.66V104q0-5.1-5.1-5.1H64.17V66.46H81.85q23.46,0,23.46,23.46V195.66Z"/><path class="cls-2" d="M75.81,195.59V104q0-5.1-5.1-5.1H64.25V66.39H81.93q23.46,0,23.46,23.46V195.59Z"/><path class="cls-2" d="M75.88,195.51V103.88q0-5.1-5.1-5.1H64.32V66.31H82q23.46,0,23.46,23.46V195.51Z"/><path class="cls-2" d="M76,195.44V103.81q0-5.1-5.1-5.1H64.39V66.24H82.07q23.46,0,23.46,23.46V195.44Z"/><path class="cls-2" d="M76,195.37V103.74q0-5.1-5.1-5.1H64.46V66.17H82.14q23.46,0,23.46,23.46V195.37Z"/><path class="cls-2" d="M76.09,195.3V103.67q0-5.1-5.1-5.1H64.53V66.1H82.21q23.46,0,23.46,23.46V195.3Z"/><path class="cls-2" d="M76.17,195.23V103.6q0-5.1-5.1-5.1H64.61V66H82.29q23.46,0,23.46,23.46V195.23Z"/><path class="cls-2" d="M76.24,195.15V103.52q0-5.1-5.1-5.1H64.68V66H82.36q23.46,0,23.46,23.46V195.15Z"/><path class="cls-2" d="M76.31,195.08V103.45q0-5.1-5.1-5.1H64.75V65.88H82.43q23.46,0,23.46,23.46V195.08Z"/><path class="cls-2" d="M76.38,195V103.38q0-5.1-5.1-5.1H64.82V65.81H82.5Q106,65.81,106,89.27V195Z"/><path class="cls-2" d="M76.45,194.94V103.31q0-5.1-5.1-5.1H64.89V65.74H82.57Q106,65.74,106,89.2V194.94Z"/><path class="cls-2" d="M76.53,194.87V103.24q0-5.1-5.1-5.1H65V65.67H82.65q23.46,0,23.46,23.46V194.87Z"/><path class="cls-2" d="M76.6,194.79V103.16q0-5.1-5.1-5.1H65V65.59H82.72q23.46,0,23.46,23.46V194.79Z"/><path class="cls-2" d="M76.67,194.72V103.09q0-5.1-5.1-5.1H65.11V65.52H82.79q23.46,0,23.46,23.46V194.72Z"/><path class="cls-2" d="M76.74,194.65V103q0-5.1-5.1-5.1H65.18V65.45H82.86q23.46,0,23.46,23.46V194.65Z"/><path class="cls-2" d="M76.81,194.58V103q0-5.1-5.1-5.1H65.25V65.38H82.93q23.46,0,23.46,23.46V194.58Z"/><path class="cls-2" d="M76.89,194.51V102.88q0-5.1-5.1-5.1H65.33V65.31H83q23.46,0,23.46,23.46V194.51Z"/><path class="cls-2" d="M77,194.43V102.8q0-5.1-5.1-5.1H65.4V65.23H83.08q23.46,0,23.46,23.46V194.43Z"/><path class="cls-2" d="M77,194.36V102.73q0-5.1-5.1-5.1H65.47V65.16H83.15q23.46,0,23.46,23.46V194.36Z"/><path class="cls-2" d="M77.1,194.29V102.66q0-5.1-5.1-5.1H65.54V65.09H83.22q23.46,0,23.46,23.46V194.29Z"/><path class="cls-2" d="M77.17,194.22V102.59q0-5.1-5.1-5.1H65.61V65H83.29q23.46,0,23.46,23.46V194.22Z"/><path class="cls-2" d="M77.25,194.15V102.52q0-5.1-5.1-5.1H65.69V65H83.37q23.46,0,23.46,23.46V194.15Z"/><path class="cls-2" d="M77.32,194.07V102.44q0-5.1-5.1-5.1H65.76V64.87H83.44q23.46,0,23.46,23.46V194.07Z"/><path class="cls-2" d="M77.39,194V102.37q0-5.1-5.1-5.1H65.83V64.8H83.51Q107,64.8,107,88.26V194Z"/><path class="cls-2" d="M77.46,193.93V102.3q0-5.1-5.1-5.1H65.9V64.73H83.58Q107,64.73,107,88.19V193.93Z"/><path class="cls-2" d="M77.53,193.86V102.23q0-5.1-5.1-5.1H66V64.66H83.65q23.46,0,23.46,23.46V193.86Z"/><path class="cls-2" d="M77.61,193.79V102.16q0-5.1-5.1-5.1H66.05V64.59H83.73q23.46,0,23.46,23.46V193.79Z"/><path class="cls-2" d="M77.68,193.71V102.08q0-5.1-5.1-5.1H66.12V64.51H83.8q23.46,0,23.46,23.46V193.71Z"/><path class="cls-2" d="M77.75,193.64V102q0-5.1-5.1-5.1H66.19V64.44H83.87q23.46,0,23.46,23.46V193.64Z"/><path class="cls-2" d="M77.82,193.57V101.94q0-5.1-5.1-5.1H66.26V64.37H83.94q23.46,0,23.46,23.46V193.57Z"/><path class="cls-2" d="M77.89,193.5V101.87q0-5.1-5.1-5.1H66.33V64.3H84q23.46,0,23.46,23.46V193.5Z"/><path class="cls-2" d="M78,193.43V101.8q0-5.1-5.1-5.1H66.41V64.23H84.09q23.46,0,23.46,23.46V193.43Z"/><path class="cls-2" d="M78,193.35V101.72q0-5.1-5.1-5.1H66.48V64.15H84.16q23.46,0,23.46,23.46V193.35Z"/><path class="cls-2" d="M78.11,193.28V101.65q0-5.1-5.1-5.1H66.55V64.08H84.23q23.46,0,23.46,23.46V193.28Z"/><path class="cls-2" d="M78.18,193.21V101.58q0-5.1-5.1-5.1H66.62V64H84.3q23.46,0,23.46,23.46V193.21Z"/><path class="cls-2" d="M78.25,193.14V101.51q0-5.1-5.1-5.1H66.69V63.94H84.37q23.46,0,23.46,23.46V193.14Z"/><path class="cls-2" d="M78.33,193.07V101.44q0-5.1-5.1-5.1H66.77V63.87H84.45q23.46,0,23.46,23.46V193.07Z"/><path class="cls-2" d="M78.4,193V101.36q0-5.1-5.1-5.1H66.84V63.79H84.52Q108,63.79,108,87.25V193Z"/><path class="cls-2" d="M78.47,192.92V101.29q0-5.1-5.1-5.1H66.91V63.72H84.59q23.46,0,23.46,23.46V192.92Z"/><path class="cls-2" d="M78.54,192.85V101.22q0-5.1-5.1-5.1H67V63.65H84.66q23.46,0,23.46,23.46V192.85Z"/><path class="cls-2" d="M78.61,192.78V101.15q0-5.1-5.1-5.1H67.05V63.58H84.73q23.46,0,23.46,23.46V192.78Z"/><path class="cls-2" d="M78.69,192.71V101.08q0-5.1-5.1-5.1H67.13V63.51H84.81q23.46,0,23.46,23.46V192.71Z"/><path class="cls-2" d="M78.76,192.63V101q0-5.1-5.1-5.1H67.2V63.43H84.88q23.46,0,23.46,23.46V192.63Z"/><path class="cls-2" d="M78.83,192.56V100.93q0-5.1-5.1-5.1H67.27V63.36H85q23.46,0,23.46,23.46V192.56Z"/><path class="cls-2" d="M78.9,192.49V100.86q0-5.1-5.1-5.1H67.34V63.29H85q23.46,0,23.46,23.46V192.49Z"/><path class="cls-2" d="M79,192.42V100.79q0-5.1-5.1-5.1H67.41V63.22H85.09q23.46,0,23.46,23.46V192.42Z"/><path class="cls-2" d="M79.05,192.35V100.72q0-5.1-5.1-5.1H67.49V63.15H85.17q23.46,0,23.46,23.46V192.35Z"/><path class="cls-2" d="M79.12,192.27V100.64q0-5.1-5.1-5.1H67.56V63.07H85.24q23.46,0,23.46,23.46V192.27Z"/><path class="cls-2" d="M79.19,192.2V100.57q0-5.1-5.1-5.1H67.63V63H85.31q23.46,0,23.46,23.46V192.2Z"/><path class="cls-2" d="M79.26,192.13V100.5q0-5.1-5.1-5.1H67.7V62.93H85.38q23.46,0,23.46,23.46V192.13Z"/><path class="cls-2" d="M79.33,192.06V100.43q0-5.1-5.1-5.1H67.77V62.86H85.45q23.46,0,23.46,23.46V192.06Z"/><path class="cls-2" d="M79.41,192V100.36q0-5.1-5.1-5.1H67.85V62.79H85.53Q109,62.79,109,86.25V192Z"/><path class="cls-2" d="M79.48,191.91V100.28q0-5.1-5.1-5.1H67.92V62.71H85.6q23.46,0,23.46,23.46V191.91Z"/><path class="cls-2" d="M79.55,191.84V100.21q0-5.1-5.1-5.1H68V62.64H85.67q23.46,0,23.46,23.46V191.84Z"/><path class="cls-2" d="M79.62,191.77V100.14q0-5.1-5.1-5.1H68.06V62.57H85.74q23.46,0,23.46,23.46V191.77Z"/><path class="cls-2" d="M79.69,191.7V100.07q0-5.1-5.1-5.1H68.13V62.5H85.81q23.46,0,23.46,23.46V191.7Z"/><path class="cls-2" d="M79.77,191.63V100q0-5.1-5.1-5.1H68.21V62.43H85.89q23.46,0,23.46,23.46V191.63Z"/><path class="cls-2" d="M79.84,191.55V99.92q0-5.1-5.1-5.1H68.28V62.35H86q23.46,0,23.46,23.46V191.55Z"/><path class="cls-2" d="M79.91,191.48V99.85q0-5.1-5.1-5.1H68.35V62.28H86q23.46,0,23.46,23.46V191.48Z"/><path class="cls-2" d="M80,191.41V99.78q0-5.1-5.1-5.1H68.42V62.21H86.1q23.46,0,23.46,23.46V191.41Z"/><path class="cls-2" d="M80.05,191.34V99.71q0-5.1-5.1-5.1H68.49V62.14H86.17q23.46,0,23.46,23.46V191.34Z"/><path class="cls-2" d="M80.13,191.27V99.64q0-5.1-5.1-5.1H68.57V62.07H86.25q23.46,0,23.46,23.46V191.27Z"/><path class="cls-2" d="M80.2,191.19V99.56q0-5.1-5.1-5.1H68.64V62H86.32q23.46,0,23.46,23.46V191.19Z"/><path class="cls-2" d="M80.27,191.12V99.49q0-5.1-5.1-5.1H68.71V61.92H86.39q23.46,0,23.46,23.46V191.12Z"/><path class="cls-2" d="M80.34,191.05V99.42q0-5.1-5.1-5.1H68.78V61.85H86.46q23.46,0,23.46,23.46V191.05Z"/><path class="cls-2" d="M80.41,191V99.35q0-5.1-5.1-5.1H68.85V61.78H86.53Q110,61.78,110,85.24V191Z"/><path class="cls-2" d="M80.49,190.91V99.28q0-5.1-5.1-5.1H68.93V61.71H86.61q23.46,0,23.46,23.46V190.91Z"/><path class="cls-2" d="M80.56,190.83V99.2q0-5.1-5.1-5.1H69V61.63H86.68q23.46,0,23.46,23.46V190.83Z"/><path class="cls-2" d="M80.63,190.76V99.13q0-5.1-5.1-5.1H69.07V61.56H86.75q23.46,0,23.46,23.46V190.76Z"/><path class="cls-2" d="M80.7,190.69V99.06q0-5.1-5.1-5.1H69.14V61.49H86.82q23.46,0,23.46,23.46V190.69Z"/><path class="cls-2" d="M80.77,190.62V99q0-5.1-5.1-5.1H69.21V61.42H86.89q23.46,0,23.46,23.46V190.62Z"/><path class="cls-2" d="M80.85,190.55V98.92q0-5.1-5.1-5.1H69.29V61.35H87q23.46,0,23.46,23.46V190.55Z"/><path class="cls-2" d="M80.92,190.47V98.84q0-5.1-5.1-5.1H69.36V61.27H87q23.46,0,23.46,23.46V190.47Z"/><path class="cls-2" d="M81,190.4V98.77q0-5.1-5.1-5.1H69.43V61.2H87.11q23.46,0,23.46,23.46V190.4Z"/><path class="cls-2" d="M81.06,190.33V98.7q0-5.1-5.1-5.1H69.5V61.13H87.18q23.46,0,23.46,23.46V190.33Z"/><path class="cls-2" d="M81.13,190.26V98.63q0-5.1-5.1-5.1H69.57V61.06H87.25q23.46,0,23.46,23.46V190.26Z"/><path class="cls-2" d="M81.21,190.19V98.56q0-5.1-5.1-5.1H69.65V61H87.33q23.46,0,23.46,23.46V190.19Z"/><path class="cls-2" d="M81.28,190.11V98.48q0-5.1-5.1-5.1H69.72V60.91H87.4q23.46,0,23.46,23.46V190.11Z"/><path class="cls-2" d="M81.35,190V98.41q0-5.1-5.1-5.1H69.79V60.84H87.47q23.46,0,23.46,23.46V190Z"/><path class="cls-2" d="M81.42,190V98.34q0-5.1-5.1-5.1H69.86V60.77H87.54Q111,60.77,111,84.23V190Z"/><path class="cls-2" d="M81.49,189.9V98.27q0-5.1-5.1-5.1H69.93V60.7H87.61q23.46,0,23.46,23.46V189.9Z"/><path class="cls-2" d="M81.57,189.83V98.2q0-5.1-5.1-5.1H70V60.63H87.69q23.46,0,23.46,23.46V189.83Z"/><path class="cls-2" d="M81.64,189.75V98.12q0-5.1-5.1-5.1H70.08V60.55H87.76q23.46,0,23.46,23.46V189.75Z"/><path class="cls-2" d="M81.71,189.68V98.05q0-5.1-5.1-5.1H70.15V60.48H87.83q23.46,0,23.46,23.46V189.68Z"/><path class="cls-2" d="M81.78,189.61V98q0-5.1-5.1-5.1H70.22V60.41H87.9q23.46,0,23.46,23.46V189.61Z"/><path class="cls-2" d="M81.85,189.54V97.91q0-5.1-5.1-5.1H70.29V60.34H88q23.46,0,23.46,23.46V189.54Z"/><path class="cls-2" d="M81.93,189.47V97.84q0-5.1-5.1-5.1H70.37V60.27H88.05q23.46,0,23.46,23.46V189.47Z"/><path class="cls-2" d="M82,189.39V97.76q0-5.1-5.1-5.1H70.44V60.19H88.12q23.46,0,23.46,23.46V189.39Z"/><path class="cls-2" d="M82.07,189.32V97.69q0-5.1-5.1-5.1H70.51V60.12H88.19q23.46,0,23.46,23.46V189.32Z"/><path class="cls-2" d="M82.14,189.25V97.62q0-5.1-5.1-5.1H70.58V60.05H88.26q23.46,0,23.46,23.46V189.25Z"/><path class="cls-2" d="M82.21,189.18V97.55q0-5.1-5.1-5.1H70.65V60H88.33q23.46,0,23.46,23.46V189.18Z"/><path class="cls-2" d="M82.29,189.11V97.48q0-5.1-5.1-5.1H70.73V59.91H88.41q23.46,0,23.46,23.46V189.11Z"/><path class="cls-2" d="M82.36,189V97.4q0-5.1-5.1-5.1H70.8V59.83H88.48q23.46,0,23.46,23.46V189Z"/><path class="cls-2" d="M82.43,189V97.33q0-5.1-5.1-5.1H70.87V59.76H88.55Q112,59.76,112,83.22V189Z"/><path class="cls-2" d="M82.5,188.89V97.26q0-5.1-5.1-5.1H70.94V59.69H88.62q23.46,0,23.46,23.46V188.89Z"/><path class="cls-2" d="M82.57,188.82V97.19q0-5.1-5.1-5.1H71V59.62H88.69q23.46,0,23.46,23.46V188.82Z"/><path class="cls-2" d="M82.65,188.75V97.12q0-5.1-5.1-5.1H71.09V59.55H88.77q23.46,0,23.46,23.46V188.75Z"/><path class="cls-2" d="M82.72,188.67V97q0-5.1-5.1-5.1H71.16V59.47H88.84q23.46,0,23.46,23.46V188.67Z"/><path class="cls-2" d="M82.79,188.6V97q0-5.1-5.1-5.1H71.23V59.4H88.91q23.46,0,23.46,23.46V188.6Z"/><path class="cls-2" d="M82.86,188.53V96.9q0-5.1-5.1-5.1H71.3V59.33H89q23.46,0,23.46,23.46V188.53Z"/><path class="cls-2" d="M82.93,188.46V96.83q0-5.1-5.1-5.1H71.37V59.26H89.05q23.46,0,23.46,23.46V188.46Z"/><path class="cls-2" d="M83,188.39V96.76q0-5.1-5.1-5.1H71.45V59.19H89.13q23.46,0,23.46,23.46V188.39Z"/><path class="cls-2" d="M83.08,188.31V96.68q0-5.1-5.1-5.1H71.52V59.11H89.2q23.46,0,23.46,23.46V188.31Z"/><path class="cls-2" d="M83.15,188.24V96.61q0-5.1-5.1-5.1H71.59V59H89.27q23.46,0,23.46,23.46V188.24Z"/><path class="cls-2" d="M83.22,188.17V96.54q0-5.1-5.1-5.1H71.66V59H89.34q23.46,0,23.46,23.46V188.17Z"/><path class="cls-2" d="M83.29,188.1V96.47q0-5.1-5.1-5.1H71.73V58.9H89.41q23.46,0,23.46,23.46V188.1Z"/><path class="cls-2" d="M83.37,188V96.4q0-5.1-5.1-5.1H71.81V58.83H89.49Q113,58.83,113,82.29V188Z"/><path class="cls-2" d="M83.44,188V96.32q0-5.1-5.1-5.1H71.88V58.75H89.56Q113,58.75,113,82.21V188Z"/><path class="cls-2" d="M83.51,187.88V96.25q0-5.1-5.1-5.1H72V58.68H89.63q23.46,0,23.46,23.46V187.88Z"/><path class="cls-2" d="M83.58,187.81V96.18q0-5.1-5.1-5.1H72V58.61H89.7q23.46,0,23.46,23.46V187.81Z"/><path class="cls-2" d="M83.65,187.74V96.11q0-5.1-5.1-5.1H72.09V58.54H89.77q23.46,0,23.46,23.46V187.74Z"/><path class="cls-2" d="M83.73,187.67V96q0-5.1-5.1-5.1H72.17V58.47H89.85q23.46,0,23.46,23.46V187.67Z"/><path class="cls-2" d="M83.8,187.59V96q0-5.1-5.1-5.1H72.24V58.39H89.92q23.46,0,23.46,23.46V187.59Z"/><path class="cls-2" d="M83.87,187.52V95.89q0-5.1-5.1-5.1H72.31V58.32H90q23.46,0,23.46,23.46V187.52Z"/><path class="cls-2" d="M83.94,187.45V95.82q0-5.1-5.1-5.1H72.38V58.25H90.06q23.46,0,23.46,23.46V187.45Z"/><path class="cls-2" d="M84,187.38V95.75q0-5.1-5.1-5.1H72.45V58.18H90.13q23.46,0,23.46,23.46V187.38Z"/><path class="cls-2" d="M84.09,187.31V95.68q0-5.1-5.1-5.1H72.53V58.11H90.21q23.46,0,23.46,23.46V187.31Z"/><path class="cls-2" d="M84.16,187.23V95.6q0-5.1-5.1-5.1H72.6V58H90.28q23.46,0,23.46,23.46V187.23Z"/><path class="cls-2" d="M84.23,187.16V95.53q0-5.1-5.1-5.1H72.67V58H90.35q23.46,0,23.46,23.46V187.16Z"/><path class="cls-2" d="M84.3,187.09V95.46q0-5.1-5.1-5.1H72.74V57.89H90.42q23.46,0,23.46,23.46V187.09Z"/><path class="cls-2" d="M84.37,187V95.39q0-5.1-5.1-5.1H72.81V57.82H90.49Q114,57.82,114,81.28V187Z"/><path class="cls-2" d="M84.45,187V95.32q0-5.1-5.1-5.1H72.89V57.75H90.57Q114,57.75,114,81.21V187Z"/><path class="cls-2" d="M84.52,186.87V95.24q0-5.1-5.1-5.1H73V57.67H90.64q23.46,0,23.46,23.46V186.87Z"/><path class="cls-2" d="M84.59,186.8V95.17q0-5.1-5.1-5.1H73V57.6H90.71q23.46,0,23.46,23.46V186.8Z"/><path class="cls-2" d="M84.66,186.73V95.1q0-5.1-5.1-5.1H73.1V57.53H90.78q23.46,0,23.46,23.46V186.73Z"/><path class="cls-2" d="M84.73,186.66V95q0-5.1-5.1-5.1H73.17V57.46H90.85q23.46,0,23.46,23.46V186.66Z"/><path class="cls-2" d="M84.81,186.59V95q0-5.1-5.1-5.1H73.25V57.39H90.93q23.46,0,23.46,23.46V186.59Z"/><path class="cls-2" d="M84.88,186.51V94.88q0-5.1-5.1-5.1H73.32V57.31H91q23.46,0,23.46,23.46V186.51Z"/><path class="cls-2" d="M85,186.44V94.81q0-5.1-5.1-5.1H73.39V57.24H91.07q23.46,0,23.46,23.46V186.44Z"/><path class="cls-2" d="M85,186.37V94.74q0-5.1-5.1-5.1H73.46V57.17H91.14q23.46,0,23.46,23.46V186.37Z"/><path class="cls-3" d="M17.07,42.56v-20A1,1,0,0,0,16,21.5H14.55V14.43H18.4c3.41,0,5.11,1.71,5.11,5.11v23Z"/><path class="cls-3" d="M156.85,42.56v-20a1,1,0,0,0-1.11-1.11h-1.41V14.43h3.85c3.4,0,5.11,1.71,5.11,5.11v23Z"/><path class="cls-3" d="M162.93,209.44v19.95A1,1,0,0,0,164,230.5h1.41v7.07H161.6c-3.41,0-5.11-1.71-5.11-5.11v-23Z"/><path class="cls-3" d="M23.15,209.44v19.95a1,1,0,0,0,1.11,1.11h1.41v7.07H21.82c-3.4,0-5.11-1.71-5.11-5.11v-23Z"/></g></svg>