<svg xmlns="http://www.w3.org/2000/svg" viewBox="0 0 180 252"><defs><style>.cls-1{fill:#f7f7f7;}.cls-2,.cls-3{fill:#8dc645;stroke:#4c7f3b;stroke-miterlimit:10;}.cls-2{stroke-width:4px;}.cls-3{stroke-width:2px;}</style></defs><g id="_" data-name="+"><rect class="cls-1" width="180" height="252" rx="9.92"/><path class="cls-2" d="M65.37,189.17v-38.7H26.67v-39.3h38.7V72.77h39.3v38.4h38.4v39.3h-38.4v38.7Z"/><path class="cls-2" d="M65.44,189.1V150.4H26.74V111.1h38.7V72.7h39.3v38.4h38.4v39.3h-38.4v38.7Z"/><path class="cls-2" d="M65.51,189V150.32H26.81V111h38.7V72.62h39.3V111h38.4v39.3h-38.4V189Z"/><path class="cls-2" d="M65.58,189v-38.7H26.88V111h38.7V72.55h39.3V111h38.4v39.3h-38.4V189Z"/><path class="cls-2" d="M65.65,188.88v-38.7H27v-39.3h38.7V72.48H105v38.4h38.4v39.3H105v38.7Z"/><path class="cls-2" d="M65.73,188.81v-38.7H27v-39.3h38.7V72.41H105v38.4h38.4v39.3H105v38.7Z"/><path class="cls-2" d="M65.8,188.74V150H27.1v-39.3H65.8V72.34h39.3v38.4h38.4V150H105.1v38.7Z"/><path class="cls-2" d="M65.87,188.67V150H27.17v-39.3h38.7V72.26h39.3v38.4h38.4V150h-38.4v38.71Z"/><path class="cls-2" d="M65.94,188.59v-38.7H27.24v-39.3h38.7V72.19h39.3v38.4h38.4v39.3h-38.4v38.7Z"/><path class="cls-2" d="M66,188.52v-38.7H27.31v-39.3H66V72.12h39.31v38.4h38.4v39.3h-38.4v38.7Z"/><path class="cls-2" d="M66.09,188.45v-38.7H27.39v-39.3h38.7V72.05h39.3v38.4h38.4v39.3h-38.4v38.7Z"/><path class="cls-2" d="M66.16,188.38v-38.7H27.46v-39.3h38.7V72h39.3v38.4h38.4v39.3h-38.4v38.7Z"/><path class="cls-2" d="M66.23,188.31V149.6H27.53V110.3h38.7V71.9h39.3v38.4h38.4v39.3h-38.4v38.71Z"/><path class="cls-2" d="M66.3,188.23v-38.7H27.6v-39.3H66.3V71.83h39.3v38.4H144v39.3H105.6v38.7Z"/><path class="cls-2" d="M66.37,188.16v-38.7H27.67v-39.3h38.7V71.76h39.31v38.4h38.4v39.3h-38.4v38.7Z"/><path class="cls-2" d="M66.45,188.09v-38.7H27.75v-39.3h38.7V71.69h39.3v38.4h38.4v39.3h-38.4v38.7Z"/><path class="cls-2" d="M66.52,188v-38.7H27.82V110h38.7V71.62h39.3V110h38.4v39.3h-38.4V188Z"/><path class="cls-2" d="M66.59,188V149.24H27.89v-39.3h38.7V71.54h39.3v38.4h38.4v39.3h-38.4V188Z"/><path class="cls-2" d="M66.66,187.87v-38.7H28v-39.3h38.7V71.47H106v38.4h38.4v39.3H106v38.7Z"/><path class="cls-2" d="M66.73,187.8V149.1H28V109.8h38.7V71.4H106v38.4h38.4v39.3H106v38.7Z"/><path class="cls-2" d="M66.81,187.73V149H28.11v-39.3h38.7V71.33h39.3v38.4h38.4V149h-38.4v38.7Z"/><path class="cls-2" d="M66.88,187.66V149H28.18v-39.3h38.7V71.26h39.3v38.4h38.4V149h-38.4v38.7Z"/><path class="cls-2" d="M67,187.59V148.88H28.25v-39.3H67V71.18h39.3v38.4h38.4v39.3h-38.4v38.71Z"/><path class="cls-2" d="M67,187.51v-38.7H28.32v-39.3H67V71.11h39.3v38.4h38.4v39.3h-38.4v38.7Z"/><path class="cls-2" d="M67.09,187.44v-38.7H28.39v-39.3h38.7V71H106.4v38.4h38.4v39.3H106.4v38.7Z"/><path class="cls-2" d="M67.17,187.37v-38.7H28.47v-39.3h38.7V71h39.3v38.4h38.4v39.3h-38.4v38.7Z"/><path class="cls-2" d="M67.24,187.3V148.6H28.54V109.3h38.7V70.9h39.3v38.4h38.4v39.3h-38.4v38.7Z"/><path class="cls-2" d="M67.31,187.23V148.52H28.61v-39.3h38.7V70.82h39.3v38.4H145v39.3h-38.4v38.71Z"/><path class="cls-2" d="M67.38,187.15v-38.7H28.68v-39.3h38.7V70.75h39.3v38.4h38.4v39.3h-38.4v38.7Z"/><path class="cls-2" d="M67.45,187.08v-38.7H28.75v-39.3h38.7V70.68h39.31v38.4h38.4v39.3h-38.4v38.7Z"/><path class="cls-2" d="M67.53,187v-38.7H28.83V109h38.7V70.61h39.3V109h38.4v39.3h-38.4V187Z"/><path class="cls-2" d="M67.6,186.94v-38.7H28.9v-39.3H67.6V70.54h39.3v38.4h38.4v39.3H106.9v38.7Z"/><path class="cls-2" d="M67.67,186.87V148.16H29v-39.3h38.7V70.46H107v38.4h38.4v39.3H107v38.71Z"/><path class="cls-2" d="M67.74,186.79v-38.7H29v-39.3h38.7V70.39H107v38.4h38.4v39.3H107v38.7Z"/><path class="cls-2" d="M67.81,186.72V148H29.11v-39.3h38.7V70.32h39.31v38.4h38.4V148h-38.4v38.7Z"/><path class="cls-2" d="M67.89,186.65V148H29.19v-39.3h38.7V70.25h39.3v38.4h38.4V148h-38.4v38.7Z"/><path class="cls-2" d="M68,186.58v-38.7H29.26v-39.3H68V70.18h39.3v38.4h38.4v39.3h-38.4v38.7Z"/><path class="cls-2" d="M68,186.51V147.8H29.33V108.5H68V70.1h39.3v38.4h38.4v39.3h-38.4v38.71Z"/><path class="cls-2" d="M68.1,186.43v-38.7H29.4v-39.3H68.1V70h39.3v38.4h38.4v39.3H107.4v38.7Z"/><path class="cls-2" d="M68.17,186.36v-38.7H29.47v-39.3h38.7V70h39.31v38.4h38.4v39.3h-38.4v38.7Z"/><path class="cls-2" d="M68.25,186.29v-38.7H29.55v-39.3h38.7V69.89h39.3v38.4H146v39.3h-38.4v38.7Z"/><path class="cls-2" d="M68.32,186.22v-38.7H29.62v-39.3h38.7V69.82h39.3v38.4H146v39.3h-38.4v38.7Z"/><path class="cls-2" d="M68.39,186.15V147.44H29.69v-39.3h38.7V69.74h39.3v38.4h38.4v39.3h-38.4v38.71Z"/><path class="cls-2" d="M68.46,186.07v-38.7H29.76v-39.3h38.7V69.67h39.3v38.4h38.4v39.3h-38.4v38.7Z"/><path class="cls-2" d="M68.53,186V147.3H29.83V108h38.7V69.6h39.31V108h38.4v39.3h-38.4V186Z"/><path class="cls-2" d="M68.61,185.93v-38.7H29.91v-39.3h38.7V69.53h39.3v38.4h38.4v39.3h-38.4v38.7Z"/><path class="cls-2" d="M68.68,185.86v-38.7H30v-39.3h38.7V69.46H108v38.4h38.4v39.3H108v38.7Z"/><path class="cls-2" d="M68.75,185.79V147.08H30.05v-39.3h38.7V69.38h39.3v38.4h38.4v39.3h-38.4v38.71Z"/><path class="cls-2" d="M68.82,185.71V147H30.12v-39.3h38.7V69.31h39.3v38.4h38.4V147h-38.4v38.7Z"/><path class="cls-2" d="M68.89,185.64v-38.7H30.19v-39.3h38.7V69.24H108.2v38.4h38.4v39.3H108.2v38.7Z"/><path class="cls-2" d="M69,185.57v-38.7H30.27v-39.3H69V69.17h39.3v38.4h38.4v39.3h-38.4v38.7Z"/><path class="cls-2" d="M69,185.5V146.8H30.34V107.5H69V69.1h39.3v38.4h38.4v39.3h-38.4v38.7Z"/><path class="cls-2" d="M69.11,185.43V146.72H30.41v-39.3h38.7V69h39.3v38.4h38.4v39.3h-38.4v38.71Z"/><path class="cls-2" d="M69.18,185.35v-38.7H30.48v-39.3h38.7V69h39.3v38.4h38.4v39.3h-38.4v38.7Z"/><path class="cls-2" d="M69.25,185.28v-38.7H30.55v-39.3h38.7V68.88h39.31v38.4H147v39.3h-38.4v38.7Z"/><path class="cls-2" d="M69.33,185.21v-38.7H30.63v-39.3h38.7V68.81h39.3v38.4H147v39.3h-38.4v38.7Z"/><path class="cls-2" d="M69.4,185.14v-38.7H30.7v-39.3H69.4V68.74h39.3v38.4h38.4v39.3H108.7v38.7Z"/><path class="cls-2" d="M69.47,185.07V146.36H30.77v-39.3h38.7V68.66h39.3v38.4h38.4v39.3h-38.4v38.71Z"/><path class="cls-2" d="M69.54,185v-38.7H30.84V107h38.7V68.59h39.3V107h38.4v39.3h-38.4V185Z"/><path class="cls-2" d="M69.61,184.92v-38.7H30.91v-39.3h38.7V68.52h39.31v38.4h38.4v39.3h-38.4v38.7Z"/><path class="cls-2" d="M69.69,184.85v-38.7H31v-39.3h38.7V68.45H109v38.4h38.4v39.3H109v38.7Z"/><path class="cls-2" d="M69.76,184.78v-38.7H31.06v-39.3h38.7V68.38h39.3v38.4h38.4v39.3h-38.4v38.7Z"/><path class="cls-2" d="M69.83,184.71V146H31.13V106.7h38.7V68.3h39.3v38.4h38.4V146h-38.4v38.71Z"/><path class="cls-2" d="M69.9,184.63v-38.7H31.2v-39.3H69.9V68.23h39.3v38.4h38.4v39.3H109.2v38.7Z"/><path class="cls-2" d="M70,184.56v-38.7H31.27v-39.3H70V68.16h39.31v38.4h38.4v39.3h-38.4v38.7Z"/><path class="cls-2" d="M70.05,184.49v-38.7H31.35v-39.3h38.7V68.09h39.3v38.4h38.4v39.3h-38.4v38.7Z"/><path class="cls-2" d="M70.12,184.42v-38.7H31.42v-39.3h38.7V68h39.3v38.4h38.4v39.3h-38.4v38.7Z"/><path class="cls-2" d="M70.19,184.35V145.64H31.49v-39.3h38.7V67.94h39.3v38.4h38.4v39.3h-38.4v38.71Z"/><path class="cls-2" d="M70.26,184.27v-38.7H31.56v-39.3h38.7V67.87h39.3v38.4H148v39.3h-38.4v38.7Z"/><path class="cls-2" d="M70.33,184.2V145.5H31.63V106.2h38.7V67.8h39.31v38.4H148v39.3h-38.4v38.7Z"/><path class="cls-2" d="M70.41,184.13v-38.7H31.71v-39.3h38.7V67.73h39.3v38.4h38.4v39.3h-38.4v38.7Z"/><path class="cls-2" d="M70.48,184.06v-38.7H31.78v-39.3h38.7V67.66h39.3v38.4h38.4v39.3h-38.4v38.7Z"/><path class="cls-2" d="M70.55,184V145.28H31.85V106h38.7V67.58h39.3V106h38.4v39.3h-38.4V184Z"/><path class="cls-2" d="M70.62,183.91v-38.7H31.92v-39.3h38.7V67.51h39.3v38.4h38.4v39.3h-38.4v38.7Z"/><path class="cls-2" d="M70.69,183.84v-38.7H32v-39.3h38.7V67.44H110v38.4h38.4v39.3H110v38.7Z"/><path class="cls-2" d="M70.77,183.77v-38.7H32.07v-39.3h38.7V67.37h39.3v38.4h38.4v39.3h-38.4v38.7Z"/><path class="cls-2" d="M70.84,183.7V145H32.14V105.7h38.7V67.3h39.3v38.4h38.4V145h-38.4v38.7Z"/><path class="cls-2" d="M70.91,183.63V144.92H32.21v-39.3h38.7V67.22h39.3v38.4h38.4v39.3h-38.4v38.71Z"/><path class="cls-2" d="M71,183.55v-38.7H32.28v-39.3H71V67.15h39.3v38.4h38.4v39.3h-38.4v38.7Z"/><path class="cls-2" d="M71.05,183.48v-38.7H32.35v-39.3h38.7V67.08h39.31v38.4h38.4v39.3h-38.4v38.7Z"/><path class="cls-2" d="M71.13,183.41v-38.7H32.43v-39.3h38.7V67h39.3v38.4h38.4v39.3h-38.4v38.7Z"/><path class="cls-2" d="M71.2,183.34v-38.7H32.5v-39.3H71.2V66.94h39.3v38.4h38.4v39.3H110.5v38.7Z"/><path class="cls-2" d="M71.27,183.27V144.56H32.57v-39.3h38.7V66.86h39.3v38.4H149v39.3h-38.4v38.71Z"/><path class="cls-2" d="M71.34,183.19v-38.7H32.64v-39.3h38.7V66.79h39.3v38.4H149v39.3h-38.4v38.7Z"/><path class="cls-2" d="M71.41,183.12v-38.7H32.71v-39.3h38.7V66.72h39.31v38.4h38.4v39.3h-38.4v38.7Z"/><path class="cls-2" d="M71.49,183.05v-38.7H32.79v-39.3h38.7V66.65h39.3v38.4h38.4v39.3h-38.4v38.7Z"/><path class="cls-2" d="M71.56,183v-38.7H32.86V105h38.7V66.58h39.3V105h38.4v39.3h-38.4V183Z"/><path class="cls-2" d="M71.63,182.91V144.2H32.93V104.9h38.7V66.5h39.3v38.4h38.4v39.3h-38.4v38.71Z"/><path class="cls-2" d="M71.7,182.83v-38.7H33v-39.3H71.7V66.43H111v38.4h38.4v39.3H111v38.7Z"/><path class="cls-2" d="M71.77,182.76v-38.7H33.07v-39.3h38.7V66.36h39.31v38.4h38.4v39.3h-38.4v38.7Z"/><path class="cls-2" d="M71.85,182.69V144H33.15v-39.3h38.7V66.29h39.3v38.4h38.4V144h-38.4v38.7Z"/><path class="cls-2" d="M71.92,182.62v-38.7H33.22v-39.3h38.7V66.22h39.3v38.4h38.4v39.3h-38.4v38.7Z"/><path class="cls-2" d="M72,182.55V143.84H33.29v-39.3H72V66.14h39.3v38.4h38.4v39.3h-38.4v38.71Z"/><path class="cls-2" d="M72.06,182.47v-38.7H33.36v-39.3h38.7V66.07h39.3v38.4h38.4v39.3h-38.4v38.7Z"/><path class="cls-2" d="M72.13,182.4V143.7H33.43V104.4h38.7V66h39.31v38.4h38.4v39.3h-38.4v38.7Z"/><path class="cls-2" d="M72.21,182.33v-38.7H33.51v-39.3h38.7V65.93h39.3v38.4h38.4v39.3h-38.4v38.7Z"/><path class="cls-2" d="M72.28,182.26v-38.7H33.58v-39.3h38.7V65.86h39.3v38.4H150v39.3h-38.4v38.7Z"/><path class="cls-2" d="M72.35,182.19V143.48H33.65v-39.3h38.7V65.78h39.3v38.4h38.4v39.3h-38.4v38.71Z"/><path class="cls-2" d="M72.42,182.11v-38.7H33.72v-39.3h38.7V65.71h39.3v38.4h38.4v39.3h-38.4v38.7Z"/><path class="cls-2" d="M72.49,182v-38.7H33.79V104h38.7V65.64H111.8V104h38.4v39.3H111.8V182Z"/><path class="cls-2" d="M72.57,182v-38.7H33.87V104h38.7V65.57h39.3V104h38.4v39.3h-38.4V182Z"/><path class="cls-2" d="M72.64,181.9V143.2H33.94V103.9h38.7V65.5h39.3v38.4h38.4v39.3h-38.4v38.7Z"/><path class="cls-2" d="M72.71,181.83V143.12H34v-39.3h38.7V65.42H112v38.4h38.4v39.3H112v38.71Z"/><path class="cls-2" d="M72.78,181.75v-38.7H34.08v-39.3h38.7V65.35h39.3v38.4h38.4v39.3h-38.4v38.7Z"/><path class="cls-2" d="M72.85,181.68V143H34.15v-39.3h38.7V65.28h39.31v38.4h38.4V143h-38.4v38.7Z"/><path class="cls-2" d="M72.93,181.61v-38.7H34.23v-39.3h38.7V65.21h39.3v38.4h38.4v39.3h-38.4v38.7Z"/><path class="cls-2" d="M73,181.54v-38.7H34.3v-39.3H73V65.14h39.3v38.4h38.4v39.3H112.3v38.7Z"/><path class="cls-2" d="M73.07,181.47V142.76H34.37v-39.3h38.7V65.06h39.3v38.4h38.4v39.3h-38.4v38.71Z"/><path class="cls-2" d="M73.14,181.39v-38.7H34.44v-39.3h38.7V65h39.3v38.4h38.4v39.3h-38.4v38.7Z"/><path class="cls-2" d="M73.21,181.32v-38.7H34.51v-39.3h38.7V64.92h39.31v38.4h38.4v39.3h-38.4v38.7Z"/><path class="cls-2" d="M73.29,181.25v-38.7H34.59v-39.3h38.7V64.85h39.3v38.4H151v39.3h-38.4v38.7Z"/><path class="cls-2" d="M73.36,181.18v-38.7H34.66v-39.3h38.7V64.78h39.3v38.4h38.4v39.3h-38.4v38.7Z"/><path class="cls-2" d="M73.43,181.11V142.4H34.73V103.1h38.7V64.7h39.3v38.4h38.4v39.3h-38.4v38.71Z"/><path class="cls-2" d="M73.5,181v-38.7H34.8V103H73.5V64.63h39.3V103h38.4v39.3H112.8V181Z"/><path class="cls-2" d="M73.57,181v-38.7H34.87V103h38.7V64.56h39.31V103h38.4v39.3h-38.4V181Z"/><path class="cls-2" d="M73.65,180.89v-38.7H35v-39.3h38.7V64.49H113v38.4h38.4v39.3H113v38.7Z"/><path class="cls-2" d="M73.72,180.82v-38.7H35v-39.3h38.7V64.42H113v38.4h38.4v39.3H113v38.7Z"/><path class="cls-2" d="M73.79,180.75V142H35.09v-39.3h38.7V64.34h39.3v38.4h38.4V142h-38.4v38.71Z"/><path class="cls-2" d="M73.86,180.67V142H35.16v-39.3h38.7V64.27h39.3v38.4h38.4V142h-38.4v38.7Z"/><path class="cls-2" d="M73.93,180.6V141.9H35.23V102.6h38.7V64.2h39.31v38.4h38.4v39.3h-38.4v38.7Z"/><path class="cls-2" d="M74,180.53v-38.7H35.31v-39.3H74V64.13h39.3v38.4h38.4v39.3h-38.4v38.7Z"/><path class="cls-2" d="M74.08,180.46v-38.7H35.38v-39.3h38.7V64.06h39.3v38.4h38.4v39.3h-38.4v38.7Z"/><path class="cls-2" d="M74.15,180.39V141.68H35.45v-39.3h38.7V64h39.3v38.4h38.4v39.3h-38.4v38.71Z"/><path class="cls-2" d="M74.22,180.31v-38.7H35.52v-39.3h38.7V63.91h39.3v38.4h38.4v39.3h-38.4v38.7Z"/><path class="cls-2" d="M74.29,180.24v-38.7H35.59v-39.3h38.7V63.84H113.6v38.4H152v39.3H113.6v38.7Z"/><path class="cls-2" d="M74.37,180.17v-38.7H35.67v-39.3h38.7V63.77h39.3v38.4h38.4v39.3h-38.4v38.7Z"/><path class="cls-2" d="M74.44,180.1V141.4H35.74V102.1h38.7V63.7h39.3v38.4h38.4v39.3h-38.4v38.7Z"/><path class="cls-2" d="M74.51,180V141.32H35.81V102h38.7V63.62h39.3V102h38.4v39.3h-38.4V180Z"/><path class="cls-2" d="M74.58,180v-38.7H35.88V102h38.7V63.55h39.3V102h38.4v39.3h-38.4V180Z"/><path class="cls-2" d="M74.65,179.88v-38.7H36v-39.3h38.7V63.48H114v38.4h38.4v39.3H114v38.7Z"/><path class="cls-2" d="M74.73,179.81v-38.7H36v-39.3h38.7V63.41H114v38.4h38.4v39.3H114v38.7Z"/><path class="cls-2" d="M74.8,179.74V141H36.1v-39.3H74.8V63.34h39.3v38.4h38.4V141H114.1v38.7Z"/><path class="cls-2" d="M74.87,179.67V141H36.17v-39.3h38.7V63.26h39.3v38.4h38.4V141h-38.4v38.71Z"/><path class="cls-2" d="M74.94,179.59v-38.7H36.24v-39.3h38.7V63.19h39.3v38.4h38.4v39.3h-38.4v38.7Z"/><path class="cls-2" d="M75,179.52v-38.7H36.31v-39.3H75V63.12h39.31v38.4h38.4v39.3h-38.4v38.7Z"/><path class="cls-2" d="M75.09,179.45v-38.7H36.39v-39.3h38.7V63.05h39.3v38.4h38.4v39.3h-38.4v38.7Z"/><path class="cls-2" d="M75.16,179.38v-38.7H36.46v-39.3h38.7V63h39.3v38.4h38.4v39.3h-38.4v38.7Z"/><path class="cls-2" d="M75.23,179.31V140.6H36.53V101.3h38.7V62.9h39.3v38.4h38.4v39.3h-38.4v38.71Z"/><path class="cls-2" d="M75.3,179.23v-38.7H36.6v-39.3H75.3V62.83h39.3v38.4H153v39.3H114.6v38.7Z"/><path class="cls-2" d="M75.37,179.16v-38.7H36.67v-39.3h38.7V62.76h39.31v38.4h38.4v39.3h-38.4v38.7Z"/><path class="cls-2" d="M75.45,179.09v-38.7H36.75v-39.3h38.7V62.69h39.3v38.4h38.4v39.3h-38.4v38.7Z"/><path class="cls-2" d="M75.52,179v-38.7H36.82V101h38.7V62.62h39.3V101h38.4v39.3h-38.4V179Z"/><path class="cls-2" d="M75.59,179V140.24H36.89v-39.3h38.7V62.54h39.3v38.4h38.4v39.3h-38.4V179Z"/><path class="cls-2" d="M75.66,178.87v-38.7H37v-39.3h38.7V62.47H115v38.4h38.4v39.3H115v38.7Z"/><path class="cls-2" d="M75.73,178.8V140.1H37V100.8h38.7V62.4H115v38.4h38.4v39.3H115v38.7Z"/><path class="cls-2" d="M75.81,178.73V140H37.11v-39.3h38.7V62.33h39.3v38.4h38.4V140h-38.4v38.7Z"/><path class="cls-2" d="M75.88,178.66V140H37.18v-39.3h38.7V62.26h39.3v38.4h38.4V140h-38.4v38.7Z"/><path class="cls-2" d="M76,178.59V139.88H37.25v-39.3H76V62.18h39.3v38.4h38.4v39.3h-38.4v38.71Z"/><path class="cls-2" d="M76,178.51v-38.7H37.32v-39.3H76V62.11h39.3v38.4h38.4v39.3h-38.4v38.7Z"/><path class="cls-2" d="M76.09,178.44v-38.7H37.39v-39.3h38.7V62H115.4v38.4h38.4v39.3H115.4v38.7Z"/><path class="cls-2" d="M76.17,178.37v-38.7H37.47v-39.3h38.7V62h39.3v38.4h38.4v39.3h-38.4v38.7Z"/><path class="cls-3" d="M151.94,42.2v-9h-9V24h9V15h9.17v9h9v9.17h-9v9Z"/><path class="cls-3" d="M18.89,42.2v-9h-9V24h9V15h9.17v9h9v9.17h-9v9Z"/><path class="cls-3" d="M28.06,209.8v9h9V228h-9v9H18.89v-9h-9v-9.17h9v-9Z"/><path class="cls-3" d="M161.11,209.8v9h9V228h-9v9h-9.17v-9h-9v-9.17h9v-9Z"/></g></svg>