<svg xmlns="http://www.w3.org/2000/svg" viewBox="0 0 180 252"><defs><style>.cls-1{fill:#f7f7f7;}.cls-2,.cls-3{fill:#3995ba;stroke:#354e73;stroke-miterlimit:10;}.cls-2{stroke-width:4px;}.cls-3{stroke-width:2px;}</style></defs><g id="_2-2" data-name="+2"><rect class="cls-1" width="180" height="252" rx="9.92"/><path class="cls-2" d="M33.66,156V140.52H18.18V124.8H33.66V109.44H49.38V124.8H64.74v15.72H49.38V156Z"/><path class="cls-2" d="M33.73,155.93V140.45H18.25V124.73H33.73V109.37H49.45v15.36H64.81v15.72H49.45v15.48Z"/><path class="cls-2" d="M33.8,155.86V140.38H18.32V124.66H33.8V109.3H49.52v15.36H64.88v15.72H49.52v15.48Z"/><path class="cls-2" d="M33.87,155.78V140.3H18.4V124.59H33.87V109.23H49.59v15.36H65V140.3H49.59v15.48Z"/><path class="cls-2" d="M34,155.71V140.23H18.47V124.51H34V109.15H49.67v15.36H65v15.72H49.67v15.48Z"/><path class="cls-2" d="M34,155.64V140.16H18.54V124.44H34V109.08H49.74v15.36H65.1v15.72H49.74v15.48Z"/><path class="cls-2" d="M34.09,155.57V140.09H18.61V124.37H34.09V109H49.81v15.36H65.17v15.72H49.81v15.48Z"/><path class="cls-2" d="M34.16,155.5V140H18.68V124.3H34.16V108.94H49.88V124.3H65.24V140H49.88V155.5Z"/><path class="cls-2" d="M34.23,155.42V139.94H18.76V124.23H34.23V108.87H50v15.36H65.31v15.71H50v15.48Z"/><path class="cls-2" d="M34.31,155.35V139.87H18.83V124.15H34.31V108.79H50v15.36H65.39v15.72H50v15.48Z"/><path class="cls-2" d="M34.38,155.28V139.8H18.9V124.08H34.38V108.72H50.1v15.36H65.46V139.8H50.1v15.48Z"/><path class="cls-2" d="M34.45,155.21V139.73H19V124H34.45V108.65H50.17V124H65.53v15.72H50.17v15.48Z"/><path class="cls-2" d="M34.52,155.14V139.66H19V123.94H34.52V108.58H50.24v15.36H65.6v15.72H50.24v15.48Z"/><path class="cls-2" d="M34.59,155.06V139.58H19.12V123.87H34.59V108.51H50.31v15.36H65.67v15.71H50.31v15.48Z"/><path class="cls-2" d="M34.67,155V139.51H19.19V123.79H34.67V108.43H50.39v15.36H65.75v15.72H50.39V155Z"/><path class="cls-2" d="M34.74,154.92V139.44H19.26V123.72H34.74V108.36H50.46v15.36H65.82v15.72H50.46v15.48Z"/><path class="cls-2" d="M34.81,154.85V139.37H19.33V123.65H34.81V108.29H50.53v15.36H65.89v15.72H50.53v15.48Z"/><path class="cls-2" d="M34.88,154.78V139.3H19.4V123.58H34.88V108.22H50.6v15.36H66V139.3H50.6v15.48Z"/><path class="cls-2" d="M35,154.7V139.22H19.48V123.51H35V108.15H50.67v15.36H66v15.71H50.67V154.7Z"/><path class="cls-2" d="M35,154.63V139.15H19.55V123.43H35V108.07H50.75v15.36H66.11v15.72H50.75v15.48Z"/><path class="cls-2" d="M35.1,154.56V139.08H19.62V123.36H35.1V108H50.82v15.36H66.18v15.72H50.82v15.48Z"/><path class="cls-2" d="M35.17,154.49V139H19.69V123.29H35.17V107.93H50.89v15.36H66.25V139H50.89v15.48Z"/><path class="cls-2" d="M35.24,154.42V138.94H19.76V123.22H35.24V107.86H51v15.36H66.32v15.72H51v15.48Z"/><path class="cls-2" d="M35.31,154.34V138.86H19.84V123.15H35.31V107.79H51v15.36H66.39v15.71H51v15.48Z"/><path class="cls-2" d="M35.39,154.27V138.79H19.91V123.07H35.39V107.71H51.11v15.36H66.47v15.72H51.11v15.48Z"/><path class="cls-2" d="M35.46,154.2V138.72H20V123H35.46V107.64H51.18V123H66.54v15.72H51.18V154.2Z"/><path class="cls-2" d="M35.53,154.13V138.65H20.05V122.93H35.53V107.57H51.25v15.36H66.61v15.72H51.25v15.48Z"/><path class="cls-2" d="M35.6,154.06V138.58H20.12V122.86H35.6V107.5H51.32v15.36H66.68v15.72H51.32v15.48Z"/><path class="cls-2" d="M35.67,154V138.5H20.2V122.79H35.67V107.43H51.39v15.36H66.75V138.5H51.39V154Z"/><path class="cls-2" d="M35.75,153.91V138.43H20.27V122.71H35.75V107.35H51.47v15.36H66.83v15.72H51.47v15.48Z"/><path class="cls-2" d="M35.82,153.84V138.36H20.34V122.64H35.82V107.28H51.54v15.36H66.9v15.72H51.54v15.48Z"/><path class="cls-2" d="M35.89,153.77V138.29H20.41V122.57H35.89V107.21H51.61v15.36H67v15.72H51.61v15.48Z"/><path class="cls-2" d="M36,153.7V138.22H20.48V122.5H36V107.14H51.68V122.5H67v15.72H51.68V153.7Z"/><path class="cls-2" d="M36,153.62V138.14H20.56V122.43H36V107.07H51.75v15.36H67.11v15.71H51.75v15.48Z"/><path class="cls-2" d="M36.11,153.55V138.07H20.63V122.35H36.11V107H51.83v15.36H67.19v15.72H51.83v15.48Z"/><path class="cls-2" d="M36.18,153.48V138H20.7V122.28H36.18V106.92H51.9v15.36H67.26V138H51.9v15.48Z"/><path class="cls-2" d="M36.25,153.41V137.93H20.77V122.21H36.25V106.85H52v15.36H67.33v15.72H52v15.48Z"/><path class="cls-2" d="M36.32,153.34V137.86H20.84V122.14H36.32V106.78H52v15.36H67.4v15.72H52v15.48Z"/><path class="cls-2" d="M36.39,153.26V137.78H20.92V122.07H36.39V106.71H52.11v15.36H67.47v15.71H52.11v15.48Z"/><path class="cls-2" d="M36.47,153.19V137.71H21V122H36.47V106.63H52.19V122H67.55v15.72H52.19v15.48Z"/><path class="cls-2" d="M36.54,153.12V137.64H21.06V121.92H36.54V106.56H52.26v15.36H67.62v15.72H52.26v15.48Z"/><path class="cls-2" d="M36.61,153.05V137.57H21.13V121.85H36.61V106.49H52.33v15.36H67.69v15.72H52.33v15.48Z"/><path class="cls-2" d="M36.68,153V137.5H21.2V121.78H36.68V106.42H52.4v15.36H67.76V137.5H52.4V153Z"/><path class="cls-2" d="M36.75,152.9V137.42H21.28V121.71H36.75V106.35H52.47v15.36H67.83v15.71H52.47V152.9Z"/><path class="cls-2" d="M36.83,152.83V137.35H21.35V121.63H36.83V106.27H52.55v15.36H67.91v15.72H52.55v15.48Z"/><path class="cls-2" d="M36.9,152.76V137.28H21.42V121.56H36.9V106.2H52.62v15.36H68v15.72H52.62v15.48Z"/><path class="cls-2" d="M37,152.69V137.21H21.49V121.49H37V106.13H52.69v15.36H68.05v15.72H52.69v15.48Z"/><path class="cls-2" d="M37,152.62V137.14H21.56V121.42H37V106.06H52.76v15.36H68.12v15.72H52.76v15.48Z"/><path class="cls-2" d="M37.11,152.54V137.06H21.64V121.35H37.11V106H52.83v15.36H68.19v15.71H52.83v15.48Z"/><path class="cls-2" d="M37.19,152.47V137H21.71V121.27H37.19V105.91H52.91v15.36H68.27V137H52.91v15.48Z"/><path class="cls-2" d="M37.26,152.4V136.92H21.78V121.2H37.26V105.84H53V121.2H68.34v15.72H53V152.4Z"/><path class="cls-2" d="M37.33,152.33V136.85H21.85V121.13H37.33V105.77H53.05v15.36H68.41v15.72H53.05v15.48Z"/><path class="cls-2" d="M37.4,152.26V136.78H21.92V121.06H37.4V105.7H53.12v15.36H68.48v15.72H53.12v15.48Z"/><path class="cls-2" d="M37.47,152.18V136.7H22V121H37.47V105.63H53.19V121H68.55V136.7H53.19v15.48Z"/><path class="cls-2" d="M37.55,152.11V136.63H22.07V120.91H37.55V105.55H53.27v15.36H68.63v15.72H53.27v15.48Z"/><path class="cls-2" d="M37.62,152V136.56H22.14V120.84H37.62V105.48H53.34v15.36H68.7v15.72H53.34V152Z"/><path class="cls-2" d="M37.69,152V136.49H22.21V120.77H37.69V105.41H53.41v15.36H68.77v15.72H53.41V152Z"/><path class="cls-2" d="M37.76,151.9V136.42H22.28V120.7H37.76V105.34H53.48V120.7H68.84v15.72H53.48V151.9Z"/><path class="cls-2" d="M37.83,151.82V136.34H22.36V120.63H37.83V105.27H53.55v15.36H68.91v15.71H53.55v15.48Z"/><path class="cls-2" d="M37.91,151.75V136.27H22.43V120.55H37.91V105.19H53.63v15.36H69v15.72H53.63v15.48Z"/><path class="cls-2" d="M38,151.68V136.2H22.5V120.48H38V105.12H53.7v15.36H69.06V136.2H53.7v15.48Z"/><path class="cls-2" d="M38.05,151.61V136.13H22.57V120.41H38.05V105.05H53.77v15.36H69.13v15.72H53.77v15.48Z"/><path class="cls-2" d="M38.12,151.54V136.06H22.64V120.34H38.12V105H53.84v15.36H69.2v15.72H53.84v15.48Z"/><path class="cls-2" d="M38.19,151.46V136H22.72V120.27H38.19V104.91H53.91v15.36H69.27V136H53.91v15.48Z"/><path class="cls-2" d="M38.27,151.39V135.91H22.79V120.19H38.27V104.83H54v15.36H69.35v15.72H54v15.48Z"/><path class="cls-2" d="M38.34,151.32V135.84H22.86V120.12H38.34V104.76H54.06v15.36H69.42v15.72H54.06v15.48Z"/><path class="cls-2" d="M38.41,151.25V135.77H22.93V120.05H38.41V104.69H54.13v15.36H69.49v15.72H54.13v15.48Z"/><path class="cls-2" d="M38.48,151.18V135.7H23V120H38.48V104.62H54.2V120H69.56V135.7H54.2v15.48Z"/><path class="cls-2" d="M38.55,151.1V135.62H23.08V119.91H38.55V104.55H54.27v15.36H69.63v15.71H54.27V151.1Z"/><path class="cls-2" d="M38.63,151V135.55H23.15V119.83H38.63V104.47H54.35v15.36H69.71v15.72H54.35V151Z"/><path class="cls-2" d="M38.7,151V135.48H23.22V119.76H38.7V104.4H54.42v15.36H69.78v15.72H54.42V151Z"/><path class="cls-2" d="M38.77,150.89V135.41H23.29V119.69H38.77V104.33H54.49v15.36H69.85v15.72H54.49v15.48Z"/><path class="cls-2" d="M38.84,150.82V135.34H23.36V119.62H38.84V104.26H54.56v15.36H69.92v15.72H54.56v15.48Z"/><path class="cls-2" d="M38.91,150.74V135.26H23.44V119.55H38.91V104.19H54.63v15.36H70v15.71H54.63v15.48Z"/><path class="cls-2" d="M39,150.67V135.19H23.51V119.47H39V104.11H54.71v15.36H70.07v15.72H54.71v15.48Z"/><path class="cls-2" d="M39.06,150.6V135.12H23.58V119.4H39.06V104H54.78V119.4H70.14v15.72H54.78V150.6Z"/><path class="cls-2" d="M39.13,150.53V135.05H23.65V119.33H39.13V104H54.85v15.36H70.21v15.72H54.85v15.48Z"/><path class="cls-2" d="M39.2,150.46V135H23.72V119.26H39.2V103.9H54.92v15.36H70.28V135H54.92v15.48Z"/><path class="cls-2" d="M39.27,150.38V134.9H23.8V119.19H39.27V103.83H55v15.36H70.35V134.9H55v15.48Z"/><path class="cls-2" d="M39.35,150.31V134.83H23.87V119.11H39.35V103.75H55.07v15.36H70.43v15.72H55.07v15.48Z"/><path class="cls-2" d="M39.42,150.24V134.76H23.94V119H39.42V103.68H55.14V119H70.5v15.72H55.14v15.48Z"/><path class="cls-2" d="M39.49,150.17V134.69H24V119H39.49V103.61H55.21V119H70.57v15.72H55.21v15.48Z"/><path class="cls-2" d="M39.56,150.1V134.62H24.08V118.9H39.56V103.54H55.28V118.9H70.64v15.72H55.28V150.1Z"/><path class="cls-2" d="M39.63,150V134.54H24.16V118.83H39.63V103.47H55.35v15.36H70.71v15.71H55.35V150Z"/><path class="cls-2" d="M39.71,150V134.47H24.23V118.75H39.71V103.39H55.43v15.36H70.79v15.72H55.43V150Z"/><path class="cls-2" d="M39.78,149.88V134.4H24.3V118.68H39.78V103.32H55.5v15.36H70.86V134.4H55.5v15.48Z"/><path class="cls-2" d="M39.85,149.81V134.33H24.37V118.61H39.85V103.25H55.57v15.36H70.93v15.72H55.57v15.48Z"/><path class="cls-2" d="M39.92,149.74V134.26H24.44V118.54H39.92V103.18H55.64v15.36H71v15.72H55.64v15.48Z"/><path class="cls-2" d="M40,149.66V134.18H24.52V118.47H40V103.11H55.71v15.36H71.07v15.71H55.71v15.48Z"/><path class="cls-2" d="M40.07,149.59V134.11H24.59V118.39H40.07V103H55.79v15.36H71.15v15.72H55.79v15.48Z"/><path class="cls-2" d="M40.14,149.52V134H24.66V118.32H40.14V103H55.86v15.36H71.22V134H55.86v15.48Z"/><path class="cls-2" d="M40.21,149.45V134H24.73V118.25H40.21V102.89H55.93v15.36H71.29V134H55.93v15.48Z"/><path class="cls-2" d="M40.28,149.38V133.9H24.8V118.18H40.28V102.82H56v15.36H71.36V133.9H56v15.48Z"/><path class="cls-2" d="M40.35,149.3V133.82H24.88V118.11H40.35V102.75H56.07v15.36H71.43v15.71H56.07V149.3Z"/><path class="cls-2" d="M40.43,149.23V133.75H25V118H40.43V102.67H56.15V118H71.51v15.72H56.15v15.48Z"/><path class="cls-2" d="M40.5,149.16V133.68H25V118H40.5V102.6H56.22V118H71.58v15.72H56.22v15.48Z"/><path class="cls-2" d="M40.57,149.09V133.61H25.09V117.89H40.57V102.53H56.29v15.36H71.65v15.72H56.29v15.48Z"/><path class="cls-2" d="M40.64,149V133.54H25.16V117.82H40.64V102.46H56.36v15.36H71.72v15.72H56.36V149Z"/><path class="cls-2" d="M40.71,148.94V133.46H25.24V117.75H40.71V102.39H56.43v15.36H71.79v15.71H56.43v15.48Z"/><path class="cls-2" d="M40.79,148.87V133.39H25.31V117.67H40.79V102.31H56.51v15.36H71.87v15.72H56.51v15.48Z"/><path class="cls-2" d="M40.86,148.8V133.32H25.38V117.6H40.86V102.24H56.58V117.6H71.94v15.72H56.58V148.8Z"/><path class="cls-2" d="M40.93,148.73V133.25H25.45V117.53H40.93V102.17H56.65v15.36H72v15.72H56.65v15.48Z"/><path class="cls-2" d="M41,148.66V133.18H25.52V117.46H41V102.1H56.72v15.36H72.08v15.72H56.72v15.48Z"/><path class="cls-2" d="M41.07,148.58V133.1H25.6V117.39H41.07V102H56.79v15.36H72.15V133.1H56.79v15.48Z"/><path class="cls-2" d="M41.15,148.51V133H25.67V117.31H41.15V102H56.87v15.36H72.23V133H56.87v15.48Z"/><path class="cls-2" d="M41.22,148.44V133H25.74V117.24H41.22V101.88H56.94v15.36H72.3V133H56.94v15.48Z"/><path class="cls-2" d="M41.29,148.37V132.89H25.81V117.17H41.29V101.81H57v15.36H72.37v15.72H57v15.48Z"/><path class="cls-2" d="M41.36,148.3V132.82H25.88V117.1H41.36V101.74H57.08V117.1H72.44v15.72H57.08V148.3Z"/><path class="cls-2" d="M41.43,148.22V132.74H26V117H41.43V101.67H57.15V117H72.51v15.71H57.15v15.48Z"/><path class="cls-2" d="M41.51,148.15V132.67H26V117H41.51V101.59H57.23V117H72.59v15.72H57.23v15.48Z"/><path class="cls-2" d="M41.58,148.08V132.6H26.1V116.88H41.58V101.52H57.3v15.36H72.66V132.6H57.3v15.48Z"/><path class="cls-2" d="M41.65,148V132.53H26.17V116.81H41.65V101.45H57.37v15.36H72.73v15.72H57.37V148Z"/><path class="cls-2" d="M41.72,147.94V132.46H26.24V116.74H41.72V101.38H57.44v15.36H72.8v15.72H57.44v15.48Z"/><path class="cls-2" d="M41.79,147.86V132.38H26.32V116.67H41.79V101.31H57.51v15.36H72.87v15.71H57.51v15.48Z"/><path class="cls-2" d="M41.87,147.79V132.31H26.39V116.59H41.87V101.23H57.59v15.36H73v15.72H57.59v15.48Z"/><path class="cls-2" d="M41.94,147.72V132.24H26.46V116.52H41.94V101.16H57.66v15.36H73v15.72H57.66v15.48Z"/><path class="cls-2" d="M42,147.65V132.17H26.53V116.45H42V101.09H57.73v15.36H73.09v15.72H57.73v15.48Z"/><path class="cls-2" d="M42.08,147.58V132.1H26.6V116.38H42.08V101H57.8v15.36H73.16V132.1H57.8v15.48Z"/><path class="cls-2" d="M42.15,147.5V132H26.68V116.31H42.15V101H57.87v15.36H73.23V132H57.87V147.5Z"/><path class="cls-2" d="M42.23,147.43V132H26.75V116.23H42.23V100.87H58v15.36H73.31V132H58v15.48Z"/><path class="cls-2" d="M42.3,147.36V131.88H26.82V116.16H42.3V100.8H58v15.36H73.38v15.72H58v15.48Z"/><path class="cls-2" d="M42.37,147.29V131.81H26.89V116.09H42.37V100.73H58.09v15.36H73.45v15.72H58.09v15.48Z"/><path class="cls-2" d="M42.44,147.22V131.74H27V116H42.44V100.66H58.16V116H73.52v15.72H58.16v15.48Z"/><path class="cls-2" d="M42.51,147.14V131.66H27V116H42.51V100.59H58.23V116H73.59v15.71H58.23v15.48Z"/><path class="cls-2" d="M42.59,147.07V131.59H27.11V115.87H42.59V100.51H58.31v15.36H73.67v15.72H58.31v15.48Z"/><path class="cls-2" d="M42.66,147V131.52H27.18V115.8H42.66V100.44H58.38V115.8H73.74v15.72H58.38V147Z"/><path class="cls-2" d="M42.73,146.93V131.45H27.25V115.73H42.73V100.37H58.45v15.36H73.81v15.72H58.45v15.48Z"/><path class="cls-2" d="M42.8,146.86V131.38H27.32V115.66H42.8V100.3H58.52v15.36H73.88v15.72H58.52v15.48Z"/><path class="cls-2" d="M42.87,146.78V131.3H27.4V115.59H42.87V100.23H58.59v15.36H74V131.3H58.59v15.48Z"/><path class="cls-2" d="M43,146.71V131.23H27.47V115.51H43V100.15H58.67v15.36H74v15.72H58.67v15.48Z"/><path class="cls-2" d="M43,146.64V131.16H27.54V115.44H43V100.08H58.74v15.36H74.1v15.72H58.74v15.48Z"/><path class="cls-2" d="M43.09,146.57V131.09H27.61V115.37H43.09V100H58.81v15.36H74.17v15.72H58.81v15.48Z"/><path class="cls-2" d="M43.16,146.5V131H27.68V115.3H43.16V99.94H58.88V115.3H74.24V131H58.88V146.5Z"/><path class="cls-2" d="M43.23,146.42V130.94H27.76V115.23H43.23V99.87H59v15.36H74.31v15.71H59v15.48Z"/><path class="cls-2" d="M43.31,146.35V130.87H27.83V115.15H43.31V99.79H59v15.36H74.39v15.72H59v15.48Z"/><path class="cls-2" d="M43.38,146.28V130.8H27.9V115.08H43.38V99.72H59.1v15.36H74.46V130.8H59.1v15.48Z"/><path class="cls-2" d="M43.45,146.21V130.73H28V115H43.45V99.65H59.17V115H74.53v15.72H59.17v15.48Z"/><path class="cls-2" d="M43.52,146.14V130.66H28V114.94H43.52V99.58H59.24v15.36H74.6v15.72H59.24v15.48Z"/><path class="cls-2" d="M43.59,146.06V130.58H28.12V114.87H43.59V99.51H59.31v15.36H74.67v15.71H59.31v15.48Z"/><path class="cls-2" d="M43.67,146V130.51H28.19V114.79H43.67V99.43H59.39v15.36H74.75v15.72H59.39V146Z"/><path class="cls-2" d="M43.74,145.92V130.44H28.26V114.72H43.74V99.36H59.46v15.36H74.82v15.72H59.46v15.48Z"/><path class="cls-2" d="M43.81,145.85V130.37H28.33V114.65H43.81V99.29H59.53v15.36H74.89v15.72H59.53v15.48Z"/><path class="cls-2" d="M43.88,145.78V130.3H28.4V114.58H43.88V99.22H59.6v15.36H75V130.3H59.6v15.48Z"/><path class="cls-2" d="M44,145.7V130.22H28.48V114.51H44V99.15H59.67v15.36H75v15.71H59.67V145.7Z"/><path class="cls-2" d="M44,145.63V130.15H28.55V114.43H44V99.07H59.75v15.36H75.11v15.72H59.75v15.48Z"/><path class="cls-2" d="M44.1,145.56V130.08H28.62V114.36H44.1V99H59.82v15.36H75.18v15.72H59.82v15.48Z"/><path class="cls-2" d="M44.17,145.49V130H28.69V114.29H44.17V98.93H59.89v15.36H75.25V130H59.89v15.48Z"/><path class="cls-2" d="M44.24,145.42V129.94H28.76V114.22H44.24V98.86H60v15.36H75.32v15.72H60v15.48Z"/><path class="cls-2" d="M44.31,145.34V129.86H28.84V114.15H44.31V98.79H60v15.36H75.39v15.71H60v15.48Z"/><path class="cls-2" d="M44.39,145.27V129.79H28.91V114.07H44.39V98.71H60.11v15.36H75.47v15.72H60.11v15.48Z"/><path class="cls-2" d="M44.46,145.2V129.72H29V114H44.46V98.64H60.18V114H75.54v15.72H60.18V145.2Z"/><path class="cls-2" d="M50.2,197.17V140.56c0-15.13,7.48-22.78,22.61-22.78h34.51c4.59,0,6.8-2.21,6.8-6.8v-3.74c0-4.42-2.21-6.8-6.8-6.8H52.41V68h68c15.47,0,23.12,8.16,23.12,24.65v32c0,15.13-8,22.61-23.8,22.61H85.9c-4.42,0-6.63,2.21-6.63,6.8V164.7h64.26v32.47Z"/><path class="cls-2" d="M50.27,197.1V140.49c0-15.13,7.48-22.78,22.61-22.78h34.51c4.59,0,6.8-2.21,6.8-6.8v-3.74c0-4.42-2.21-6.8-6.8-6.8H52.48V67.9h68c15.47,0,23.12,8.16,23.12,24.65v32c0,15.13-8,22.61-23.8,22.61H86c-4.42,0-6.63,2.21-6.63,6.8v10.71H143.6V197.1Z"/><path class="cls-2" d="M50.35,197V140.42c0-15.13,7.48-22.78,22.61-22.78h34.51c4.58,0,6.79-2.21,6.79-6.8V107.1c0-4.42-2.21-6.8-6.79-6.8H52.56V67.83h68c15.47,0,23.13,8.16,23.13,24.65v32c0,15.13-8,22.61-23.8,22.61H86.05c-4.42,0-6.63,2.21-6.63,6.8v10.71h64.26V197Z"/><path class="cls-2" d="M50.42,197V140.34c0-15.13,7.48-22.78,22.61-22.78h34.51c4.59,0,6.8-2.21,6.8-6.8V107c0-4.42-2.21-6.8-6.8-6.8H52.63V67.75h68c15.47,0,23.12,8.17,23.12,24.65v32c0,15.13-8,22.61-23.8,22.61H86.12c-4.42,0-6.63,2.21-6.63,6.8v10.71h64.26V197Z"/><path class="cls-2" d="M50.49,196.88V140.27c0-15.13,7.48-22.78,22.61-22.78h34.51c4.59,0,6.8-2.21,6.8-6.8V107c0-4.42-2.21-6.8-6.8-6.8H52.7V67.68h68c15.47,0,23.12,8.16,23.12,24.65v32c0,15.13-8,22.61-23.8,22.61H86.19c-4.42,0-6.63,2.21-6.63,6.8v10.71h64.26v32.47Z"/><path class="cls-2" d="M50.56,196.81V140.2c0-15.13,7.48-22.78,22.61-22.78h34.51c4.59,0,6.8-2.21,6.8-6.8v-3.74c0-4.42-2.21-6.8-6.8-6.8H52.77V67.61h68c15.47,0,23.12,8.16,23.12,24.65v32c0,15.13-8,22.61-23.8,22.61H86.26c-4.42,0-6.63,2.21-6.63,6.8v10.71h64.26v32.47Z"/><path class="cls-2" d="M50.63,196.74V140.13c0-15.13,7.48-22.78,22.61-22.78h34.51c4.59,0,6.8-2.21,6.8-6.8v-3.74c0-4.42-2.21-6.8-6.8-6.8H52.84V67.54h68c15.47,0,23.12,8.16,23.12,24.65v32c0,15.13-8,22.61-23.8,22.61H86.33c-4.42,0-6.63,2.21-6.63,6.8v10.71H144v32.47Z"/><path class="cls-2" d="M50.71,196.67V140.06c0-15.13,7.48-22.78,22.61-22.78h34.51c4.58,0,6.79-2.21,6.79-6.8v-3.74c0-4.42-2.21-6.8-6.79-6.8H52.92V67.47h68c15.47,0,23.13,8.16,23.13,24.65v32c0,15.13-8,22.61-23.8,22.61H86.41c-4.42,0-6.63,2.21-6.63,6.8V164.2H144v32.47Z"/><path class="cls-2" d="M50.78,196.59V140c0-15.13,7.48-22.78,22.61-22.78H107.9c4.59,0,6.8-2.21,6.8-6.8v-3.74c0-4.42-2.21-6.8-6.8-6.8H53V67.39h68c15.47,0,23.12,8.17,23.12,24.65v32c0,15.13-8,22.61-23.8,22.61H86.48c-4.42,0-6.63,2.21-6.63,6.8v10.71h64.26v32.47Z"/><path class="cls-2" d="M50.85,196.52V139.91c0-15.13,7.48-22.78,22.61-22.78H108c4.59,0,6.8-2.21,6.8-6.8v-3.74c0-4.42-2.21-6.8-6.8-6.8H53.06V67.32h68c15.47,0,23.12,8.16,23.12,24.65v32c0,15.13-8,22.61-23.8,22.61H86.55c-4.42,0-6.63,2.21-6.63,6.8v10.71h64.26v32.47Z"/><path class="cls-2" d="M50.92,196.45V139.84c0-15.13,7.48-22.78,22.61-22.78H108c4.59,0,6.8-2.21,6.8-6.8v-3.74c0-4.42-2.21-6.8-6.8-6.8H53.13V67.25h68c15.47,0,23.12,8.16,23.12,24.65v32c0,15.13-8,22.61-23.8,22.61H86.62c-4.42,0-6.63,2.21-6.63,6.8V164h64.26v32.47Z"/><path class="cls-2" d="M51,196.38V139.77C51,124.64,58.47,117,73.6,117h34.51c4.59,0,6.8-2.21,6.8-6.8v-3.74c0-4.42-2.21-6.8-6.8-6.8H53.2V67.18h68c15.47,0,23.12,8.16,23.12,24.65v32c0,15.13-8,22.61-23.8,22.61H86.69c-4.42,0-6.63,2.21-6.63,6.8v10.71h64.26v32.47Z"/><path class="cls-2" d="M51.07,196.31V139.7c0-15.13,7.48-22.78,22.61-22.78h34.51c4.58,0,6.79-2.21,6.79-6.8v-3.74c0-4.42-2.21-6.8-6.79-6.8H53.28V67.11h68c15.47,0,23.13,8.16,23.13,24.65v32c0,15.13-8,22.61-23.8,22.61H86.77c-4.42,0-6.63,2.21-6.63,6.8v10.71H144.4v32.47Z"/><path class="cls-2" d="M51.14,196.23V139.62c0-15.13,7.48-22.78,22.61-22.78h34.51c4.59,0,6.8-2.21,6.8-6.8V106.3c0-4.42-2.21-6.8-6.8-6.8H53.35V67h68c15.47,0,23.12,8.17,23.12,24.65v32c0,15.13-8,22.61-23.8,22.61H86.84c-4.42,0-6.63,2.21-6.63,6.8v10.71h64.26v32.47Z"/><path class="cls-2" d="M51.21,196.16V139.55c0-15.13,7.48-22.78,22.61-22.78h34.51c4.59,0,6.8-2.21,6.8-6.8v-3.74c0-4.42-2.21-6.8-6.8-6.8H53.42V67h68c15.47,0,23.12,8.16,23.12,24.65v32c0,15.13-8,22.61-23.8,22.61H86.91c-4.42,0-6.63,2.21-6.63,6.8v10.71h64.26v32.47Z"/><path class="cls-2" d="M51.28,196.09V139.48c0-15.13,7.48-22.78,22.61-22.78H108.4c4.59,0,6.8-2.21,6.8-6.8v-3.74c0-4.42-2.21-6.8-6.8-6.8H53.49V66.89h68c15.47,0,23.12,8.16,23.12,24.65v32c0,15.13-8,22.61-23.8,22.61H87c-4.42,0-6.63,2.21-6.63,6.8v10.71h64.26v32.47Z"/><path class="cls-2" d="M51.35,196V139.41c0-15.13,7.48-22.78,22.61-22.78h34.51c4.59,0,6.8-2.21,6.8-6.8v-3.74c0-4.42-2.21-6.8-6.8-6.8H53.56V66.82h68c15.47,0,23.12,8.16,23.12,24.65v32c0,15.13-8,22.61-23.8,22.61H87.05c-4.42,0-6.63,2.21-6.63,6.8v10.71h64.26V196Z"/><path class="cls-2" d="M51.43,196V139.34c0-15.13,7.48-22.78,22.61-22.78h34.51c4.58,0,6.79-2.21,6.79-6.8V106c0-4.42-2.21-6.8-6.79-6.8H53.64V66.75h68c15.47,0,23.13,8.16,23.13,24.65v32c0,15.13-8,22.61-23.8,22.61H87.13c-4.42,0-6.63,2.21-6.63,6.8v10.71h64.26V196Z"/><path class="cls-2" d="M51.5,195.87V139.26c0-15.13,7.48-22.78,22.61-22.78h34.51c4.59,0,6.8-2.21,6.8-6.8v-3.74c0-4.42-2.21-6.8-6.8-6.8H53.71V66.67h68c15.47,0,23.12,8.17,23.12,24.65v32c0,15.13-8,22.61-23.8,22.61H87.2c-4.42,0-6.63,2.21-6.63,6.8V163.4h64.26v32.47Z"/><path class="cls-2" d="M51.57,195.8V139.19c0-15.13,7.48-22.78,22.61-22.78h34.51c4.59,0,6.8-2.21,6.8-6.8v-3.74c0-4.42-2.21-6.8-6.8-6.8H53.78V66.6h68c15.47,0,23.12,8.16,23.12,24.65v32c0,15.13-8,22.61-23.8,22.61H87.27c-4.42,0-6.63,2.21-6.63,6.8v10.71H144.9V195.8Z"/><path class="cls-2" d="M51.64,195.73V139.12c0-15.13,7.48-22.78,22.61-22.78h34.51c4.59,0,6.8-2.21,6.8-6.8V105.8c0-4.42-2.21-6.8-6.8-6.8H53.85V66.53h68c15.47,0,23.12,8.16,23.12,24.65v32c0,15.13-8,22.61-23.8,22.61H87.34c-4.42,0-6.63,2.21-6.63,6.8v10.71H145v32.47Z"/><path class="cls-2" d="M51.71,195.66V139.05c0-15.13,7.48-22.78,22.61-22.78h34.51c4.59,0,6.8-2.21,6.8-6.8v-3.74c0-4.42-2.21-6.8-6.8-6.8H53.92V66.46h68c15.47,0,23.12,8.16,23.12,24.65v32c0,15.13-8,22.61-23.8,22.61H87.41c-4.42,0-6.63,2.21-6.63,6.8v10.71H145v32.47Z"/><path class="cls-2" d="M51.79,195.59V139c0-15.13,7.48-22.78,22.61-22.78h34.51c4.58,0,6.79-2.21,6.79-6.8v-3.74c0-4.42-2.21-6.8-6.79-6.8H54V66.39h68c15.47,0,23.13,8.16,23.13,24.65v32c0,15.13-8,22.61-23.8,22.61H87.49c-4.42,0-6.63,2.21-6.63,6.8v10.71h64.26v32.47Z"/><path class="cls-2" d="M51.86,195.51V138.9c0-15.13,7.48-22.78,22.61-22.78H109c4.59,0,6.8-2.21,6.8-6.8v-3.74c0-4.42-2.21-6.8-6.8-6.8H54.07V66.31h68c15.47,0,23.12,8.17,23.12,24.65v32c0,15.13-8,22.61-23.8,22.61H87.56c-4.42,0-6.63,2.21-6.63,6.8V163h64.26v32.47Z"/><path class="cls-2" d="M51.93,195.44V138.83c0-15.13,7.48-22.78,22.61-22.78h34.51c4.59,0,6.8-2.21,6.8-6.8v-3.74c0-4.42-2.21-6.8-6.8-6.8H54.14V66.24h68c15.47,0,23.12,8.16,23.12,24.65v32c0,15.13-8,22.61-23.8,22.61H87.63c-4.42,0-6.63,2.21-6.63,6.8V163h64.26v32.47Z"/><path class="cls-2" d="M52,195.37V138.76C52,123.63,59.48,116,74.61,116h34.51c4.59,0,6.8-2.21,6.8-6.8v-3.74c0-4.42-2.21-6.8-6.8-6.8H54.21V66.17h68c15.47,0,23.12,8.16,23.12,24.65v32c0,15.13-8,22.61-23.8,22.61H87.7c-4.42,0-6.63,2.21-6.63,6.8V162.9h64.26v32.47Z"/><path class="cls-2" d="M52.07,195.3V138.69c0-15.13,7.48-22.78,22.61-22.78h34.51c4.59,0,6.8-2.21,6.8-6.8v-3.74c0-4.42-2.21-6.8-6.8-6.8H54.28V66.1h68c15.47,0,23.12,8.16,23.12,24.65v32c0,15.13-8,22.61-23.8,22.61H87.77c-4.42,0-6.63,2.21-6.63,6.8v10.71H145.4V195.3Z"/><path class="cls-2" d="M52.15,195.23V138.62c0-15.13,7.48-22.78,22.61-22.78h34.51c4.58,0,6.79-2.21,6.79-6.8V105.3c0-4.42-2.21-6.8-6.79-6.8H54.36V66h68c15.47,0,23.13,8.16,23.13,24.65v32c0,15.13-8,22.61-23.8,22.61H87.85c-4.42,0-6.63,2.21-6.63,6.8v10.71h64.26v32.47Z"/><path class="cls-2" d="M52.22,195.15V138.54c0-15.13,7.48-22.78,22.61-22.78h34.51c4.59,0,6.8-2.21,6.8-6.8v-3.74c0-4.42-2.21-6.8-6.8-6.8H54.43V66h68c15.47,0,23.12,8.17,23.12,24.65v32c0,15.13-8,22.61-23.8,22.61H87.92c-4.42,0-6.63,2.21-6.63,6.8v10.71h64.26v32.47Z"/><path class="cls-2" d="M52.29,195.08V138.47c0-15.13,7.48-22.78,22.61-22.78h34.51c4.59,0,6.8-2.21,6.8-6.8v-3.74c0-4.42-2.21-6.8-6.8-6.8H54.5V65.88h68c15.47,0,23.12,8.16,23.12,24.65v32c0,15.13-8,22.61-23.8,22.61H88c-4.42,0-6.63,2.21-6.63,6.8v10.71h64.26v32.47Z"/><path class="cls-2" d="M52.36,195V138.4c0-15.13,7.48-22.78,22.61-22.78h34.51c4.59,0,6.8-2.21,6.8-6.8v-3.74c0-4.42-2.21-6.8-6.8-6.8H54.57V65.81h68c15.47,0,23.12,8.16,23.12,24.65v32c0,15.13-8,22.61-23.8,22.61H88.06c-4.42,0-6.63,2.21-6.63,6.8v10.71h64.26V195Z"/><path class="cls-2" d="M52.43,194.94V138.33c0-15.13,7.48-22.78,22.61-22.78h34.51c4.59,0,6.8-2.21,6.8-6.8V105c0-4.42-2.21-6.8-6.8-6.8H54.64V65.74h68c15.47,0,23.12,8.16,23.12,24.65v32c0,15.13-8,22.61-23.8,22.61H88.13c-4.42,0-6.63,2.21-6.63,6.8v10.71h64.26v32.47Z"/><path class="cls-2" d="M52.51,194.87V138.26c0-15.13,7.48-22.78,22.61-22.78h34.51c4.58,0,6.79-2.21,6.79-6.8v-3.74c0-4.42-2.21-6.8-6.79-6.8H54.72V65.67h68c15.47,0,23.13,8.16,23.13,24.65v32c0,15.13-8,22.61-23.8,22.61H88.21c-4.42,0-6.63,2.21-6.63,6.8V162.4h64.26v32.47Z"/><path class="cls-2" d="M52.58,194.79V138.18c0-15.13,7.48-22.78,22.61-22.78H109.7c4.59,0,6.8-2.21,6.8-6.8v-3.74c0-4.42-2.21-6.8-6.8-6.8H54.79V65.59h68c15.47,0,23.12,8.17,23.12,24.65v32c0,15.13-8,22.61-23.8,22.61H88.28c-4.42,0-6.63,2.21-6.63,6.8v10.71h64.26v32.47Z"/><path class="cls-2" d="M52.65,194.72V138.11c0-15.13,7.48-22.78,22.61-22.78h34.51c4.59,0,6.8-2.21,6.8-6.8v-3.74c0-4.42-2.21-6.8-6.8-6.8H54.86V65.52h68c15.47,0,23.12,8.16,23.12,24.65v32c0,15.13-8,22.61-23.8,22.61H88.35c-4.42,0-6.63,2.21-6.63,6.8v10.71H146v32.47Z"/><path class="cls-2" d="M52.72,194.65V138c0-15.13,7.48-22.78,22.61-22.78h34.51c4.59,0,6.8-2.21,6.8-6.8v-3.74c0-4.42-2.21-6.8-6.8-6.8H54.93V65.45h68c15.47,0,23.12,8.16,23.12,24.65v32c0,15.13-8,22.61-23.8,22.61H88.42c-4.42,0-6.63,2.21-6.63,6.8v10.71h64.26v32.47Z"/><path class="cls-2" d="M52.79,194.58V138c0-15.13,7.48-22.78,22.61-22.78h34.51c4.59,0,6.8-2.21,6.8-6.8v-3.74c0-4.42-2.21-6.8-6.8-6.8H55V65.38h68c15.47,0,23.12,8.16,23.12,24.65v32c0,15.13-8,22.61-23.8,22.61H88.49c-4.42,0-6.63,2.21-6.63,6.8v10.71h64.26v32.47Z"/><path class="cls-2" d="M52.87,194.51V137.9c0-15.13,7.48-22.78,22.61-22.78H110c4.58,0,6.79-2.21,6.79-6.8v-3.74c0-4.42-2.21-6.8-6.79-6.8H55.08V65.31h68c15.47,0,23.13,8.16,23.13,24.65v32c0,15.13-8,22.61-23.8,22.61H88.57c-4.42,0-6.63,2.21-6.63,6.8V162H146.2v32.47Z"/><path class="cls-2" d="M52.94,194.43V137.82c0-15.13,7.48-22.78,22.61-22.78h34.51c4.59,0,6.8-2.21,6.8-6.8V104.5c0-4.42-2.21-6.8-6.8-6.8H55.15V65.23h68c15.47,0,23.12,8.17,23.12,24.65v32c0,15.13-8,22.61-23.8,22.61H88.64c-4.42,0-6.63,2.21-6.63,6.8V162h64.26v32.47Z"/><path class="cls-2" d="M53,194.36V137.75C53,122.62,60.49,115,75.62,115h34.51c4.59,0,6.8-2.21,6.8-6.8v-3.74c0-4.42-2.21-6.8-6.8-6.8H55.22V65.16h68c15.47,0,23.12,8.16,23.12,24.65v32c0,15.13-8,22.61-23.8,22.61H88.71c-4.42,0-6.63,2.21-6.63,6.8v10.71h64.26v32.47Z"/><path class="cls-2" d="M53.08,194.29V137.68c0-15.13,7.48-22.78,22.61-22.78H110.2c4.59,0,6.8-2.21,6.8-6.8v-3.74c0-4.42-2.21-6.8-6.8-6.8H55.29V65.09h68c15.47,0,23.12,8.16,23.12,24.65v32c0,15.13-8,22.61-23.8,22.61H88.78c-4.42,0-6.63,2.21-6.63,6.8v10.71h64.26v32.47Z"/><path class="cls-2" d="M53.15,194.22V137.61c0-15.13,7.48-22.78,22.61-22.78h34.51c4.59,0,6.8-2.21,6.8-6.8v-3.74c0-4.42-2.21-6.8-6.8-6.8H55.36V65h68c15.47,0,23.12,8.16,23.12,24.65v32c0,15.13-8,22.61-23.8,22.61H88.85c-4.42,0-6.63,2.21-6.63,6.8v10.71h64.26v32.47Z"/><path class="cls-2" d="M53.23,194.15V137.54c0-15.13,7.48-22.78,22.61-22.78h34.51c4.58,0,6.79-2.21,6.79-6.8v-3.74c0-4.42-2.21-6.8-6.79-6.8H55.44V65h68c15.47,0,23.13,8.16,23.13,24.65v32c0,15.13-8,22.61-23.8,22.61H88.93c-4.42,0-6.63,2.21-6.63,6.8v10.71h64.26v32.47Z"/><path class="cls-2" d="M53.3,194.07V137.46c0-15.13,7.48-22.78,22.61-22.78h34.51c4.59,0,6.8-2.21,6.8-6.8v-3.74c0-4.42-2.21-6.8-6.8-6.8H55.51V64.87h68c15.47,0,23.12,8.17,23.12,24.65v32c0,15.13-8,22.61-23.8,22.61H89c-4.42,0-6.63,2.21-6.63,6.8V161.6h64.26v32.47Z"/><path class="cls-2" d="M53.37,194V137.39c0-15.13,7.48-22.78,22.61-22.78h34.51c4.59,0,6.8-2.21,6.8-6.8v-3.74c0-4.42-2.21-6.8-6.8-6.8H55.58V64.8h68c15.47,0,23.12,8.16,23.12,24.65v32c0,15.13-8,22.61-23.8,22.61H89.07c-4.42,0-6.63,2.21-6.63,6.8v10.71H146.7V194Z"/><path class="cls-2" d="M53.44,193.93V137.32c0-15.13,7.48-22.78,22.61-22.78h34.51c4.59,0,6.8-2.21,6.8-6.8V104c0-4.42-2.21-6.8-6.8-6.8H55.65V64.73h68c15.47,0,23.12,8.16,23.12,24.65v32c0,15.13-8,22.61-23.8,22.61H89.14c-4.42,0-6.63,2.21-6.63,6.8v10.71h64.26v32.47Z"/><path class="cls-2" d="M53.51,193.86V137.25c0-15.13,7.48-22.78,22.61-22.78h34.51c4.59,0,6.8-2.21,6.8-6.8v-3.74c0-4.42-2.21-6.8-6.8-6.8H55.72V64.66h68c15.47,0,23.12,8.16,23.12,24.65v32c0,15.13-8,22.61-23.8,22.61H89.21c-4.42,0-6.63,2.21-6.63,6.8v10.71h64.26v32.47Z"/><path class="cls-2" d="M53.59,193.79V137.18c0-15.13,7.48-22.78,22.61-22.78h34.51c4.58,0,6.79-2.21,6.79-6.8v-3.74c0-4.42-2.21-6.8-6.79-6.8H55.8V64.59h68c15.47,0,23.13,8.16,23.13,24.65v32c0,15.13-8,22.61-23.8,22.61H89.29c-4.42,0-6.63,2.21-6.63,6.8v10.71h64.26v32.47Z"/><path class="cls-2" d="M53.66,193.71V137.1c0-15.13,7.48-22.78,22.61-22.78h34.51c4.59,0,6.8-2.21,6.8-6.8v-3.74c0-4.42-2.21-6.8-6.8-6.8H55.87V64.51h68c15.47,0,23.12,8.17,23.12,24.65v32c0,15.13-8,22.61-23.8,22.61H89.36c-4.42,0-6.63,2.21-6.63,6.8v10.71H147v32.47Z"/><path class="cls-2" d="M53.73,193.64V137c0-15.13,7.48-22.78,22.61-22.78h34.51c4.59,0,6.8-2.21,6.8-6.8v-3.74c0-4.42-2.21-6.8-6.8-6.8H55.94V64.44h68c15.47,0,23.12,8.16,23.12,24.65v32c0,15.13-8,22.61-23.8,22.61H89.43c-4.42,0-6.63,2.21-6.63,6.8v10.71h64.26v32.47Z"/><path class="cls-2" d="M53.8,193.57V137c0-15.13,7.48-22.78,22.61-22.78h34.51c4.59,0,6.8-2.21,6.8-6.8v-3.74c0-4.42-2.21-6.8-6.8-6.8H56V64.37h68c15.47,0,23.12,8.16,23.12,24.65v32c0,15.13-8,22.61-23.8,22.61H89.5c-4.42,0-6.63,2.21-6.63,6.8V161.1h64.26v32.47Z"/><path class="cls-2" d="M53.87,193.5V136.89c0-15.13,7.48-22.78,22.61-22.78H111c4.59,0,6.8-2.21,6.8-6.8v-3.74c0-4.42-2.21-6.8-6.8-6.8H56.08V64.3h68c15.47,0,23.12,8.16,23.12,24.65v32c0,15.13-8,22.61-23.8,22.61H89.57c-4.42,0-6.63,2.21-6.63,6.8V161H147.2V193.5Z"/><path class="cls-2" d="M54,193.43V136.82C54,121.69,61.43,114,76.56,114h34.51c4.58,0,6.79-2.21,6.79-6.8V103.5c0-4.42-2.21-6.8-6.79-6.8H56.16V64.23h68c15.47,0,23.13,8.16,23.13,24.65v32c0,15.13-8,22.61-23.8,22.61H89.65c-4.42,0-6.63,2.21-6.63,6.8V161h64.26v32.47Z"/><path class="cls-2" d="M54,193.35V136.74C54,121.61,61.5,114,76.63,114h34.51c4.59,0,6.8-2.21,6.8-6.8v-3.74c0-4.42-2.21-6.8-6.8-6.8H56.23V64.15h68c15.47,0,23.12,8.17,23.12,24.65v32c0,15.13-8,22.61-23.8,22.61H89.72c-4.42,0-6.63,2.21-6.63,6.8v10.71h64.26v32.47Z"/><path class="cls-2" d="M54.09,193.28V136.67c0-15.13,7.48-22.78,22.61-22.78h34.51c4.59,0,6.8-2.21,6.8-6.8v-3.74c0-4.42-2.21-6.8-6.8-6.8H56.3V64.08h68c15.47,0,23.12,8.16,23.12,24.65v32c0,15.13-8,22.61-23.8,22.61H89.79c-4.42,0-6.63,2.21-6.63,6.8v10.71h64.26v32.47Z"/><path class="cls-2" d="M54.16,193.21V136.6c0-15.13,7.48-22.78,22.61-22.78h34.51c4.59,0,6.8-2.21,6.8-6.8v-3.74c0-4.42-2.21-6.8-6.8-6.8H56.37V64h68c15.47,0,23.12,8.16,23.12,24.65v32c0,15.13-8,22.61-23.8,22.61H89.86c-4.42,0-6.63,2.21-6.63,6.8v10.71h64.26v32.47Z"/><path class="cls-2" d="M54.23,193.14V136.53c0-15.13,7.48-22.78,22.61-22.78h34.51c4.59,0,6.8-2.21,6.8-6.8v-3.74c0-4.42-2.21-6.8-6.8-6.8H56.44V63.94h68c15.47,0,23.12,8.16,23.12,24.65v32c0,15.13-8,22.61-23.8,22.61H89.93c-4.42,0-6.63,2.21-6.63,6.8v10.71h64.26v32.47Z"/><path class="cls-2" d="M54.31,193.07V136.46c0-15.13,7.48-22.78,22.61-22.78h34.51c4.58,0,6.79-2.21,6.79-6.8v-3.74c0-4.42-2.21-6.8-6.79-6.8H56.52V63.87h68c15.47,0,23.13,8.16,23.13,24.65v32c0,15.13-8,22.61-23.8,22.61H90c-4.42,0-6.63,2.21-6.63,6.8V160.6h64.26v32.47Z"/><path class="cls-2" d="M54.38,193V136.38c0-15.13,7.48-22.78,22.61-22.78H111.5c4.59,0,6.8-2.21,6.8-6.8v-3.74c0-4.42-2.21-6.8-6.8-6.8H56.59V63.79h68c15.47,0,23.12,8.17,23.12,24.65v32c0,15.13-8,22.61-23.8,22.61H90.08c-4.42,0-6.63,2.21-6.63,6.8v10.71h64.26V193Z"/><path class="cls-2" d="M54.45,192.92V136.31c0-15.13,7.48-22.78,22.61-22.78h34.51c4.59,0,6.8-2.21,6.8-6.8V103c0-4.42-2.21-6.8-6.8-6.8H56.66V63.72h68c15.47,0,23.12,8.16,23.12,24.65v32c0,15.13-8,22.61-23.8,22.61H90.15c-4.42,0-6.63,2.21-6.63,6.8v10.71h64.26v32.47Z"/><path class="cls-2" d="M54.52,192.85V136.24c0-15.13,7.48-22.78,22.61-22.78h34.51c4.59,0,6.8-2.21,6.8-6.8v-3.74c0-4.42-2.21-6.8-6.8-6.8H56.73V63.65h68c15.47,0,23.12,8.16,23.12,24.65v32c0,15.13-8,22.61-23.8,22.61H90.22c-4.42,0-6.63,2.21-6.63,6.8v10.71h64.26v32.47Z"/><path class="cls-2" d="M54.59,192.78V136.17c0-15.13,7.48-22.78,22.61-22.78h34.51c4.59,0,6.8-2.21,6.8-6.8v-3.74c0-4.42-2.21-6.8-6.8-6.8H56.8V63.58h68c15.47,0,23.12,8.16,23.12,24.65v32c0,15.13-8,22.61-23.8,22.61H90.29c-4.42,0-6.63,2.21-6.63,6.8v10.71h64.26v32.47Z"/><path class="cls-2" d="M54.67,192.71V136.1c0-15.13,7.48-22.78,22.61-22.78h34.51c4.58,0,6.79-2.21,6.79-6.8v-3.74c0-4.42-2.21-6.8-6.79-6.8H56.88V63.51h68c15.47,0,23.13,8.16,23.13,24.65v32c0,15.13-8,22.61-23.8,22.61H90.37c-4.42,0-6.63,2.21-6.63,6.8v10.71H148v32.47Z"/><path class="cls-2" d="M54.74,192.63V136c0-15.13,7.48-22.78,22.61-22.78h34.51c4.59,0,6.8-2.21,6.8-6.8V102.7c0-4.42-2.21-6.8-6.8-6.8H57V63.43h68c15.47,0,23.12,8.17,23.12,24.65v32c0,15.13-8,22.61-23.8,22.61H90.44c-4.42,0-6.63,2.21-6.63,6.8v10.71h64.26v32.47Z"/><path class="cls-2" d="M54.81,192.56V136c0-15.13,7.48-22.78,22.61-22.78h34.51c4.59,0,6.8-2.21,6.8-6.8v-3.74c0-4.42-2.21-6.8-6.8-6.8H57V63.36h68c15.47,0,23.12,8.16,23.12,24.65v32c0,15.13-8,22.61-23.8,22.61H90.51c-4.42,0-6.63,2.21-6.63,6.8v10.71h64.26v32.47Z"/><path class="cls-2" d="M54.88,192.49V135.88c0-15.13,7.48-22.78,22.61-22.78H112c4.59,0,6.8-2.21,6.8-6.8v-3.74c0-4.42-2.21-6.8-6.8-6.8H57.09V63.29h68c15.47,0,23.12,8.16,23.12,24.65v32c0,15.13-8,22.61-23.8,22.61H90.58c-4.42,0-6.63,2.21-6.63,6.8V160h64.26v32.47Z"/><path class="cls-2" d="M55,192.42V135.81C55,120.68,62.43,113,77.56,113h34.51c4.59,0,6.8-2.21,6.8-6.8v-3.74c0-4.42-2.21-6.8-6.8-6.8H57.16V63.22h68c15.47,0,23.12,8.16,23.12,24.65v32c0,15.13-8,22.61-23.8,22.61H90.65c-4.42,0-6.63,2.21-6.63,6.8V160h64.26v32.47Z"/><path class="cls-2" d="M55,192.35V135.74C55,120.61,62.51,113,77.64,113h34.51c4.58,0,6.79-2.21,6.79-6.8v-3.74c0-4.42-2.21-6.8-6.79-6.8H57.24V63.15h68c15.47,0,23.13,8.16,23.13,24.65v32c0,15.13-8,22.61-23.8,22.61H90.73c-4.42,0-6.63,2.21-6.63,6.8v10.71h64.26v32.47Z"/><path class="cls-2" d="M55.1,192.27V135.66c0-15.13,7.48-22.78,22.61-22.78h34.51c4.59,0,6.8-2.21,6.8-6.8v-3.74c0-4.42-2.21-6.8-6.8-6.8H57.31V63.07h68c15.47,0,23.12,8.17,23.12,24.65v32c0,15.13-8,22.61-23.8,22.61H90.8c-4.42,0-6.63,2.21-6.63,6.8V159.8h64.26v32.47Z"/><path class="cls-2" d="M55.17,192.2V135.59c0-15.13,7.48-22.78,22.61-22.78h34.51c4.59,0,6.8-2.21,6.8-6.8v-3.74c0-4.42-2.21-6.8-6.8-6.8H57.38V63h68c15.47,0,23.12,8.16,23.12,24.65v32c0,15.13-8,22.61-23.8,22.61H90.87c-4.42,0-6.63,2.21-6.63,6.8v10.71H148.5V192.2Z"/><path class="cls-2" d="M55.24,192.13V135.52c0-15.13,7.48-22.78,22.61-22.78h34.51c4.59,0,6.8-2.21,6.8-6.8V102.2c0-4.42-2.21-6.8-6.8-6.8H57.45V62.93h68c15.47,0,23.12,8.16,23.12,24.65v32c0,15.13-8,22.61-23.8,22.61H90.94c-4.42,0-6.63,2.21-6.63,6.8v10.71h64.26v32.47Z"/><path class="cls-2" d="M55.31,192.06V135.45c0-15.13,7.48-22.78,22.61-22.78h34.51c4.59,0,6.8-2.21,6.8-6.8v-3.74c0-4.42-2.21-6.8-6.8-6.8H57.52V62.86h68c15.47,0,23.12,8.16,23.12,24.65v32c0,15.13-8,22.61-23.8,22.61H91c-4.42,0-6.63,2.21-6.63,6.8v10.71h64.26v32.47Z"/><path class="cls-2" d="M55.39,192V135.38c0-15.13,7.48-22.78,22.61-22.78h34.51c4.58,0,6.79-2.21,6.79-6.8v-3.74c0-4.42-2.21-6.8-6.79-6.8H57.6V62.79h68c15.47,0,23.13,8.16,23.13,24.65v32c0,15.13-8,22.61-23.8,22.61H91.09c-4.42,0-6.63,2.21-6.63,6.8v10.71h64.26V192Z"/><path class="cls-2" d="M55.46,191.91V135.3c0-15.13,7.48-22.78,22.61-22.78h34.51c4.59,0,6.8-2.21,6.8-6.8V102c0-4.42-2.21-6.8-6.8-6.8H57.67V62.71h68c15.47,0,23.12,8.17,23.12,24.65v32c0,15.13-8,22.61-23.8,22.61H91.16c-4.42,0-6.63,2.21-6.63,6.8v10.71h64.26v32.47Z"/><path class="cls-2" d="M55.53,191.84V135.23c0-15.13,7.48-22.78,22.61-22.78h34.51c4.59,0,6.8-2.21,6.8-6.8v-3.74c0-4.42-2.21-6.8-6.8-6.8H57.74V62.64h68c15.47,0,23.12,8.16,23.12,24.65v32c0,15.13-8,22.61-23.8,22.61H91.23c-4.42,0-6.63,2.21-6.63,6.8v10.71h64.26v32.47Z"/><path class="cls-2" d="M55.6,191.77V135.16c0-15.13,7.48-22.78,22.61-22.78h34.51c4.59,0,6.8-2.21,6.8-6.8v-3.74c0-4.42-2.21-6.8-6.8-6.8H57.81V62.57h68c15.47,0,23.12,8.16,23.12,24.65v32c0,15.13-8,22.61-23.8,22.61H91.3c-4.42,0-6.63,2.21-6.63,6.8V159.3h64.26v32.47Z"/><path class="cls-2" d="M55.67,191.7V135.09c0-15.13,7.48-22.78,22.61-22.78h34.51c4.59,0,6.8-2.21,6.8-6.8v-3.74c0-4.42-2.21-6.8-6.8-6.8H57.88V62.5h68c15.47,0,23.12,8.16,23.12,24.65v32c0,15.13-8,22.61-23.8,22.61H91.37c-4.42,0-6.63,2.21-6.63,6.8v10.71H149V191.7Z"/><path class="cls-2" d="M55.75,191.63V135c0-15.13,7.48-22.78,22.61-22.78h34.51c4.58,0,6.79-2.21,6.79-6.8V101.7c0-4.42-2.21-6.8-6.79-6.8H58V62.43h68c15.47,0,23.13,8.16,23.13,24.65v32c0,15.13-8,22.61-23.8,22.61H91.45c-4.42,0-6.63,2.21-6.63,6.8v10.71h64.26v32.47Z"/><path class="cls-2" d="M55.82,191.55V134.94c0-15.13,7.48-22.78,22.61-22.78h34.51c4.59,0,6.8-2.21,6.8-6.8v-3.74c0-4.42-2.21-6.8-6.8-6.8H58V62.35h68c15.47,0,23.12,8.17,23.12,24.65v32c0,15.13-8,22.61-23.8,22.61H91.52c-4.42,0-6.63,2.21-6.63,6.8v10.71h64.26v32.47Z"/><path class="cls-2" d="M55.89,191.48V134.87c0-15.13,7.48-22.78,22.61-22.78H113c4.59,0,6.8-2.21,6.8-6.8v-3.74c0-4.42-2.21-6.8-6.8-6.8H58.1V62.28h68c15.47,0,23.12,8.16,23.12,24.65v32c0,15.13-8,22.61-23.8,22.61H91.59c-4.42,0-6.63,2.21-6.63,6.8V159h64.26v32.47Z"/><path class="cls-2" d="M56,191.41V134.8C56,119.67,63.44,112,78.57,112h34.51c4.59,0,6.8-2.21,6.8-6.8v-3.74c0-4.42-2.21-6.8-6.8-6.8H58.17V62.21h68c15.47,0,23.12,8.16,23.12,24.65v32c0,15.13-8,22.61-23.8,22.61H91.66c-4.42,0-6.63,2.21-6.63,6.8v10.71h64.26v32.47Z"/><path class="cls-2" d="M56,191.34V134.73C56,119.6,63.51,112,78.64,112h34.51c4.59,0,6.8-2.21,6.8-6.8v-3.74c0-4.42-2.21-6.8-6.8-6.8H58.24V62.14h68c15.47,0,23.12,8.16,23.12,24.65v32c0,15.13-8,22.61-23.8,22.61H91.73c-4.42,0-6.63,2.21-6.63,6.8v10.71h64.26v32.47Z"/><path class="cls-2" d="M56.11,191.27V134.66c0-15.13,7.48-22.78,22.61-22.78h34.51c4.58,0,6.79-2.21,6.79-6.8v-3.74c0-4.42-2.21-6.8-6.79-6.8H58.32V62.07h68c15.47,0,23.13,8.16,23.13,24.65v32c0,15.13-8,22.61-23.8,22.61H91.81c-4.42,0-6.63,2.21-6.63,6.8V158.8h64.26v32.47Z"/><path class="cls-2" d="M56.18,191.19V134.58c0-15.13,7.48-22.78,22.61-22.78H113.3c4.59,0,6.8-2.21,6.8-6.8v-3.74c0-4.42-2.21-6.8-6.8-6.8H58.39V62h68c15.47,0,23.12,8.17,23.12,24.65v32c0,15.13-8,22.61-23.8,22.61H91.88c-4.42,0-6.63,2.21-6.63,6.8v10.71h64.26v32.47Z"/><path class="cls-2" d="M56.25,191.12V134.51c0-15.13,7.48-22.78,22.61-22.78h34.51c4.59,0,6.8-2.21,6.8-6.8v-3.74c0-4.42-2.21-6.8-6.8-6.8H58.46V61.92h68c15.47,0,23.12,8.16,23.12,24.65v32c0,15.13-8,22.61-23.8,22.61H92c-4.42,0-6.63,2.21-6.63,6.8v10.71h64.26v32.47Z"/><path class="cls-2" d="M56.32,191.05V134.44c0-15.13,7.48-22.78,22.61-22.78h34.51c4.59,0,6.8-2.21,6.8-6.8v-3.74c0-4.42-2.21-6.8-6.8-6.8H58.53V61.85h68c15.47,0,23.12,8.16,23.12,24.65v32c0,15.13-8,22.61-23.8,22.61H92c-4.42,0-6.63,2.21-6.63,6.8v10.71h64.26v32.47Z"/><path class="cls-2" d="M56.39,191V134.37c0-15.13,7.48-22.78,22.61-22.78h34.51c4.59,0,6.8-2.21,6.8-6.8v-3.74c0-4.42-2.21-6.8-6.8-6.8H58.6V61.78h68c15.47,0,23.12,8.16,23.12,24.65v32c0,15.13-8,22.61-23.8,22.61H92.09c-4.42,0-6.63,2.21-6.63,6.8v10.71h64.26V191Z"/><path class="cls-2" d="M56.47,190.91V134.3c0-15.13,7.48-22.78,22.61-22.78h34.51c4.58,0,6.79-2.21,6.79-6.8V101c0-4.42-2.21-6.8-6.79-6.8H58.68V61.71h68c15.47,0,23.13,8.16,23.13,24.65v32c0,15.13-8,22.61-23.8,22.61H92.17c-4.42,0-6.63,2.21-6.63,6.8v10.71H149.8v32.47Z"/><path class="cls-2" d="M56.54,190.83V134.22c0-15.13,7.48-22.78,22.61-22.78h34.51c4.59,0,6.8-2.21,6.8-6.8V100.9c0-4.42-2.21-6.8-6.8-6.8H58.75V61.63h68c15.47,0,23.12,8.17,23.12,24.65v32c0,15.13-8,22.61-23.8,22.61H92.24c-4.42,0-6.63,2.21-6.63,6.8v10.71h64.26v32.47Z"/><path class="cls-2" d="M56.61,190.76V134.15c0-15.13,7.48-22.78,22.61-22.78h34.51c4.59,0,6.8-2.21,6.8-6.8v-3.74c0-4.42-2.21-6.8-6.8-6.8H58.82V61.56h68c15.47,0,23.12,8.16,23.12,24.65v32c0,15.13-8,22.61-23.8,22.61H92.31c-4.42,0-6.63,2.21-6.63,6.8v10.71h64.26v32.47Z"/><path class="cls-2" d="M56.68,190.69V134.08c0-15.13,7.48-22.78,22.61-22.78H113.8c4.59,0,6.8-2.21,6.8-6.8v-3.74c0-4.42-2.21-6.8-6.8-6.8H58.89V61.49h68c15.47,0,23.12,8.16,23.12,24.65v32c0,15.13-8,22.61-23.8,22.61H92.38c-4.42,0-6.63,2.21-6.63,6.8v10.71H150v32.47Z"/><path class="cls-2" d="M56.75,190.62V134c0-15.13,7.48-22.78,22.61-22.78h34.51c4.59,0,6.8-2.21,6.8-6.8v-3.74c0-4.42-2.21-6.8-6.8-6.8H59V61.42h68c15.47,0,23.12,8.16,23.12,24.65v32c0,15.13-8,22.61-23.8,22.61H92.45c-4.42,0-6.63,2.21-6.63,6.8v10.71h64.26v32.47Z"/><path class="cls-2" d="M56.83,190.55V133.94c0-15.13,7.48-22.78,22.61-22.78H114c4.58,0,6.79-2.21,6.79-6.8v-3.74c0-4.42-2.21-6.8-6.79-6.8H59V61.35h68c15.47,0,23.13,8.16,23.13,24.65v32c0,15.13-8,22.61-23.8,22.61H92.53c-4.42,0-6.63,2.21-6.63,6.8v10.71h64.26v32.47Z"/><path class="cls-2" d="M56.9,190.47V133.86c0-15.13,7.48-22.78,22.61-22.78H114c4.59,0,6.8-2.21,6.8-6.8v-3.74c0-4.42-2.21-6.8-6.8-6.8H59.11V61.27h68c15.47,0,23.12,8.17,23.12,24.65v32c0,15.13-8,22.61-23.8,22.61H92.6c-4.42,0-6.63,2.21-6.63,6.8V158h64.26v32.47Z"/><path class="cls-2" d="M57,190.4V133.79C57,118.66,64.45,111,79.58,111h34.51c4.59,0,6.8-2.21,6.8-6.8v-3.74c0-4.42-2.21-6.8-6.8-6.8H59.18V61.2h68c15.47,0,23.12,8.16,23.12,24.65v32c0,15.13-8,22.61-23.8,22.61H92.67c-4.42,0-6.63,2.21-6.63,6.8v10.71H150.3V190.4Z"/><path class="cls-2" d="M57,190.33V133.72c0-15.13,7.48-22.78,22.61-22.78h34.51c4.59,0,6.8-2.21,6.8-6.8V100.4c0-4.42-2.21-6.8-6.8-6.8H59.25V61.13h68c15.47,0,23.12,8.16,23.12,24.65v32c0,15.13-8,22.61-23.8,22.61H92.74c-4.42,0-6.63,2.21-6.63,6.8v10.71h64.26v32.47Z"/><path class="cls-2" d="M57.11,190.26V133.65c0-15.13,7.48-22.78,22.61-22.78h34.51c4.59,0,6.8-2.21,6.8-6.8v-3.74c0-4.42-2.21-6.8-6.8-6.8H59.32V61.06h68c15.47,0,23.12,8.16,23.12,24.65v32c0,15.13-8,22.61-23.8,22.61H92.81c-4.42,0-6.63,2.21-6.63,6.8v10.71h64.26v32.47Z"/><path class="cls-2" d="M57.19,190.19V133.58c0-15.13,7.48-22.78,22.61-22.78h34.51c4.58,0,6.79-2.21,6.79-6.8v-3.74c0-4.42-2.21-6.8-6.79-6.8H59.4V61h68c15.47,0,23.13,8.16,23.13,24.65v32c0,15.13-8,22.61-23.8,22.61H92.89c-4.42,0-6.63,2.21-6.63,6.8v10.71h64.26v32.47Z"/><path class="cls-2" d="M57.26,190.11V133.5c0-15.13,7.48-22.78,22.61-22.78h34.51c4.59,0,6.8-2.21,6.8-6.8v-3.74c0-4.42-2.21-6.8-6.8-6.8H59.47V60.91h68c15.47,0,23.12,8.17,23.12,24.65v32c0,15.13-8,22.61-23.8,22.61H93c-4.42,0-6.63,2.21-6.63,6.8v10.71h64.26v32.47Z"/><path class="cls-2" d="M57.33,190V133.43c0-15.13,7.48-22.78,22.61-22.78h34.51c4.59,0,6.8-2.21,6.8-6.8v-3.74c0-4.42-2.21-6.8-6.8-6.8H59.54V60.84h68c15.47,0,23.12,8.16,23.12,24.65v32c0,15.13-8,22.61-23.8,22.61H93c-4.42,0-6.63,2.21-6.63,6.8v10.71h64.26V190Z"/><path class="cls-2" d="M57.4,190V133.36c0-15.13,7.48-22.78,22.61-22.78h34.51c4.59,0,6.8-2.21,6.8-6.8V100c0-4.42-2.21-6.8-6.8-6.8H59.61V60.77h68c15.47,0,23.12,8.16,23.12,24.65v32c0,15.13-8,22.61-23.8,22.61H93.1c-4.42,0-6.63,2.21-6.63,6.8V157.5h64.26V190Z"/><path class="cls-2" d="M57.47,189.9V133.29c0-15.13,7.48-22.78,22.61-22.78h34.51c4.59,0,6.8-2.21,6.8-6.8V100c0-4.42-2.21-6.8-6.8-6.8H59.68V60.7h68c15.47,0,23.12,8.16,23.12,24.65v32c0,15.13-8,22.61-23.8,22.61H93.17c-4.42,0-6.63,2.21-6.63,6.8v10.71H150.8V189.9Z"/><path class="cls-2" d="M57.55,189.83V133.22c0-15.13,7.48-22.78,22.61-22.78h34.51c4.58,0,6.79-2.21,6.79-6.8V99.9c0-4.42-2.21-6.8-6.79-6.8H59.76V60.63h68c15.47,0,23.13,8.16,23.13,24.65v32c0,15.13-8,22.61-23.8,22.61H93.25c-4.42,0-6.63,2.21-6.63,6.8v10.71h64.26v32.47Z"/><path class="cls-2" d="M57.62,189.75V133.14c0-15.13,7.48-22.78,22.61-22.78h34.51c4.59,0,6.8-2.21,6.8-6.8V99.82c0-4.42-2.21-6.8-6.8-6.8H59.83V60.55h68C143.3,60.55,151,68.72,151,85.2v32c0,15.13-8,22.61-23.8,22.61H93.32c-4.42,0-6.63,2.21-6.63,6.8v10.71H151v32.47Z"/><path class="cls-2" d="M57.69,189.68V133.07c0-15.13,7.48-22.78,22.61-22.78h34.51c4.59,0,6.8-2.21,6.8-6.8V99.75c0-4.42-2.21-6.8-6.8-6.8H59.9V60.48h68c15.47,0,23.12,8.16,23.12,24.65v32c0,15.13-8,22.61-23.8,22.61H93.39c-4.42,0-6.63,2.21-6.63,6.8v10.71H151v32.47Z"/><path class="cls-2" d="M57.76,189.61V133c0-15.13,7.48-22.78,22.61-22.78h34.51c4.59,0,6.8-2.21,6.8-6.8V99.68c0-4.42-2.21-6.8-6.8-6.8H60V60.41h68c15.47,0,23.12,8.16,23.12,24.65v32c0,15.13-8,22.61-23.8,22.61H93.46c-4.42,0-6.63,2.21-6.63,6.8v10.71h64.26v32.47Z"/><path class="cls-2" d="M57.83,189.54V132.93c0-15.13,7.48-22.78,22.61-22.78H115c4.59,0,6.8-2.21,6.8-6.8V99.61c0-4.42-2.21-6.8-6.8-6.8H60V60.34h68c15.47,0,23.12,8.16,23.12,24.65v32c0,15.13-8,22.61-23.8,22.61H93.53c-4.42,0-6.63,2.21-6.63,6.8v10.71h64.26v32.47Z"/><path class="cls-2" d="M57.91,189.47V132.86c0-15.13,7.48-22.78,22.61-22.78H115c4.58,0,6.79-2.21,6.79-6.8V99.54c0-4.42-2.21-6.8-6.79-6.8H60.12V60.27h68c15.47,0,23.13,8.16,23.13,24.65v32c0,15.13-8,22.61-23.8,22.61H93.61c-4.42,0-6.63,2.21-6.63,6.8V157h64.26v32.47Z"/><path class="cls-2" d="M58,189.39V132.78C58,117.65,65.46,110,80.59,110H115.1c4.59,0,6.8-2.21,6.8-6.8V99.46c0-4.42-2.21-6.8-6.8-6.8H60.19V60.19h68c15.47,0,23.12,8.17,23.12,24.65v32c0,15.13-8,22.61-23.8,22.61H93.68c-4.42,0-6.63,2.21-6.63,6.8v10.71h64.26v32.47Z"/><path class="cls-2" d="M58.05,189.32V132.71c0-15.13,7.48-22.78,22.61-22.78h34.51c4.59,0,6.8-2.21,6.8-6.8V99.39c0-4.42-2.21-6.8-6.8-6.8H60.26V60.12h68c15.47,0,23.12,8.16,23.12,24.65v32c0,15.13-8,22.61-23.8,22.61H93.75c-4.42,0-6.63,2.21-6.63,6.8v10.71h64.26v32.47Z"/><path class="cls-2" d="M58.12,189.25V132.64c0-15.13,7.48-22.78,22.61-22.78h34.51c4.59,0,6.8-2.21,6.8-6.8V99.32c0-4.42-2.21-6.8-6.8-6.8H60.33V60.05h68c15.47,0,23.12,8.16,23.12,24.65v32c0,15.13-8,22.61-23.8,22.61H93.82c-4.42,0-6.63,2.21-6.63,6.8v10.71h64.26v32.47Z"/><path class="cls-2" d="M58.19,189.18V132.57c0-15.13,7.48-22.78,22.61-22.78h34.51c4.59,0,6.8-2.21,6.8-6.8V99.25c0-4.42-2.21-6.8-6.8-6.8H60.4V60h68c15.47,0,23.12,8.16,23.12,24.65v32c0,15.13-8,22.61-23.8,22.61H93.89c-4.42,0-6.63,2.21-6.63,6.8v10.71h64.26v32.47Z"/><path class="cls-2" d="M58.27,189.11V132.5c0-15.13,7.48-22.78,22.61-22.78h34.51c4.58,0,6.79-2.21,6.79-6.8V99.18c0-4.42-2.21-6.8-6.79-6.8H60.48V59.91h68c15.47,0,23.13,8.16,23.13,24.65v32c0,15.13-8,22.61-23.8,22.61H94c-4.42,0-6.63,2.21-6.63,6.8v10.71H151.6v32.47Z"/><path class="cls-2" d="M58.34,189V132.42c0-15.13,7.48-22.78,22.61-22.78h34.51c4.59,0,6.8-2.21,6.8-6.8V99.1c0-4.42-2.21-6.8-6.8-6.8H60.55V59.83h68c15.47,0,23.12,8.17,23.12,24.65v32c0,15.13-8,22.61-23.8,22.61H94c-4.42,0-6.63,2.21-6.63,6.8v10.71h64.26V189Z"/><path class="cls-2" d="M58.41,189V132.35c0-15.13,7.48-22.78,22.61-22.78h34.51c4.59,0,6.8-2.21,6.8-6.8V99c0-4.42-2.21-6.8-6.8-6.8H60.62V59.76h68c15.47,0,23.12,8.16,23.12,24.65v32c0,15.13-8,22.61-23.8,22.61H94.11c-4.42,0-6.63,2.21-6.63,6.8v10.71h64.26V189Z"/><path class="cls-2" d="M58.48,188.89V132.28c0-15.13,7.48-22.78,22.61-22.78H115.6c4.59,0,6.8-2.21,6.8-6.8V99c0-4.42-2.21-6.8-6.8-6.8H60.69V59.69h68c15.47,0,23.12,8.16,23.12,24.65v32c0,15.13-8,22.61-23.8,22.61H94.18c-4.42,0-6.63,2.21-6.63,6.8v10.71h64.26v32.47Z"/><path class="cls-2" d="M58.55,188.82V132.21c0-15.13,7.48-22.78,22.61-22.78h34.51c4.59,0,6.8-2.21,6.8-6.8V98.89c0-4.42-2.21-6.8-6.8-6.8H60.76V59.62h68c15.47,0,23.12,8.16,23.12,24.65v32c0,15.13-8,22.61-23.8,22.61H94.25c-4.42,0-6.63,2.21-6.63,6.8v10.71h64.26v32.47Z"/><path class="cls-2" d="M58.63,188.75V132.14c0-15.13,7.48-22.78,22.61-22.78h34.51c4.58,0,6.79-2.21,6.79-6.8V98.82c0-4.42-2.21-6.8-6.79-6.8H60.84V59.55h68C144.3,59.55,152,67.71,152,84.2v32c0,15.13-8,22.61-23.8,22.61H94.33c-4.42,0-6.63,2.21-6.63,6.8v10.71H152v32.47Z"/><path class="cls-2" d="M58.7,188.67V132.06c0-15.13,7.48-22.78,22.61-22.78h34.51c4.59,0,6.8-2.21,6.8-6.8V98.74c0-4.42-2.21-6.8-6.8-6.8H60.91V59.47h68c15.47,0,23.12,8.17,23.12,24.65v32c0,15.13-8,22.61-23.8,22.61H94.4c-4.42,0-6.63,2.21-6.63,6.8V156.2H152v32.47Z"/><path class="cls-2" d="M58.77,188.6V132c0-15.13,7.48-22.78,22.61-22.78h34.51c4.59,0,6.8-2.21,6.8-6.8V98.67c0-4.42-2.21-6.8-6.8-6.8H61V59.4h68c15.47,0,23.12,8.16,23.12,24.65v32c0,15.13-8,22.61-23.8,22.61H94.47c-4.42,0-6.63,2.21-6.63,6.8v10.71H152.1V188.6Z"/><path class="cls-2" d="M58.84,188.53V131.92c0-15.13,7.48-22.78,22.61-22.78H116c4.59,0,6.8-2.21,6.8-6.8V98.6c0-4.42-2.21-6.8-6.8-6.8H61.05V59.33h68c15.47,0,23.12,8.16,23.12,24.65v32c0,15.13-8,22.61-23.8,22.61H94.54c-4.42,0-6.63,2.21-6.63,6.8v10.71h64.26v32.47Z"/><path class="cls-2" d="M58.91,188.46V131.85c0-15.13,7.48-22.78,22.61-22.78H116c4.59,0,6.8-2.21,6.8-6.8V98.53c0-4.42-2.21-6.8-6.8-6.8H61.12V59.26h68c15.47,0,23.12,8.16,23.12,24.65v32c0,15.13-8,22.61-23.8,22.61H94.61c-4.42,0-6.63,2.21-6.63,6.8V156h64.26v32.47Z"/><path class="cls-2" d="M59,188.39V131.78C59,116.65,66.47,109,81.6,109h34.51c4.58,0,6.79-2.21,6.79-6.8V98.46c0-4.42-2.21-6.8-6.79-6.8H61.2V59.19h68c15.47,0,23.13,8.16,23.13,24.65v32c0,15.13-8,22.61-23.8,22.61H94.69c-4.42,0-6.63,2.21-6.63,6.8v10.71h64.26v32.47Z"/><path class="cls-2" d="M59.06,188.31V131.7c0-15.13,7.48-22.78,22.61-22.78h34.51c4.59,0,6.8-2.21,6.8-6.8V98.38c0-4.42-2.21-6.8-6.8-6.8H61.27V59.11h68c15.47,0,23.12,8.17,23.12,24.65v32c0,15.13-8,22.61-23.8,22.61H94.76c-4.42,0-6.63,2.21-6.63,6.8v10.71h64.26v32.47Z"/><path class="cls-2" d="M59.13,188.24V131.63c0-15.13,7.48-22.78,22.61-22.78h34.51c4.59,0,6.8-2.21,6.8-6.8V98.31c0-4.42-2.21-6.8-6.8-6.8H61.34V59h68c15.47,0,23.12,8.16,23.12,24.65v32c0,15.13-8,22.61-23.8,22.61H94.83c-4.42,0-6.63,2.21-6.63,6.8v10.71h64.26v32.47Z"/><path class="cls-2" d="M59.2,188.17V131.56c0-15.13,7.48-22.78,22.61-22.78h34.51c4.59,0,6.8-2.21,6.8-6.8V98.24c0-4.42-2.21-6.8-6.8-6.8H61.41V59h68c15.47,0,23.12,8.16,23.12,24.65v32c0,15.13-8,22.61-23.8,22.61H94.9c-4.42,0-6.63,2.21-6.63,6.8V155.7h64.26v32.47Z"/><path class="cls-2" d="M59.27,188.1V131.49c0-15.13,7.48-22.78,22.61-22.78h34.51c4.59,0,6.8-2.21,6.8-6.8V98.17c0-4.42-2.21-6.8-6.8-6.8H61.48V58.9h68c15.47,0,23.12,8.16,23.12,24.65v32c0,15.13-8,22.61-23.8,22.61H95c-4.42,0-6.63,2.21-6.63,6.8v10.71H152.6V188.1Z"/><path class="cls-2" d="M59.35,188V131.42c0-15.13,7.48-22.78,22.61-22.78h34.51c4.58,0,6.79-2.21,6.79-6.8V98.1c0-4.42-2.21-6.8-6.79-6.8H61.56V58.83h68c15.47,0,23.13,8.16,23.13,24.65v32c0,15.13-8,22.61-23.8,22.61H95.05c-4.42,0-6.63,2.21-6.63,6.8v10.71h64.26V188Z"/><path class="cls-2" d="M59.42,188V131.34c0-15.13,7.48-22.78,22.61-22.78h34.51c4.59,0,6.8-2.21,6.8-6.8V98c0-4.42-2.21-6.8-6.8-6.8H61.63V58.75h68c15.47,0,23.12,8.17,23.12,24.65v32c0,15.13-8,22.61-23.8,22.61H95.12c-4.42,0-6.63,2.21-6.63,6.8v10.71h64.26V188Z"/><path class="cls-2" d="M59.49,187.88V131.27c0-15.13,7.48-22.78,22.61-22.78h34.51c4.59,0,6.8-2.21,6.8-6.8V98c0-4.42-2.21-6.8-6.8-6.8H61.7V58.68h68c15.47,0,23.12,8.16,23.12,24.65v32c0,15.13-8,22.61-23.8,22.61H95.19c-4.42,0-6.63,2.21-6.63,6.8v10.71h64.26v32.47Z"/><path class="cls-2" d="M59.56,187.81V131.2c0-15.13,7.48-22.78,22.61-22.78h34.51c4.59,0,6.8-2.21,6.8-6.8V97.88c0-4.42-2.21-6.8-6.8-6.8H61.77V58.61h68c15.47,0,23.12,8.16,23.12,24.65v32c0,15.13-8,22.61-23.8,22.61H95.26c-4.42,0-6.63,2.21-6.63,6.8v10.71h64.26v32.47Z"/><path class="cls-2" d="M59.63,187.74V131.13c0-15.13,7.48-22.78,22.61-22.78h34.51c4.59,0,6.8-2.21,6.8-6.8V97.81c0-4.42-2.21-6.8-6.8-6.8H61.84V58.54h68c15.47,0,23.12,8.16,23.12,24.65v32c0,15.13-8,22.61-23.8,22.61H95.33c-4.42,0-6.63,2.21-6.63,6.8v10.71H153v32.47Z"/><path class="cls-2" d="M59.71,187.67V131.06c0-15.13,7.48-22.78,22.61-22.78h34.51c4.58,0,6.79-2.21,6.79-6.8V97.74c0-4.42-2.21-6.8-6.79-6.8H61.92V58.47h68c15.47,0,23.13,8.16,23.13,24.65v32c0,15.13-8,22.61-23.8,22.61H95.41c-4.42,0-6.63,2.21-6.63,6.8V155.2H153v32.47Z"/><path class="cls-2" d="M59.78,187.59V131c0-15.13,7.48-22.78,22.61-22.78H116.9c4.59,0,6.8-2.21,6.8-6.8V97.66c0-4.42-2.21-6.8-6.8-6.8H62V58.39h68c15.47,0,23.12,8.17,23.12,24.65v32c0,15.13-8,22.61-23.8,22.61H95.48c-4.42,0-6.63,2.21-6.63,6.8v10.71h64.26v32.47Z"/><path class="cls-2" d="M59.85,187.52V130.91c0-15.13,7.48-22.78,22.61-22.78H117c4.59,0,6.8-2.21,6.8-6.8V97.59c0-4.42-2.21-6.8-6.8-6.8H62.06V58.32h68c15.47,0,23.12,8.16,23.12,24.65v32c0,15.13-8,22.61-23.8,22.61H95.55c-4.42,0-6.63,2.21-6.63,6.8v10.71h64.26v32.47Z"/><path class="cls-2" d="M59.92,187.45V130.84c0-15.13,7.48-22.78,22.61-22.78H117c4.59,0,6.8-2.21,6.8-6.8V97.52c0-4.42-2.21-6.8-6.8-6.8H62.13V58.25h68c15.47,0,23.12,8.16,23.12,24.65v32c0,15.13-8,22.61-23.8,22.61H95.62c-4.42,0-6.63,2.21-6.63,6.8V155h64.26v32.47Z"/><path class="cls-2" d="M60,187.38V130.77C60,115.64,67.47,108,82.6,108h34.51c4.59,0,6.8-2.21,6.8-6.8V97.45c0-4.42-2.21-6.8-6.8-6.8H62.2V58.18h68c15.47,0,23.12,8.16,23.12,24.65v32c0,15.13-8,22.61-23.8,22.61H95.69c-4.42,0-6.63,2.21-6.63,6.8v10.71h64.26v32.47Z"/><path class="cls-2" d="M60.07,187.31V130.7c0-15.13,7.48-22.78,22.61-22.78h34.51c4.58,0,6.79-2.21,6.79-6.8V97.38c0-4.42-2.21-6.8-6.79-6.8H62.28V58.11h68c15.47,0,23.13,8.16,23.13,24.65v32c0,15.13-8,22.61-23.8,22.61H95.77c-4.42,0-6.63,2.21-6.63,6.8v10.71H153.4v32.47Z"/><path class="cls-2" d="M60.14,187.23V130.62c0-15.13,7.48-22.78,22.61-22.78h34.51c4.59,0,6.8-2.21,6.8-6.8V97.3c0-4.42-2.21-6.8-6.8-6.8H62.35V58h68c15.47,0,23.12,8.17,23.12,24.65v32c0,15.13-8,22.61-23.8,22.61H95.84c-4.42,0-6.63,2.21-6.63,6.8v10.71h64.26v32.47Z"/><path class="cls-2" d="M60.21,187.16V130.55c0-15.13,7.48-22.78,22.61-22.78h34.51c4.59,0,6.8-2.21,6.8-6.8V97.23c0-4.42-2.21-6.8-6.8-6.8H62.42V58h68c15.47,0,23.12,8.16,23.12,24.65v32c0,15.13-8,22.61-23.8,22.61H95.91c-4.42,0-6.63,2.21-6.63,6.8v10.71h64.26v32.47Z"/><path class="cls-2" d="M60.28,187.09V130.48c0-15.13,7.48-22.78,22.61-22.78H117.4c4.59,0,6.8-2.21,6.8-6.8V97.16c0-4.42-2.21-6.8-6.8-6.8H62.49V57.89h68c15.47,0,23.12,8.16,23.12,24.65v32c0,15.13-8,22.61-23.8,22.61H96c-4.42,0-6.63,2.21-6.63,6.8v10.71h64.26v32.47Z"/><path class="cls-2" d="M60.35,187V130.41c0-15.13,7.48-22.78,22.61-22.78h34.51c4.59,0,6.8-2.21,6.8-6.8V97.09c0-4.42-2.21-6.8-6.8-6.8H62.56V57.82h68c15.47,0,23.12,8.16,23.12,24.65v32c0,15.13-8,22.61-23.8,22.61H96.05c-4.42,0-6.63,2.21-6.63,6.8v10.71h64.26V187Z"/><path class="cls-2" d="M60.43,187V130.34c0-15.13,7.48-22.78,22.61-22.78h34.51c4.58,0,6.79-2.21,6.79-6.8V97c0-4.42-2.21-6.8-6.79-6.8H62.64V57.75h68c15.47,0,23.13,8.16,23.13,24.65v32c0,15.13-8,22.61-23.8,22.61H96.13c-4.42,0-6.63,2.21-6.63,6.8v10.71h64.26V187Z"/><path class="cls-2" d="M60.5,186.87V130.26c0-15.13,7.48-22.78,22.61-22.78h34.51c4.59,0,6.8-2.21,6.8-6.8V96.94c0-4.42-2.21-6.8-6.8-6.8H62.71V57.67h68c15.47,0,23.12,8.17,23.12,24.65v32c0,15.13-8,22.61-23.8,22.61H96.2c-4.42,0-6.63,2.21-6.63,6.8V154.4h64.26v32.47Z"/><path class="cls-2" d="M60.57,186.8V130.19c0-15.13,7.48-22.78,22.61-22.78h34.51c4.59,0,6.8-2.21,6.8-6.8V96.87c0-4.42-2.21-6.8-6.8-6.8H62.78V57.6h68c15.47,0,23.12,8.16,23.12,24.65v32c0,15.13-8,22.61-23.8,22.61H96.27c-4.42,0-6.63,2.21-6.63,6.8v10.71H153.9V186.8Z"/><path class="cls-2" d="M60.64,186.73V130.12c0-15.13,7.48-22.78,22.61-22.78h34.51c4.59,0,6.8-2.21,6.8-6.8V96.8c0-4.42-2.21-6.8-6.8-6.8H62.85V57.53h68c15.47,0,23.12,8.16,23.12,24.65v32c0,15.13-8,22.61-23.8,22.61H96.34c-4.42,0-6.63,2.21-6.63,6.8v10.71H154v32.47Z"/><path class="cls-2" d="M60.71,186.66V130.05c0-15.13,7.48-22.78,22.61-22.78h34.51c4.59,0,6.8-2.21,6.8-6.8V96.73c0-4.42-2.21-6.8-6.8-6.8H62.92V57.46h68c15.47,0,23.12,8.16,23.12,24.65v32c0,15.13-8,22.61-23.8,22.61H96.41c-4.42,0-6.63,2.21-6.63,6.8v10.71H154v32.47Z"/><path class="cls-2" d="M60.79,186.59V130c0-15.13,7.48-22.78,22.61-22.78h34.51c4.58,0,6.79-2.21,6.79-6.8V96.66c0-4.42-2.21-6.8-6.79-6.8H63V57.39h68c15.47,0,23.13,8.16,23.13,24.65v32c0,15.13-8,22.61-23.8,22.61H96.49c-4.42,0-6.63,2.21-6.63,6.8v10.71h64.26v32.47Z"/><path class="cls-2" d="M60.86,186.51V129.9c0-15.13,7.48-22.78,22.61-22.78H118c4.59,0,6.8-2.21,6.8-6.8V96.58c0-4.42-2.21-6.8-6.8-6.8H63.07V57.31h68c15.47,0,23.12,8.17,23.12,24.65v32c0,15.13-8,22.61-23.8,22.61H96.56c-4.42,0-6.63,2.21-6.63,6.8V154h64.26v32.47Z"/><path class="cls-2" d="M60.93,186.44V129.83c0-15.13,7.48-22.78,22.61-22.78h34.51c4.59,0,6.8-2.21,6.8-6.8V96.51c0-4.42-2.21-6.8-6.8-6.8H63.14V57.24h68c15.47,0,23.12,8.16,23.12,24.65v32c0,15.13-8,22.61-23.8,22.61H96.63c-4.42,0-6.63,2.21-6.63,6.8V154h64.26v32.47Z"/><path class="cls-2" d="M61,186.37V129.76C61,114.63,68.48,107,83.61,107h34.51c4.59,0,6.8-2.21,6.8-6.8V96.44c0-4.42-2.21-6.8-6.8-6.8H63.21V57.17h68c15.47,0,23.12,8.16,23.12,24.65v32c0,15.13-8,22.61-23.8,22.61H96.7c-4.42,0-6.63,2.21-6.63,6.8V153.9h64.26v32.47Z"/><path class="cls-2" d="M44.46,145.2V129.72H29V114H44.46V98.64H60.18V114H75.54v15.72H60.18V145.2Z"/><path class="cls-3" d="M16.18,42.56V30.26c0-3.28,1.62-4.94,4.91-4.94h7.49a1.3,1.3,0,0,0,1.48-1.48V23a1.31,1.31,0,0,0-1.48-1.48H16.66v-7H31.42c3.36,0,5,1.77,5,5.36v6.93c0,3.29-1.73,4.91-5.16,4.91H23.93a1.29,1.29,0,0,0-1.44,1.48v2.33h14v7.05Z"/><path class="cls-3" d="M12.59,33.62V30.26H9.23V26.85h3.36V23.51H16v3.34h3.33v3.41H16v3.36Z"/><path class="cls-3" d="M148.92,42.56V30.26c0-3.28,1.63-4.94,4.91-4.94h7.49a1.3,1.3,0,0,0,1.48-1.48V23a1.31,1.31,0,0,0-1.48-1.48H149.4v-7h14.77c3.35,0,5,1.77,5,5.36v6.93c0,3.29-1.74,4.91-5.17,4.91h-7.35a1.29,1.29,0,0,0-1.44,1.48v2.33h14v7.05Z"/><path class="cls-3" d="M145.33,33.62V30.26H142V26.85h3.36V23.51h3.41v3.34h3.34v3.41h-3.34v3.36Z"/><path class="cls-3" d="M163.82,209.44v12.3c0,3.28-1.62,4.94-4.91,4.94h-7.49a1.3,1.3,0,0,0-1.48,1.48V229a1.31,1.31,0,0,0,1.48,1.48h11.92v7.05H148.58c-3.36,0-5-1.78-5-5.36v-6.93c0-3.29,1.73-4.91,5.16-4.91h7.35a1.29,1.29,0,0,0,1.44-1.48v-2.33H143.56v-7.05Z"/><path class="cls-3" d="M167.41,218.38v3.36h3.36v3.41h-3.36v3.34H164v-3.34h-3.33v-3.41H164v-3.36Z"/><path class="cls-3" d="M31.08,209.44v12.3c0,3.28-1.62,4.94-4.91,4.94H18.68a1.3,1.3,0,0,0-1.48,1.48V229a1.31,1.31,0,0,0,1.48,1.48H30.6v7.05H15.83c-3.35,0-5-1.78-5-5.36v-6.93c0-3.29,1.73-4.91,5.16-4.91h7.35a1.29,1.29,0,0,0,1.44-1.48v-2.33H10.82v-7.05Z"/><path class="cls-3" d="M34.67,218.38v3.36H38v3.41H34.67v3.34H31.26v-3.34H27.93v-3.41h3.33v-3.36Z"/></g></svg>