<svg xmlns="http://www.w3.org/2000/svg" viewBox="0 0 180 252"><defs><style>.cls-1{fill:#f7f7f7;}.cls-2,.cls-3{fill:#8dc645;stroke:#4c7f3b;stroke-miterlimit:10;}.cls-2{stroke-width:4px;}</style></defs><g id="STAK"><rect class="cls-1" width="180" height="252" rx="9.92"/><path class="cls-2" d="M29.78,128.17v-19.1H63.89a2.65,2.65,0,0,0,3-3v-5a2.65,2.65,0,0,0-3-3H43.68c-9.3,0-14-4.4-14-13.3V66.67c0-9.7,4.5-14.51,13.5-14.51H82.39V71.27H50a2.65,2.65,0,0,0-3,3v4.9a2.65,2.65,0,0,0,3,3H70.79c8.9,0,13.3,4.5,13.3,13.4v17.8c0,9.9-4.8,14.8-14.5,14.8Z"/><path class="cls-2" d="M105.75,128.17V71.27H88.35V52.16h52V71.27H123v56.9Z"/><path class="cls-2" d="M66.86,210.17V179h-23v31.2H26.66v-62.7c0-8.9,4.7-13.31,14-13.31h29.5c9.3,0,14,4.41,14,13.31v62.7Zm0-54.4a2.65,2.65,0,0,0-3-3h-17a2.65,2.65,0,0,0-3,3V163h23Z"/><path class="cls-2" d="M125.22,210.17l-18.67-37.3v37.3H90.63v-76h15.92v30.41l17-30.41h18.3l-19.5,33,22.63,43Z"/><path class="cls-2" d="M29.86,128.1V109H64a2.65,2.65,0,0,0,3-3v-5a2.65,2.65,0,0,0-3-3H43.76c-9.3,0-14-4.4-14-13.31V66.59c0-9.7,4.5-14.5,13.5-14.5h39.2v19.1H50.06a2.65,2.65,0,0,0-3,3v4.9a2.65,2.65,0,0,0,3,3h20.8c8.9,0,13.3,4.51,13.3,13.41v17.8c0,9.9-4.8,14.8-14.5,14.8Z"/><path class="cls-2" d="M105.83,128.1V71.19H88.42V52.09h52v19.1H123V128.1Z"/><path class="cls-2" d="M66.93,210.1V178.9h-23v31.2H26.73V147.39c0-8.9,4.7-13.3,14-13.3h29.5c9.3,0,14,4.4,14,13.3V210.1Zm0-54.41a2.65,2.65,0,0,0-3-3h-17a2.65,2.65,0,0,0-3,3v7.2h23Z"/><path class="cls-2" d="M125.29,210.1l-18.67-37.3v37.3H90.7v-76h15.92V164.5l17-30.41h18.3l-19.5,33,22.63,43Z"/><path class="cls-2" d="M29.93,128V108.92H64a2.65,2.65,0,0,0,3-3v-5a2.65,2.65,0,0,0-3-3H43.83c-9.3,0-14-4.4-14-13.3V66.52c0-9.7,4.5-14.5,13.5-14.5h39.2v19.1H50.13a2.65,2.65,0,0,0-3,3V79a2.65,2.65,0,0,0,3,3h20.8c8.9,0,13.3,4.5,13.3,13.4v17.8c0,9.91-4.8,14.81-14.5,14.81Z"/><path class="cls-2" d="M105.9,128V71.12H88.5V52h52v19.1H123.1V128Z"/><path class="cls-2" d="M67,210V178.82H44V210H26.8V147.32c0-8.9,4.7-13.3,14-13.3H70.3c9.3,0,14,4.4,14,13.3V210Zm0-54.41a2.65,2.65,0,0,0-3-3H47a2.65,2.65,0,0,0-3,3v7.2H67Z"/><path class="cls-2" d="M125.37,210l-18.68-37.31V210H90.78V134h15.91v30.4l17-30.4H142l-19.51,33,22.63,43Z"/><path class="cls-2" d="M30,128v-19.1H64.1a2.65,2.65,0,0,0,3-3v-5a2.65,2.65,0,0,0-3-3H43.9c-9.3,0-14-4.4-14-13.3V66.45c0-9.7,4.5-14.5,13.5-14.5H82.6v19.1H50.2a2.65,2.65,0,0,0-3,3V79a2.65,2.65,0,0,0,3,3H71c8.9,0,13.3,4.5,13.3,13.4v17.8c0,9.9-4.8,14.8-14.5,14.8Z"/><path class="cls-2" d="M106,128V71.05H88.57V52h52v19.1h-17.4V128Z"/><path class="cls-2" d="M67.07,210v-31.2h-23V210H26.87v-62.7c0-8.9,4.7-13.3,14-13.3h29.5c9.3,0,14,4.4,14,13.3V210Zm0-54.4a2.65,2.65,0,0,0-3-3h-17a2.65,2.65,0,0,0-3,3v7.2h23Z"/><path class="cls-2" d="M125.44,210l-18.68-37.3V210H90.85V134h15.91v30.4l17-30.4h18.31l-19.5,33,22.63,43Z"/><path class="cls-2" d="M30.07,127.88v-19.1h34.1a2.65,2.65,0,0,0,3-3v-5a2.65,2.65,0,0,0-3-3H44c-9.3,0-14-4.4-14-13.3V66.38c0-9.7,4.5-14.5,13.5-14.5h39.2V71H50.27a2.65,2.65,0,0,0-3,3v4.9a2.65,2.65,0,0,0,3,3h20.8c8.9,0,13.3,4.5,13.3,13.4v17.8c0,9.9-4.8,14.8-14.5,14.8Z"/><path class="cls-2" d="M106,127.88V71H88.64V51.88h52V71h-17.4v56.9Z"/><path class="cls-2" d="M67.15,209.88v-31.2h-23v31.2H26.94v-62.7c0-8.9,4.7-13.3,14-13.3H70.45c9.3,0,14,4.4,14,13.3v62.7Zm0-54.4a2.65,2.65,0,0,0-3-3h-17a2.65,2.65,0,0,0-3,3v7.2h23Z"/><path class="cls-2" d="M125.51,209.88l-18.68-37.3v37.3H90.92v-76h15.91v30.4l17-30.4h18.31l-19.5,33,22.63,43Z"/><path class="cls-2" d="M30.14,127.81v-19.1H64.25a2.65,2.65,0,0,0,3-3v-5a2.65,2.65,0,0,0-3-3H44c-9.3,0-14-4.4-14-13.3V66.31c0-9.7,4.5-14.51,13.5-14.51H82.75V70.91H50.34a2.65,2.65,0,0,0-3,3v4.9a2.65,2.65,0,0,0,3,3H71.15c8.9,0,13.3,4.5,13.3,13.4V113c0,9.9-4.8,14.8-14.5,14.8Z"/><path class="cls-2" d="M106.11,127.81V70.91H88.71V51.8h52V70.91H123.31v56.9Z"/><path class="cls-2" d="M67.22,209.81v-31.2h-23v31.2H27v-62.7c0-8.9,4.7-13.31,14-13.31h29.5c9.3,0,14,4.41,14,13.31v62.7Zm0-54.4a2.65,2.65,0,0,0-3-3h-17a2.65,2.65,0,0,0-3,3v7.2h23Z"/><path class="cls-2" d="M125.58,209.81l-18.67-37.3v37.3H91v-76h15.92v30.41l17-30.41h18.3l-19.5,33,22.63,43Z"/><path class="cls-2" d="M30.22,127.74v-19.1h34.1a2.65,2.65,0,0,0,3-3v-5a2.65,2.65,0,0,0-3-3H44.12c-9.3,0-14-4.4-14-13.31V66.23c0-9.7,4.5-14.5,13.5-14.5h39.2v19.1H50.42a2.65,2.65,0,0,0-3,3v4.9a2.65,2.65,0,0,0,3,3h20.8c8.9,0,13.3,4.51,13.3,13.41v17.8c0,9.9-4.8,14.8-14.5,14.8Z"/><path class="cls-2" d="M106.19,127.74V70.83H88.78V51.73h52v19.1h-17.4v56.91Z"/><path class="cls-2" d="M67.29,209.74v-31.2h-23v31.2H27.09V147c0-8.9,4.7-13.3,14-13.3h29.5c9.3,0,14,4.4,14,13.3v62.71Zm0-54.41a2.65,2.65,0,0,0-3-3h-17a2.65,2.65,0,0,0-3,3v7.2h23Z"/><path class="cls-2" d="M125.65,209.74,107,172.44v37.3H91.06v-76H107v30.41l17-30.41h18.3l-19.5,33,22.63,43Z"/><path class="cls-2" d="M30.29,127.67V108.56h34.1a2.65,2.65,0,0,0,3-3v-5a2.65,2.65,0,0,0-3-3H44.19c-9.3,0-14-4.4-14-13.3V66.16c0-9.7,4.5-14.5,13.5-14.5h39.2v19.1H50.49a2.65,2.65,0,0,0-3,3v4.9a2.65,2.65,0,0,0,3,3h20.8c8.9,0,13.3,4.5,13.3,13.4v17.8c0,9.91-4.8,14.81-14.5,14.81Z"/><path class="cls-2" d="M106.26,127.67V70.76H88.86V51.66h52v19.1h-17.4v56.91Z"/><path class="cls-2" d="M67.36,209.67V178.46h-23v31.21H27.16V147c0-8.9,4.7-13.3,14-13.3h29.5c9.3,0,14,4.4,14,13.3v62.71Zm0-54.41a2.65,2.65,0,0,0-3-3h-17a2.65,2.65,0,0,0-3,3v7.2h23Z"/><path class="cls-2" d="M125.73,209.67l-18.68-37.31v37.31H91.14v-76h15.91v30.4l17-30.4h18.31l-19.51,33,22.63,43Z"/><path class="cls-2" d="M30.36,127.59v-19.1h34.1a2.65,2.65,0,0,0,3-3v-5a2.65,2.65,0,0,0-3-3H44.26c-9.3,0-14-4.4-14-13.3V66.09c0-9.7,4.5-14.5,13.5-14.5H83v19.1H50.56a2.65,2.65,0,0,0-3,3v4.9a2.65,2.65,0,0,0,3,3h20.8c8.9,0,13.3,4.5,13.3,13.4v17.8c0,9.9-4.8,14.8-14.5,14.8Z"/><path class="cls-2" d="M106.33,127.59V70.69H88.93V51.59h52v19.1h-17.4v56.9Z"/><path class="cls-2" d="M67.43,209.59v-31.2h-23v31.2H27.23v-62.7c0-8.9,4.7-13.3,14-13.3h29.5c9.3,0,14,4.4,14,13.3v62.7Zm0-54.4a2.65,2.65,0,0,0-3-3h-17a2.65,2.65,0,0,0-3,3v7.2h23Z"/><path class="cls-2" d="M125.8,209.59l-18.68-37.3v37.3H91.21v-76h15.91V164l17-30.4h18.31l-19.5,33,22.63,43Z"/><path class="cls-2" d="M30.43,127.52v-19.1h34.1a2.65,2.65,0,0,0,3-3v-5a2.65,2.65,0,0,0-3-3H44.33c-9.3,0-14-4.4-14-13.3V66c0-9.7,4.5-14.5,13.5-14.5H83v19.1H50.63a2.65,2.65,0,0,0-3,3v4.9a2.65,2.65,0,0,0,3,3h20.8c8.9,0,13.3,4.5,13.3,13.4v17.8c0,9.9-4.8,14.8-14.5,14.8Z"/><path class="cls-2" d="M106.4,127.52V70.62H89V51.52h52v19.1H123.6v56.9Z"/><path class="cls-2" d="M67.51,209.52v-31.2h-23v31.2H27.3v-62.7c0-8.9,4.7-13.3,14-13.3H70.81c9.3,0,14,4.4,14,13.3v62.7Zm0-54.4a2.65,2.65,0,0,0-3-3h-17a2.65,2.65,0,0,0-3,3v7.2h23Z"/><path class="cls-2" d="M125.87,209.52l-18.68-37.3v37.3H91.28v-76h15.91v30.4l17-30.4h18.31l-19.5,33,22.63,43Z"/><path class="cls-2" d="M30.5,127.45v-19.1H64.61a2.65,2.65,0,0,0,3-3v-5a2.65,2.65,0,0,0-3-3H44.4c-9.3,0-14-4.4-14-13.3V66c0-9.7,4.5-14.51,13.5-14.51H83.11V70.55H50.7a2.65,2.65,0,0,0-3,3v4.9a2.65,2.65,0,0,0,3,3H71.51c8.9,0,13.3,4.5,13.3,13.4v17.8c0,9.9-4.8,14.8-14.5,14.8Z"/><path class="cls-2" d="M106.47,127.45V70.55H89.07V51.44h52V70.55H123.67v56.9Z"/><path class="cls-2" d="M67.58,209.45v-31.2h-23v31.2H27.38v-62.7c0-8.9,4.7-13.31,14-13.31h29.5c9.3,0,14,4.41,14,13.31v62.7Zm0-54.4a2.65,2.65,0,0,0-3-3h-17a2.65,2.65,0,0,0-3,3v7.2h23Z"/><path class="cls-2" d="M125.94,209.45l-18.67-37.3v37.3H91.35v-76h15.92v30.41l17-30.41h18.3l-19.5,33,22.63,43Z"/><path class="cls-2" d="M30.58,127.38v-19.1h34.1a2.65,2.65,0,0,0,3-3v-5a2.65,2.65,0,0,0-3-3H44.48c-9.3,0-14-4.4-14-13.31V65.87c0-9.7,4.5-14.5,13.5-14.5h39.2v19.1H50.78a2.65,2.65,0,0,0-3,3v4.9a2.65,2.65,0,0,0,3,3h20.8c8.9,0,13.3,4.51,13.3,13.41v17.8c0,9.9-4.8,14.8-14.5,14.8Z"/><path class="cls-2" d="M106.55,127.38V70.47H89.14V51.37h52v19.1h-17.4v56.91Z"/><path class="cls-2" d="M67.65,209.38v-31.2h-23v31.2H27.45V146.67c0-8.9,4.7-13.3,14-13.3H71c9.3,0,14,4.4,14,13.3v62.71Zm0-54.41a2.65,2.65,0,0,0-3-3h-17a2.65,2.65,0,0,0-3,3v7.2h23Z"/><path class="cls-2" d="M126,209.38l-18.67-37.3v37.3H91.42v-76h15.92v30.41l17-30.41h18.3l-19.5,33,22.63,43Z"/><path class="cls-2" d="M30.65,127.31V108.2h34.1a2.65,2.65,0,0,0,3-3v-5a2.65,2.65,0,0,0-3-3H44.55c-9.3,0-14-4.4-14-13.3V65.8c0-9.7,4.5-14.5,13.5-14.5h39.2V70.4H50.85a2.65,2.65,0,0,0-3,3v4.9a2.65,2.65,0,0,0,3,3h20.8c8.9,0,13.3,4.5,13.3,13.4v17.8c0,9.91-4.8,14.81-14.5,14.81Z"/><path class="cls-2" d="M106.62,127.31V70.4H89.22V51.3h52V70.4h-17.4v56.91Z"/><path class="cls-2" d="M67.72,209.31V178.1h-23v31.21H27.52V146.6c0-8.9,4.7-13.3,14-13.3H71c9.3,0,14,4.4,14,13.3v62.71Zm0-54.41a2.65,2.65,0,0,0-3-3h-17a2.65,2.65,0,0,0-3,3v7.2h23Z"/><path class="cls-2" d="M126.09,209.31,107.41,172v37.31H91.5v-76h15.91v30.4l17-30.4h18.31l-19.51,33,22.63,43Z"/><path class="cls-2" d="M30.72,127.23v-19.1h34.1a2.65,2.65,0,0,0,3-3v-5a2.65,2.65,0,0,0-3-3H44.62c-9.3,0-14-4.4-14-13.3V65.73c0-9.7,4.5-14.5,13.5-14.5h39.2v19.1H50.92a2.65,2.65,0,0,0-3,3v4.9a2.65,2.65,0,0,0,3,3h20.8c8.9,0,13.3,4.5,13.3,13.4v17.8c0,9.9-4.8,14.8-14.5,14.8Z"/><path class="cls-2" d="M106.69,127.23V70.33H89.29V51.23h52v19.1h-17.4v56.9Z"/><path class="cls-2" d="M67.79,209.23V178h-23v31.2H27.59v-62.7c0-8.9,4.7-13.3,14-13.3h29.5c9.3,0,14,4.4,14,13.3v62.7Zm0-54.4a2.65,2.65,0,0,0-3-3h-17a2.65,2.65,0,0,0-3,3V162h23Z"/><path class="cls-2" d="M126.16,209.23l-18.68-37.3v37.3H91.57v-76h15.91v30.4l17-30.4h18.31l-19.5,33,22.63,43Z"/><path class="cls-2" d="M30.79,127.16v-19.1h34.1a2.65,2.65,0,0,0,3-3v-5a2.65,2.65,0,0,0-3-3H44.69c-9.3,0-14-4.4-14-13.3V65.66c0-9.7,4.5-14.5,13.5-14.5h39.2v19.1H51a2.65,2.65,0,0,0-3,3v4.9a2.65,2.65,0,0,0,3,3h20.8c8.9,0,13.3,4.5,13.3,13.4v17.8c0,9.9-4.8,14.8-14.5,14.8Z"/><path class="cls-2" d="M106.76,127.16V70.26H89.36V51.16h52v19.1H124v56.9Z"/><path class="cls-2" d="M67.87,209.16V178h-23v31.2H27.66v-62.7c0-8.9,4.7-13.3,14-13.3H71.17c9.3,0,14,4.4,14,13.3v62.7Zm0-54.4a2.65,2.65,0,0,0-3-3h-17a2.65,2.65,0,0,0-3,3V162h23Z"/><path class="cls-2" d="M126.23,209.16l-18.68-37.3v37.3H91.64v-76h15.91v30.4l17-30.4h18.31l-19.5,33,22.63,43Z"/><path class="cls-2" d="M30.86,127.09V108H65a2.65,2.65,0,0,0,3-3v-5a2.65,2.65,0,0,0-3-3H44.76c-9.3,0-14-4.4-14-13.3V65.59c0-9.7,4.5-14.51,13.5-14.51H83.47V70.19H51.06a2.65,2.65,0,0,0-3,3v4.9a2.65,2.65,0,0,0,3,3H71.87c8.9,0,13.3,4.5,13.3,13.4v17.8c0,9.9-4.8,14.8-14.5,14.8Z"/><path class="cls-2" d="M106.83,127.09V70.19H89.43V51.08h52V70.19H124v56.9Z"/><path class="cls-2" d="M67.94,209.09v-31.2h-23v31.2H27.74v-62.7c0-8.9,4.7-13.31,14-13.31h29.5c9.3,0,14,4.41,14,13.31v62.7Zm0-54.4a2.65,2.65,0,0,0-3-3h-17a2.65,2.65,0,0,0-3,3v7.2h23Z"/><path class="cls-2" d="M126.3,209.09l-18.67-37.3v37.3H91.71v-76h15.92v30.41l17-30.41H143l-19.5,33,22.63,43Z"/><path class="cls-2" d="M30.94,127v-19.1H65a2.65,2.65,0,0,0,3-3v-5a2.65,2.65,0,0,0-3-3H44.84c-9.3,0-14-4.4-14-13.31V65.51c0-9.7,4.5-14.5,13.5-14.5h39.2v19.1H51.14a2.65,2.65,0,0,0-3,3V78a2.65,2.65,0,0,0,3,3h20.8c8.9,0,13.3,4.51,13.3,13.41v17.8c0,9.9-4.8,14.8-14.5,14.8Z"/><path class="cls-2" d="M106.91,127V70.11H89.5V51h52v19.1h-17.4V127Z"/><path class="cls-2" d="M68,209v-31.2H45V209H27.81V146.31c0-8.9,4.7-13.3,14-13.3h29.5c9.3,0,14,4.4,14,13.3V209Zm0-54.41a2.65,2.65,0,0,0-3-3H48a2.65,2.65,0,0,0-3,3v7.2H68Z"/><path class="cls-2" d="M126.37,209l-18.67-37.3V209H91.78V133H107.7v30.41l17-30.41H143l-19.5,33,22.63,43Z"/><path class="cls-2" d="M31,127V107.84h34.1a2.65,2.65,0,0,0,3-3v-5a2.65,2.65,0,0,0-3-3H44.91c-9.3,0-14-4.4-14-13.3V65.44c0-9.7,4.5-14.5,13.5-14.5h39.2V70H51.21a2.65,2.65,0,0,0-3,3v4.9a2.65,2.65,0,0,0,3,3H72c8.9,0,13.3,4.5,13.3,13.4v17.8c0,9.91-4.8,14.81-14.5,14.81Z"/><path class="cls-2" d="M107,127V70H89.58V50.94h52V70h-17.4V127Z"/><path class="cls-2" d="M68.08,209V177.74h-23V209H27.88V146.24c0-8.9,4.7-13.3,14-13.3h29.5c9.3,0,14,4.4,14,13.3V209Zm0-54.41a2.65,2.65,0,0,0-3-3h-17a2.65,2.65,0,0,0-3,3v7.2h23Z"/><path class="cls-2" d="M126.45,209l-18.68-37.31V209H91.86v-76h15.91v30.4l17-30.4H143.1l-19.51,33,22.63,43Z"/><path class="cls-2" d="M31.08,126.87v-19.1h34.1a2.65,2.65,0,0,0,3-3v-5a2.65,2.65,0,0,0-3-3H45c-9.3,0-14-4.4-14-13.3V65.37c0-9.7,4.5-14.5,13.5-14.5h39.2V70H51.28a2.65,2.65,0,0,0-3,3v4.9a2.65,2.65,0,0,0,3,3h20.8c8.9,0,13.3,4.5,13.3,13.4v17.8c0,9.9-4.8,14.8-14.5,14.8Z"/><path class="cls-2" d="M107.05,126.87V70H89.65V50.87h52V70h-17.4v56.9Z"/><path class="cls-2" d="M68.15,208.87v-31.2h-23v31.2H28v-62.7c0-8.9,4.7-13.3,14-13.3h29.5c9.3,0,14,4.4,14,13.3v62.7Zm0-54.4a2.65,2.65,0,0,0-3-3h-17a2.65,2.65,0,0,0-3,3v7.2h23Z"/><path class="cls-2" d="M126.52,208.87l-18.68-37.3v37.3H91.93v-76h15.91v30.4l17-30.4h18.31l-19.5,33,22.63,43Z"/><path class="cls-2" d="M31.15,126.8V107.7h34.1a2.65,2.65,0,0,0,3-3v-5a2.65,2.65,0,0,0-3-3H45.05c-9.3,0-14-4.4-14-13.3V65.3c0-9.7,4.5-14.5,13.5-14.5h39.2V69.9H51.35a2.65,2.65,0,0,0-3,3v4.9a2.65,2.65,0,0,0,3,3h20.8c8.9,0,13.3,4.5,13.3,13.4V112c0,9.9-4.8,14.8-14.5,14.8Z"/><path class="cls-2" d="M107.12,126.8V69.9H89.72V50.8h52V69.9h-17.4v56.9Z"/><path class="cls-2" d="M68.23,208.8V177.6h-23v31.2H28V146.1c0-8.9,4.7-13.3,14-13.3H71.53c9.3,0,14,4.4,14,13.3v62.7Zm0-54.4a2.65,2.65,0,0,0-3-3h-17a2.65,2.65,0,0,0-3,3v7.2h23Z"/><path class="cls-2" d="M126.59,208.8l-18.68-37.3v37.3H92v-76h15.91v30.4l17-30.4h18.31l-19.5,33,22.63,43Z"/><path class="cls-2" d="M31.22,126.73v-19.1H65.33a2.65,2.65,0,0,0,3-3v-5a2.65,2.65,0,0,0-3-3H45.12c-9.3,0-14-4.4-14-13.3V65.23c0-9.7,4.5-14.51,13.5-14.51H83.83V69.83H51.42a2.65,2.65,0,0,0-3,3v4.9a2.65,2.65,0,0,0,3,3H72.23c8.9,0,13.3,4.5,13.3,13.4v17.8c0,9.9-4.8,14.8-14.5,14.8Z"/><path class="cls-2" d="M107.19,126.73V69.83H89.79V50.72h52V69.83H124.39v56.9Z"/><path class="cls-2" d="M68.3,208.73v-31.2h-23v31.2H28.1V146c0-8.9,4.7-13.31,14-13.31H71.6c9.3,0,14,4.41,14,13.31v62.7Zm0-54.4a2.65,2.65,0,0,0-3-3h-17a2.65,2.65,0,0,0-3,3v7.2h23Z"/><path class="cls-2" d="M126.66,208.73,108,171.43v37.3H92.07v-76H108v30.41l17-30.41h18.3l-19.5,33,22.63,43Z"/><path class="cls-2" d="M31.3,126.66v-19.1H65.4a2.65,2.65,0,0,0,3-3v-5a2.65,2.65,0,0,0-3-3H45.2c-9.3,0-14-4.4-14-13.31V65.15c0-9.7,4.5-14.5,13.5-14.5H83.9v19.1H51.5a2.65,2.65,0,0,0-3,3v4.9a2.65,2.65,0,0,0,3,3H72.3c8.9,0,13.3,4.51,13.3,13.41v17.8c0,9.9-4.8,14.8-14.5,14.8Z"/><path class="cls-2" d="M107.27,126.66V69.75H89.86V50.65h52v19.1h-17.4v56.91Z"/><path class="cls-2" d="M68.37,208.66v-31.2h-23v31.2H28.17V146c0-8.9,4.7-13.3,14-13.3h29.5c9.3,0,14,4.4,14,13.3v62.71Zm0-54.41a2.65,2.65,0,0,0-3-3h-17a2.65,2.65,0,0,0-3,3v7.2h23Z"/><path class="cls-2" d="M126.73,208.66l-18.67-37.3v37.3H92.14v-76h15.92v30.41l17-30.41h18.3l-19.5,33,22.63,43Z"/><path class="cls-2" d="M31.37,126.59V107.48h34.1a2.65,2.65,0,0,0,3-3v-5a2.65,2.65,0,0,0-3-3H45.27c-9.3,0-14-4.4-14-13.3V65.08c0-9.7,4.5-14.5,13.5-14.5H84v19.1H51.57a2.65,2.65,0,0,0-3,3v4.9a2.65,2.65,0,0,0,3,3h20.8c8.9,0,13.3,4.5,13.3,13.4v17.8c0,9.91-4.8,14.81-14.5,14.81Z"/><path class="cls-2" d="M107.34,126.59V69.68H89.94V50.58h52v19.1h-17.4v56.91Z"/><path class="cls-2" d="M68.44,208.59V177.38h-23v31.21H28.24V145.88c0-8.9,4.7-13.3,14-13.3h29.5c9.3,0,14,4.4,14,13.3v62.71Zm0-54.41a2.65,2.65,0,0,0-3-3h-17a2.65,2.65,0,0,0-3,3v7.2h23Z"/><path class="cls-2" d="M126.81,208.59l-18.68-37.31v37.31H92.22v-76h15.91V163l17-30.4h18.31l-19.51,33,22.63,43Z"/><path class="cls-2" d="M31.44,126.51v-19.1h34.1a2.65,2.65,0,0,0,3-3v-5a2.65,2.65,0,0,0-3-3H45.34c-9.3,0-14-4.4-14-13.3V65c0-9.7,4.5-14.5,13.5-14.5H84v19.1H51.64a2.65,2.65,0,0,0-3,3v4.9a2.65,2.65,0,0,0,3,3h20.8c8.9,0,13.3,4.5,13.3,13.4v17.8c0,9.9-4.8,14.8-14.5,14.8Z"/><path class="cls-2" d="M107.41,126.51V69.61H90V50.51h52v19.1h-17.4v56.9Z"/><path class="cls-2" d="M68.51,208.51v-31.2h-23v31.2H28.31v-62.7c0-8.9,4.7-13.3,14-13.3h29.5c9.3,0,14,4.4,14,13.3v62.7Zm0-54.4a2.65,2.65,0,0,0-3-3h-17a2.65,2.65,0,0,0-3,3v7.2h23Z"/><path class="cls-2" d="M126.88,208.51l-18.68-37.3v37.3H92.29v-76H108.2v30.4l17-30.4h18.31l-19.5,33,22.63,43Z"/><path class="cls-2" d="M31.51,126.44v-19.1h34.1a2.65,2.65,0,0,0,3-3v-5a2.65,2.65,0,0,0-3-3H45.41c-9.3,0-14-4.4-14-13.3V64.94c0-9.7,4.5-14.5,13.5-14.5h39.2v19.1H51.71a2.65,2.65,0,0,0-3,3v4.9a2.65,2.65,0,0,0,3,3h20.8c8.9,0,13.3,4.5,13.3,13.4v17.8c0,9.9-4.8,14.8-14.5,14.8Z"/><path class="cls-2" d="M107.48,126.44V69.54H90.08V50.44h52v19.1h-17.4v56.9Z"/><path class="cls-2" d="M68.59,208.44v-31.2h-23v31.2H28.38v-62.7c0-8.9,4.7-13.3,14-13.3H71.89c9.3,0,14,4.4,14,13.3v62.7Zm0-54.4a2.65,2.65,0,0,0-3-3h-17a2.65,2.65,0,0,0-3,3v7.2h23Z"/><path class="cls-2" d="M127,208.44l-18.68-37.3v37.3H92.36v-76h15.91v30.4l17-30.4H143.6l-19.5,33,22.63,43Z"/><path class="cls-2" d="M31.58,126.37v-19.1H65.69a2.65,2.65,0,0,0,3-3v-5a2.65,2.65,0,0,0-3-3H45.48c-9.3,0-14-4.4-14-13.3V64.87c0-9.7,4.5-14.51,13.5-14.51H84.19V69.47H51.78a2.65,2.65,0,0,0-3,3v4.9a2.65,2.65,0,0,0,3,3H72.59c8.9,0,13.3,4.5,13.3,13.4v17.8c0,9.9-4.8,14.8-14.5,14.8Z"/><path class="cls-2" d="M107.55,126.37V69.47H90.15V50.36h52V69.47H124.75v56.9Z"/><path class="cls-2" d="M68.66,208.37v-31.2h-23v31.2H28.46v-62.7c0-8.9,4.7-13.31,14-13.31H72c9.3,0,14,4.41,14,13.31v62.7Zm0-54.4a2.65,2.65,0,0,0-3-3h-17a2.65,2.65,0,0,0-3,3v7.2h23Z"/><path class="cls-2" d="M127,208.37l-18.67-37.3v37.3H92.43v-76h15.92v30.41l17-30.41h18.3l-19.5,33,22.63,43Z"/><path class="cls-2" d="M31.66,126.3V107.2h34.1a2.65,2.65,0,0,0,3-3v-5a2.65,2.65,0,0,0-3-3H45.56c-9.3,0-14-4.4-14-13.31V64.79c0-9.7,4.5-14.5,13.5-14.5h39.2v19.1H51.86a2.65,2.65,0,0,0-3,3v4.9a2.65,2.65,0,0,0,3,3h20.8c8.9,0,13.3,4.51,13.3,13.41v17.8c0,9.9-4.8,14.8-14.5,14.8Z"/><path class="cls-2" d="M107.63,126.3V69.39H90.22V50.29h52v19.1h-17.4V126.3Z"/><path class="cls-2" d="M68.73,208.3V177.1h-23v31.2H28.53V145.59c0-8.9,4.7-13.3,14-13.3H72c9.3,0,14,4.4,14,13.3V208.3Zm0-54.41a2.65,2.65,0,0,0-3-3h-17a2.65,2.65,0,0,0-3,3v7.2h23Z"/><path class="cls-2" d="M127.09,208.3,108.42,171v37.3H92.5v-76h15.92V162.7l17-30.41h18.3l-19.5,33,22.63,43Z"/><path class="cls-2" d="M31.73,126.23V107.12h34.1a2.65,2.65,0,0,0,3-3v-5a2.65,2.65,0,0,0-3-3H45.63c-9.3,0-14-4.4-14-13.3V64.72c0-9.7,4.5-14.5,13.5-14.5h39.2v19.1H51.93a2.65,2.65,0,0,0-3,3v4.9a2.65,2.65,0,0,0,3,3h20.8c8.9,0,13.3,4.5,13.3,13.4v17.8c0,9.91-4.8,14.81-14.5,14.81Z"/><path class="cls-2" d="M107.7,126.23V69.32H90.3V50.22h52v19.1H124.9v56.91Z"/><path class="cls-2" d="M68.8,208.23V177h-23v31.21H28.6V145.52c0-8.9,4.7-13.3,14-13.3H72.1c9.3,0,14,4.4,14,13.3v62.71Zm0-54.41a2.65,2.65,0,0,0-3-3h-17a2.65,2.65,0,0,0-3,3V161h23Z"/><path class="cls-2" d="M127.17,208.23l-18.68-37.31v37.31H92.58v-76h15.91v30.4l17-30.4h18.31l-19.51,33,22.63,43Z"/><path class="cls-2" d="M31.8,126.15v-19.1H65.9a2.65,2.65,0,0,0,3-3v-5a2.65,2.65,0,0,0-3-3H45.7c-9.3,0-14-4.4-14-13.3V64.65c0-9.7,4.5-14.5,13.5-14.5H84.4v19.1H52a2.65,2.65,0,0,0-3,3v4.9a2.65,2.65,0,0,0,3,3H72.8c8.9,0,13.3,4.5,13.3,13.4v17.8c0,9.9-4.8,14.8-14.5,14.8Z"/><path class="cls-2" d="M107.77,126.15V69.25H90.37V50.15h52v19.1H125v56.9Z"/><path class="cls-2" d="M68.87,208.15V177h-23v31.2H28.67v-62.7c0-8.9,4.7-13.3,14-13.3h29.5c9.3,0,14,4.4,14,13.3v62.7Zm0-54.4a2.65,2.65,0,0,0-3-3h-17a2.65,2.65,0,0,0-3,3V161h23Z"/><path class="cls-2" d="M127.24,208.15l-18.68-37.3v37.3H92.65v-76h15.91v30.4l17-30.4h18.31l-19.5,33,22.63,43Z"/><path class="cls-2" d="M31.87,126.08V107H66a2.65,2.65,0,0,0,3-3V99a2.65,2.65,0,0,0-3-3H45.77c-9.3,0-14-4.4-14-13.3V64.58c0-9.7,4.5-14.5,13.5-14.5h39.2v19.1H52.07a2.65,2.65,0,0,0-3,3v4.9a2.65,2.65,0,0,0,3,3h20.8c8.9,0,13.3,4.5,13.3,13.4v17.8c0,9.9-4.8,14.8-14.5,14.8Z"/><path class="cls-2" d="M107.84,126.08V69.18H90.44V50.08h52v19.1H125v56.9Z"/><path class="cls-2" d="M69,208.08v-31.2h-23v31.2H28.74v-62.7c0-8.9,4.7-13.3,14-13.3H72.25c9.3,0,14,4.4,14,13.3v62.7Zm0-54.4a2.65,2.65,0,0,0-3-3h-17a2.65,2.65,0,0,0-3,3v7.2H69Z"/><path class="cls-2" d="M127.31,208.08l-18.68-37.3v37.3H92.72v-76h15.91v30.4l17-30.4H144l-19.5,33,22.63,43Z"/><path class="cls-2" d="M31.94,126v-19.1H66.05a2.65,2.65,0,0,0,3-3v-5a2.65,2.65,0,0,0-3-3H45.84c-9.3,0-14-4.4-14-13.3V64.51c0-9.7,4.5-14.51,13.5-14.51H84.55V69.11H52.14a2.65,2.65,0,0,0-3,3V77a2.65,2.65,0,0,0,3,3H73c8.9,0,13.3,4.5,13.3,13.4v17.8c0,9.9-4.8,14.8-14.5,14.8Z"/><path class="cls-2" d="M107.91,126V69.11H90.51V50h52V69.11H125.11V126Z"/><path class="cls-2" d="M69,208v-31.2H46V208H28.82v-62.7c0-8.9,4.7-13.31,14-13.31h29.5c9.3,0,14,4.41,14,13.31V208Zm0-54.4a2.65,2.65,0,0,0-3-3H49a2.65,2.65,0,0,0-3,3v7.2H69Z"/><path class="cls-2" d="M127.38,208l-18.67-37.3V208H92.79V132h15.92v30.41l17-30.41H144l-19.5,33,22.63,43Z"/><path class="cls-2" d="M32,125.94v-19.1h34.1a2.65,2.65,0,0,0,3-3v-5a2.65,2.65,0,0,0-3-3H45.92c-9.3,0-14-4.4-14-13.31V64.43c0-9.7,4.5-14.5,13.5-14.5h39.2V69H52.22a2.65,2.65,0,0,0-3,3v4.9a2.65,2.65,0,0,0,3,3H73c8.9,0,13.3,4.51,13.3,13.41v17.8c0,9.9-4.8,14.8-14.5,14.8Z"/><path class="cls-2" d="M108,125.94V69H90.58V49.93h52V69h-17.4v56.91Z"/><path class="cls-2" d="M69.09,207.94v-31.2h-23v31.2H28.89V145.23c0-8.9,4.7-13.3,14-13.3h29.5c9.3,0,14,4.4,14,13.3v62.71Zm0-54.41a2.65,2.65,0,0,0-3-3h-17a2.65,2.65,0,0,0-3,3v7.2h23Z"/><path class="cls-2" d="M127.45,207.94l-18.67-37.3v37.3H92.86v-76h15.92v30.41l17-30.41h18.3l-19.5,33,22.63,43Z"/><path class="cls-2" d="M32.09,125.87V106.76h34.1a2.65,2.65,0,0,0,3-3v-5a2.65,2.65,0,0,0-3-3H46c-9.3,0-14-4.4-14-13.3V64.36c0-9.7,4.5-14.5,13.5-14.5h39.2V69H52.29a2.65,2.65,0,0,0-3,3v4.9a2.65,2.65,0,0,0,3,3h20.8c8.9,0,13.3,4.5,13.3,13.4v17.8c0,9.91-4.8,14.81-14.5,14.81Z"/><path class="cls-2" d="M108.06,125.87V69H90.66V49.86h52V69h-17.4v56.91Z"/><path class="cls-2" d="M69.16,207.87V176.66h-23v31.21H29V145.16c0-8.9,4.7-13.3,14-13.3h29.5c9.3,0,14,4.4,14,13.3v62.71Zm0-54.41a2.65,2.65,0,0,0-3-3h-17a2.65,2.65,0,0,0-3,3v7.2h23Z"/><path class="cls-2" d="M127.53,207.87l-18.68-37.31v37.31H92.94v-76h15.91v30.4l17-30.4h18.31l-19.51,33,22.63,43Z"/><path class="cls-2" d="M32.16,125.79v-19.1h34.1a2.65,2.65,0,0,0,3-3v-5a2.65,2.65,0,0,0-3-3H46.06c-9.3,0-14-4.4-14-13.3V64.29c0-9.7,4.5-14.5,13.5-14.5h39.2v19.1H52.36a2.65,2.65,0,0,0-3,3v4.9a2.65,2.65,0,0,0,3,3h20.8c8.9,0,13.3,4.5,13.3,13.4V111c0,9.9-4.8,14.8-14.5,14.8Z"/><path class="cls-2" d="M108.13,125.79V68.89H90.73V49.79h52v19.1h-17.4v56.9Z"/><path class="cls-2" d="M69.23,207.79v-31.2h-23v31.2H29v-62.7c0-8.9,4.7-13.3,14-13.3h29.5c9.3,0,14,4.4,14,13.3v62.7Zm0-54.4a2.65,2.65,0,0,0-3-3h-17a2.65,2.65,0,0,0-3,3v7.2h23Z"/><path class="cls-2" d="M127.6,207.79l-18.68-37.3v37.3H93v-76h15.91v30.4l17-30.4h18.31l-19.5,33,22.63,43Z"/><path class="cls-2" d="M32.23,125.72v-19.1h34.1a2.65,2.65,0,0,0,3-3v-5a2.65,2.65,0,0,0-3-3H46.13c-9.3,0-14-4.4-14-13.3V64.22c0-9.7,4.5-14.5,13.5-14.5h39.2v19.1H52.43a2.65,2.65,0,0,0-3,3v4.9a2.65,2.65,0,0,0,3,3h20.8c8.9,0,13.3,4.5,13.3,13.4v17.8c0,9.9-4.8,14.8-14.5,14.8Z"/><path class="cls-2" d="M108.2,125.72V68.82H90.8V49.72h52v19.1H125.4v56.9Z"/><path class="cls-2" d="M69.31,207.72v-31.2h-23v31.2H29.1V145c0-8.9,4.7-13.3,14-13.3H72.61c9.3,0,14,4.4,14,13.3v62.7Zm0-54.4a2.65,2.65,0,0,0-3-3h-17a2.65,2.65,0,0,0-3,3v7.2h23Z"/><path class="cls-2" d="M127.67,207.72,109,170.42v37.3H93.08v-76H109v30.4l17-30.4h18.31l-19.5,33,22.63,43Z"/><path class="cls-2" d="M32.3,125.65v-19.1H66.41a2.65,2.65,0,0,0,3-3v-5a2.65,2.65,0,0,0-3-3H46.2c-9.3,0-14-4.4-14-13.3V64.15c0-9.7,4.5-14.51,13.5-14.51H84.91V68.75H52.5a2.65,2.65,0,0,0-3,3v4.9a2.65,2.65,0,0,0,3,3H73.31c8.9,0,13.3,4.5,13.3,13.4v17.8c0,9.9-4.8,14.8-14.5,14.8Z"/><path class="cls-2" d="M108.27,125.65V68.75H90.87V49.64h52V68.75H125.47v56.9Z"/><path class="cls-2" d="M69.38,207.65v-31.2h-23v31.2H29.18V145c0-8.9,4.7-13.31,14-13.31h29.5c9.3,0,14,4.41,14,13.31v62.7Zm0-54.4a2.65,2.65,0,0,0-3-3h-17a2.65,2.65,0,0,0-3,3v7.2h23Z"/><path class="cls-2" d="M127.74,207.65l-18.67-37.3v37.3H93.15v-76h15.92v30.41l17-30.41h18.3l-19.5,33,22.63,43Z"/><path class="cls-2" d="M32.38,125.58v-19.1h34.1a2.65,2.65,0,0,0,3-3v-5a2.65,2.65,0,0,0-3-3H46.28c-9.3,0-14-4.4-14-13.31V64.07c0-9.7,4.5-14.5,13.5-14.5H85v19.1H52.58a2.65,2.65,0,0,0-3,3v4.9a2.65,2.65,0,0,0,3,3h20.8c8.9,0,13.3,4.51,13.3,13.41v17.8c0,9.9-4.8,14.8-14.5,14.8Z"/><path class="cls-2" d="M108.35,125.58V68.67H90.94V49.57h52v19.1h-17.4v56.91Z"/><path class="cls-2" d="M69.45,207.58v-31.2h-23v31.2H29.25V144.87c0-8.9,4.7-13.3,14-13.3h29.5c9.3,0,14,4.4,14,13.3v62.71Zm0-54.41a2.65,2.65,0,0,0-3-3h-17a2.65,2.65,0,0,0-3,3v7.2h23Z"/><path class="cls-2" d="M127.81,207.58l-18.67-37.3v37.3H93.22v-76h15.92V162l17-30.41h18.3l-19.5,33,22.63,43Z"/><path class="cls-2" d="M32.45,125.51V106.4h34.1a2.65,2.65,0,0,0,3-3v-5a2.65,2.65,0,0,0-3-3H46.35c-9.3,0-14-4.4-14-13.3V64c0-9.7,4.5-14.5,13.5-14.5h39.2V68.6H52.65a2.65,2.65,0,0,0-3,3v4.9a2.65,2.65,0,0,0,3,3h20.8c8.9,0,13.3,4.5,13.3,13.4v17.8c0,9.91-4.8,14.81-14.5,14.81Z"/><path class="cls-2" d="M108.42,125.51V68.6H91V49.5h52V68.6h-17.4v56.91Z"/><path class="cls-2" d="M69.52,207.51V176.3h-23v31.21H29.32V144.8c0-8.9,4.7-13.3,14-13.3h29.5c9.3,0,14,4.4,14,13.3v62.71Zm0-54.41a2.65,2.65,0,0,0-3-3h-17a2.65,2.65,0,0,0-3,3v7.2h23Z"/><path class="cls-2" d="M127.89,207.51,109.21,170.2v37.31H93.3v-76h15.91v30.4l17-30.4h18.31L125,164.5l22.63,43Z"/><path class="cls-2" d="M32.52,125.43v-19.1h34.1a2.65,2.65,0,0,0,3-3v-5a2.65,2.65,0,0,0-3-3H46.42c-9.3,0-14-4.4-14-13.3V63.93c0-9.7,4.5-14.5,13.5-14.5h39.2v19.1H52.72a2.65,2.65,0,0,0-3,3v4.9a2.65,2.65,0,0,0,3,3h20.8c8.9,0,13.3,4.5,13.3,13.4v17.8c0,9.9-4.8,14.8-14.5,14.8Z"/><path class="cls-2" d="M108.49,125.43V68.53H91.09V49.43h52v19.1h-17.4v56.9Z"/><path class="cls-2" d="M69.59,207.43v-31.2h-23v31.2H29.39v-62.7c0-8.9,4.7-13.3,14-13.3h29.5c9.3,0,14,4.4,14,13.3v62.7Zm0-54.4a2.65,2.65,0,0,0-3-3h-17a2.65,2.65,0,0,0-3,3v7.2h23Z"/><path class="cls-2" d="M128,207.43l-18.68-37.3v37.3H93.37v-76h15.91v30.4l17-30.4h18.31l-19.5,33,22.63,43Z"/><path class="cls-2" d="M32.59,125.36v-19.1h34.1a2.65,2.65,0,0,0,3-3v-5a2.65,2.65,0,0,0-3-3H46.49c-9.3,0-14-4.4-14-13.3V63.86c0-9.7,4.5-14.5,13.5-14.5h39.2v19.1H52.79a2.65,2.65,0,0,0-3,3v4.9a2.65,2.65,0,0,0,3,3h20.8c8.9,0,13.3,4.5,13.3,13.4v17.8c0,9.9-4.8,14.8-14.5,14.8Z"/><path class="cls-2" d="M108.56,125.36V68.46H91.16V49.36h52v19.1h-17.4v56.9Z"/><path class="cls-2" d="M69.67,207.36v-31.2h-23v31.2H29.46v-62.7c0-8.9,4.7-13.3,14-13.3H73c9.3,0,14,4.4,14,13.3v62.7Zm0-54.4a2.65,2.65,0,0,0-3-3h-17a2.65,2.65,0,0,0-3,3v7.2h23Z"/><path class="cls-2" d="M128,207.36l-18.68-37.3v37.3H93.44v-76h15.91v30.4l17-30.4h18.31l-19.5,33,22.63,43Z"/><path class="cls-2" d="M32.66,125.29v-19.1H66.77a2.65,2.65,0,0,0,3-3v-5a2.65,2.65,0,0,0-3-3H46.56c-9.3,0-14-4.4-14-13.3V63.79c0-9.7,4.5-14.51,13.5-14.51H85.27V68.39H52.86a2.65,2.65,0,0,0-3,3v4.9a2.65,2.65,0,0,0,3,3H73.67c8.9,0,13.3,4.5,13.3,13.4v17.8c0,9.9-4.8,14.8-14.5,14.8Z"/><path class="cls-2" d="M108.63,125.29V68.39H91.23V49.28h52V68.39H125.83v56.9Z"/><path class="cls-2" d="M69.74,207.29v-31.2h-23v31.2H29.54v-62.7c0-8.9,4.7-13.31,14-13.31H73c9.3,0,14,4.41,14,13.31v62.7Zm0-54.4a2.65,2.65,0,0,0-3-3h-17a2.65,2.65,0,0,0-3,3v7.2h23Z"/><path class="cls-2" d="M128.1,207.29,109.43,170v37.3H93.51v-76h15.92v30.41l17-30.41h18.3l-19.5,33,22.63,43Z"/><path class="cls-2" d="M32.74,125.22v-19.1h34.1a2.65,2.65,0,0,0,3-3v-5a2.65,2.65,0,0,0-3-3H46.64c-9.3,0-14-4.4-14-13.31V63.71c0-9.7,4.5-14.5,13.5-14.5h39.2v19.1H52.94a2.65,2.65,0,0,0-3,3v4.9a2.65,2.65,0,0,0,3,3h20.8c8.9,0,13.3,4.51,13.3,13.41v17.8c0,9.9-4.8,14.8-14.5,14.8Z"/><path class="cls-2" d="M108.71,125.22V68.31H91.3V49.21h52v19.1h-17.4v56.91Z"/><path class="cls-2" d="M69.81,207.22V176h-23v31.2H29.61V144.51c0-8.9,4.7-13.3,14-13.3h29.5c9.3,0,14,4.4,14,13.3v62.71Zm0-54.41a2.65,2.65,0,0,0-3-3h-17a2.65,2.65,0,0,0-3,3V160h23Z"/><path class="cls-2" d="M128.17,207.22l-18.67-37.3v37.3H93.58v-76H109.5v30.41l17-30.41h18.3l-19.5,33,22.63,43Z"/><path class="cls-2" d="M32.81,125.15V106h34.1a2.65,2.65,0,0,0,3-3V98a2.65,2.65,0,0,0-3-3H46.71c-9.3,0-14-4.4-14-13.3V63.64c0-9.7,4.5-14.5,13.5-14.5h39.2v19.1H53a2.65,2.65,0,0,0-3,3v4.9a2.65,2.65,0,0,0,3,3h20.8c8.9,0,13.3,4.5,13.3,13.4v17.8c0,9.91-4.8,14.81-14.5,14.81Z"/><path class="cls-2" d="M108.78,125.15V68.24H91.38V49.14h52v19.1H126v56.91Z"/><path class="cls-2" d="M69.88,207.15V175.94h-23v31.21H29.68V144.44c0-8.9,4.7-13.3,14-13.3h29.5c9.3,0,14,4.4,14,13.3v62.71Zm0-54.41a2.65,2.65,0,0,0-3-3h-17a2.65,2.65,0,0,0-3,3v7.2h23Z"/><path class="cls-2" d="M128.25,207.15l-18.68-37.31v37.31H93.66v-76h15.91v30.4l17-30.4H144.9l-19.51,33,22.63,43Z"/><path class="cls-2" d="M32.88,125.07V106H67a2.65,2.65,0,0,0,3-3V98a2.65,2.65,0,0,0-3-3H46.78c-9.3,0-14-4.4-14-13.3V63.57c0-9.7,4.5-14.5,13.5-14.5h39.2v19.1H53.08a2.65,2.65,0,0,0-3,3v4.9a2.65,2.65,0,0,0,3,3h20.8c8.9,0,13.3,4.5,13.3,13.4v17.8c0,9.9-4.8,14.8-14.5,14.8Z"/><path class="cls-2" d="M108.85,125.07V68.17H91.45V49.07h52v19.1h-17.4v56.9Z"/><path class="cls-2" d="M70,207.07v-31.2H47v31.2H29.75v-62.7c0-8.9,4.7-13.3,14-13.3h29.5c9.3,0,14,4.4,14,13.3v62.7Zm0-54.4a2.65,2.65,0,0,0-3-3H50a2.65,2.65,0,0,0-3,3v7.2H70Z"/><path class="cls-2" d="M128.32,207.07l-18.68-37.3v37.3H93.73v-76h15.91v30.4l17-30.4H145l-19.5,33,22.63,43Z"/><path class="cls-2" d="M33,125V105.9h34.1a2.65,2.65,0,0,0,3-3v-5a2.65,2.65,0,0,0-3-3H46.85c-9.3,0-14-4.4-14-13.3V63.5c0-9.7,4.5-14.5,13.5-14.5h39.2V68.1H53.15a2.65,2.65,0,0,0-3,3V76a2.65,2.65,0,0,0,3,3H74c8.9,0,13.3,4.5,13.3,13.4v17.8c0,9.9-4.8,14.8-14.5,14.8Z"/><path class="cls-2" d="M108.92,125V68.1H91.52V49h52V68.1h-17.4V125Z"/><path class="cls-2" d="M70,207V175.8H47V207H29.82V144.3c0-8.9,4.7-13.3,14-13.3H73.33c9.3,0,14,4.4,14,13.3V207Zm0-54.4a2.65,2.65,0,0,0-3-3H50a2.65,2.65,0,0,0-3,3v7.2H70Z"/><path class="cls-2" d="M128.39,207l-18.68-37.3V207H93.8V131h15.91v30.4l17-30.4H145l-19.5,33,22.63,43Z"/><path class="cls-2" d="M33,124.93v-19.1H67.13a2.65,2.65,0,0,0,3-3v-5a2.65,2.65,0,0,0-3-3H46.92c-9.3,0-14-4.4-14-13.3V63.43c0-9.7,4.5-14.51,13.5-14.51H85.63V68H53.22a2.65,2.65,0,0,0-3,3v4.9a2.65,2.65,0,0,0,3,3H74c8.9,0,13.3,4.5,13.3,13.4v17.8c0,9.9-4.8,14.8-14.5,14.8Z"/><path class="cls-2" d="M109,124.93V68H91.59V48.92h52V68H126.19v56.9Z"/><path class="cls-2" d="M70.1,206.93v-31.2h-23v31.2H29.9v-62.7c0-8.9,4.7-13.31,14-13.31H73.4c9.3,0,14,4.41,14,13.31v62.7Zm0-54.4a2.65,2.65,0,0,0-3-3h-17a2.65,2.65,0,0,0-3,3v7.2h23Z"/><path class="cls-2" d="M128.46,206.93l-18.67-37.3v37.3H93.87v-76h15.92v30.41l17-30.41h18.3l-19.5,33,22.63,43Z"/><path class="cls-2" d="M33.1,124.86v-19.1H67.2a2.65,2.65,0,0,0,3-3v-5a2.65,2.65,0,0,0-3-3H47c-9.3,0-14-4.4-14-13.31V63.35c0-9.7,4.5-14.5,13.5-14.5H85.7V68H53.3a2.65,2.65,0,0,0-3,3v4.9a2.65,2.65,0,0,0,3,3H74.1c8.9,0,13.3,4.51,13.3,13.41v17.8c0,9.9-4.8,14.8-14.5,14.8Z"/><path class="cls-2" d="M109.07,124.86V68H91.66V48.85h52V68h-17.4v56.91Z"/><path class="cls-2" d="M70.17,206.86v-31.2h-23v31.2H30V144.15c0-8.9,4.7-13.3,14-13.3h29.5c9.3,0,14,4.4,14,13.3v62.71Zm0-54.41a2.65,2.65,0,0,0-3-3h-17a2.65,2.65,0,0,0-3,3v7.2h23Z"/><path class="cls-2" d="M128.53,206.86l-18.67-37.3v37.3H93.94v-76h15.92v30.41l17-30.41h18.3l-19.5,33,22.63,43Z"/><path class="cls-2" d="M33.17,124.79V105.68h34.1a2.65,2.65,0,0,0,3-3v-5a2.65,2.65,0,0,0-3-3H47.07c-9.3,0-14-4.4-14-13.3V63.28c0-9.7,4.5-14.5,13.5-14.5h39.2v19.1H53.37a2.65,2.65,0,0,0-3,3v4.9a2.65,2.65,0,0,0,3,3h20.8c8.9,0,13.3,4.5,13.3,13.4V110c0,9.91-4.8,14.81-14.5,14.81Z"/><path class="cls-2" d="M109.14,124.79V67.88H91.74V48.78h52v19.1h-17.4v56.91Z"/><path class="cls-2" d="M70.24,206.79V175.58h-23v31.21H30V144.08c0-8.9,4.7-13.3,14-13.3h29.5c9.3,0,14,4.4,14,13.3v62.71Zm0-54.41a2.65,2.65,0,0,0-3-3h-17a2.65,2.65,0,0,0-3,3v7.2h23Z"/><path class="cls-2" d="M128.61,206.79l-18.68-37.31v37.31H94v-76h15.91v30.4l17-30.4h18.31l-19.51,33,22.63,43Z"/><path class="cls-2" d="M33.24,124.71v-19.1h34.1a2.65,2.65,0,0,0,3-3v-5a2.65,2.65,0,0,0-3-3H47.14c-9.3,0-14-4.4-14-13.3V63.21c0-9.7,4.5-14.5,13.5-14.5h39.2v19.1H53.44a2.65,2.65,0,0,0-3,3v4.9a2.65,2.65,0,0,0,3,3h20.8c8.9,0,13.3,4.5,13.3,13.4v17.8c0,9.9-4.8,14.8-14.5,14.8Z"/><path class="cls-2" d="M109.21,124.71V67.81H91.81V48.71h52v19.1h-17.4v56.9Z"/><path class="cls-2" d="M70.31,206.71v-31.2h-23v31.2H30.11V144c0-8.9,4.7-13.3,14-13.3h29.5c9.3,0,14,4.4,14,13.3v62.7Zm0-54.4a2.65,2.65,0,0,0-3-3h-17a2.65,2.65,0,0,0-3,3v7.2h23Z"/><path class="cls-2" d="M128.68,206.71,110,169.41v37.3H94.09v-76H110v30.4l17-30.4h18.31l-19.5,33,22.63,43Z"/><path class="cls-2" d="M33.31,124.64v-19.1h34.1a2.65,2.65,0,0,0,3-3v-5a2.65,2.65,0,0,0-3-3H47.21c-9.3,0-14-4.4-14-13.3V63.14c0-9.7,4.5-14.5,13.5-14.5h39.2v19.1H53.51a2.65,2.65,0,0,0-3,3v4.9a2.65,2.65,0,0,0,3,3h20.8c8.9,0,13.3,4.5,13.3,13.4v17.8c0,9.9-4.8,14.8-14.5,14.8Z"/><path class="cls-2" d="M109.28,124.64V67.74H91.88V48.64h52v19.1h-17.4v56.9Z"/><path class="cls-2" d="M70.39,206.64v-31.2h-23v31.2H30.18v-62.7c0-8.9,4.7-13.3,14-13.3H73.69c9.3,0,14,4.4,14,13.3v62.7Zm0-54.4a2.65,2.65,0,0,0-3-3h-17a2.65,2.65,0,0,0-3,3v7.2h23Z"/><path class="cls-2" d="M128.75,206.64l-18.68-37.3v37.3H94.16v-76h15.91V161l17-30.4H145.4l-19.5,33,22.63,43Z"/><path class="cls-2" d="M33.38,124.57v-19.1H67.49a2.65,2.65,0,0,0,3-3v-5a2.65,2.65,0,0,0-3-3H47.28c-9.3,0-14-4.4-14-13.3V63.07c0-9.7,4.5-14.51,13.5-14.51H86V67.67H53.58a2.65,2.65,0,0,0-3,3v4.9a2.65,2.65,0,0,0,3,3H74.39c8.9,0,13.3,4.5,13.3,13.4v17.8c0,9.9-4.8,14.8-14.5,14.8Z"/><path class="cls-2" d="M109.35,124.57V67.67H92V48.56h52V67.67H126.55v56.9Z"/><path class="cls-2" d="M70.46,206.57v-31.2h-23v31.2H30.26v-62.7c0-8.9,4.7-13.31,14-13.31h29.5c9.3,0,14,4.41,14,13.31v62.7Zm0-54.4a2.65,2.65,0,0,0-3-3h-17a2.65,2.65,0,0,0-3,3v7.2h23Z"/><path class="cls-2" d="M128.82,206.57l-18.67-37.3v37.3H94.23v-76h15.92V161l17-30.41h18.3l-19.5,33,22.63,43Z"/><path class="cls-2" d="M33.46,124.5V105.4h34.1a2.65,2.65,0,0,0,3-3v-5a2.65,2.65,0,0,0-3-3H47.36c-9.3,0-14-4.4-14-13.31V63c0-9.7,4.5-14.5,13.5-14.5h39.2v19.1H53.66a2.65,2.65,0,0,0-3,3v4.9a2.65,2.65,0,0,0,3,3h20.8c8.9,0,13.3,4.51,13.3,13.41v17.8c0,9.9-4.8,14.8-14.5,14.8Z"/><path class="cls-2" d="M109.43,124.5V67.59H92V48.49h52v19.1h-17.4V124.5Z"/><path class="cls-2" d="M70.53,206.5V175.3h-23v31.2H30.33V143.79c0-8.9,4.7-13.3,14-13.3h29.5c9.3,0,14,4.4,14,13.3V206.5Zm0-54.41a2.65,2.65,0,0,0-3-3h-17a2.65,2.65,0,0,0-3,3v7.2h23Z"/><path class="cls-2" d="M128.89,206.5l-18.67-37.3v37.3H94.3v-76h15.92V160.9l17-30.41h18.3l-19.5,33,22.63,43Z"/><path class="cls-2" d="M33.53,124.43V105.32h34.1a2.65,2.65,0,0,0,3-3v-5a2.65,2.65,0,0,0-3-3H47.43c-9.3,0-14-4.4-14-13.3V62.92c0-9.7,4.5-14.5,13.5-14.5h39.2v19.1H53.73a2.65,2.65,0,0,0-3,3v4.9a2.65,2.65,0,0,0,3,3h20.8c8.9,0,13.3,4.5,13.3,13.4v17.8c0,9.91-4.8,14.81-14.5,14.81Z"/><path class="cls-2" d="M109.5,124.43V67.52H92.1V48.42h52v19.1H126.7v56.91Z"/><path class="cls-2" d="M70.6,206.43V175.22h-23v31.21H30.4V143.72c0-8.9,4.7-13.3,14-13.3H73.9c9.3,0,14,4.4,14,13.3v62.71Zm0-54.41a2.65,2.65,0,0,0-3-3h-17a2.65,2.65,0,0,0-3,3v7.2h23Z"/><path class="cls-2" d="M129,206.43l-18.68-37.31v37.31H94.38v-76h15.91v30.4l17-30.4h18.31l-19.51,33,22.63,43Z"/><path class="cls-2" d="M33.6,124.35v-19.1H67.7a2.65,2.65,0,0,0,3-3v-5a2.65,2.65,0,0,0-3-3H47.5c-9.3,0-14-4.4-14-13.3V62.85c0-9.7,4.5-14.5,13.5-14.5H86.2v19.1H53.8a2.65,2.65,0,0,0-3,3v4.9a2.65,2.65,0,0,0,3,3H74.6c8.9,0,13.3,4.5,13.3,13.4v17.8c0,9.9-4.8,14.8-14.5,14.8Z"/><path class="cls-2" d="M109.57,124.35V67.45H92.17V48.35h52v19.1h-17.4v56.9Z"/><path class="cls-2" d="M70.67,206.35v-31.2h-23v31.2H30.47v-62.7c0-8.9,4.7-13.3,14-13.3H74c9.3,0,14,4.4,14,13.3v62.7Zm0-54.4a2.65,2.65,0,0,0-3-3h-17a2.65,2.65,0,0,0-3,3v7.2h23Z"/><path class="cls-2" d="M129,206.35l-18.68-37.3v37.3H94.45v-76h15.91v30.4l17-30.4h18.31l-19.5,33,22.63,43Z"/><path class="cls-2" d="M33.67,124.28v-19.1h34.1a2.65,2.65,0,0,0,3-3v-5a2.65,2.65,0,0,0-3-3H47.57c-9.3,0-14-4.4-14-13.3V62.78c0-9.7,4.5-14.5,13.5-14.5h39.2v19.1H53.87a2.65,2.65,0,0,0-3,3v4.9a2.65,2.65,0,0,0,3,3h20.8c8.9,0,13.3,4.5,13.3,13.4v17.8c0,9.9-4.8,14.8-14.5,14.8Z"/><path class="cls-2" d="M109.64,124.28V67.38H92.24V48.28h52v19.1h-17.4v56.9Z"/><path class="cls-2" d="M70.75,206.28v-31.2h-23v31.2H30.54v-62.7c0-8.9,4.7-13.3,14-13.3H74.05c9.3,0,14,4.4,14,13.3v62.7Zm0-54.4a2.65,2.65,0,0,0-3-3h-17a2.65,2.65,0,0,0-3,3v7.2h23Z"/><path class="cls-2" d="M129.11,206.28,110.43,169v37.3H94.52v-76h15.91v30.4l17-30.4h18.31l-19.5,33,22.63,43Z"/><path class="cls-2" d="M33.74,124.21v-19.1H67.85a2.65,2.65,0,0,0,3-3v-5a2.65,2.65,0,0,0-3-3H47.64c-9.3,0-14-4.4-14-13.3V62.71c0-9.7,4.5-14.51,13.5-14.51H86.35V67.31H53.94a2.65,2.65,0,0,0-3,3v4.9a2.65,2.65,0,0,0,3,3H74.75c8.9,0,13.3,4.5,13.3,13.4v17.8c0,9.9-4.8,14.8-14.5,14.8Z"/><path class="cls-2" d="M109.71,124.21V67.31H92.31V48.2h52V67.31H126.91v56.9Z"/><path class="cls-2" d="M70.82,206.21V175h-23v31.2H30.62v-62.7c0-8.9,4.7-13.31,14-13.31h29.5c9.3,0,14,4.41,14,13.31v62.7Zm0-54.4a2.65,2.65,0,0,0-3-3h-17a2.65,2.65,0,0,0-3,3V159h23Z"/><path class="cls-2" d="M129.18,206.21l-18.67-37.3v37.3H94.59v-76h15.92v30.41l17-30.41h18.3l-19.5,33,22.63,43Z"/><path class="cls-2" d="M33.82,124.14V105h34.1a2.65,2.65,0,0,0,3-3V97a2.65,2.65,0,0,0-3-3H47.72c-9.3,0-14-4.4-14-13.31V62.63c0-9.7,4.5-14.5,13.5-14.5h39.2v19.1H54a2.65,2.65,0,0,0-3,3v4.9a2.65,2.65,0,0,0,3,3h20.8c8.9,0,13.3,4.51,13.3,13.41v17.8c0,9.9-4.8,14.8-14.5,14.8Z"/><path class="cls-2" d="M109.79,124.14V67.23H92.38V48.13h52v19.1H127v56.91Z"/><path class="cls-2" d="M70.89,206.14v-31.2h-23v31.2H30.69V143.43c0-8.9,4.7-13.3,14-13.3h29.5c9.3,0,14,4.4,14,13.3v62.71Zm0-54.41a2.65,2.65,0,0,0-3-3h-17a2.65,2.65,0,0,0-3,3v7.2h23Z"/><path class="cls-2" d="M129.25,206.14l-18.67-37.3v37.3H94.66v-76h15.92v30.41l17-30.41h18.3l-19.5,33,22.63,43Z"/><path class="cls-2" d="M33.89,124.07V105H68a2.65,2.65,0,0,0,3-3V97a2.65,2.65,0,0,0-3-3H47.79c-9.3,0-14-4.4-14-13.3V62.56c0-9.7,4.5-14.5,13.5-14.5h39.2v19.1H54.09a2.65,2.65,0,0,0-3,3v4.9a2.65,2.65,0,0,0,3,3h20.8c8.9,0,13.3,4.5,13.3,13.4v17.8c0,9.91-4.8,14.81-14.5,14.81Z"/><path class="cls-2" d="M109.86,124.07V67.16H92.46V48.06h52v19.1h-17.4v56.91Z"/><path class="cls-2" d="M71,206.07V174.86H48v31.21H30.76V143.36c0-8.9,4.7-13.3,14-13.3h29.5c9.3,0,14,4.4,14,13.3v62.71Zm0-54.41a2.65,2.65,0,0,0-3-3H51a2.65,2.65,0,0,0-3,3v7.2H71Z"/><path class="cls-2" d="M129.33,206.07l-18.68-37.31v37.31H94.74v-76h15.91v30.4l17-30.4H146l-19.51,33,22.63,43Z"/><path class="cls-2" d="M34,124v-19.1h34.1a2.65,2.65,0,0,0,3-3v-5a2.65,2.65,0,0,0-3-3H47.86c-9.3,0-14-4.4-14-13.3V62.49c0-9.7,4.5-14.5,13.5-14.5h39.2v19.1H54.16a2.65,2.65,0,0,0-3,3V75a2.65,2.65,0,0,0,3,3H75c8.9,0,13.3,4.5,13.3,13.4v17.8c0,9.9-4.8,14.8-14.5,14.8Z"/><path class="cls-2" d="M109.93,124V67.09H92.53V48h52v19.1h-17.4V124Z"/><path class="cls-2" d="M71,206v-31.2H48V206H30.83v-62.7c0-8.9,4.7-13.3,14-13.3h29.5c9.3,0,14,4.4,14,13.3V206Zm0-54.4a2.65,2.65,0,0,0-3-3H51a2.65,2.65,0,0,0-3,3v7.2H71Z"/><path class="cls-2" d="M129.4,206l-18.68-37.3V206H94.81V130h15.91v30.4l17-30.4h18.31l-19.5,33,22.63,43Z"/><path class="cls-2" d="M34,123.92v-19.1h34.1a2.65,2.65,0,0,0,3-3v-5a2.65,2.65,0,0,0-3-3H47.93c-9.3,0-14-4.4-14-13.3V62.42c0-9.7,4.5-14.5,13.5-14.5h39.2V67H54.23a2.65,2.65,0,0,0-3,3v4.9a2.65,2.65,0,0,0,3,3H75c8.9,0,13.3,4.5,13.3,13.4v17.8c0,9.9-4.8,14.8-14.5,14.8Z"/><path class="cls-2" d="M110,123.92V67H92.6V47.92h52V67H127.2v56.9Z"/><path class="cls-2" d="M71.11,205.92v-31.2h-23v31.2H30.9v-62.7c0-8.9,4.7-13.3,14-13.3H74.41c9.3,0,14,4.4,14,13.3v62.7Zm0-54.4a2.65,2.65,0,0,0-3-3h-17a2.65,2.65,0,0,0-3,3v7.2h23Z"/><path class="cls-2" d="M129.47,205.92l-18.68-37.3v37.3H94.88v-76h15.91v30.4l17-30.4h18.31l-19.5,33,22.63,43Z"/><path class="cls-2" d="M34.1,123.85v-19.1H68.21a2.65,2.65,0,0,0,3-3v-5a2.65,2.65,0,0,0-3-3H48c-9.3,0-14-4.4-14-13.3V62.35c0-9.7,4.5-14.51,13.5-14.51H86.71V67H54.3a2.65,2.65,0,0,0-3,3v4.9a2.65,2.65,0,0,0,3,3H75.11c8.9,0,13.3,4.5,13.3,13.4v17.8c0,9.9-4.8,14.8-14.5,14.8Z"/><path class="cls-2" d="M110.07,123.85V67H92.67V47.84h52V67H127.27v56.9Z"/><path class="cls-2" d="M71.18,205.85v-31.2h-23v31.2H31v-62.7c0-8.9,4.7-13.31,14-13.31h29.5c9.3,0,14,4.41,14,13.31v62.7Zm0-54.4a2.65,2.65,0,0,0-3-3h-17a2.65,2.65,0,0,0-3,3v7.2h23Z"/><path class="cls-2" d="M129.54,205.85l-18.67-37.3v37.3H95v-76h15.92v30.41l17-30.41h18.3l-19.5,33,22.63,43Z"/><path class="cls-2" d="M34.18,123.78v-19.1h34.1a2.65,2.65,0,0,0,3-3v-5a2.65,2.65,0,0,0-3-3H48.08c-9.3,0-14-4.4-14-13.31V62.27c0-9.7,4.5-14.5,13.5-14.5h39.2v19.1H54.38a2.65,2.65,0,0,0-3,3v4.9a2.65,2.65,0,0,0,3,3h20.8c8.9,0,13.3,4.51,13.3,13.41V109c0,9.9-4.8,14.8-14.5,14.8Z"/><path class="cls-2" d="M110.15,123.78V66.87H92.74V47.77h52v19.1h-17.4v56.91Z"/><path class="cls-2" d="M71.25,205.78v-31.2h-23v31.2H31.05V143.07c0-8.9,4.7-13.3,14-13.3h29.5c9.3,0,14,4.4,14,13.3v62.71Zm0-54.41a2.65,2.65,0,0,0-3-3h-17a2.65,2.65,0,0,0-3,3v7.2h23Z"/><path class="cls-2" d="M129.61,205.78l-18.67-37.3v37.3H95v-76h15.92v30.41l17-30.41h18.3l-19.5,33,22.63,43Z"/><path class="cls-2" d="M34.25,123.71V104.6h34.1a2.65,2.65,0,0,0,3-3v-5a2.65,2.65,0,0,0-3-3H48.15c-9.3,0-14-4.4-14-13.3V62.2c0-9.7,4.5-14.5,13.5-14.5h39.2V66.8H54.45a2.65,2.65,0,0,0-3,3v4.9a2.65,2.65,0,0,0,3,3h20.8c8.9,0,13.3,4.5,13.3,13.4v17.8c0,9.91-4.8,14.81-14.5,14.81Z"/><path class="cls-2" d="M110.22,123.71V66.8H92.82V47.7h52V66.8h-17.4v56.91Z"/><path class="cls-2" d="M71.32,205.71V174.5h-23v31.21H31.12V143c0-8.9,4.7-13.3,14-13.3h29.5c9.3,0,14,4.4,14,13.3v62.71Zm0-54.41a2.65,2.65,0,0,0-3-3h-17a2.65,2.65,0,0,0-3,3v7.2h23Z"/><path class="cls-2" d="M129.69,205.71,111,168.4v37.31H95.1v-76H111v30.4l17-30.4h18.31l-19.51,33,22.63,43Z"/><path class="cls-2" d="M34.32,123.63v-19.1h34.1a2.65,2.65,0,0,0,3-3v-5a2.65,2.65,0,0,0-3-3H48.22c-9.3,0-14-4.4-14-13.3V62.13c0-9.7,4.5-14.5,13.5-14.5h39.2v19.1H54.52a2.65,2.65,0,0,0-3,3v4.9a2.65,2.65,0,0,0,3,3h20.8c8.9,0,13.3,4.5,13.3,13.4v17.8c0,9.9-4.8,14.8-14.5,14.8Z"/><path class="cls-2" d="M110.29,123.63V66.73H92.89V47.63h52v19.1h-17.4v56.9Z"/><path class="cls-2" d="M71.39,205.63v-31.2h-23v31.2H31.19v-62.7c0-8.9,4.7-13.3,14-13.3h29.5c9.3,0,14,4.4,14,13.3v62.7Zm0-54.4a2.65,2.65,0,0,0-3-3h-17a2.65,2.65,0,0,0-3,3v7.2h23Z"/><path class="cls-2" d="M129.76,205.63l-18.68-37.3v37.3H95.17v-76h15.91V160l17-30.4h18.31l-19.5,33,22.63,43Z"/><path class="cls-2" d="M34.39,123.56v-19.1h34.1a2.65,2.65,0,0,0,3-3v-5a2.65,2.65,0,0,0-3-3H48.29c-9.3,0-14-4.4-14-13.3V62.06c0-9.7,4.5-14.5,13.5-14.5H87v19.1H54.59a2.65,2.65,0,0,0-3,3v4.9a2.65,2.65,0,0,0,3,3h20.8c8.9,0,13.3,4.5,13.3,13.4v17.8c0,9.9-4.8,14.8-14.5,14.8Z"/><path class="cls-2" d="M110.36,123.56V66.66H93V47.56h52v19.1h-17.4v56.9Z"/><path class="cls-2" d="M71.47,205.56v-31.2h-23v31.2H31.26v-62.7c0-8.9,4.7-13.3,14-13.3H74.77c9.3,0,14,4.4,14,13.3v62.7Zm0-54.4a2.65,2.65,0,0,0-3-3h-17a2.65,2.65,0,0,0-3,3v7.2h23Z"/><path class="cls-2" d="M129.83,205.56l-18.68-37.3v37.3H95.24v-76h15.91V160l17-30.4h18.31l-19.5,33,22.63,43Z"/><path class="cls-2" d="M34.46,123.49v-19.1H68.57a2.65,2.65,0,0,0,3-3v-5a2.65,2.65,0,0,0-3-3H48.36c-9.3,0-14-4.4-14-13.3V62c0-9.7,4.5-14.51,13.5-14.51H87.07V66.59H54.66a2.65,2.65,0,0,0-3,3v4.9a2.65,2.65,0,0,0,3,3H75.47c8.9,0,13.3,4.5,13.3,13.4v17.8c0,9.9-4.8,14.8-14.5,14.8Z"/><path class="cls-2" d="M110.43,123.49V66.59H93V47.48h52V66.59H127.63v56.9Z"/><path class="cls-2" d="M71.54,205.49v-31.2h-23v31.2H31.34v-62.7c0-8.9,4.7-13.31,14-13.31h29.5c9.3,0,14,4.41,14,13.31v62.7Zm0-54.4a2.65,2.65,0,0,0-3-3h-17a2.65,2.65,0,0,0-3,3v7.2h23Z"/><path class="cls-2" d="M129.9,205.49l-18.67-37.3v37.3H95.31v-76h15.92v30.41l17-30.41h18.3l-19.5,33,22.63,43Z"/><path class="cls-2" d="M34.54,123.42v-19.1h34.1a2.65,2.65,0,0,0,3-3v-5a2.65,2.65,0,0,0-3-3H48.44c-9.3,0-14-4.4-14-13.31V61.91c0-9.7,4.5-14.5,13.5-14.5h39.2v19.1H54.74a2.65,2.65,0,0,0-3,3v4.9a2.65,2.65,0,0,0,3,3h20.8c8.9,0,13.3,4.51,13.3,13.41v17.8c0,9.9-4.8,14.8-14.5,14.8Z"/><path class="cls-2" d="M110.51,123.42V66.51H93.1V47.41h52v19.1h-17.4v56.91Z"/><path class="cls-2" d="M71.61,205.42v-31.2h-23v31.2H31.41V142.71c0-8.9,4.7-13.3,14-13.3h29.5c9.3,0,14,4.4,14,13.3v62.71Zm0-54.41a2.65,2.65,0,0,0-3-3h-17a2.65,2.65,0,0,0-3,3v7.2h23Z"/><path class="cls-2" d="M130,205.42l-18.67-37.3v37.3H95.38v-76H111.3v30.41l17-30.41h18.3l-19.5,33,22.63,43Z"/><path class="cls-2" d="M34.61,123.35V104.24h34.1a2.65,2.65,0,0,0,3-3v-5a2.65,2.65,0,0,0-3-3H48.51c-9.3,0-14-4.4-14-13.3V61.84c0-9.7,4.5-14.5,13.5-14.5h39.2v19.1H54.81a2.65,2.65,0,0,0-3,3v4.9a2.65,2.65,0,0,0,3,3h20.8c8.9,0,13.3,4.5,13.3,13.4v17.8c0,9.91-4.8,14.81-14.5,14.81Z"/><path class="cls-2" d="M110.58,123.35V66.44H93.18V47.34h52v19.1h-17.4v56.91Z"/><path class="cls-2" d="M71.68,205.35V174.14h-23v31.21H31.48V142.64c0-8.9,4.7-13.3,14-13.3H75c9.3,0,14,4.4,14,13.3v62.71Zm0-54.41a2.65,2.65,0,0,0-3-3h-17a2.65,2.65,0,0,0-3,3v7.2h23Z"/><path class="cls-2" d="M130.05,205.35,111.37,168v37.31H95.46v-76h15.91v30.4l17-30.4H146.7l-19.51,33,22.63,43Z"/><path class="cls-2" d="M34.68,123.27v-19.1h34.1a2.65,2.65,0,0,0,3-3v-5a2.65,2.65,0,0,0-3-3H48.58c-9.3,0-14-4.4-14-13.3V61.77c0-9.7,4.5-14.5,13.5-14.5h39.2v19.1H54.88a2.65,2.65,0,0,0-3,3v4.9a2.65,2.65,0,0,0,3,3h20.8c8.9,0,13.3,4.5,13.3,13.4v17.8c0,9.9-4.8,14.8-14.5,14.8Z"/><path class="cls-2" d="M110.65,123.27V66.37H93.25V47.27h52v19.1h-17.4v56.9Z"/><path class="cls-2" d="M71.75,205.27v-31.2h-23v31.2H31.55v-62.7c0-8.9,4.7-13.3,14-13.3h29.5c9.3,0,14,4.4,14,13.3v62.7Zm0-54.4a2.65,2.65,0,0,0-3-3h-17a2.65,2.65,0,0,0-3,3v7.2h23Z"/><path class="cls-2" d="M130.12,205.27,111.44,168v37.3H95.53v-76h15.91v30.4l17-30.4h18.31l-19.5,33,22.63,43Z"/><path class="cls-2" d="M34.75,123.2V104.1h34.1a2.65,2.65,0,0,0,3-3v-5a2.65,2.65,0,0,0-3-3H48.65c-9.3,0-14-4.4-14-13.3V61.7c0-9.7,4.5-14.5,13.5-14.5h39.2V66.3H55a2.65,2.65,0,0,0-3,3v4.9a2.65,2.65,0,0,0,3,3h20.8c8.9,0,13.3,4.5,13.3,13.4v17.8c0,9.9-4.8,14.8-14.5,14.8Z"/><path class="cls-2" d="M110.72,123.2V66.3H93.32V47.2h52V66.3h-17.4v56.9Z"/><path class="cls-2" d="M71.83,205.2V174h-23v31.2H31.62V142.5c0-8.9,4.7-13.3,14-13.3H75.13c9.3,0,14,4.4,14,13.3v62.7Zm0-54.4a2.65,2.65,0,0,0-3-3h-17a2.65,2.65,0,0,0-3,3V158h23Z"/><path class="cls-2" d="M130.19,205.2l-18.68-37.3v37.3H95.6v-76h15.91v30.4l17-30.4h18.31l-19.5,33,22.63,43Z"/><path class="cls-2" d="M34.82,123.13V104H68.93a2.65,2.65,0,0,0,3-3V96a2.65,2.65,0,0,0-3-3H48.72c-9.3,0-14-4.4-14-13.3V61.63c0-9.7,4.5-14.51,13.5-14.51H87.43V66.23H55a2.65,2.65,0,0,0-3,3v4.9a2.65,2.65,0,0,0,3,3H75.83c8.9,0,13.3,4.5,13.3,13.4v17.8c0,9.9-4.8,14.8-14.5,14.8Z"/><path class="cls-2" d="M110.79,123.13V66.23H93.39V47.12h52V66.23H128v56.9Z"/><path class="cls-2" d="M71.9,205.13v-31.2h-23v31.2H31.7v-62.7c0-8.9,4.7-13.31,14-13.31H75.2c9.3,0,14,4.41,14,13.31v62.7Zm0-54.4a2.65,2.65,0,0,0-3-3h-17a2.65,2.65,0,0,0-3,3v7.2h23Z"/><path class="cls-2" d="M130.26,205.13l-18.67-37.3v37.3H95.67v-76h15.92v30.41l17-30.41h18.3l-19.5,33,22.63,43Z"/><path class="cls-2" d="M34.9,123.06V104H69a2.65,2.65,0,0,0,3-3V96a2.65,2.65,0,0,0-3-3H48.8c-9.3,0-14-4.4-14-13.31V61.55c0-9.7,4.5-14.5,13.5-14.5H87.5v19.1H55.1a2.65,2.65,0,0,0-3,3v4.9a2.65,2.65,0,0,0,3,3H75.9c8.9,0,13.3,4.51,13.3,13.41v17.8c0,9.9-4.8,14.8-14.5,14.8Z"/><path class="cls-2" d="M110.87,123.06V66.15H93.46V47.05h52v19.1h-17.4v56.91Z"/><path class="cls-2" d="M72,205.06v-31.2H49v31.2H31.77V142.35c0-8.9,4.7-13.3,14-13.3h29.5c9.3,0,14,4.4,14,13.3v62.71Zm0-54.41a2.65,2.65,0,0,0-3-3H52a2.65,2.65,0,0,0-3,3v7.2H72Z"/><path class="cls-2" d="M130.33,205.06l-18.67-37.3v37.3H95.74v-76h15.92v30.41l17-30.41H147l-19.5,33,22.63,43Z"/><path class="cls-2" d="M35,123V103.88h34.1a2.65,2.65,0,0,0,3-3v-5a2.65,2.65,0,0,0-3-3H48.87c-9.3,0-14-4.4-14-13.3V61.48c0-9.7,4.5-14.5,13.5-14.5h39.2v19.1H55.17a2.65,2.65,0,0,0-3,3V74a2.65,2.65,0,0,0,3,3H76c8.9,0,13.3,4.5,13.3,13.4v17.8c0,9.91-4.8,14.81-14.5,14.81Z"/><path class="cls-2" d="M110.94,123V66.08H93.54V47h52v19.1h-17.4V123Z"/><path class="cls-2" d="M72,205V173.78H49V205H31.84V142.28c0-8.9,4.7-13.3,14-13.3h29.5c9.3,0,14,4.4,14,13.3V205Zm0-54.41a2.65,2.65,0,0,0-3-3H52a2.65,2.65,0,0,0-3,3v7.2H72Z"/><path class="cls-2" d="M130.41,205l-18.68-37.31V205H95.82V129h15.91v30.4l17-30.4h18.31l-19.51,33,22.63,43Z"/><path class="cls-2" d="M35,122.91v-19.1h34.1a2.65,2.65,0,0,0,3-3v-5a2.65,2.65,0,0,0-3-3H48.94c-9.3,0-14-4.4-14-13.3V61.41c0-9.7,4.5-14.5,13.5-14.5h39.2V66H55.24a2.65,2.65,0,0,0-3,3v4.9a2.65,2.65,0,0,0,3,3H76c8.9,0,13.3,4.5,13.3,13.4v17.8c0,9.9-4.8,14.8-14.5,14.8Z"/><path class="cls-2" d="M111,122.91V66H93.61V46.91h52V66h-17.4v56.9Z"/><path class="cls-2" d="M72.11,204.91v-31.2h-23v31.2H31.91v-62.7c0-8.9,4.7-13.3,14-13.3h29.5c9.3,0,14,4.4,14,13.3v62.7Zm0-54.4a2.65,2.65,0,0,0-3-3h-17a2.65,2.65,0,0,0-3,3v7.2h23Z"/><path class="cls-2" d="M130.48,204.91l-18.68-37.3v37.3H95.89v-76H111.8v30.4l17-30.4h18.31l-19.5,33,22.63,43Z"/><path class="cls-2" d="M35.11,122.84v-19.1h34.1a2.65,2.65,0,0,0,3-3v-5a2.65,2.65,0,0,0-3-3H49c-9.3,0-14-4.4-14-13.3V61.34c0-9.7,4.5-14.5,13.5-14.5h39.2v19.1H55.31a2.65,2.65,0,0,0-3,3v4.9a2.65,2.65,0,0,0,3,3h20.8c8.9,0,13.3,4.5,13.3,13.4V108c0,9.9-4.8,14.8-14.5,14.8Z"/><path class="cls-2" d="M111.08,122.84V65.94H93.68V46.84h52v19.1h-17.4v56.9Z"/><path class="cls-2" d="M72.19,204.84v-31.2h-23v31.2H32v-62.7c0-8.9,4.7-13.3,14-13.3H75.49c9.3,0,14,4.4,14,13.3v62.7Zm0-54.4a2.65,2.65,0,0,0-3-3h-17a2.65,2.65,0,0,0-3,3v7.2h23Z"/><path class="cls-2" d="M130.55,204.84l-18.68-37.3v37.3H96v-76h15.91v30.4l17-30.4H147.2l-19.5,33,22.63,43Z"/><path class="cls-2" d="M35.18,122.77v-19.1H69.29a2.65,2.65,0,0,0,3-3v-5a2.65,2.65,0,0,0-3-3H49.08c-9.3,0-14-4.4-14-13.3V61.27c0-9.7,4.5-14.51,13.5-14.51H87.79V65.87H55.38a2.65,2.65,0,0,0-3,3v4.9a2.65,2.65,0,0,0,3,3H76.19c8.9,0,13.3,4.5,13.3,13.4V108c0,9.9-4.8,14.8-14.5,14.8Z"/><path class="cls-2" d="M111.15,122.77V65.87H93.75V46.76h52V65.87H128.35v56.9Z"/><path class="cls-2" d="M72.26,204.77v-31.2h-23v31.2H32.06v-62.7c0-8.9,4.7-13.31,14-13.31h29.5c9.3,0,14,4.41,14,13.31v62.7Zm0-54.4a2.65,2.65,0,0,0-3-3h-17a2.65,2.65,0,0,0-3,3v7.2h23Z"/><path class="cls-2" d="M130.62,204.77,112,167.47v37.3H96v-76H112v30.41l17-30.41h18.3l-19.5,33,22.63,43Z"/><path class="cls-2" d="M35.26,122.7V103.6h34.1a2.65,2.65,0,0,0,3-3v-5a2.65,2.65,0,0,0-3-3H49.16c-9.3,0-14-4.4-14-13.31V61.19c0-9.7,4.5-14.5,13.5-14.5h39.2v19.1H55.46a2.65,2.65,0,0,0-3,3v4.9a2.65,2.65,0,0,0,3,3h20.8c8.9,0,13.3,4.51,13.3,13.41v17.8c0,9.9-4.8,14.8-14.5,14.8Z"/><path class="cls-2" d="M111.23,122.7V65.79H93.82V46.69h52v19.1h-17.4V122.7Z"/><path class="cls-2" d="M72.33,204.7V173.5h-23v31.2H32.13V142c0-8.9,4.7-13.3,14-13.3h29.5c9.3,0,14,4.4,14,13.3V204.7Zm0-54.41a2.65,2.65,0,0,0-3-3h-17a2.65,2.65,0,0,0-3,3v7.2h23Z"/><path class="cls-2" d="M130.69,204.7,112,167.4v37.3H96.1v-76H112V159.1l17-30.41h18.3l-19.5,33,22.63,43Z"/><path class="cls-2" d="M35.33,122.63V103.52h34.1a2.65,2.65,0,0,0,3-3v-5a2.65,2.65,0,0,0-3-3H49.23c-9.3,0-14-4.4-14-13.3V61.12c0-9.7,4.5-14.5,13.5-14.5h39.2v19.1H55.53a2.65,2.65,0,0,0-3,3v4.9a2.65,2.65,0,0,0,3,3h20.8c8.9,0,13.3,4.5,13.3,13.4v17.8c0,9.91-4.8,14.81-14.5,14.81Z"/><path class="cls-2" d="M111.3,122.63V65.72H93.9V46.62h52v19.1H128.5v56.91Z"/><path class="cls-2" d="M72.4,204.63V173.42h-23v31.21H32.2V141.92c0-8.9,4.7-13.3,14-13.3H75.7c9.3,0,14,4.4,14,13.3v62.71Zm0-54.41a2.65,2.65,0,0,0-3-3h-17a2.65,2.65,0,0,0-3,3v7.2h23Z"/><path class="cls-2" d="M130.77,204.63l-18.68-37.31v37.31H96.18v-76h15.91V159l17-30.4h18.31l-19.51,33,22.63,43Z"/><path class="cls-2" d="M35.4,122.55v-19.1H69.5a2.65,2.65,0,0,0,3-3v-5a2.65,2.65,0,0,0-3-3H49.3c-9.3,0-14-4.4-14-13.3V61.05c0-9.7,4.5-14.5,13.5-14.5H88v19.1H55.6a2.65,2.65,0,0,0-3,3v4.9a2.65,2.65,0,0,0,3,3H76.4c8.9,0,13.3,4.5,13.3,13.4v17.8c0,9.9-4.8,14.8-14.5,14.8Z"/><path class="cls-2" d="M111.37,122.55V65.65H94V46.55h52v19.1h-17.4v56.9Z"/><path class="cls-2" d="M72.47,204.55v-31.2h-23v31.2H32.27v-62.7c0-8.9,4.7-13.3,14-13.3h29.5c9.3,0,14,4.4,14,13.3v62.7Zm0-54.4a2.65,2.65,0,0,0-3-3h-17a2.65,2.65,0,0,0-3,3v7.2h23Z"/><path class="cls-2" d="M130.84,204.55l-18.68-37.3v37.3H96.25v-76h15.91V159l17-30.4h18.31l-19.5,33,22.63,43Z"/><path class="cls-2" d="M35.47,122.48v-19.1h34.1a2.65,2.65,0,0,0,3-3v-5a2.65,2.65,0,0,0-3-3H49.37c-9.3,0-14-4.4-14-13.3V61c0-9.7,4.5-14.5,13.5-14.5h39.2v19.1H55.67a2.65,2.65,0,0,0-3,3v4.9a2.65,2.65,0,0,0,3,3h20.8c8.9,0,13.3,4.5,13.3,13.4v17.8c0,9.9-4.8,14.8-14.5,14.8Z"/><path class="cls-2" d="M111.44,122.48V65.58H94V46.48h52v19.1h-17.4v56.9Z"/><path class="cls-2" d="M72.55,204.48v-31.2h-23v31.2H32.34v-62.7c0-8.9,4.7-13.3,14-13.3H75.85c9.3,0,14,4.4,14,13.3v62.7Zm0-54.4a2.65,2.65,0,0,0-3-3h-17a2.65,2.65,0,0,0-3,3v7.2h23Z"/><path class="cls-2" d="M130.91,204.48l-18.68-37.3v37.3H96.32v-76h15.91v30.4l17-30.4h18.31l-19.5,33,22.63,43Z"/><path class="cls-2" d="M35.54,122.41v-19.1H69.65a2.65,2.65,0,0,0,3-3v-5a2.65,2.65,0,0,0-3-3H49.44c-9.3,0-14-4.4-14-13.3V60.91c0-9.7,4.5-14.51,13.5-14.51H88.15V65.51H55.74a2.65,2.65,0,0,0-3,3v4.9a2.65,2.65,0,0,0,3,3H76.55c8.9,0,13.3,4.5,13.3,13.4v17.8c0,9.9-4.8,14.8-14.5,14.8Z"/><path class="cls-2" d="M111.51,122.41V65.51H94.11V46.4h52V65.51H128.71v56.9Z"/><path class="cls-2" d="M72.62,204.41v-31.2h-23v31.2H32.42v-62.7c0-8.9,4.7-13.31,14-13.31h29.5c9.3,0,14,4.41,14,13.31v62.7Zm0-54.4a2.65,2.65,0,0,0-3-3h-17a2.65,2.65,0,0,0-3,3v7.2h23Z"/><path class="cls-2" d="M131,204.41l-18.67-37.3v37.3H96.39v-76h15.92v30.41l17-30.41h18.3l-19.5,33,22.63,43Z"/><path class="cls-2" d="M35.62,122.34v-19.1h34.1a2.65,2.65,0,0,0,3-3v-5a2.65,2.65,0,0,0-3-3H49.52c-9.3,0-14-4.4-14-13.31V60.83c0-9.7,4.5-14.5,13.5-14.5h39.2v19.1H55.82a2.65,2.65,0,0,0-3,3v4.9a2.65,2.65,0,0,0,3,3h20.8c8.9,0,13.3,4.51,13.3,13.41v17.8c0,9.9-4.8,14.8-14.5,14.8Z"/><path class="cls-2" d="M111.59,122.34V65.43H94.18V46.33h52v19.1h-17.4v56.91Z"/><path class="cls-2" d="M72.69,204.34v-31.2h-23v31.2H32.49V141.63c0-8.9,4.7-13.3,14-13.3H76c9.3,0,14,4.4,14,13.3v62.71Zm0-54.41a2.65,2.65,0,0,0-3-3h-17a2.65,2.65,0,0,0-3,3v7.2h23Z"/><path class="cls-2" d="M131.05,204.34,112.38,167v37.3H96.46v-76h15.92v30.41l17-30.41h18.3l-19.5,33,22.63,43Z"/><path class="cls-2" d="M35.69,122.27V103.16h34.1a2.65,2.65,0,0,0,3-3v-5a2.65,2.65,0,0,0-3-3H49.59c-9.3,0-14-4.4-14-13.3V60.76c0-9.7,4.5-14.5,13.5-14.5h39.2v19.1H55.89a2.65,2.65,0,0,0-3,3v4.9a2.65,2.65,0,0,0,3,3h20.8c8.9,0,13.3,4.5,13.3,13.4v17.8c0,9.91-4.8,14.81-14.5,14.81Z"/><path class="cls-2" d="M111.66,122.27V65.36H94.26V46.26h52v19.1h-17.4v56.91Z"/><path class="cls-2" d="M72.76,204.27V173.06h-23v31.21H32.56V141.56c0-8.9,4.7-13.3,14-13.3h29.5c9.3,0,14,4.4,14,13.3v62.71Zm0-54.41a2.65,2.65,0,0,0-3-3h-17a2.65,2.65,0,0,0-3,3v7.2h23Z"/><path class="cls-2" d="M131.13,204.27,112.45,167v37.31H96.54v-76h15.91v30.4l17-30.4h18.31l-19.51,33,22.63,43Z"/><path class="cls-2" d="M35.76,122.19v-19.1h34.1a2.65,2.65,0,0,0,3-3v-5a2.65,2.65,0,0,0-3-3H49.66c-9.3,0-14-4.4-14-13.3V60.69c0-9.7,4.5-14.5,13.5-14.5h39.2v19.1H56a2.65,2.65,0,0,0-3,3v4.9a2.65,2.65,0,0,0,3,3h20.8c8.9,0,13.3,4.5,13.3,13.4v17.8c0,9.9-4.8,14.8-14.5,14.8Z"/><path class="cls-2" d="M111.73,122.19V65.29H94.33V46.19h52v19.1h-17.4v56.9Z"/><path class="cls-2" d="M72.83,204.19V173h-23v31.2H32.63v-62.7c0-8.9,4.7-13.3,14-13.3h29.5c9.3,0,14,4.4,14,13.3v62.7Zm0-54.4a2.65,2.65,0,0,0-3-3h-17a2.65,2.65,0,0,0-3,3V157h23Z"/><path class="cls-2" d="M131.2,204.19l-18.68-37.3v37.3H96.61v-76h15.91v30.4l17-30.4h18.31l-19.5,33,22.63,43Z"/><path class="cls-2" d="M35.83,122.12V103h34.1a2.65,2.65,0,0,0,3-3V95a2.65,2.65,0,0,0-3-3H49.73c-9.3,0-14-4.4-14-13.3V60.62c0-9.7,4.5-14.5,13.5-14.5h39.2v19.1H56a2.65,2.65,0,0,0-3,3v4.9a2.65,2.65,0,0,0,3,3h20.8c8.9,0,13.3,4.5,13.3,13.4v17.8c0,9.9-4.8,14.8-14.5,14.8Z"/><path class="cls-2" d="M111.8,122.12V65.22H94.4V46.12h52v19.1H129v56.9Z"/><path class="cls-2" d="M72.91,204.12v-31.2h-23v31.2H32.7v-62.7c0-8.9,4.7-13.3,14-13.3H76.21c9.3,0,14,4.4,14,13.3v62.7Zm0-54.4a2.65,2.65,0,0,0-3-3h-17a2.65,2.65,0,0,0-3,3v7.2h23Z"/><path class="cls-2" d="M131.27,204.12l-18.68-37.3v37.3H96.68v-76h15.91v30.4l17-30.4h18.31l-19.5,33,22.63,43Z"/><path class="cls-2" d="M35.9,122.05V103H70a2.65,2.65,0,0,0,3-3V95a2.65,2.65,0,0,0-3-3H49.8c-9.3,0-14-4.4-14-13.3V60.55C35.8,50.85,40.3,46,49.3,46H88.51V65.15H56.1a2.65,2.65,0,0,0-3,3v4.9a2.65,2.65,0,0,0,3,3H76.91c8.9,0,13.3,4.5,13.3,13.4v17.8c0,9.9-4.8,14.8-14.5,14.8Z"/><path class="cls-2" d="M111.87,122.05V65.15H94.47V46h52V65.15H129.07v56.9Z"/><path class="cls-2" d="M73,204.05v-31.2H50v31.2H32.78v-62.7c0-8.9,4.7-13.31,14-13.31h29.5c9.3,0,14,4.41,14,13.31v62.7Zm0-54.4a2.65,2.65,0,0,0-3-3H53a2.65,2.65,0,0,0-3,3v7.2H73Z"/><path class="cls-2" d="M131.34,204.05l-18.67-37.3v37.3H96.75V128h15.92v30.41l17-30.41H148l-19.5,33,22.63,43Z"/><path class="cls-2" d="M36,122v-19.1h34.1a2.65,2.65,0,0,0,3-3v-5a2.65,2.65,0,0,0-3-3H49.88c-9.3,0-14-4.4-14-13.31V60.47c0-9.7,4.5-14.5,13.5-14.5h39.2v19.1H56.18a2.65,2.65,0,0,0-3,3V73a2.65,2.65,0,0,0,3,3H77c8.9,0,13.3,4.51,13.3,13.41v17.8c0,9.9-4.8,14.8-14.5,14.8Z"/><path class="cls-2" d="M112,122V65.07H94.54V46h52v19.1h-17.4V122Z"/><path class="cls-2" d="M73.05,204v-31.2h-23V204H32.85V141.27c0-8.9,4.7-13.3,14-13.3h29.5c9.3,0,14,4.4,14,13.3V204Zm0-54.41a2.65,2.65,0,0,0-3-3h-17a2.65,2.65,0,0,0-3,3v7.2h23Z"/><path class="cls-2" d="M131.41,204l-18.67-37.3V204H96.82V128h15.92v30.41l17-30.41h18.3l-19.5,33,22.63,43Z"/><path class="cls-2" d="M36.05,121.91V102.8h34.1a2.65,2.65,0,0,0,3-3v-5a2.65,2.65,0,0,0-3-3H50c-9.3,0-14-4.4-14-13.3V60.4c0-9.7,4.5-14.5,13.5-14.5h39.2V65H56.25a2.65,2.65,0,0,0-3,3v4.9a2.65,2.65,0,0,0,3,3h20.8c8.9,0,13.3,4.5,13.3,13.4v17.8c0,9.91-4.8,14.81-14.5,14.81Z"/><path class="cls-2" d="M112,121.91V65H94.62V45.9h52V65h-17.4v56.91Z"/><path class="cls-2" d="M73.12,203.91V172.7h-23v31.21H32.92V141.2c0-8.9,4.7-13.3,14-13.3h29.5c9.3,0,14,4.4,14,13.3v62.71Zm0-54.41a2.65,2.65,0,0,0-3-3h-17a2.65,2.65,0,0,0-3,3v7.2h23Z"/><path class="cls-2" d="M131.49,203.91,112.81,166.6v37.31H96.9v-76h15.91v30.4l17-30.4h18.31l-19.51,33,22.63,43Z"/><path class="cls-2" d="M36.12,121.83v-19.1h34.1a2.65,2.65,0,0,0,3-3v-5a2.65,2.65,0,0,0-3-3H50c-9.3,0-14-4.4-14-13.3V60.33c0-9.7,4.5-14.5,13.5-14.5h39.2v19.1H56.32a2.65,2.65,0,0,0-3,3v4.9a2.65,2.65,0,0,0,3,3h20.8c8.9,0,13.3,4.5,13.3,13.4V107c0,9.9-4.8,14.8-14.5,14.8Z"/><path class="cls-2" d="M112.09,121.83V64.93H94.69V45.83h52v19.1h-17.4v56.9Z"/><path class="cls-2" d="M73.19,203.83v-31.2h-23v31.2H33v-62.7c0-8.9,4.7-13.3,14-13.3h29.5c9.3,0,14,4.4,14,13.3v62.7Zm0-54.4a2.65,2.65,0,0,0-3-3h-17a2.65,2.65,0,0,0-3,3v7.2h23Z"/><path class="cls-2" d="M131.56,203.83l-18.68-37.3v37.3H97v-76h15.91v30.4l17-30.4h18.31l-19.5,33,22.63,43Z"/><path class="cls-2" d="M36.19,121.76v-19.1h34.1a2.65,2.65,0,0,0,3-3v-5a2.65,2.65,0,0,0-3-3H50.09c-9.3,0-14-4.4-14-13.3V60.26c0-9.7,4.5-14.5,13.5-14.5h39.2v19.1H56.39a2.65,2.65,0,0,0-3,3v4.9a2.65,2.65,0,0,0,3,3h20.8c8.9,0,13.3,4.5,13.3,13.4V107c0,9.9-4.8,14.8-14.5,14.8Z"/><path class="cls-2" d="M112.16,121.76V64.86H94.76V45.76h52v19.1h-17.4v56.9Z"/><path class="cls-2" d="M73.27,203.76v-31.2h-23v31.2H33.06v-62.7c0-8.9,4.7-13.3,14-13.3H76.57c9.3,0,14,4.4,14,13.3v62.7Zm0-54.4a2.65,2.65,0,0,0-3-3h-17a2.65,2.65,0,0,0-3,3v7.2h23Z"/><path class="cls-2" d="M131.63,203.76,113,166.46v37.3H97v-76H113v30.4l17-30.4h18.31l-19.5,33,22.63,43Z"/><path class="cls-2" d="M36.26,121.69v-19.1H70.37a2.65,2.65,0,0,0,3-3v-5a2.65,2.65,0,0,0-3-3H50.16c-9.3,0-14-4.4-14-13.3V60.19c0-9.7,4.5-14.51,13.5-14.51H88.87V64.79H56.46a2.65,2.65,0,0,0-3,3v4.9a2.65,2.65,0,0,0,3,3H77.27c8.9,0,13.3,4.5,13.3,13.4v17.8c0,9.9-4.8,14.8-14.5,14.8Z"/><path class="cls-2" d="M112.23,121.69V64.79H94.83V45.68h52V64.79H129.43v56.9Z"/><path class="cls-2" d="M73.34,203.69v-31.2h-23v31.2H33.14V141c0-8.9,4.7-13.31,14-13.31h29.5c9.3,0,14,4.41,14,13.31v62.7Zm0-54.4a2.65,2.65,0,0,0-3-3h-17a2.65,2.65,0,0,0-3,3v7.2h23Z"/><path class="cls-2" d="M131.7,203.69,113,166.39v37.3H97.11v-76H113v30.41l17-30.41h18.3l-19.5,33,22.63,43Z"/><path class="cls-2" d="M36.34,121.62v-19.1h34.1a2.65,2.65,0,0,0,3-3v-5a2.65,2.65,0,0,0-3-3H50.24c-9.3,0-14-4.4-14-13.31V60.11c0-9.7,4.5-14.5,13.5-14.5h39.2v19.1H56.54a2.65,2.65,0,0,0-3,3v4.9a2.65,2.65,0,0,0,3,3h20.8c8.9,0,13.3,4.51,13.3,13.41v17.8c0,9.9-4.8,14.8-14.5,14.8Z"/><path class="cls-2" d="M112.31,121.62V64.71H94.9V45.61h52v19.1h-17.4v56.91Z"/><path class="cls-2" d="M73.41,203.62v-31.2h-23v31.2H33.21V140.91c0-8.9,4.7-13.3,14-13.3h29.5c9.3,0,14,4.4,14,13.3v62.71Zm0-54.41a2.65,2.65,0,0,0-3-3h-17a2.65,2.65,0,0,0-3,3v7.2h23Z"/><path class="cls-2" d="M131.77,203.62l-18.67-37.3v37.3H97.18v-76H113.1V158l17-30.41h18.3l-19.5,33,22.63,43Z"/><path class="cls-2" d="M36.41,121.55V102.44h34.1a2.65,2.65,0,0,0,3-3v-5a2.65,2.65,0,0,0-3-3H50.31c-9.3,0-14-4.4-14-13.3V60c0-9.7,4.5-14.5,13.5-14.5H89v19.1H56.61a2.65,2.65,0,0,0-3,3v4.9a2.65,2.65,0,0,0,3,3h20.8c8.9,0,13.3,4.5,13.3,13.4v17.8c0,9.91-4.8,14.81-14.5,14.81Z"/><path class="cls-2" d="M112.38,121.55V64.64H95V45.54h52v19.1h-17.4v56.91Z"/><path class="cls-2" d="M73.48,203.55V172.34h-23v31.21H33.28V140.84c0-8.9,4.7-13.3,14-13.3h29.5c9.3,0,14,4.4,14,13.3v62.71Zm0-54.41a2.65,2.65,0,0,0-3-3h-17a2.65,2.65,0,0,0-3,3v7.2h23Z"/><path class="cls-2" d="M131.85,203.55l-18.68-37.31v37.31H97.26v-76h15.91v30.4l17-30.4H148.5l-19.51,33,22.63,43Z"/><path class="cls-2" d="M36.48,121.47v-19.1h34.1a2.65,2.65,0,0,0,3-3v-5a2.65,2.65,0,0,0-3-3H50.38c-9.3,0-14-4.4-14-13.3V60c0-9.7,4.5-14.5,13.5-14.5h39.2v19.1H56.68a2.65,2.65,0,0,0-3,3v4.9a2.65,2.65,0,0,0,3,3h20.8c8.9,0,13.3,4.5,13.3,13.4v17.8c0,9.9-4.8,14.8-14.5,14.8Z"/><path class="cls-2" d="M112.45,121.47V64.57H95.05V45.47h52v19.1h-17.4v56.9Z"/><path class="cls-2" d="M73.55,203.47v-31.2h-23v31.2H33.35v-62.7c0-8.9,4.7-13.3,14-13.3h29.5c9.3,0,14,4.4,14,13.3v62.7Zm0-54.4a2.65,2.65,0,0,0-3-3h-17a2.65,2.65,0,0,0-3,3v7.2h23Z"/><path class="cls-2" d="M131.92,203.47l-18.68-37.3v37.3H97.33v-76h15.91v30.4l17-30.4h18.31l-19.5,33,22.63,43Z"/><path class="cls-2" d="M36.55,121.4V102.3h34.1a2.65,2.65,0,0,0,3-3v-5a2.65,2.65,0,0,0-3-3H50.45c-9.3,0-14-4.4-14-13.3V59.9c0-9.7,4.5-14.5,13.5-14.5h39.2V64.5H56.75a2.65,2.65,0,0,0-3,3v4.9a2.65,2.65,0,0,0,3,3h20.8c8.9,0,13.3,4.5,13.3,13.4v17.8c0,9.9-4.8,14.8-14.5,14.8Z"/><path class="cls-2" d="M112.52,121.4V64.5H95.12V45.4h52V64.5h-17.4v56.9Z"/><path class="cls-2" d="M73.63,203.4V172.2h-23v31.2H33.42V140.7c0-8.9,4.7-13.3,14-13.3H76.93c9.3,0,14,4.4,14,13.3v62.7Zm0-54.4a2.65,2.65,0,0,0-3-3h-17a2.65,2.65,0,0,0-3,3v7.2h23Z"/><path class="cls-2" d="M132,203.4l-18.68-37.3v37.3H97.4v-76h15.91v30.4l17-30.4h18.31l-19.5,33,22.63,43Z"/><path class="cls-2" d="M36.62,121.33v-19.1H70.73a2.65,2.65,0,0,0,3-3v-5a2.65,2.65,0,0,0-3-3H50.52c-9.3,0-14-4.4-14-13.3V59.83c0-9.7,4.5-14.51,13.5-14.51H89.23V64.43H56.82a2.65,2.65,0,0,0-3,3v4.9a2.65,2.65,0,0,0,3,3H77.63c8.9,0,13.3,4.5,13.3,13.4v17.8c0,9.9-4.8,14.8-14.5,14.8Z"/><path class="cls-2" d="M112.59,121.33V64.43H95.19V45.32h52V64.43H129.79v56.9Z"/><path class="cls-2" d="M73.7,203.33v-31.2h-23v31.2H33.5v-62.7c0-8.9,4.7-13.31,14-13.31H77c9.3,0,14,4.41,14,13.31v62.7Zm0-54.4a2.65,2.65,0,0,0-3-3h-17a2.65,2.65,0,0,0-3,3v7.2h23Z"/><path class="cls-2" d="M132.06,203.33,113.39,166v37.3H97.47v-76h15.92v30.41l17-30.41h18.3l-19.5,33,22.63,43Z"/><path class="cls-2" d="M36.7,121.26v-19.1H70.8a2.65,2.65,0,0,0,3-3v-5a2.65,2.65,0,0,0-3-3H50.6c-9.3,0-14-4.4-14-13.31V59.75c0-9.7,4.5-14.5,13.5-14.5H89.3v19.1H56.9a2.65,2.65,0,0,0-3,3v4.9a2.65,2.65,0,0,0,3,3H77.7c8.9,0,13.3,4.51,13.3,13.41v17.8c0,9.9-4.8,14.8-14.5,14.8Z"/><path class="cls-2" d="M112.67,121.26V64.35H95.26V45.25h52v19.1h-17.4v56.91Z"/><path class="cls-2" d="M73.77,203.26v-31.2h-23v31.2H33.57V140.55c0-8.9,4.7-13.3,14-13.3h29.5c9.3,0,14,4.4,14,13.3v62.71Zm0-54.41a2.65,2.65,0,0,0-3-3h-17a2.65,2.65,0,0,0-3,3v7.2h23Z"/><path class="cls-2" d="M132.13,203.26,113.46,166v37.3H97.54v-76h15.92v30.41l17-30.41h18.3l-19.5,33,22.63,43Z"/><path class="cls-2" d="M36.77,121.19V102.08h34.1a2.65,2.65,0,0,0,3-3v-5a2.65,2.65,0,0,0-3-3H50.67c-9.3,0-14-4.4-14-13.3V59.68c0-9.7,4.5-14.5,13.5-14.5h39.2v19.1H57a2.65,2.65,0,0,0-3,3v4.9a2.65,2.65,0,0,0,3,3h20.8c8.9,0,13.3,4.5,13.3,13.4v17.8c0,9.91-4.8,14.81-14.5,14.81Z"/><path class="cls-2" d="M112.74,121.19V64.28H95.34V45.18h52v19.1h-17.4v56.91Z"/><path class="cls-2" d="M73.84,203.19V172h-23v31.21H33.64V140.48c0-8.9,4.7-13.3,14-13.3h29.5c9.3,0,14,4.4,14,13.3v62.71Zm0-54.41a2.65,2.65,0,0,0-3-3h-17a2.65,2.65,0,0,0-3,3V156h23Z"/><path class="cls-2" d="M132.21,203.19l-18.68-37.31v37.31H97.62v-76h15.91v30.4l17-30.4h18.31l-19.51,33,22.63,43Z"/><path class="cls-2" d="M36.84,121.11V102h34.1a2.65,2.65,0,0,0,3-3V94a2.65,2.65,0,0,0-3-3H50.74c-9.3,0-14-4.4-14-13.3V59.61c0-9.7,4.5-14.5,13.5-14.5h39.2v19.1H57a2.65,2.65,0,0,0-3,3v4.9a2.65,2.65,0,0,0,3,3h20.8c8.9,0,13.3,4.5,13.3,13.4v17.8c0,9.9-4.8,14.8-14.5,14.8Z"/><path class="cls-2" d="M112.81,121.11V64.21H95.41V45.11h52v19.1H130v56.9Z"/><path class="cls-2" d="M73.91,203.11v-31.2h-23v31.2H33.71v-62.7c0-8.9,4.7-13.3,14-13.3h29.5c9.3,0,14,4.4,14,13.3v62.7Zm0-54.4a2.65,2.65,0,0,0-3-3h-17a2.65,2.65,0,0,0-3,3v7.2h23Z"/><path class="cls-2" d="M132.28,203.11l-18.68-37.3v37.3H97.69v-76H113.6v30.4l17-30.4h18.31l-19.5,33,22.63,43Z"/><path class="cls-2" d="M36.91,121v-19.1H71a2.65,2.65,0,0,0,3-3v-5a2.65,2.65,0,0,0-3-3H50.81c-9.3,0-14-4.4-14-13.3V59.54c0-9.7,4.5-14.5,13.5-14.5h39.2v19.1H57.11a2.65,2.65,0,0,0-3,3V72a2.65,2.65,0,0,0,3,3h20.8c8.9,0,13.3,4.5,13.3,13.4v17.8c0,9.9-4.8,14.8-14.5,14.8Z"/><path class="cls-2" d="M112.88,121V64.14H95.48V45h52v19.1h-17.4V121Z"/><path class="cls-2" d="M74,203v-31.2H51V203H33.78v-62.7c0-8.9,4.7-13.3,14-13.3H77.29c9.3,0,14,4.4,14,13.3V203Zm0-54.4a2.65,2.65,0,0,0-3-3H54a2.65,2.65,0,0,0-3,3v7.2H74Z"/><path class="cls-2" d="M132.35,203l-18.68-37.3V203H97.76V127h15.91v30.4l17-30.4H149l-19.5,33,22.63,43Z"/><path class="cls-2" d="M37,121v-19.1H71.09a2.65,2.65,0,0,0,3-3v-5a2.65,2.65,0,0,0-3-3H50.88c-9.3,0-14-4.4-14-13.3V59.47c0-9.7,4.5-14.51,13.5-14.51H89.59V64.07H57.18a2.65,2.65,0,0,0-3,3V72a2.65,2.65,0,0,0,3,3H78c8.9,0,13.3,4.5,13.3,13.4v17.8c0,9.9-4.8,14.8-14.5,14.8Z"/><path class="cls-2" d="M113,121V64.07H95.55V45h52V64.07H130.15V121Z"/><path class="cls-2" d="M74.06,203v-31.2h-23V203H33.86v-62.7c0-8.9,4.7-13.31,14-13.31h29.5c9.3,0,14,4.41,14,13.31V203Zm0-54.4a2.65,2.65,0,0,0-3-3h-17a2.65,2.65,0,0,0-3,3v7.2h23Z"/><path class="cls-2" d="M132.42,203l-18.67-37.3V203H97.83V127h15.92v30.41l17-30.41h18.3l-19.5,33,22.63,43Z"/><path class="cls-2" d="M37.06,120.9V101.8h34.1a2.65,2.65,0,0,0,3-3v-5a2.65,2.65,0,0,0-3-3H51c-9.3,0-14-4.4-14-13.31V59.39c0-9.7,4.5-14.5,13.5-14.5h39.2V64H57.26a2.65,2.65,0,0,0-3,3v4.9a2.65,2.65,0,0,0,3,3h20.8c8.9,0,13.3,4.51,13.3,13.41v17.8c0,9.9-4.8,14.8-14.5,14.8Z"/><path class="cls-2" d="M113,120.9V64H95.62V44.89h52V64h-17.4V120.9Z"/><path class="cls-2" d="M74.13,202.9V171.7h-23v31.2H33.93V140.19c0-8.9,4.7-13.3,14-13.3h29.5c9.3,0,14,4.4,14,13.3V202.9Zm0-54.41a2.65,2.65,0,0,0-3-3h-17a2.65,2.65,0,0,0-3,3v7.2h23Z"/><path class="cls-2" d="M132.49,202.9l-18.67-37.3v37.3H97.9v-76h15.92V157.3l17-30.41h18.3l-19.5,33,22.63,43Z"/><path class="cls-2" d="M37.13,120.83V101.72h34.1a2.65,2.65,0,0,0,3-3v-5a2.65,2.65,0,0,0-3-3H51c-9.3,0-14-4.4-14-13.3V59.32c0-9.7,4.5-14.5,13.5-14.5h39.2v19.1H57.33a2.65,2.65,0,0,0-3,3v4.9a2.65,2.65,0,0,0,3,3h20.8c8.9,0,13.3,4.5,13.3,13.4V106c0,9.91-4.8,14.81-14.5,14.81Z"/><path class="cls-2" d="M113.1,120.83V63.92H95.7V44.82h52v19.1H130.3v56.91Z"/><path class="cls-2" d="M74.2,202.83V171.62h-23v31.21H34V140.12c0-8.9,4.7-13.3,14-13.3H77.5c9.3,0,14,4.4,14,13.3v62.71Zm0-54.41a2.65,2.65,0,0,0-3-3h-17a2.65,2.65,0,0,0-3,3v7.2h23Z"/><path class="cls-2" d="M132.57,202.83l-18.68-37.31v37.31H98v-76h15.91v30.4l17-30.4h18.31l-19.51,33,22.63,43Z"/><path class="cls-2" d="M37.2,120.75v-19.1H71.3a2.65,2.65,0,0,0,3-3v-5a2.65,2.65,0,0,0-3-3H51.1c-9.3,0-14-4.4-14-13.3V59.25c0-9.7,4.5-14.5,13.5-14.5H89.8v19.1H57.4a2.65,2.65,0,0,0-3,3v4.9a2.65,2.65,0,0,0,3,3H78.2c8.9,0,13.3,4.5,13.3,13.4V106c0,9.9-4.8,14.8-14.5,14.8Z"/><path class="cls-2" d="M113.17,120.75V63.85H95.77V44.75h52v19.1h-17.4v56.9Z"/><path class="cls-2" d="M74.27,202.75v-31.2h-23v31.2H34.07v-62.7c0-8.9,4.7-13.3,14-13.3h29.5c9.3,0,14,4.4,14,13.3v62.7Zm0-54.4a2.65,2.65,0,0,0-3-3h-17a2.65,2.65,0,0,0-3,3v7.2h23Z"/><path class="cls-2" d="M132.64,202.75,114,165.45v37.3H98.05v-76H114v30.4l17-30.4h18.31l-19.5,33,22.63,43Z"/><path class="cls-2" d="M37.27,120.68v-19.1h34.1a2.65,2.65,0,0,0,3-3v-5a2.65,2.65,0,0,0-3-3H51.17c-9.3,0-14-4.4-14-13.3V59.18c0-9.7,4.5-14.5,13.5-14.5h39.2v19.1H57.47a2.65,2.65,0,0,0-3,3v4.9a2.65,2.65,0,0,0,3,3h20.8c8.9,0,13.3,4.5,13.3,13.4v17.8c0,9.9-4.8,14.8-14.5,14.8Z"/><path class="cls-2" d="M113.24,120.68V63.78H95.84V44.68h52v19.1h-17.4v56.9Z"/><path class="cls-2" d="M74.35,202.68v-31.2h-23v31.2H34.14V140c0-8.9,4.7-13.3,14-13.3H77.65c9.3,0,14,4.4,14,13.3v62.7Zm0-54.4a2.65,2.65,0,0,0-3-3h-17a2.65,2.65,0,0,0-3,3v7.2h23Z"/><path class="cls-2" d="M132.71,202.68,114,165.38v37.3H98.12v-76H114v30.4l17-30.4h18.31l-19.5,33,22.63,43Z"/><path class="cls-2" d="M37.34,120.61v-19.1H71.45a2.65,2.65,0,0,0,3-3v-5a2.65,2.65,0,0,0-3-3H51.24c-9.3,0-14-4.4-14-13.3V59.11c0-9.7,4.5-14.51,13.5-14.51H90V63.71H57.54a2.65,2.65,0,0,0-3,3v4.9a2.65,2.65,0,0,0,3,3H78.35c8.9,0,13.3,4.5,13.3,13.4v17.8c0,9.9-4.8,14.8-14.5,14.8Z"/><path class="cls-2" d="M113.31,120.61V63.71H95.91V44.6h52V63.71H130.51v56.9Z"/><path class="cls-2" d="M74.42,202.61v-31.2h-23v31.2H34.22v-62.7c0-8.9,4.7-13.31,14-13.31h29.5c9.3,0,14,4.41,14,13.31v62.7Zm0-54.4a2.65,2.65,0,0,0-3-3h-17a2.65,2.65,0,0,0-3,3v7.2h23Z"/><path class="cls-2" d="M132.78,202.61l-18.67-37.3v37.3H98.19v-76h15.92V157l17-30.41h18.3l-19.5,33,22.63,43Z"/><path class="cls-2" d="M37.42,120.54v-19.1h34.1a2.65,2.65,0,0,0,3-3v-5a2.65,2.65,0,0,0-3-3H51.32c-9.3,0-14-4.4-14-13.31V59c0-9.7,4.5-14.5,13.5-14.5H90v19.1H57.62a2.65,2.65,0,0,0-3,3v4.9a2.65,2.65,0,0,0,3,3h20.8c8.9,0,13.3,4.51,13.3,13.41v17.8c0,9.9-4.8,14.8-14.5,14.8Z"/><path class="cls-2" d="M113.39,120.54V63.63H96V44.53h52v19.1h-17.4v56.91Z"/><path class="cls-2" d="M74.49,202.54v-31.2h-23v31.2H34.29V139.83c0-8.9,4.7-13.3,14-13.3h29.5c9.3,0,14,4.4,14,13.3v62.71Zm0-54.41a2.65,2.65,0,0,0-3-3h-17a2.65,2.65,0,0,0-3,3v7.2h23Z"/><path class="cls-2" d="M132.85,202.54l-18.67-37.3v37.3H98.26v-76h15.92v30.41l17-30.41h18.3l-19.5,33,22.63,43Z"/><path class="cls-2" d="M37.49,120.47V101.36h34.1a2.65,2.65,0,0,0,3-3v-5a2.65,2.65,0,0,0-3-3H51.39c-9.3,0-14-4.4-14-13.3V59c0-9.7,4.5-14.5,13.5-14.5h39.2v19.1H57.69a2.65,2.65,0,0,0-3,3v4.9a2.65,2.65,0,0,0,3,3h20.8c8.9,0,13.3,4.5,13.3,13.4v17.8c0,9.91-4.8,14.81-14.5,14.81Z"/><path class="cls-2" d="M113.46,120.47V63.56H96.06V44.46h52v19.1h-17.4v56.91Z"/><path class="cls-2" d="M74.56,202.47V171.26h-23v31.21H34.36V139.76c0-8.9,4.7-13.3,14-13.3h29.5c9.3,0,14,4.4,14,13.3v62.71Zm0-54.41a2.65,2.65,0,0,0-3-3h-17a2.65,2.65,0,0,0-3,3v7.2h23Z"/><path class="cls-2" d="M132.93,202.47l-18.68-37.31v37.31H98.34v-76h15.91v30.4l17-30.4h18.31l-19.51,33,22.63,43Z"/><path class="cls-2" d="M37.56,120.39v-19.1h34.1a2.65,2.65,0,0,0,3-3v-5a2.65,2.65,0,0,0-3-3H51.46c-9.3,0-14-4.4-14-13.3V58.89c0-9.7,4.5-14.5,13.5-14.5h39.2v19.1H57.76a2.65,2.65,0,0,0-3,3v4.9a2.65,2.65,0,0,0,3,3h20.8c8.9,0,13.3,4.5,13.3,13.4v17.8c0,9.9-4.8,14.8-14.5,14.8Z"/><path class="cls-2" d="M113.53,120.39V63.49H96.13V44.39h52v19.1h-17.4v56.9Z"/><path class="cls-2" d="M74.63,202.39v-31.2h-23v31.2H34.43v-62.7c0-8.9,4.7-13.3,14-13.3h29.5c9.3,0,14,4.4,14,13.3v62.7Zm0-54.4a2.65,2.65,0,0,0-3-3h-17a2.65,2.65,0,0,0-3,3v7.2h23Z"/><path class="cls-2" d="M133,202.39l-18.68-37.3v37.3H98.41v-76h15.91v30.4l17-30.4h18.31l-19.5,33,22.63,43Z"/><path class="cls-2" d="M37.63,120.32v-19.1h34.1a2.65,2.65,0,0,0,3-3v-5a2.65,2.65,0,0,0-3-3H51.53c-9.3,0-14-4.4-14-13.3V58.82c0-9.7,4.5-14.5,13.5-14.5h39.2v19.1H57.83a2.65,2.65,0,0,0-3,3v4.9a2.65,2.65,0,0,0,3,3h20.8c8.9,0,13.3,4.5,13.3,13.4v17.8c0,9.9-4.8,14.8-14.5,14.8Z"/><path class="cls-2" d="M113.6,120.32V63.42H96.2V44.32h52v19.1H130.8v56.9Z"/><path class="cls-2" d="M74.71,202.32v-31.2h-23v31.2H34.5v-62.7c0-8.9,4.7-13.3,14-13.3H78c9.3,0,14,4.4,14,13.3v62.7Zm0-54.4a2.65,2.65,0,0,0-3-3h-17a2.65,2.65,0,0,0-3,3v7.2h23Z"/><path class="cls-2" d="M133.07,202.32,114.39,165v37.3H98.48v-76h15.91v30.4l17-30.4h18.31l-19.5,33,22.63,43Z"/><path class="cls-2" d="M37.7,120.25v-19.1H71.81a2.65,2.65,0,0,0,3-3v-5a2.65,2.65,0,0,0-3-3H51.6c-9.3,0-14-4.4-14-13.3V58.75c0-9.7,4.5-14.51,13.5-14.51H90.31V63.35H57.9a2.65,2.65,0,0,0-3,3v4.9a2.65,2.65,0,0,0,3,3H78.71c8.9,0,13.3,4.5,13.3,13.4v17.8c0,9.9-4.8,14.8-14.5,14.8Z"/><path class="cls-2" d="M113.67,120.25V63.35H96.27V44.24h52V63.35H130.87v56.9Z"/><path class="cls-2" d="M74.78,202.25v-31.2h-23v31.2H34.58v-62.7c0-8.9,4.7-13.31,14-13.31h29.5c9.3,0,14,4.41,14,13.31v62.7Zm0-54.4a2.65,2.65,0,0,0-3-3h-17a2.65,2.65,0,0,0-3,3v7.2h23Z"/><path class="cls-2" d="M133.14,202.25,114.47,165v37.3H98.55v-76h15.92v30.41l17-30.41h18.3l-19.5,33,22.63,43Z"/><path class="cls-2" d="M37.78,120.18v-19.1h34.1a2.65,2.65,0,0,0,3-3v-5a2.65,2.65,0,0,0-3-3H51.68c-9.3,0-14-4.4-14-13.31V58.67c0-9.7,4.5-14.5,13.5-14.5h39.2v19.1H58a2.65,2.65,0,0,0-3,3v4.9a2.65,2.65,0,0,0,3,3h20.8c8.9,0,13.3,4.51,13.3,13.41v17.8c0,9.9-4.8,14.8-14.5,14.8Z"/><path class="cls-2" d="M113.75,120.18V63.27H96.34V44.17h52v19.1H131v56.91Z"/><path class="cls-2" d="M74.85,202.18V171h-23v31.2H34.65V139.47c0-8.9,4.7-13.3,14-13.3h29.5c9.3,0,14,4.4,14,13.3v62.71Zm0-54.41a2.65,2.65,0,0,0-3-3h-17a2.65,2.65,0,0,0-3,3V155h23Z"/><path class="cls-2" d="M133.21,202.18l-18.67-37.3v37.3H98.62v-76h15.92v30.41l17-30.41h18.3l-19.5,33,22.63,43Z"/><path class="cls-2" d="M37.85,120.11V101H72a2.65,2.65,0,0,0,3-3V93a2.65,2.65,0,0,0-3-3H51.75c-9.3,0-14-4.4-14-13.3V58.6c0-9.7,4.5-14.5,13.5-14.5h39.2V63.2H58.05a2.65,2.65,0,0,0-3,3v4.9a2.65,2.65,0,0,0,3,3h20.8c8.9,0,13.3,4.5,13.3,13.4v17.8c0,9.91-4.8,14.81-14.5,14.81Z"/><path class="cls-2" d="M113.82,120.11V63.2H96.42V44.1h52V63.2H131v56.91Z"/><path class="cls-2" d="M74.92,202.11V170.9h-23v31.21H34.72V139.4c0-8.9,4.7-13.3,14-13.3h29.5c9.3,0,14,4.4,14,13.3v62.71Zm0-54.41a2.65,2.65,0,0,0-3-3h-17a2.65,2.65,0,0,0-3,3v7.2h23Z"/><path class="cls-2" d="M133.29,202.11,114.61,164.8v37.31H98.7v-76h15.91v30.4l17-30.4h18.31l-19.51,33,22.63,43Z"/><path class="cls-2" d="M37.92,120v-19.1H72a2.65,2.65,0,0,0,3-3v-5a2.65,2.65,0,0,0-3-3H51.82c-9.3,0-14-4.4-14-13.3V58.53c0-9.7,4.5-14.5,13.5-14.5h39.2v19.1H58.12a2.65,2.65,0,0,0-3,3V71a2.65,2.65,0,0,0,3,3h20.8c8.9,0,13.3,4.5,13.3,13.4v17.8c0,9.9-4.8,14.8-14.5,14.8Z"/><path class="cls-2" d="M113.89,120V63.13H96.49V44h52v19.1h-17.4V120Z"/><path class="cls-2" d="M75,202v-31.2H52V202H34.79v-62.7c0-8.9,4.7-13.3,14-13.3h29.5c9.3,0,14,4.4,14,13.3V202Zm0-54.4a2.65,2.65,0,0,0-3-3H55a2.65,2.65,0,0,0-3,3v7.2H75Z"/><path class="cls-2" d="M133.36,202l-18.68-37.3V202H98.77V126h15.91v30.4l17-30.4H150l-19.5,33,22.63,43Z"/><path class="cls-2" d="M38,120v-19.1h34.1a2.65,2.65,0,0,0,3-3v-5a2.65,2.65,0,0,0-3-3H51.89c-9.3,0-14-4.4-14-13.3V58.46c0-9.7,4.5-14.5,13.5-14.5h39.2v19.1H58.19a2.65,2.65,0,0,0-3,3V71a2.65,2.65,0,0,0,3,3H79c8.9,0,13.3,4.5,13.3,13.4v17.8c0,9.9-4.8,14.8-14.5,14.8Z"/><path class="cls-2" d="M114,120V63.06H96.56V44h52v19.1h-17.4V120Z"/><path class="cls-2" d="M75.07,202v-31.2h-23V202H34.86v-62.7c0-8.9,4.7-13.3,14-13.3H78.37c9.3,0,14,4.4,14,13.3V202Zm0-54.4a2.65,2.65,0,0,0-3-3h-17a2.65,2.65,0,0,0-3,3v7.2h23Z"/><path class="cls-2" d="M133.43,202l-18.68-37.3V202H98.84V126h15.91v30.4l17-30.4h18.31l-19.5,33,22.63,43Z"/><path class="cls-2" d="M38.06,119.89v-19.1H72.17a2.65,2.65,0,0,0,3-3v-5a2.65,2.65,0,0,0-3-3H52c-9.3,0-14-4.4-14-13.3V58.39c0-9.7,4.5-14.51,13.5-14.51H90.67V63H58.26a2.65,2.65,0,0,0-3,3v4.9a2.65,2.65,0,0,0,3,3H79.07c8.9,0,13.3,4.5,13.3,13.4v17.8c0,9.9-4.8,14.8-14.5,14.8Z"/><path class="cls-2" d="M114,119.89V63H96.63V43.88h52V63H131.23v56.9Z"/><path class="cls-2" d="M75.14,201.89v-31.2h-23v31.2H34.94v-62.7c0-8.9,4.7-13.31,14-13.31h29.5c9.3,0,14,4.41,14,13.31v62.7Zm0-54.4a2.65,2.65,0,0,0-3-3h-17a2.65,2.65,0,0,0-3,3v7.2h23Z"/><path class="cls-2" d="M133.5,201.89l-18.67-37.3v37.3H98.91v-76h15.92v30.41l17-30.41h18.3l-19.5,33,22.63,43Z"/><path class="cls-2" d="M38.14,119.82v-19.1h34.1a2.65,2.65,0,0,0,3-3v-5a2.65,2.65,0,0,0-3-3H52c-9.3,0-14-4.4-14-13.31V58.31c0-9.7,4.5-14.5,13.5-14.5h39.2v19.1H58.34a2.65,2.65,0,0,0-3,3v4.9a2.65,2.65,0,0,0,3,3h20.8c8.9,0,13.3,4.51,13.3,13.41V105c0,9.9-4.8,14.8-14.5,14.8Z"/><path class="cls-2" d="M114.11,119.82V62.91H96.7V43.81h52v19.1h-17.4v56.91Z"/><path class="cls-2" d="M75.21,201.82v-31.2h-23v31.2H35V139.11c0-8.9,4.7-13.3,14-13.3h29.5c9.3,0,14,4.4,14,13.3v62.71Zm0-54.41a2.65,2.65,0,0,0-3-3h-17a2.65,2.65,0,0,0-3,3v7.2h23Z"/><path class="cls-2" d="M133.57,201.82l-18.67-37.3v37.3H99v-76H114.9v30.41l17-30.41h18.3l-19.5,33,22.63,43Z"/><path class="cls-2" d="M38.21,119.75V100.64h34.1a2.65,2.65,0,0,0,3-3v-5a2.65,2.65,0,0,0-3-3H52.11c-9.3,0-14-4.4-14-13.3V58.24c0-9.7,4.5-14.5,13.5-14.5h39.2v19.1H58.41a2.65,2.65,0,0,0-3,3v4.9a2.65,2.65,0,0,0,3,3h20.8c8.9,0,13.3,4.5,13.3,13.4v17.8c0,9.91-4.8,14.81-14.5,14.81Z"/><path class="cls-2" d="M114.18,119.75V62.84H96.78V43.74h52v19.1h-17.4v56.91Z"/><path class="cls-2" d="M75.28,201.75V170.54h-23v31.21H35.08V139c0-8.9,4.7-13.3,14-13.3h29.5c9.3,0,14,4.4,14,13.3v62.71Zm0-54.41a2.65,2.65,0,0,0-3-3h-17a2.65,2.65,0,0,0-3,3v7.2h23Z"/><path class="cls-2" d="M133.65,201.75,115,164.44v37.31H99.06v-76H115v30.4l17-30.4H150.3l-19.51,33,22.63,43Z"/><path class="cls-2" d="M38.28,119.67v-19.1h34.1a2.65,2.65,0,0,0,3-3v-5a2.65,2.65,0,0,0-3-3H52.18c-9.3,0-14-4.4-14-13.3V58.17c0-9.7,4.5-14.5,13.5-14.5h39.2v19.1H58.48a2.65,2.65,0,0,0-3,3v4.9a2.65,2.65,0,0,0,3,3h20.8c8.9,0,13.3,4.5,13.3,13.4v17.8c0,9.9-4.8,14.8-14.5,14.8Z"/><path class="cls-2" d="M114.25,119.67V62.77H96.85V43.67h52v19.1h-17.4v56.9Z"/><path class="cls-2" d="M75.35,201.67v-31.2h-23v31.2H35.15V139c0-8.9,4.7-13.3,14-13.3h29.5c9.3,0,14,4.4,14,13.3v62.7Zm0-54.4a2.65,2.65,0,0,0-3-3h-17a2.65,2.65,0,0,0-3,3v7.2h23Z"/><path class="cls-2" d="M133.72,201.67,115,164.37v37.3H99.13v-76H115v30.4l17-30.4h18.31l-19.5,33,22.63,43Z"/><path class="cls-2" d="M38.35,119.6V100.5h34.1a2.65,2.65,0,0,0,3-3v-5a2.65,2.65,0,0,0-3-3H52.25c-9.3,0-14-4.4-14-13.3V58.1c0-9.7,4.5-14.5,13.5-14.5H91V62.7H58.55a2.65,2.65,0,0,0-3,3v4.9a2.65,2.65,0,0,0,3,3h20.8c8.9,0,13.3,4.5,13.3,13.4v17.8c0,9.9-4.8,14.8-14.5,14.8Z"/><path class="cls-2" d="M114.32,119.6V62.7H96.92V43.6h52V62.7h-17.4v56.9Z"/><path class="cls-2" d="M75.43,201.6V170.4h-23v31.2H35.22V138.9c0-8.9,4.7-13.3,14-13.3H78.73c9.3,0,14,4.4,14,13.3v62.7Zm0-54.4a2.65,2.65,0,0,0-3-3h-17a2.65,2.65,0,0,0-3,3v7.2h23Z"/><path class="cls-2" d="M133.79,201.6l-18.68-37.3v37.3H99.2v-76h15.91V156l17-30.4h18.31l-19.5,33,22.63,43Z"/><path class="cls-2" d="M38.42,119.53v-19.1H72.53a2.65,2.65,0,0,0,3-3v-5a2.65,2.65,0,0,0-3-3H52.32c-9.3,0-14-4.4-14-13.3V58c0-9.7,4.5-14.51,13.5-14.51H91V62.63H58.62a2.65,2.65,0,0,0-3,3v4.9a2.65,2.65,0,0,0,3,3H79.43c8.9,0,13.3,4.5,13.3,13.4v17.8c0,9.9-4.8,14.8-14.5,14.8Z"/><path class="cls-2" d="M114.39,119.53V62.63H97V43.52h52V62.63H131.59v56.9Z"/><path class="cls-2" d="M75.5,201.53v-31.2h-23v31.2H35.3v-62.7c0-8.9,4.7-13.31,14-13.31H78.8c9.3,0,14,4.41,14,13.31v62.7Zm0-54.4a2.65,2.65,0,0,0-3-3h-17a2.65,2.65,0,0,0-3,3v7.2h23Z"/><path class="cls-2" d="M133.86,201.53l-18.67-37.3v37.3H99.27v-76h15.92v30.41l17-30.41h18.3l-19.5,33,22.63,43Z"/><path class="cls-2" d="M38.5,119.46v-19.1H72.6a2.65,2.65,0,0,0,3-3v-5a2.65,2.65,0,0,0-3-3H52.4c-9.3,0-14-4.4-14-13.31V58c0-9.7,4.5-14.5,13.5-14.5H91.1v19.1H58.7a2.65,2.65,0,0,0-3,3v4.9a2.65,2.65,0,0,0,3,3H79.5c8.9,0,13.3,4.51,13.3,13.41v17.8c0,9.9-4.8,14.8-14.5,14.8Z"/><path class="cls-2" d="M114.47,119.46V62.55H97.06V43.45h52v19.1h-17.4v56.91Z"/><path class="cls-2" d="M75.57,201.46v-31.2h-23v31.2H35.37V138.75c0-8.9,4.7-13.3,14-13.3h29.5c9.3,0,14,4.4,14,13.3v62.71Zm0-54.41a2.65,2.65,0,0,0-3-3h-17a2.65,2.65,0,0,0-3,3v7.2h23Z"/><path class="cls-2" d="M133.93,201.46l-18.67-37.3v37.3H99.34v-76h15.92v30.41l17-30.41h18.3l-19.5,33,22.63,43Z"/><path class="cls-2" d="M38.57,119.39V100.28h34.1a2.65,2.65,0,0,0,3-3v-5a2.65,2.65,0,0,0-3-3H52.47c-9.3,0-14-4.4-14-13.3V57.88c0-9.7,4.5-14.5,13.5-14.5h39.2v19.1H58.77a2.65,2.65,0,0,0-3,3v4.9a2.65,2.65,0,0,0,3,3h20.8c8.9,0,13.3,4.5,13.3,13.4v17.8c0,9.91-4.8,14.81-14.5,14.81Z"/><path class="cls-2" d="M114.54,119.39V62.48H97.14V43.38h52v19.1h-17.4v56.91Z"/><path class="cls-2" d="M75.64,201.39V170.18h-23v31.21H35.44V138.68c0-8.9,4.7-13.3,14-13.3h29.5c9.3,0,14,4.4,14,13.3v62.71Zm0-54.41a2.65,2.65,0,0,0-3-3h-17a2.65,2.65,0,0,0-3,3v7.2h23Z"/><path class="cls-2" d="M134,201.39l-18.68-37.31v37.31H99.42v-76h15.91v30.4l17-30.4h18.31l-19.51,33,22.63,43Z"/><path class="cls-2" d="M38.64,119.31v-19.1h34.1a2.65,2.65,0,0,0,3-3v-5a2.65,2.65,0,0,0-3-3H52.54c-9.3,0-14-4.4-14-13.3V57.81c0-9.7,4.5-14.5,13.5-14.5h39.2v19.1H58.84a2.65,2.65,0,0,0-3,3v4.9a2.65,2.65,0,0,0,3,3h20.8c8.9,0,13.3,4.5,13.3,13.4v17.8c0,9.9-4.8,14.8-14.5,14.8Z"/><path class="cls-2" d="M114.61,119.31V62.41H97.21V43.31h52v19.1h-17.4v56.9Z"/><path class="cls-2" d="M75.71,201.31v-31.2h-23v31.2H35.51v-62.7c0-8.9,4.7-13.3,14-13.3H79c9.3,0,14,4.4,14,13.3v62.7Zm0-54.4a2.65,2.65,0,0,0-3-3h-17a2.65,2.65,0,0,0-3,3v7.2h23Z"/><path class="cls-2" d="M134.08,201.31,115.4,164v37.3H99.49v-76H115.4v30.4l17-30.4h18.31l-19.5,33,22.63,43Z"/><path class="cls-2" d="M38.71,119.24v-19.1h34.1a2.65,2.65,0,0,0,3-3v-5a2.65,2.65,0,0,0-3-3H52.61c-9.3,0-14-4.4-14-13.3V57.74c0-9.7,4.5-14.5,13.5-14.5h39.2v19.1H58.91a2.65,2.65,0,0,0-3,3v4.9a2.65,2.65,0,0,0,3,3h20.8c8.9,0,13.3,4.5,13.3,13.4v17.8c0,9.9-4.8,14.8-14.5,14.8Z"/><path class="cls-2" d="M114.68,119.24V62.34H97.28V43.24h52v19.1h-17.4v56.9Z"/><path class="cls-2" d="M75.79,201.24V170h-23v31.2H35.58v-62.7c0-8.9,4.7-13.3,14-13.3H79.09c9.3,0,14,4.4,14,13.3v62.7Zm0-54.4a2.65,2.65,0,0,0-3-3h-17a2.65,2.65,0,0,0-3,3V154h23Z"/><path class="cls-2" d="M134.15,201.24l-18.68-37.3v37.3H99.56v-76h15.91v30.4l17-30.4H150.8l-19.5,33,22.63,43Z"/><path class="cls-2" d="M38.78,119.17v-19.1H72.89a2.65,2.65,0,0,0,3-3v-5a2.65,2.65,0,0,0-3-3H52.68c-9.3,0-14-4.4-14-13.3V57.67c0-9.7,4.5-14.51,13.5-14.51H91.39V62.27H59a2.65,2.65,0,0,0-3,3v4.9a2.65,2.65,0,0,0,3,3H79.79c8.9,0,13.3,4.5,13.3,13.4v17.8c0,9.9-4.8,14.8-14.5,14.8Z"/><path class="cls-2" d="M114.75,119.17V62.27H97.35V43.16h52V62.27H132v56.9Z"/><path class="cls-2" d="M75.86,201.17V170h-23v31.2H35.66v-62.7c0-8.9,4.7-13.31,14-13.31h29.5c9.3,0,14,4.41,14,13.31v62.7Zm0-54.4a2.65,2.65,0,0,0-3-3h-17a2.65,2.65,0,0,0-3,3V154h23Z"/><path class="cls-2" d="M134.22,201.17l-18.67-37.3v37.3H99.63v-76h15.92v30.41l17-30.41h18.3l-19.5,33,22.63,43Z"/><path class="cls-2" d="M38.86,119.1V100H73a2.65,2.65,0,0,0,3-3V92a2.65,2.65,0,0,0-3-3H52.76c-9.3,0-14-4.4-14-13.31V57.59c0-9.7,4.5-14.5,13.5-14.5h39.2v19.1H59.06a2.65,2.65,0,0,0-3,3v4.9a2.65,2.65,0,0,0,3,3h20.8c8.9,0,13.3,4.51,13.3,13.41v17.8c0,9.9-4.8,14.8-14.5,14.8Z"/><path class="cls-2" d="M114.83,119.1V62.19H97.42V43.09h52v19.1H132V119.1Z"/><path class="cls-2" d="M75.93,201.1V169.9h-23v31.2H35.73V138.39c0-8.9,4.7-13.3,14-13.3h29.5c9.3,0,14,4.4,14,13.3V201.1Zm0-54.41a2.65,2.65,0,0,0-3-3h-17a2.65,2.65,0,0,0-3,3v7.2h23Z"/><path class="cls-2" d="M134.29,201.1l-18.67-37.3v37.3H99.7v-76h15.92V155.5l17-30.41h18.3l-19.5,33,22.63,43Z"/><path class="cls-2" d="M38.93,119V99.92H73a2.65,2.65,0,0,0,3-3v-5a2.65,2.65,0,0,0-3-3H52.83c-9.3,0-14-4.4-14-13.3V57.52c0-9.7,4.5-14.5,13.5-14.5h39.2v19.1H59.13a2.65,2.65,0,0,0-3,3V70a2.65,2.65,0,0,0,3,3h20.8c8.9,0,13.3,4.5,13.3,13.4v17.8c0,9.91-4.8,14.81-14.5,14.81Z"/><path class="cls-2" d="M114.9,119V62.12H97.5V43h52v19.1H132.1V119Z"/><path class="cls-2" d="M76,201V169.82H53V201H35.8V138.32c0-8.9,4.7-13.3,14-13.3H79.3c9.3,0,14,4.4,14,13.3V201Zm0-54.41a2.65,2.65,0,0,0-3-3H56a2.65,2.65,0,0,0-3,3v7.2H76Z"/><path class="cls-2" d="M134.37,201l-18.68-37.31V201H99.78V125h15.91v30.4l17-30.4H151l-19.51,33,22.63,43Z"/><path class="cls-2" d="M39,119V99.85H73.1a2.65,2.65,0,0,0,3-3v-5a2.65,2.65,0,0,0-3-3H52.9c-9.3,0-14-4.4-14-13.3V57.45c0-9.7,4.5-14.5,13.5-14.5H91.6v19.1H59.2a2.65,2.65,0,0,0-3,3V70a2.65,2.65,0,0,0,3,3H80c8.9,0,13.3,4.5,13.3,13.4v17.8c0,9.9-4.8,14.8-14.5,14.8Z"/><path class="cls-2" d="M115,119V62.05H97.57V43h52v19.1h-17.4V119Z"/><path class="cls-2" d="M76.07,201v-31.2h-23V201H35.87v-62.7c0-8.9,4.7-13.3,14-13.3h29.5c9.3,0,14,4.4,14,13.3V201Zm0-54.4a2.65,2.65,0,0,0-3-3h-17a2.65,2.65,0,0,0-3,3v7.2h23Z"/><path class="cls-2" d="M134.44,201l-18.68-37.3V201H99.85V125h15.91v30.4l17-30.4h18.31l-19.5,33,22.63,43Z"/><path class="cls-2" d="M39.07,118.88V99.78h34.1a2.65,2.65,0,0,0,3-3v-5a2.65,2.65,0,0,0-3-3H53c-9.3,0-14-4.4-14-13.3V57.38c0-9.7,4.5-14.5,13.5-14.5h39.2V62H59.27a2.65,2.65,0,0,0-3,3v4.9a2.65,2.65,0,0,0,3,3h20.8c8.9,0,13.3,4.5,13.3,13.4v17.8c0,9.9-4.8,14.8-14.5,14.8Z"/><path class="cls-2" d="M115,118.88V62H97.64V42.88h52V62h-17.4v56.9Z"/><path class="cls-2" d="M76.15,200.88v-31.2h-23v31.2H35.94v-62.7c0-8.9,4.7-13.3,14-13.3H79.45c9.3,0,14,4.4,14,13.3v62.7Zm0-54.4a2.65,2.65,0,0,0-3-3h-17a2.65,2.65,0,0,0-3,3v7.2h23Z"/><path class="cls-2" d="M134.51,200.88l-18.68-37.3v37.3H99.92v-76h15.91v30.4l17-30.4h18.31l-19.5,33,22.63,43Z"/><path class="cls-2" d="M39.14,118.81V99.71H73.25a2.65,2.65,0,0,0,3-3v-5a2.65,2.65,0,0,0-3-3H53c-9.3,0-14-4.4-14-13.3V57.31c0-9.7,4.5-14.51,13.5-14.51H91.75V61.91H59.34a2.65,2.65,0,0,0-3,3v4.9a2.65,2.65,0,0,0,3,3H80.15c8.9,0,13.3,4.5,13.3,13.4V104c0,9.9-4.8,14.8-14.5,14.8Z"/><path class="cls-2" d="M115.11,118.81V61.91H97.71V42.8h52V61.91H132.31v56.9Z"/><path class="cls-2" d="M76.22,200.81v-31.2h-23v31.2H36v-62.7c0-8.9,4.7-13.31,14-13.31h29.5c9.3,0,14,4.41,14,13.31v62.7Zm0-54.4a2.65,2.65,0,0,0-3-3h-17a2.65,2.65,0,0,0-3,3v7.2h23Z"/><path class="cls-2" d="M134.58,200.81l-18.67-37.3v37.3H100v-76h15.92v30.41l17-30.41h18.3l-19.5,33,22.63,43Z"/><path class="cls-2" d="M39.22,118.74V99.64h34.1a2.65,2.65,0,0,0,3-3v-5a2.65,2.65,0,0,0-3-3H53.12c-9.3,0-14-4.4-14-13.31V57.23c0-9.7,4.5-14.5,13.5-14.5h39.2v19.1H59.42a2.65,2.65,0,0,0-3,3v4.9a2.65,2.65,0,0,0,3,3h20.8c8.9,0,13.3,4.51,13.3,13.41v17.8c0,9.9-4.8,14.8-14.5,14.8Z"/><path class="cls-2" d="M115.19,118.74V61.83H97.78V42.73h52v19.1h-17.4v56.91Z"/><path class="cls-2" d="M76.29,200.74v-31.2h-23v31.2H36.09V138c0-8.9,4.7-13.3,14-13.3h29.5c9.3,0,14,4.4,14,13.3v62.71Zm0-54.41a2.65,2.65,0,0,0-3-3h-17a2.65,2.65,0,0,0-3,3v7.2h23Z"/><path class="cls-2" d="M134.65,200.74,116,163.44v37.3H100.06v-76H116v30.41l17-30.41h18.3l-19.5,33,22.63,43Z"/><path class="cls-2" d="M39.29,118.67V99.56h34.1a2.65,2.65,0,0,0,3-3v-5a2.65,2.65,0,0,0-3-3H53.19c-9.3,0-14-4.4-14-13.3V57.16c0-9.7,4.5-14.5,13.5-14.5h39.2v19.1H59.49a2.65,2.65,0,0,0-3,3v4.9a2.65,2.65,0,0,0,3,3h20.8c8.9,0,13.3,4.5,13.3,13.4v17.8c0,9.91-4.8,14.81-14.5,14.81Z"/><path class="cls-2" d="M115.26,118.67V61.76H97.86V42.66h52v19.1h-17.4v56.91Z"/><path class="cls-2" d="M76.36,200.67V169.46h-23v31.21H36.16V138c0-8.9,4.7-13.3,14-13.3h29.5c9.3,0,14,4.4,14,13.3v62.71Zm0-54.41a2.65,2.65,0,0,0-3-3h-17a2.65,2.65,0,0,0-3,3v7.2h23Z"/><path class="cls-2" d="M134.73,200.67l-18.68-37.31v37.31H100.14v-76h15.91v30.4l17-30.4h18.31l-19.51,33,22.63,43Z"/><path class="cls-2" d="M39.36,118.59V99.49h34.1a2.65,2.65,0,0,0,3-3v-5a2.65,2.65,0,0,0-3-3H53.26c-9.3,0-14-4.4-14-13.3V57.09c0-9.7,4.5-14.5,13.5-14.5H92v19.1H59.56a2.65,2.65,0,0,0-3,3v4.9a2.65,2.65,0,0,0,3,3h20.8c8.9,0,13.3,4.5,13.3,13.4v17.8c0,9.9-4.8,14.8-14.5,14.8Z"/><path class="cls-2" d="M115.33,118.59V61.69H97.93V42.59h52v19.1h-17.4v56.9Z"/><path class="cls-2" d="M76.43,200.59v-31.2h-23v31.2H36.23v-62.7c0-8.9,4.7-13.3,14-13.3h29.5c9.3,0,14,4.4,14,13.3v62.7Zm0-54.4a2.65,2.65,0,0,0-3-3h-17a2.65,2.65,0,0,0-3,3v7.2h23Z"/><path class="cls-2" d="M134.8,200.59l-18.68-37.3v37.3H100.21v-76h15.91V155l17-30.4h18.31l-19.5,33,22.63,43Z"/><path class="cls-2" d="M39.43,118.52V99.42h34.1a2.65,2.65,0,0,0,3-3v-5a2.65,2.65,0,0,0-3-3H53.33c-9.3,0-14-4.4-14-13.3V57c0-9.7,4.5-14.5,13.5-14.5H92v19.1H59.63a2.65,2.65,0,0,0-3,3v4.9a2.65,2.65,0,0,0,3,3h20.8c8.9,0,13.3,4.5,13.3,13.4v17.8c0,9.9-4.8,14.8-14.5,14.8Z"/><path class="cls-2" d="M115.4,118.52V61.62H98V42.52h52v19.1H132.6v56.9Z"/><path class="cls-2" d="M76.51,200.52v-31.2h-23v31.2H36.3v-62.7c0-8.9,4.7-13.3,14-13.3H79.81c9.3,0,14,4.4,14,13.3v62.7Zm0-54.4a2.65,2.65,0,0,0-3-3h-17a2.65,2.65,0,0,0-3,3v7.2h23Z"/><path class="cls-2" d="M134.87,200.52l-18.68-37.3v37.3H100.28v-76h15.91v30.4l17-30.4h18.31l-19.5,33,22.63,43Z"/><path class="cls-2" d="M39.5,118.45V99.35H73.61a2.65,2.65,0,0,0,3-3v-5a2.65,2.65,0,0,0-3-3H53.4c-9.3,0-14-4.4-14-13.3V57c0-9.7,4.5-14.51,13.5-14.51H92.11V61.55H59.7a2.65,2.65,0,0,0-3,3v4.9a2.65,2.65,0,0,0,3,3H80.51c8.9,0,13.3,4.5,13.3,13.4v17.8c0,9.9-4.8,14.8-14.5,14.8Z"/><path class="cls-2" d="M115.47,118.45V61.55H98.07V42.44h52V61.55H132.67v56.9Z"/><path class="cls-2" d="M76.58,200.45v-31.2h-23v31.2H36.38v-62.7c0-8.9,4.7-13.31,14-13.31h29.5c9.3,0,14,4.41,14,13.31v62.7Zm0-54.4a2.65,2.65,0,0,0-3-3h-17a2.65,2.65,0,0,0-3,3v7.2h23Z"/><path class="cls-2" d="M134.94,200.45l-18.67-37.3v37.3H100.35v-76h15.92v30.41l17-30.41h18.3l-19.5,33,22.63,43Z"/><path class="cls-2" d="M39.58,118.38V99.28h34.1a2.65,2.65,0,0,0,3-3v-5a2.65,2.65,0,0,0-3-3H53.48c-9.3,0-14-4.4-14-13.31V56.87c0-9.7,4.5-14.5,13.5-14.5h39.2v19.1H59.78a2.65,2.65,0,0,0-3,3v4.9a2.65,2.65,0,0,0,3,3h20.8c8.9,0,13.3,4.51,13.3,13.41v17.8c0,9.9-4.8,14.8-14.5,14.8Z"/><path class="cls-2" d="M115.55,118.38V61.47H98.14V42.37h52v19.1h-17.4v56.91Z"/><path class="cls-2" d="M76.65,200.38v-31.2h-23v31.2H36.45V137.67c0-8.9,4.7-13.3,14-13.3H80c9.3,0,14,4.4,14,13.3v62.71Zm0-54.41a2.65,2.65,0,0,0-3-3h-17a2.65,2.65,0,0,0-3,3v7.2h23Z"/><path class="cls-2" d="M135,200.38l-18.67-37.3v37.3H100.42v-76h15.92v30.41l17-30.41h18.3l-19.5,33,22.63,43Z"/><path class="cls-2" d="M39.65,118.31V99.2h34.1a2.65,2.65,0,0,0,3-3v-5a2.65,2.65,0,0,0-3-3H53.55c-9.3,0-14-4.4-14-13.3V56.8c0-9.7,4.5-14.5,13.5-14.5h39.2V61.4H59.85a2.65,2.65,0,0,0-3,3v4.9a2.65,2.65,0,0,0,3,3h20.8c8.9,0,13.3,4.5,13.3,13.4v17.8c0,9.91-4.8,14.81-14.5,14.81Z"/><path class="cls-2" d="M115.62,118.31V61.4H98.22V42.3h52V61.4h-17.4v56.91Z"/><path class="cls-2" d="M76.72,200.31V169.1h-23v31.21H36.52V137.6c0-8.9,4.7-13.3,14-13.3H80c9.3,0,14,4.4,14,13.3v62.71Zm0-54.41a2.65,2.65,0,0,0-3-3h-17a2.65,2.65,0,0,0-3,3v7.2h23Z"/><path class="cls-2" d="M135.09,200.31,116.41,163v37.31H100.5v-76h15.91v30.4l17-30.4h18.31l-19.51,33,22.63,43Z"/><path class="cls-2" d="M39.72,118.23V99.13h34.1a2.65,2.65,0,0,0,3-3v-5a2.65,2.65,0,0,0-3-3H53.62c-9.3,0-14-4.4-14-13.3V56.73c0-9.7,4.5-14.5,13.5-14.5h39.2v19.1H59.92a2.65,2.65,0,0,0-3,3v4.9a2.65,2.65,0,0,0,3,3h20.8c8.9,0,13.3,4.5,13.3,13.4v17.8c0,9.9-4.8,14.8-14.5,14.8Z"/><path class="cls-2" d="M115.69,118.23V61.33H98.29V42.23h52v19.1h-17.4v56.9Z"/><path class="cls-2" d="M76.79,200.23V169h-23v31.2H36.59v-62.7c0-8.9,4.7-13.3,14-13.3h29.5c9.3,0,14,4.4,14,13.3v62.7Zm0-54.4a2.65,2.65,0,0,0-3-3h-17a2.65,2.65,0,0,0-3,3V153h23Z"/><path class="cls-2" d="M135.16,200.23l-18.68-37.3v37.3H100.57v-76h15.91v30.4l17-30.4h18.31l-19.5,33,22.63,43Z"/><path class="cls-2" d="M39.79,118.16V99.06h34.1a2.65,2.65,0,0,0,3-3v-5a2.65,2.65,0,0,0-3-3H53.69c-9.3,0-14-4.4-14-13.3V56.66c0-9.7,4.5-14.5,13.5-14.5h39.2v19.1H60a2.65,2.65,0,0,0-3,3v4.9a2.65,2.65,0,0,0,3,3h20.8c8.9,0,13.3,4.5,13.3,13.4v17.8c0,9.9-4.8,14.8-14.5,14.8Z"/><path class="cls-2" d="M115.76,118.16V61.26H98.36V42.16h52v19.1H133v56.9Z"/><path class="cls-2" d="M76.87,200.16V169h-23v31.2H36.66v-62.7c0-8.9,4.7-13.3,14-13.3H80.17c9.3,0,14,4.4,14,13.3v62.7Zm0-54.4a2.65,2.65,0,0,0-3-3h-17a2.65,2.65,0,0,0-3,3V153h23Z"/><path class="cls-2" d="M135.23,200.16l-18.68-37.3v37.3H100.64v-76h15.91v30.4l17-30.4h18.31l-19.5,33,22.63,43Z"/><path class="cls-2" d="M39.86,118.09V99H74a2.65,2.65,0,0,0,3-3V91a2.65,2.65,0,0,0-3-3H53.76c-9.3,0-14-4.4-14-13.3V56.59c0-9.7,4.5-14.51,13.5-14.51H92.47V61.19H60.06a2.65,2.65,0,0,0-3,3v4.9a2.65,2.65,0,0,0,3,3H80.87c8.9,0,13.3,4.5,13.3,13.4v17.8c0,9.9-4.8,14.8-14.5,14.8Z"/><path class="cls-2" d="M115.83,118.09V61.19H98.43V42.08h52V61.19H133v56.9Z"/><path class="cls-2" d="M76.94,200.09v-31.2h-23v31.2H36.74v-62.7c0-8.9,4.7-13.31,14-13.31h29.5c9.3,0,14,4.41,14,13.31v62.7Zm0-54.4a2.65,2.65,0,0,0-3-3h-17a2.65,2.65,0,0,0-3,3v7.2h23Z"/><path class="cls-2" d="M135.3,200.09l-18.67-37.3v37.3H100.71v-76h15.92v30.41l17-30.41H152l-19.5,33,22.63,43Z"/><path class="cls-2" d="M39.94,118V98.92H74a2.65,2.65,0,0,0,3-3v-5a2.65,2.65,0,0,0-3-3H53.84c-9.3,0-14-4.4-14-13.31V56.51c0-9.7,4.5-14.5,13.5-14.5h39.2v19.1H60.14a2.65,2.65,0,0,0-3,3V69a2.65,2.65,0,0,0,3,3h20.8c8.9,0,13.3,4.51,13.3,13.41v17.8c0,9.9-4.8,14.8-14.5,14.8Z"/><path class="cls-2" d="M115.91,118V61.11H98.5V42h52v19.1h-17.4V118Z"/><path class="cls-2" d="M77,200v-31.2H54V200H36.81V137.31c0-8.9,4.7-13.3,14-13.3h29.5c9.3,0,14,4.4,14,13.3V200Zm0-54.41a2.65,2.65,0,0,0-3-3H57a2.65,2.65,0,0,0-3,3v7.2H77Z"/><path class="cls-2" d="M135.37,200l-18.67-37.3V200H100.78V124H116.7v30.41l17-30.41H152l-19.5,33,22.63,43Z"/><path class="cls-2" d="M40,118V98.84h34.1a2.65,2.65,0,0,0,3-3v-5a2.65,2.65,0,0,0-3-3H53.91c-9.3,0-14-4.4-14-13.3V56.44c0-9.7,4.5-14.5,13.5-14.5h39.2V61H60.21a2.65,2.65,0,0,0-3,3v4.9a2.65,2.65,0,0,0,3,3H81c8.9,0,13.3,4.5,13.3,13.4v17.8c0,9.91-4.8,14.81-14.5,14.81Z"/><path class="cls-2" d="M116,118V61H98.58V41.94h52V61h-17.4V118Z"/><path class="cls-2" d="M77.08,200V168.74h-23V200H36.88V137.24c0-8.9,4.7-13.3,14-13.3h29.5c9.3,0,14,4.4,14,13.3V200Zm0-54.41a2.65,2.65,0,0,0-3-3h-17a2.65,2.65,0,0,0-3,3v7.2h23Z"/><path class="cls-2" d="M135.45,200l-18.68-37.31V200H100.86v-76h15.91v30.4l17-30.4H152.1l-19.51,33,22.63,43Z"/><path class="cls-2" d="M40.08,117.87V98.77h34.1a2.65,2.65,0,0,0,3-3v-5a2.65,2.65,0,0,0-3-3H54c-9.3,0-14-4.4-14-13.3V56.37c0-9.7,4.5-14.5,13.5-14.5h39.2V61H60.28a2.65,2.65,0,0,0-3,3v4.9a2.65,2.65,0,0,0,3,3h20.8c8.9,0,13.3,4.5,13.3,13.4v17.8c0,9.9-4.8,14.8-14.5,14.8Z"/><path class="cls-2" d="M116.05,117.87V61H98.65V41.87h52V61h-17.4v56.9Z"/><path class="cls-2" d="M77.15,199.87v-31.2h-23v31.2H37v-62.7c0-8.9,4.7-13.3,14-13.3h29.5c9.3,0,14,4.4,14,13.3v62.7Zm0-54.4a2.65,2.65,0,0,0-3-3h-17a2.65,2.65,0,0,0-3,3v7.2h23Z"/><path class="cls-2" d="M135.52,199.87l-18.68-37.3v37.3H100.93v-76h15.91v30.4l17-30.4h18.31l-19.5,33,22.63,43Z"/><path class="cls-2" d="M40.15,117.8V98.7h34.1a2.65,2.65,0,0,0,3-3v-5a2.65,2.65,0,0,0-3-3H54.05c-9.3,0-14-4.4-14-13.3V56.3c0-9.7,4.5-14.5,13.5-14.5h39.2V60.9H60.35a2.65,2.65,0,0,0-3,3v4.9a2.65,2.65,0,0,0,3,3h20.8c8.9,0,13.3,4.5,13.3,13.4V103c0,9.9-4.8,14.8-14.5,14.8Z"/><path class="cls-2" d="M116.12,117.8V60.9H98.72V41.8h52V60.9h-17.4v56.9Z"/><path class="cls-2" d="M77.23,199.8V168.6h-23v31.2H37V137.1c0-8.9,4.7-13.3,14-13.3H80.53c9.3,0,14,4.4,14,13.3v62.7Zm0-54.4a2.65,2.65,0,0,0-3-3h-17a2.65,2.65,0,0,0-3,3v7.2h23Z"/><path class="cls-2" d="M135.59,199.8l-18.68-37.3v37.3H101v-76h15.91v30.4l17-30.4h18.31l-19.5,33,22.63,43Z"/><path class="cls-2" d="M40.22,117.73V98.63H74.33a2.65,2.65,0,0,0,3-3v-5a2.65,2.65,0,0,0-3-3H54.12c-9.3,0-14-4.4-14-13.3V56.23c0-9.7,4.5-14.51,13.5-14.51H92.83V60.83H60.42a2.65,2.65,0,0,0-3,3v4.9a2.65,2.65,0,0,0,3,3H81.23c8.9,0,13.3,4.5,13.3,13.4v17.8c0,9.9-4.8,14.8-14.5,14.8Z"/><path class="cls-2" d="M116.19,117.73V60.83H98.79V41.72h52V60.83H133.39v56.9Z"/><path class="cls-2" d="M77.3,199.73v-31.2h-23v31.2H37.1V137c0-8.9,4.7-13.31,14-13.31H80.6c9.3,0,14,4.41,14,13.31v62.7Zm0-54.4a2.65,2.65,0,0,0-3-3h-17a2.65,2.65,0,0,0-3,3v7.2h23Z"/><path class="cls-2" d="M135.66,199.73,117,162.43v37.3H101.07v-76H117v30.41l17-30.41h18.3l-19.5,33,22.63,43Z"/><path class="cls-2" d="M40.3,117.66V98.56H74.4a2.65,2.65,0,0,0,3-3v-5a2.65,2.65,0,0,0-3-3H54.2c-9.3,0-14-4.4-14-13.31V56.15c0-9.7,4.5-14.5,13.5-14.5H92.9v19.1H60.5a2.65,2.65,0,0,0-3,3v4.9a2.65,2.65,0,0,0,3,3H81.3c8.9,0,13.3,4.51,13.3,13.41v17.8c0,9.9-4.8,14.8-14.5,14.8Z"/><path class="cls-2" d="M116.27,117.66V60.75H98.86V41.65h52v19.1h-17.4v56.91Z"/><path class="cls-2" d="M77.37,199.66v-31.2h-23v31.2H37.17V137c0-8.9,4.7-13.3,14-13.3h29.5c9.3,0,14,4.4,14,13.3v62.71Zm0-54.41a2.65,2.65,0,0,0-3-3h-17a2.65,2.65,0,0,0-3,3v7.2h23Z"/><path class="cls-2" d="M135.73,199.66l-18.67-37.3v37.3H101.14v-76h15.92v30.41l17-30.41h18.3l-19.5,33,22.63,43Z"/><path class="cls-2" d="M40.37,117.59V98.48h34.1a2.65,2.65,0,0,0,3-3v-5a2.65,2.65,0,0,0-3-3H54.27c-9.3,0-14-4.4-14-13.3V56.08c0-9.7,4.5-14.5,13.5-14.5H93v19.1H60.57a2.65,2.65,0,0,0-3,3v4.9a2.65,2.65,0,0,0,3,3h20.8c8.9,0,13.3,4.5,13.3,13.4v17.8c0,9.91-4.8,14.81-14.5,14.81Z"/><path class="cls-2" d="M116.34,117.59V60.68H98.94V41.58h52v19.1h-17.4v56.91Z"/><path class="cls-2" d="M77.44,199.59V168.38h-23v31.21H37.24V136.88c0-8.9,4.7-13.3,14-13.3h29.5c9.3,0,14,4.4,14,13.3v62.71Zm0-54.41a2.65,2.65,0,0,0-3-3h-17a2.65,2.65,0,0,0-3,3v7.2h23Z"/><path class="cls-2" d="M135.81,199.59l-18.68-37.31v37.31H101.22v-76h15.91V154l17-30.4h18.31l-19.51,33,22.63,43Z"/><path class="cls-2" d="M40.44,117.51V98.41h34.1a2.65,2.65,0,0,0,3-3v-5a2.65,2.65,0,0,0-3-3H54.34c-9.3,0-14-4.4-14-13.3V56c0-9.7,4.5-14.5,13.5-14.5H93v19.1H60.64a2.65,2.65,0,0,0-3,3v4.9a2.65,2.65,0,0,0,3,3h20.8c8.9,0,13.3,4.5,13.3,13.4v17.8c0,9.9-4.8,14.8-14.5,14.8Z"/><path class="cls-2" d="M116.41,117.51V60.61H99V41.51h52v19.1h-17.4v56.9Z"/><path class="cls-2" d="M77.51,199.51v-31.2h-23v31.2H37.31v-62.7c0-8.9,4.7-13.3,14-13.3h29.5c9.3,0,14,4.4,14,13.3v62.7Zm0-54.4a2.65,2.65,0,0,0-3-3h-17a2.65,2.65,0,0,0-3,3v7.2h23Z"/><path class="cls-2" d="M135.88,199.51l-18.68-37.3v37.3H101.29v-76H117.2v30.4l17-30.4h18.31l-19.5,33,22.63,43Z"/><path class="cls-2" d="M40.51,117.44V98.34h34.1a2.65,2.65,0,0,0,3-3v-5a2.65,2.65,0,0,0-3-3H54.41c-9.3,0-14-4.4-14-13.3V55.94c0-9.7,4.5-14.5,13.5-14.5h39.2v19.1H60.71a2.65,2.65,0,0,0-3,3v4.9a2.65,2.65,0,0,0,3,3h20.8c8.9,0,13.3,4.5,13.3,13.4v17.8c0,9.9-4.8,14.8-14.5,14.8Z"/><path class="cls-2" d="M116.48,117.44V60.54H99.08V41.44h52v19.1h-17.4v56.9Z"/><path class="cls-2" d="M77.59,199.44v-31.2h-23v31.2H37.38v-62.7c0-8.9,4.7-13.3,14-13.3H80.89c9.3,0,14,4.4,14,13.3v62.7Zm0-54.4a2.65,2.65,0,0,0-3-3h-17a2.65,2.65,0,0,0-3,3v7.2h23Z"/><path class="cls-2" d="M136,199.44l-18.68-37.3v37.3H101.36v-76h15.91v30.4l17-30.4H152.6l-19.5,33,22.63,43Z"/><path class="cls-2" d="M40.58,117.37V98.27H74.69a2.65,2.65,0,0,0,3-3v-5a2.65,2.65,0,0,0-3-3H54.48c-9.3,0-14-4.4-14-13.3V55.87c0-9.7,4.5-14.51,13.5-14.51H93.19V60.47H60.78a2.65,2.65,0,0,0-3,3v4.9a2.65,2.65,0,0,0,3,3H81.59c8.9,0,13.3,4.5,13.3,13.4v17.8c0,9.9-4.8,14.8-14.5,14.8Z"/><path class="cls-2" d="M116.55,117.37V60.47H99.15V41.36h52V60.47H133.75v56.9Z"/><path class="cls-2" d="M77.66,199.37v-31.2h-23v31.2H37.46v-62.7c0-8.9,4.7-13.31,14-13.31H81c9.3,0,14,4.41,14,13.31v62.7Zm0-54.4a2.65,2.65,0,0,0-3-3h-17a2.65,2.65,0,0,0-3,3v7.2h23Z"/><path class="cls-2" d="M136,199.37l-18.67-37.3v37.3H101.43v-76h15.92v30.41l17-30.41h18.3l-19.5,33,22.63,43Z"/><path class="cls-3" d="M8.81,28.69V24.87h6.83a.53.53,0,0,0,.6-.6v-1a.53.53,0,0,0-.6-.6h-4c-1.87,0-2.81-.88-2.81-2.66V16.39c0-1.94.91-2.9,2.71-2.9h7.84v3.82H12.86a.53.53,0,0,0-.6.6v1a.53.53,0,0,0,.6.6H17a2.36,2.36,0,0,1,2.66,2.68v3.56c0,2-1,3-2.9,3Z"/><path class="cls-3" d="M24.29,28.69V17.31H20.81V13.49H31.22v3.82H27.74V28.69Z"/><path class="cls-3" d="M40.42,28.69V22.45H35.81v6.24H32.37V16.15c0-1.78.94-2.66,2.8-2.66h5.91c1.86,0,2.8.88,2.8,2.66V28.69Zm0-10.88a.53.53,0,0,0-.6-.6h-3.4a.54.54,0,0,0-.61.6v1.44h4.61Z"/><path class="cls-3" d="M53.13,28.69l-4.06-7.46v7.46H45.61V13.49h3.46v6.08l3.71-6.08h4l-4.24,6.6,4.92,8.6Z"/><path class="cls-3" d="M123.19,28.69V24.87H130a.53.53,0,0,0,.6-.6v-1a.53.53,0,0,0-.6-.6h-4c-1.86,0-2.8-.88-2.8-2.66V16.39c0-1.94.9-2.9,2.7-2.9h7.84v3.82h-6.48a.53.53,0,0,0-.6.6v1a.53.53,0,0,0,.6.6h4.16a2.36,2.36,0,0,1,2.66,2.68v3.56c0,2-1,3-2.9,3Z"/><path class="cls-3" d="M138.67,28.69V17.31h-3.49V13.49h10.41v3.82h-3.48V28.69Z"/><path class="cls-3" d="M154.79,28.69V22.45h-4.6v6.24h-3.44V16.15c0-1.78.93-2.66,2.79-2.66h5.91c1.86,0,2.8.88,2.8,2.66V28.69Zm0-10.88a.53.53,0,0,0-.6-.6h-3.4a.53.53,0,0,0-.6.6v1.44h4.6Z"/><path class="cls-3" d="M167.51,28.69l-4.06-7.46v7.46H160V13.49h3.47v6.08l3.7-6.08h4l-4.24,6.6,4.92,8.6Z"/><path class="cls-3" d="M57.21,223.31v3.82H50.39a.53.53,0,0,0-.6.6v1a.53.53,0,0,0,.6.6h4c1.86,0,2.8.88,2.8,2.66v3.62c0,1.94-.9,2.9-2.7,2.9H46.69v-3.82h6.48a.53.53,0,0,0,.6-.6v-1a.53.53,0,0,0-.6-.6H49a2.36,2.36,0,0,1-2.66-2.68v-3.56c0-2,1-3,2.9-3Z"/><path class="cls-3" d="M41.73,223.31v11.38h3.48v3.82H34.81v-3.82h3.48V223.31Z"/><path class="cls-3" d="M25.61,223.31v6.24h4.6v-6.24h3.44v12.54c0,1.78-.94,2.66-2.8,2.66H25c-1.86,0-2.8-.88-2.8-2.66V223.31Zm0,10.88a.53.53,0,0,0,.6.6h3.4a.53.53,0,0,0,.6-.6v-1.44h-4.6Z"/><path class="cls-3" d="M12.89,223.31,17,230.77v-7.46h3.47v15.2H17v-6.08l-3.7,6.08h-4l4.24-6.6-4.92-8.6Z"/><path class="cls-3" d="M171.58,223.31v3.82h-6.82a.53.53,0,0,0-.6.6v1a.53.53,0,0,0,.6.6h4c1.87,0,2.81.88,2.81,2.66v3.62c0,1.94-.9,2.9-2.71,2.9h-7.84v-3.82h6.48a.53.53,0,0,0,.6-.6v-1a.53.53,0,0,0-.6-.6h-4.16a2.36,2.36,0,0,1-2.66-2.68v-3.56c0-2,1-3,2.9-3Z"/><path class="cls-3" d="M156.11,223.31v11.38h3.48v3.82H149.18v-3.82h3.48V223.31Z"/><path class="cls-3" d="M140,223.31v6.24h4.6v-6.24H148v12.54c0,1.78-.94,2.66-2.81,2.66h-5.9c-1.86,0-2.8-.88-2.8-2.66V223.31Zm0,10.88a.53.53,0,0,0,.6.6H144a.53.53,0,0,0,.6-.6v-1.44H140Z"/><path class="cls-3" d="M127.26,223.31l4.07,7.46v-7.46h3.46v15.2h-3.46v-6.08l-3.71,6.08h-4l4.24-6.6-4.92-8.6Z"/></g></svg>