<svg xmlns="http://www.w3.org/2000/svg" viewBox="0 0 180 252"><defs><style>.cls-1{fill:#f7f7f7;}.cls-2{fill:#3d95ba;stroke:#354e73;stroke-width:2px;}.cls-2,.cls-3{stroke-miterlimit:10;}.cls-3{fill:#3e95ba;stroke:#344e73;stroke-width:4px;}</style></defs><g id="_2" data-name="2"><rect class="cls-1" width="180" height="252" rx="9.92"/><path class="cls-2" d="M10.59,42.56V30.23c0-3.29,1.63-4.95,4.92-4.95H23A1.3,1.3,0,0,0,24.5,23.8V23A1.31,1.31,0,0,0,23,21.5H11.07V14.43h14.8c3.37,0,5,1.78,5,5.37v7c0,3.29-1.74,4.92-5.18,4.92H18.36a1.29,1.29,0,0,0-1.44,1.48v2.33h14v7.07Z"/><path class="cls-2" d="M149.37,42.56V30.23c0-3.29,1.63-4.95,4.92-4.95h7.51a1.3,1.3,0,0,0,1.48-1.48V23a1.31,1.31,0,0,0-1.48-1.48h-12V14.43h14.8c3.37,0,5,1.78,5,5.37v7c0,3.29-1.74,4.92-5.18,4.92h-7.36a1.29,1.29,0,0,0-1.44,1.48v2.33h14v7.07Z"/><path class="cls-2" d="M170.41,209.44v12.33c0,3.29-1.63,4.95-4.92,4.95H158a1.3,1.3,0,0,0-1.48,1.49V229A1.31,1.31,0,0,0,158,230.5h12v7.07h-14.8c-3.37,0-5-1.78-5-5.37v-7c0-3.29,1.74-4.92,5.19-4.92h7.36a1.29,1.29,0,0,0,1.44-1.48v-2.33h-14v-7.07Z"/><path class="cls-2" d="M31.63,209.44v12.33c0,3.29-1.63,4.95-4.92,4.95H19.2a1.3,1.3,0,0,0-1.48,1.49V229a1.31,1.31,0,0,0,1.48,1.48h12v7.07H16.35c-3.37,0-5-1.78-5-5.37v-7c0-3.29,1.74-4.92,5.18-4.92h7.36a1.29,1.29,0,0,0,1.44-1.48v-2.33h-14v-7.07Z"/><path class="cls-3" d="M39.2,197.17V140.56c0-15.13,7.48-22.78,22.61-22.78H96.32c4.59,0,6.8-2.21,6.8-6.8v-3.74c0-4.42-2.21-6.8-6.8-6.8H41.41V68h68c15.47,0,23.12,8.16,23.12,24.65v32c0,15.13-8,22.61-23.8,22.61H74.9c-4.42,0-6.63,2.21-6.63,6.8V164.7h64.26v32.47Z"/><path class="cls-3" d="M39.27,197.1V140.49c0-15.13,7.48-22.78,22.61-22.78H96.39c4.59,0,6.8-2.21,6.8-6.8v-3.74c0-4.42-2.21-6.8-6.8-6.8H41.48V67.9h68c15.47,0,23.12,8.16,23.12,24.65v32c0,15.13-8,22.61-23.8,22.61H75c-4.42,0-6.63,2.21-6.63,6.8v10.71H132.6V197.1Z"/><path class="cls-3" d="M39.35,197V140.42c0-15.13,7.48-22.78,22.61-22.78H96.47c4.58,0,6.79-2.21,6.79-6.8V107.1c0-4.42-2.21-6.8-6.79-6.8H41.56V67.83h68c15.47,0,23.13,8.16,23.13,24.65v32c0,15.13-8,22.61-23.8,22.61H75.05c-4.42,0-6.63,2.21-6.63,6.8v10.71h64.26V197Z"/><path class="cls-3" d="M39.42,197V140.34c0-15.13,7.48-22.78,22.61-22.78H96.54c4.59,0,6.8-2.21,6.8-6.8V107c0-4.42-2.21-6.8-6.8-6.8H41.63V67.75h68c15.47,0,23.12,8.17,23.12,24.65v32c0,15.13-8,22.61-23.8,22.61H75.12c-4.42,0-6.63,2.21-6.63,6.8v10.71h64.26V197Z"/><path class="cls-3" d="M39.49,196.88V140.27c0-15.13,7.48-22.78,22.61-22.78H96.61c4.59,0,6.8-2.21,6.8-6.8V107c0-4.42-2.21-6.8-6.8-6.8H41.7V67.68h68c15.47,0,23.12,8.16,23.12,24.65v32c0,15.13-8,22.61-23.8,22.61H75.19c-4.42,0-6.63,2.21-6.63,6.8v10.71h64.26v32.47Z"/><path class="cls-3" d="M39.56,196.81V140.2c0-15.13,7.48-22.78,22.61-22.78H96.68c4.59,0,6.8-2.21,6.8-6.8v-3.74c0-4.42-2.21-6.8-6.8-6.8H41.77V67.61h68c15.47,0,23.12,8.16,23.12,24.65v32c0,15.13-8,22.61-23.8,22.61H75.26c-4.42,0-6.63,2.21-6.63,6.8v10.71h64.26v32.47Z"/><path class="cls-3" d="M39.63,196.74V140.13c0-15.13,7.48-22.78,22.61-22.78H96.75c4.59,0,6.8-2.21,6.8-6.8v-3.74c0-4.42-2.21-6.8-6.8-6.8H41.84V67.54h68c15.47,0,23.12,8.16,23.12,24.65v32c0,15.13-8,22.61-23.8,22.61H75.33c-4.42,0-6.63,2.21-6.63,6.8v10.71H133v32.47Z"/><path class="cls-3" d="M39.71,196.67V140.06c0-15.13,7.48-22.78,22.61-22.78H96.83c4.58,0,6.79-2.21,6.79-6.8v-3.74c0-4.42-2.21-6.8-6.79-6.8H41.92V67.47h68c15.47,0,23.13,8.16,23.13,24.65v32c0,15.13-8,22.61-23.8,22.61H75.41c-4.42,0-6.63,2.21-6.63,6.8V164.2H133v32.47Z"/><path class="cls-3" d="M39.78,196.59V140c0-15.13,7.48-22.78,22.61-22.78H96.9c4.59,0,6.8-2.21,6.8-6.8v-3.74c0-4.42-2.21-6.8-6.8-6.8H42V67.39h68c15.47,0,23.12,8.17,23.12,24.65v32c0,15.13-8,22.61-23.8,22.61H75.48c-4.42,0-6.63,2.21-6.63,6.8v10.71h64.26v32.47Z"/><path class="cls-3" d="M39.85,196.52V139.91c0-15.13,7.48-22.78,22.61-22.78H97c4.59,0,6.8-2.21,6.8-6.8v-3.74c0-4.42-2.21-6.8-6.8-6.8H42.06V67.32h68c15.47,0,23.12,8.16,23.12,24.65v32c0,15.13-8,22.61-23.8,22.61H75.55c-4.42,0-6.63,2.21-6.63,6.8v10.71h64.26v32.47Z"/><path class="cls-3" d="M39.92,196.45V139.84c0-15.13,7.48-22.78,22.61-22.78H97c4.59,0,6.8-2.21,6.8-6.8v-3.74c0-4.42-2.21-6.8-6.8-6.8H42.13V67.25h68c15.47,0,23.12,8.16,23.12,24.65v32c0,15.13-8,22.61-23.8,22.61H75.62c-4.42,0-6.63,2.21-6.63,6.8V164h64.26v32.47Z"/><path class="cls-3" d="M40,196.38V139.77C40,124.64,47.47,117,62.6,117H97.11c4.59,0,6.8-2.21,6.8-6.8v-3.74c0-4.42-2.21-6.8-6.8-6.8H42.2V67.18h68c15.47,0,23.12,8.16,23.12,24.65v32c0,15.13-8,22.61-23.8,22.61H75.69c-4.42,0-6.63,2.21-6.63,6.8v10.71h64.26v32.47Z"/><path class="cls-3" d="M40.07,196.31V139.7c0-15.13,7.48-22.78,22.61-22.78H97.19c4.58,0,6.79-2.21,6.79-6.8v-3.74c0-4.42-2.21-6.8-6.79-6.8H42.28V67.11h68c15.47,0,23.13,8.16,23.13,24.65v32c0,15.13-8,22.61-23.8,22.61H75.77c-4.42,0-6.63,2.21-6.63,6.8v10.71H133.4v32.47Z"/><path class="cls-3" d="M40.14,196.23V139.62c0-15.13,7.48-22.78,22.61-22.78H97.26c4.59,0,6.8-2.21,6.8-6.8V106.3c0-4.42-2.21-6.8-6.8-6.8H42.35V67h68c15.47,0,23.12,8.17,23.12,24.65v32c0,15.13-8,22.61-23.8,22.61H75.84c-4.42,0-6.63,2.21-6.63,6.8v10.71h64.26v32.47Z"/><path class="cls-3" d="M40.21,196.16V139.55c0-15.13,7.48-22.78,22.61-22.78H97.33c4.59,0,6.8-2.21,6.8-6.8v-3.74c0-4.42-2.21-6.8-6.8-6.8H42.42V67h68c15.47,0,23.12,8.16,23.12,24.65v32c0,15.13-8,22.61-23.8,22.61H75.91c-4.42,0-6.63,2.21-6.63,6.8v10.71h64.26v32.47Z"/><path class="cls-3" d="M40.28,196.09V139.48c0-15.13,7.48-22.78,22.61-22.78H97.4c4.59,0,6.8-2.21,6.8-6.8v-3.74c0-4.42-2.21-6.8-6.8-6.8H42.49V66.89h68c15.47,0,23.12,8.16,23.12,24.65v32c0,15.13-8,22.61-23.8,22.61H76c-4.42,0-6.63,2.21-6.63,6.8v10.71h64.26v32.47Z"/><path class="cls-3" d="M40.35,196V139.41c0-15.13,7.48-22.78,22.61-22.78H97.47c4.59,0,6.8-2.21,6.8-6.8v-3.74c0-4.42-2.21-6.8-6.8-6.8H42.56V66.82h68c15.47,0,23.12,8.16,23.12,24.65v32c0,15.13-8,22.61-23.8,22.61H76.05c-4.42,0-6.63,2.21-6.63,6.8v10.71h64.26V196Z"/><path class="cls-3" d="M40.43,196V139.34c0-15.13,7.48-22.78,22.61-22.78H97.55c4.58,0,6.79-2.21,6.79-6.8V106c0-4.42-2.21-6.8-6.79-6.8H42.64V66.75h68c15.47,0,23.13,8.16,23.13,24.65v32c0,15.13-8,22.61-23.8,22.61H76.13c-4.42,0-6.63,2.21-6.63,6.8v10.71h64.26V196Z"/><path class="cls-3" d="M40.5,195.87V139.26c0-15.13,7.48-22.78,22.61-22.78H97.62c4.59,0,6.8-2.21,6.8-6.8v-3.74c0-4.42-2.21-6.8-6.8-6.8H42.71V66.67h68c15.47,0,23.12,8.17,23.12,24.65v32c0,15.13-8,22.61-23.8,22.61H76.2c-4.42,0-6.63,2.21-6.63,6.8V163.4h64.26v32.47Z"/><path class="cls-3" d="M40.57,195.8V139.19c0-15.13,7.48-22.78,22.61-22.78H97.69c4.59,0,6.8-2.21,6.8-6.8v-3.74c0-4.42-2.21-6.8-6.8-6.8H42.78V66.6h68c15.47,0,23.12,8.16,23.12,24.65v32c0,15.13-8,22.61-23.8,22.61H76.27c-4.42,0-6.63,2.21-6.63,6.8v10.71H133.9V195.8Z"/><path class="cls-3" d="M40.64,195.73V139.12c0-15.13,7.48-22.78,22.61-22.78H97.76c4.59,0,6.8-2.21,6.8-6.8V105.8c0-4.42-2.21-6.8-6.8-6.8H42.85V66.53h68c15.47,0,23.12,8.16,23.12,24.65v32c0,15.13-8,22.61-23.8,22.61H76.34c-4.42,0-6.63,2.21-6.63,6.8v10.71H134v32.47Z"/><path class="cls-3" d="M40.71,195.66V139.05c0-15.13,7.48-22.78,22.61-22.78H97.83c4.59,0,6.8-2.21,6.8-6.8v-3.74c0-4.42-2.21-6.8-6.8-6.8H42.92V66.46h68c15.47,0,23.12,8.16,23.12,24.65v32c0,15.13-8,22.61-23.8,22.61H76.41c-4.42,0-6.63,2.21-6.63,6.8v10.71H134v32.47Z"/><path class="cls-3" d="M40.79,195.59V139c0-15.13,7.48-22.78,22.61-22.78H97.91c4.58,0,6.79-2.21,6.79-6.8v-3.74c0-4.42-2.21-6.8-6.79-6.8H43V66.39h68c15.47,0,23.13,8.16,23.13,24.65v32c0,15.13-8,22.61-23.8,22.61H76.49c-4.42,0-6.63,2.21-6.63,6.8v10.71h64.26v32.47Z"/><path class="cls-3" d="M40.86,195.51V138.9c0-15.13,7.48-22.78,22.61-22.78H98c4.59,0,6.8-2.21,6.8-6.8v-3.74c0-4.42-2.21-6.8-6.8-6.8H43.07V66.31h68c15.47,0,23.12,8.17,23.12,24.65v32c0,15.13-8,22.61-23.8,22.61H76.56c-4.42,0-6.63,2.21-6.63,6.8V163h64.26v32.47Z"/><path class="cls-3" d="M40.93,195.44V138.83c0-15.13,7.48-22.78,22.61-22.78H98.05c4.59,0,6.8-2.21,6.8-6.8v-3.74c0-4.42-2.21-6.8-6.8-6.8H43.14V66.24h68c15.47,0,23.12,8.16,23.12,24.65v32c0,15.13-8,22.61-23.8,22.61H76.63c-4.42,0-6.63,2.21-6.63,6.8V163h64.26v32.47Z"/><path class="cls-3" d="M41,195.37V138.76C41,123.63,48.48,116,63.61,116H98.12c4.59,0,6.8-2.21,6.8-6.8v-3.74c0-4.42-2.21-6.8-6.8-6.8H43.21V66.17h68c15.47,0,23.12,8.16,23.12,24.65v32c0,15.13-8,22.61-23.8,22.61H76.7c-4.42,0-6.63,2.21-6.63,6.8V162.9h64.26v32.47Z"/><path class="cls-3" d="M41.07,195.3V138.69c0-15.13,7.48-22.78,22.61-22.78H98.19c4.59,0,6.8-2.21,6.8-6.8v-3.74c0-4.42-2.21-6.8-6.8-6.8H43.28V66.1h68c15.47,0,23.12,8.16,23.12,24.65v32c0,15.13-8,22.61-23.8,22.61H76.77c-4.42,0-6.63,2.21-6.63,6.8v10.71H134.4V195.3Z"/><path class="cls-3" d="M41.15,195.23V138.62c0-15.13,7.48-22.78,22.61-22.78H98.27c4.58,0,6.79-2.21,6.79-6.8V105.3c0-4.42-2.21-6.8-6.79-6.8H43.36V66h68c15.47,0,23.13,8.16,23.13,24.65v32c0,15.13-8,22.61-23.8,22.61H76.85c-4.42,0-6.63,2.21-6.63,6.8v10.71h64.26v32.47Z"/><path class="cls-3" d="M41.22,195.15V138.54c0-15.13,7.48-22.78,22.61-22.78H98.34c4.59,0,6.8-2.21,6.8-6.8v-3.74c0-4.42-2.21-6.8-6.8-6.8H43.43V66h68c15.47,0,23.12,8.17,23.12,24.65v32c0,15.13-8,22.61-23.8,22.61H76.92c-4.42,0-6.63,2.21-6.63,6.8v10.71h64.26v32.47Z"/><path class="cls-3" d="M41.29,195.08V138.47c0-15.13,7.48-22.78,22.61-22.78H98.41c4.59,0,6.8-2.21,6.8-6.8v-3.74c0-4.42-2.21-6.8-6.8-6.8H43.5V65.88h68c15.47,0,23.12,8.16,23.12,24.65v32c0,15.13-8,22.61-23.8,22.61H77c-4.42,0-6.63,2.21-6.63,6.8v10.71h64.26v32.47Z"/><path class="cls-3" d="M41.36,195V138.4c0-15.13,7.48-22.78,22.61-22.78H98.48c4.59,0,6.8-2.21,6.8-6.8v-3.74c0-4.42-2.21-6.8-6.8-6.8H43.57V65.81h68c15.47,0,23.12,8.16,23.12,24.65v32c0,15.13-8,22.61-23.8,22.61H77.06c-4.42,0-6.63,2.21-6.63,6.8v10.71h64.26V195Z"/><path class="cls-3" d="M41.43,194.94V138.33c0-15.13,7.48-22.78,22.61-22.78H98.55c4.59,0,6.8-2.21,6.8-6.8V105c0-4.42-2.21-6.8-6.8-6.8H43.64V65.74h68c15.47,0,23.12,8.16,23.12,24.65v32c0,15.13-8,22.61-23.8,22.61H77.13c-4.42,0-6.63,2.21-6.63,6.8v10.71h64.26v32.47Z"/><path class="cls-3" d="M41.51,194.87V138.26c0-15.13,7.48-22.78,22.61-22.78H98.63c4.58,0,6.79-2.21,6.79-6.8v-3.74c0-4.42-2.21-6.8-6.79-6.8H43.72V65.67h68c15.47,0,23.13,8.16,23.13,24.65v32c0,15.13-8,22.61-23.8,22.61H77.21c-4.42,0-6.63,2.21-6.63,6.8V162.4h64.26v32.47Z"/><path class="cls-3" d="M41.58,194.79V138.18c0-15.13,7.48-22.78,22.61-22.78H98.7c4.59,0,6.8-2.21,6.8-6.8v-3.74c0-4.42-2.21-6.8-6.8-6.8H43.79V65.59h68c15.47,0,23.12,8.17,23.12,24.65v32c0,15.13-8,22.61-23.8,22.61H77.28c-4.42,0-6.63,2.21-6.63,6.8v10.71h64.26v32.47Z"/><path class="cls-3" d="M41.65,194.72V138.11c0-15.13,7.48-22.78,22.61-22.78H98.77c4.59,0,6.8-2.21,6.8-6.8v-3.74c0-4.42-2.21-6.8-6.8-6.8H43.86V65.52h68c15.47,0,23.12,8.16,23.12,24.65v32c0,15.13-8,22.61-23.8,22.61H77.35c-4.42,0-6.63,2.21-6.63,6.8v10.71H135v32.47Z"/><path class="cls-3" d="M41.72,194.65V138c0-15.13,7.48-22.78,22.61-22.78H98.84c4.59,0,6.8-2.21,6.8-6.8v-3.74c0-4.42-2.21-6.8-6.8-6.8H43.93V65.45h68c15.47,0,23.12,8.16,23.12,24.65v32c0,15.13-8,22.61-23.8,22.61H77.42c-4.42,0-6.63,2.21-6.63,6.8v10.71h64.26v32.47Z"/><path class="cls-3" d="M41.79,194.58V138c0-15.13,7.48-22.78,22.61-22.78H98.91c4.59,0,6.8-2.21,6.8-6.8v-3.74c0-4.42-2.21-6.8-6.8-6.8H44V65.38h68c15.47,0,23.12,8.16,23.12,24.65v32c0,15.13-8,22.61-23.8,22.61H77.49c-4.42,0-6.63,2.21-6.63,6.8v10.71h64.26v32.47Z"/><path class="cls-3" d="M41.87,194.51V137.9c0-15.13,7.48-22.78,22.61-22.78H99c4.58,0,6.79-2.21,6.79-6.8v-3.74c0-4.42-2.21-6.8-6.79-6.8H44.08V65.31h68c15.47,0,23.13,8.16,23.13,24.65v32c0,15.13-8,22.61-23.8,22.61H77.57c-4.42,0-6.63,2.21-6.63,6.8V162H135.2v32.47Z"/><path class="cls-3" d="M41.94,194.43V137.82c0-15.13,7.48-22.78,22.61-22.78H99.06c4.59,0,6.8-2.21,6.8-6.8V104.5c0-4.42-2.21-6.8-6.8-6.8H44.15V65.23h68c15.47,0,23.12,8.17,23.12,24.65v32c0,15.13-8,22.61-23.8,22.61H77.64c-4.42,0-6.63,2.21-6.63,6.8V162h64.26v32.47Z"/><path class="cls-3" d="M42,194.36V137.75C42,122.62,49.49,115,64.62,115H99.13c4.59,0,6.8-2.21,6.8-6.8v-3.74c0-4.42-2.21-6.8-6.8-6.8H44.22V65.16h68c15.47,0,23.12,8.16,23.12,24.65v32c0,15.13-8,22.61-23.8,22.61H77.71c-4.42,0-6.63,2.21-6.63,6.8v10.71h64.26v32.47Z"/><path class="cls-3" d="M42.08,194.29V137.68c0-15.13,7.48-22.78,22.61-22.78H99.2c4.59,0,6.8-2.21,6.8-6.8v-3.74c0-4.42-2.21-6.8-6.8-6.8H44.29V65.09h68c15.47,0,23.12,8.16,23.12,24.65v32c0,15.13-8,22.61-23.8,22.61H77.78c-4.42,0-6.63,2.21-6.63,6.8v10.71h64.26v32.47Z"/><path class="cls-3" d="M42.15,194.22V137.61c0-15.13,7.48-22.78,22.61-22.78H99.27c4.59,0,6.8-2.21,6.8-6.8v-3.74c0-4.42-2.21-6.8-6.8-6.8H44.36V65h68c15.47,0,23.12,8.16,23.12,24.65v32c0,15.13-8,22.61-23.8,22.61H77.85c-4.42,0-6.63,2.21-6.63,6.8v10.71h64.26v32.47Z"/><path class="cls-3" d="M42.23,194.15V137.54c0-15.13,7.48-22.78,22.61-22.78H99.35c4.58,0,6.79-2.21,6.79-6.8v-3.74c0-4.42-2.21-6.8-6.79-6.8H44.44V65h68c15.47,0,23.13,8.16,23.13,24.65v32c0,15.13-8,22.61-23.8,22.61H77.93c-4.42,0-6.63,2.21-6.63,6.8v10.71h64.26v32.47Z"/><path class="cls-3" d="M42.3,194.07V137.46c0-15.13,7.48-22.78,22.61-22.78H99.42c4.59,0,6.8-2.21,6.8-6.8v-3.74c0-4.42-2.21-6.8-6.8-6.8H44.51V64.87h68c15.47,0,23.12,8.17,23.12,24.65v32c0,15.13-8,22.61-23.8,22.61H78c-4.42,0-6.63,2.21-6.63,6.8V161.6h64.26v32.47Z"/><path class="cls-3" d="M42.37,194V137.39c0-15.13,7.48-22.78,22.61-22.78H99.49c4.59,0,6.8-2.21,6.8-6.8v-3.74c0-4.42-2.21-6.8-6.8-6.8H44.58V64.8h68c15.47,0,23.12,8.16,23.12,24.65v32c0,15.13-8,22.61-23.8,22.61H78.07c-4.42,0-6.63,2.21-6.63,6.8v10.71H135.7V194Z"/><path class="cls-3" d="M42.44,193.93V137.32c0-15.13,7.48-22.78,22.61-22.78H99.56c4.59,0,6.8-2.21,6.8-6.8V104c0-4.42-2.21-6.8-6.8-6.8H44.65V64.73h68c15.47,0,23.12,8.16,23.12,24.65v32c0,15.13-8,22.61-23.8,22.61H78.14c-4.42,0-6.63,2.21-6.63,6.8v10.71h64.26v32.47Z"/><path class="cls-3" d="M42.51,193.86V137.25c0-15.13,7.48-22.78,22.61-22.78H99.63c4.59,0,6.8-2.21,6.8-6.8v-3.74c0-4.42-2.21-6.8-6.8-6.8H44.72V64.66h68c15.47,0,23.12,8.16,23.12,24.65v32c0,15.13-8,22.61-23.8,22.61H78.21c-4.42,0-6.63,2.21-6.63,6.8v10.71h64.26v32.47Z"/><path class="cls-3" d="M42.59,193.79V137.18c0-15.13,7.48-22.78,22.61-22.78H99.71c4.58,0,6.79-2.21,6.79-6.8v-3.74c0-4.42-2.21-6.8-6.79-6.8H44.8V64.59h68c15.47,0,23.13,8.16,23.13,24.65v32c0,15.13-8,22.61-23.8,22.61H78.29c-4.42,0-6.63,2.21-6.63,6.8v10.71h64.26v32.47Z"/><path class="cls-3" d="M42.66,193.71V137.1c0-15.13,7.48-22.78,22.61-22.78H99.78c4.59,0,6.8-2.21,6.8-6.8v-3.74c0-4.42-2.21-6.8-6.8-6.8H44.87V64.51h68c15.47,0,23.12,8.17,23.12,24.65v32c0,15.13-8,22.61-23.8,22.61H78.36c-4.42,0-6.63,2.21-6.63,6.8v10.71H136v32.47Z"/><path class="cls-3" d="M42.73,193.64V137c0-15.13,7.48-22.78,22.61-22.78H99.85c4.59,0,6.8-2.21,6.8-6.8v-3.74c0-4.42-2.21-6.8-6.8-6.8H44.94V64.44h68c15.47,0,23.12,8.16,23.12,24.65v32c0,15.13-8,22.61-23.8,22.61H78.43c-4.42,0-6.63,2.21-6.63,6.8v10.71h64.26v32.47Z"/><path class="cls-3" d="M42.8,193.57V137c0-15.13,7.48-22.78,22.61-22.78H99.92c4.59,0,6.8-2.21,6.8-6.8v-3.74c0-4.42-2.21-6.8-6.8-6.8H45V64.37h68c15.47,0,23.12,8.16,23.12,24.65v32c0,15.13-8,22.61-23.8,22.61H78.5c-4.42,0-6.63,2.21-6.63,6.8V161.1h64.26v32.47Z"/><path class="cls-3" d="M42.87,193.5V136.89c0-15.13,7.48-22.78,22.61-22.78H100c4.59,0,6.8-2.21,6.8-6.8v-3.74c0-4.42-2.21-6.8-6.8-6.8H45.08V64.3h68c15.47,0,23.12,8.16,23.12,24.65v32c0,15.13-8,22.61-23.8,22.61H78.57c-4.42,0-6.63,2.21-6.63,6.8V161H136.2V193.5Z"/><path class="cls-3" d="M43,193.43V136.82C43,121.69,50.43,114,65.56,114h34.51c4.58,0,6.79-2.21,6.79-6.8V103.5c0-4.42-2.21-6.8-6.79-6.8H45.16V64.23h68c15.47,0,23.13,8.16,23.13,24.65v32c0,15.13-8,22.61-23.8,22.61H78.65c-4.42,0-6.63,2.21-6.63,6.8V161h64.26v32.47Z"/><path class="cls-3" d="M43,193.35V136.74C43,121.61,50.5,114,65.63,114h34.51c4.59,0,6.8-2.21,6.8-6.8v-3.74c0-4.42-2.21-6.8-6.8-6.8H45.23V64.15h68c15.47,0,23.12,8.17,23.12,24.65v32c0,15.13-8,22.61-23.8,22.61H78.72c-4.42,0-6.63,2.21-6.63,6.8v10.71h64.26v32.47Z"/><path class="cls-3" d="M43.09,193.28V136.67c0-15.13,7.48-22.78,22.61-22.78h34.51c4.59,0,6.8-2.21,6.8-6.8v-3.74c0-4.42-2.21-6.8-6.8-6.8H45.3V64.08h68c15.47,0,23.12,8.16,23.12,24.65v32c0,15.13-8,22.61-23.8,22.61H78.79c-4.42,0-6.63,2.21-6.63,6.8v10.71h64.26v32.47Z"/><path class="cls-3" d="M43.16,193.21V136.6c0-15.13,7.48-22.78,22.61-22.78h34.51c4.59,0,6.8-2.21,6.8-6.8v-3.74c0-4.42-2.21-6.8-6.8-6.8H45.37V64h68c15.47,0,23.12,8.16,23.12,24.65v32c0,15.13-8,22.61-23.8,22.61H78.86c-4.42,0-6.63,2.21-6.63,6.8v10.71h64.26v32.47Z"/><path class="cls-3" d="M43.23,193.14V136.53c0-15.13,7.48-22.78,22.61-22.78h34.51c4.59,0,6.8-2.21,6.8-6.8v-3.74c0-4.42-2.21-6.8-6.8-6.8H45.44V63.94h68c15.47,0,23.12,8.16,23.12,24.65v32c0,15.13-8,22.61-23.8,22.61H78.93c-4.42,0-6.63,2.21-6.63,6.8v10.71h64.26v32.47Z"/><path class="cls-3" d="M43.31,193.07V136.46c0-15.13,7.48-22.78,22.61-22.78h34.51c4.58,0,6.79-2.21,6.79-6.8v-3.74c0-4.42-2.21-6.8-6.79-6.8H45.52V63.87h68c15.47,0,23.13,8.16,23.13,24.65v32c0,15.13-8,22.61-23.8,22.61H79c-4.42,0-6.63,2.21-6.63,6.8V160.6h64.26v32.47Z"/><path class="cls-3" d="M43.38,193V136.38c0-15.13,7.48-22.78,22.61-22.78H100.5c4.59,0,6.8-2.21,6.8-6.8v-3.74c0-4.42-2.21-6.8-6.8-6.8H45.59V63.79h68c15.47,0,23.12,8.17,23.12,24.65v32c0,15.13-8,22.61-23.8,22.61H79.08c-4.42,0-6.63,2.21-6.63,6.8v10.71h64.26V193Z"/><path class="cls-3" d="M43.45,192.92V136.31c0-15.13,7.48-22.78,22.61-22.78h34.51c4.59,0,6.8-2.21,6.8-6.8V103c0-4.42-2.21-6.8-6.8-6.8H45.66V63.72h68c15.47,0,23.12,8.16,23.12,24.65v32c0,15.13-8,22.61-23.8,22.61H79.15c-4.42,0-6.63,2.21-6.63,6.8v10.71h64.26v32.47Z"/><path class="cls-3" d="M43.52,192.85V136.24c0-15.13,7.48-22.78,22.61-22.78h34.51c4.59,0,6.8-2.21,6.8-6.8v-3.74c0-4.42-2.21-6.8-6.8-6.8H45.73V63.65h68c15.47,0,23.12,8.16,23.12,24.65v32c0,15.13-8,22.61-23.8,22.61H79.22c-4.42,0-6.63,2.21-6.63,6.8v10.71h64.26v32.47Z"/><path class="cls-3" d="M43.59,192.78V136.17c0-15.13,7.48-22.78,22.61-22.78h34.51c4.59,0,6.8-2.21,6.8-6.8v-3.74c0-4.42-2.21-6.8-6.8-6.8H45.8V63.58h68c15.47,0,23.12,8.16,23.12,24.65v32c0,15.13-8,22.61-23.8,22.61H79.29c-4.42,0-6.63,2.21-6.63,6.8v10.71h64.26v32.47Z"/><path class="cls-3" d="M43.67,192.71V136.1c0-15.13,7.48-22.78,22.61-22.78h34.51c4.58,0,6.79-2.21,6.79-6.8v-3.74c0-4.42-2.21-6.8-6.79-6.8H45.88V63.51h68c15.47,0,23.13,8.16,23.13,24.65v32c0,15.13-8,22.61-23.8,22.61H79.37c-4.42,0-6.63,2.21-6.63,6.8v10.71H137v32.47Z"/><path class="cls-3" d="M43.74,192.63V136c0-15.13,7.48-22.78,22.61-22.78h34.51c4.59,0,6.8-2.21,6.8-6.8V102.7c0-4.42-2.21-6.8-6.8-6.8H46V63.43h68c15.47,0,23.12,8.17,23.12,24.65v32c0,15.13-8,22.61-23.8,22.61H79.44c-4.42,0-6.63,2.21-6.63,6.8v10.71h64.26v32.47Z"/><path class="cls-3" d="M43.81,192.56V136c0-15.13,7.48-22.78,22.61-22.78h34.51c4.59,0,6.8-2.21,6.8-6.8v-3.74c0-4.42-2.21-6.8-6.8-6.8H46V63.36h68c15.47,0,23.12,8.16,23.12,24.65v32c0,15.13-8,22.61-23.8,22.61H79.51c-4.42,0-6.63,2.21-6.63,6.8v10.71h64.26v32.47Z"/><path class="cls-3" d="M43.88,192.49V135.88c0-15.13,7.48-22.78,22.61-22.78H101c4.59,0,6.8-2.21,6.8-6.8v-3.74c0-4.42-2.21-6.8-6.8-6.8H46.09V63.29h68c15.47,0,23.12,8.16,23.12,24.65v32c0,15.13-8,22.61-23.8,22.61H79.58c-4.42,0-6.63,2.21-6.63,6.8V160h64.26v32.47Z"/><path class="cls-3" d="M44,192.42V135.81C44,120.68,51.43,113,66.56,113h34.51c4.59,0,6.8-2.21,6.8-6.8v-3.74c0-4.42-2.21-6.8-6.8-6.8H46.16V63.22h68c15.47,0,23.12,8.16,23.12,24.65v32c0,15.13-8,22.61-23.8,22.61H79.65c-4.42,0-6.63,2.21-6.63,6.8V160h64.26v32.47Z"/><path class="cls-3" d="M44,192.35V135.74C44,120.61,51.51,113,66.64,113h34.51c4.58,0,6.79-2.21,6.79-6.8v-3.74c0-4.42-2.21-6.8-6.79-6.8H46.24V63.15h68c15.47,0,23.13,8.16,23.13,24.65v32c0,15.13-8,22.61-23.8,22.61H79.73c-4.42,0-6.63,2.21-6.63,6.8v10.71h64.26v32.47Z"/><path class="cls-3" d="M44.1,192.27V135.66c0-15.13,7.48-22.78,22.61-22.78h34.51c4.59,0,6.8-2.21,6.8-6.8v-3.74c0-4.42-2.21-6.8-6.8-6.8H46.31V63.07h68c15.47,0,23.12,8.17,23.12,24.65v32c0,15.13-8,22.61-23.8,22.61H79.8c-4.42,0-6.63,2.21-6.63,6.8V159.8h64.26v32.47Z"/><path class="cls-3" d="M44.17,192.2V135.59c0-15.13,7.48-22.78,22.61-22.78h34.51c4.59,0,6.8-2.21,6.8-6.8v-3.74c0-4.42-2.21-6.8-6.8-6.8H46.38V63h68c15.47,0,23.12,8.16,23.12,24.65v32c0,15.13-8,22.61-23.8,22.61H79.87c-4.42,0-6.63,2.21-6.63,6.8v10.71H137.5V192.2Z"/><path class="cls-3" d="M44.24,192.13V135.52c0-15.13,7.48-22.78,22.61-22.78h34.51c4.59,0,6.8-2.21,6.8-6.8V102.2c0-4.42-2.21-6.8-6.8-6.8H46.45V62.93h68c15.47,0,23.12,8.16,23.12,24.65v32c0,15.13-8,22.61-23.8,22.61H79.94c-4.42,0-6.63,2.21-6.63,6.8v10.71h64.26v32.47Z"/><path class="cls-3" d="M44.31,192.06V135.45c0-15.13,7.48-22.78,22.61-22.78h34.51c4.59,0,6.8-2.21,6.8-6.8v-3.74c0-4.42-2.21-6.8-6.8-6.8H46.52V62.86h68c15.47,0,23.12,8.16,23.12,24.65v32c0,15.13-8,22.61-23.8,22.61H80c-4.42,0-6.63,2.21-6.63,6.8v10.71h64.26v32.47Z"/><path class="cls-3" d="M44.39,192V135.38c0-15.13,7.48-22.78,22.61-22.78h34.51c4.58,0,6.79-2.21,6.79-6.8v-3.74c0-4.42-2.21-6.8-6.79-6.8H46.6V62.79h68c15.47,0,23.13,8.16,23.13,24.65v32c0,15.13-8,22.61-23.8,22.61H80.09c-4.42,0-6.63,2.21-6.63,6.8v10.71h64.26V192Z"/><path class="cls-3" d="M44.46,191.91V135.3c0-15.13,7.48-22.78,22.61-22.78h34.51c4.59,0,6.8-2.21,6.8-6.8V102c0-4.42-2.21-6.8-6.8-6.8H46.67V62.71h68c15.47,0,23.12,8.17,23.12,24.65v32c0,15.13-8,22.61-23.8,22.61H80.16c-4.42,0-6.63,2.21-6.63,6.8v10.71h64.26v32.47Z"/><path class="cls-3" d="M44.53,191.84V135.23c0-15.13,7.48-22.78,22.61-22.78h34.51c4.59,0,6.8-2.21,6.8-6.8v-3.74c0-4.42-2.21-6.8-6.8-6.8H46.74V62.64h68c15.47,0,23.12,8.16,23.12,24.65v32c0,15.13-8,22.61-23.8,22.61H80.23c-4.42,0-6.63,2.21-6.63,6.8v10.71h64.26v32.47Z"/><path class="cls-3" d="M44.6,191.77V135.16c0-15.13,7.48-22.78,22.61-22.78h34.51c4.59,0,6.8-2.21,6.8-6.8v-3.74c0-4.42-2.21-6.8-6.8-6.8H46.81V62.57h68c15.47,0,23.12,8.16,23.12,24.65v32c0,15.13-8,22.61-23.8,22.61H80.3c-4.42,0-6.63,2.21-6.63,6.8V159.3h64.26v32.47Z"/><path class="cls-3" d="M44.67,191.7V135.09c0-15.13,7.48-22.78,22.61-22.78h34.51c4.59,0,6.8-2.21,6.8-6.8v-3.74c0-4.42-2.21-6.8-6.8-6.8H46.88V62.5h68c15.47,0,23.12,8.16,23.12,24.65v32c0,15.13-8,22.61-23.8,22.61H80.37c-4.42,0-6.63,2.21-6.63,6.8v10.71H138V191.7Z"/><path class="cls-3" d="M44.75,191.63V135c0-15.13,7.48-22.78,22.61-22.78h34.51c4.58,0,6.79-2.21,6.79-6.8V101.7c0-4.42-2.21-6.8-6.79-6.8H47V62.43h68c15.47,0,23.13,8.16,23.13,24.65v32c0,15.13-8,22.61-23.8,22.61H80.45c-4.42,0-6.63,2.21-6.63,6.8v10.71h64.26v32.47Z"/><path class="cls-3" d="M44.82,191.55V134.94c0-15.13,7.48-22.78,22.61-22.78h34.51c4.59,0,6.8-2.21,6.8-6.8v-3.74c0-4.42-2.21-6.8-6.8-6.8H47V62.35h68c15.47,0,23.12,8.17,23.12,24.65v32c0,15.13-8,22.61-23.8,22.61H80.52c-4.42,0-6.63,2.21-6.63,6.8v10.71h64.26v32.47Z"/><path class="cls-3" d="M44.89,191.48V134.87c0-15.13,7.48-22.78,22.61-22.78H102c4.59,0,6.8-2.21,6.8-6.8v-3.74c0-4.42-2.21-6.8-6.8-6.8H47.1V62.28h68c15.47,0,23.12,8.16,23.12,24.65v32c0,15.13-8,22.61-23.8,22.61H80.59c-4.42,0-6.63,2.21-6.63,6.8V159h64.26v32.47Z"/><path class="cls-3" d="M45,191.41V134.8C45,119.67,52.44,112,67.57,112h34.51c4.59,0,6.8-2.21,6.8-6.8v-3.74c0-4.42-2.21-6.8-6.8-6.8H47.17V62.21h68c15.47,0,23.12,8.16,23.12,24.65v32c0,15.13-8,22.61-23.8,22.61H80.66c-4.42,0-6.63,2.21-6.63,6.8v10.71h64.26v32.47Z"/><path class="cls-3" d="M45,191.34V134.73C45,119.6,52.51,112,67.64,112h34.51c4.59,0,6.8-2.21,6.8-6.8v-3.74c0-4.42-2.21-6.8-6.8-6.8H47.24V62.14h68c15.47,0,23.12,8.16,23.12,24.65v32c0,15.13-8,22.61-23.8,22.61H80.73c-4.42,0-6.63,2.21-6.63,6.8v10.71h64.26v32.47Z"/><path class="cls-3" d="M45.11,191.27V134.66c0-15.13,7.48-22.78,22.61-22.78h34.51c4.58,0,6.79-2.21,6.79-6.8v-3.74c0-4.42-2.21-6.8-6.79-6.8H47.32V62.07h68c15.47,0,23.13,8.16,23.13,24.65v32c0,15.13-8,22.61-23.8,22.61H80.81c-4.42,0-6.63,2.21-6.63,6.8V158.8h64.26v32.47Z"/><path class="cls-3" d="M45.18,191.19V134.58c0-15.13,7.48-22.78,22.61-22.78H102.3c4.59,0,6.8-2.21,6.8-6.8v-3.74c0-4.42-2.21-6.8-6.8-6.8H47.39V62h68c15.47,0,23.12,8.17,23.12,24.65v32c0,15.13-8,22.61-23.8,22.61H80.88c-4.42,0-6.63,2.21-6.63,6.8v10.71h64.26v32.47Z"/><path class="cls-3" d="M45.25,191.12V134.51c0-15.13,7.48-22.78,22.61-22.78h34.51c4.59,0,6.8-2.21,6.8-6.8v-3.74c0-4.42-2.21-6.8-6.8-6.8H47.46V61.92h68c15.47,0,23.12,8.16,23.12,24.65v32c0,15.13-8,22.61-23.8,22.61H81c-4.42,0-6.63,2.21-6.63,6.8v10.71h64.26v32.47Z"/><path class="cls-3" d="M45.32,191.05V134.44c0-15.13,7.48-22.78,22.61-22.78h34.51c4.59,0,6.8-2.21,6.8-6.8v-3.74c0-4.42-2.21-6.8-6.8-6.8H47.53V61.85h68c15.47,0,23.12,8.16,23.12,24.65v32c0,15.13-8,22.61-23.8,22.61H81c-4.42,0-6.63,2.21-6.63,6.8v10.71h64.26v32.47Z"/><path class="cls-3" d="M45.39,191V134.37c0-15.13,7.48-22.78,22.61-22.78h34.51c4.59,0,6.8-2.21,6.8-6.8v-3.74c0-4.42-2.21-6.8-6.8-6.8H47.6V61.78h68c15.47,0,23.12,8.16,23.12,24.65v32c0,15.13-8,22.61-23.8,22.61H81.09c-4.42,0-6.63,2.21-6.63,6.8v10.71h64.26V191Z"/><path class="cls-3" d="M45.47,190.91V134.3c0-15.13,7.48-22.78,22.61-22.78h34.51c4.58,0,6.79-2.21,6.79-6.8V101c0-4.42-2.21-6.8-6.79-6.8H47.68V61.71h68c15.47,0,23.13,8.16,23.13,24.65v32c0,15.13-8,22.61-23.8,22.61H81.17c-4.42,0-6.63,2.21-6.63,6.8v10.71H138.8v32.47Z"/><path class="cls-3" d="M45.54,190.83V134.22c0-15.13,7.48-22.78,22.61-22.78h34.51c4.59,0,6.8-2.21,6.8-6.8V100.9c0-4.42-2.21-6.8-6.8-6.8H47.75V61.63h68c15.47,0,23.12,8.17,23.12,24.65v32c0,15.13-8,22.61-23.8,22.61H81.24c-4.42,0-6.63,2.21-6.63,6.8v10.71h64.26v32.47Z"/><path class="cls-3" d="M45.61,190.76V134.15c0-15.13,7.48-22.78,22.61-22.78h34.51c4.59,0,6.8-2.21,6.8-6.8v-3.74c0-4.42-2.21-6.8-6.8-6.8H47.82V61.56h68c15.47,0,23.12,8.16,23.12,24.65v32c0,15.13-8,22.61-23.8,22.61H81.31c-4.42,0-6.63,2.21-6.63,6.8v10.71h64.26v32.47Z"/><path class="cls-3" d="M45.68,190.69V134.08c0-15.13,7.48-22.78,22.61-22.78H102.8c4.59,0,6.8-2.21,6.8-6.8v-3.74c0-4.42-2.21-6.8-6.8-6.8H47.89V61.49h68c15.47,0,23.12,8.16,23.12,24.65v32c0,15.13-8,22.61-23.8,22.61H81.38c-4.42,0-6.63,2.21-6.63,6.8v10.71H139v32.47Z"/><path class="cls-3" d="M45.75,190.62V134c0-15.13,7.48-22.78,22.61-22.78h34.51c4.59,0,6.8-2.21,6.8-6.8v-3.74c0-4.42-2.21-6.8-6.8-6.8H48V61.42h68c15.47,0,23.12,8.16,23.12,24.65v32c0,15.13-8,22.61-23.8,22.61H81.45c-4.42,0-6.63,2.21-6.63,6.8v10.71h64.26v32.47Z"/><path class="cls-3" d="M45.83,190.55V133.94c0-15.13,7.48-22.78,22.61-22.78H103c4.58,0,6.79-2.21,6.79-6.8v-3.74c0-4.42-2.21-6.8-6.79-6.8H48V61.35h68c15.47,0,23.13,8.16,23.13,24.65v32c0,15.13-8,22.61-23.8,22.61H81.53c-4.42,0-6.63,2.21-6.63,6.8v10.71h64.26v32.47Z"/><path class="cls-3" d="M45.9,190.47V133.86c0-15.13,7.48-22.78,22.61-22.78H103c4.59,0,6.8-2.21,6.8-6.8v-3.74c0-4.42-2.21-6.8-6.8-6.8H48.11V61.27h68c15.47,0,23.12,8.17,23.12,24.65v32c0,15.13-8,22.61-23.8,22.61H81.6c-4.42,0-6.63,2.21-6.63,6.8V158h64.26v32.47Z"/><path class="cls-3" d="M46,190.4V133.79C46,118.66,53.45,111,68.58,111h34.51c4.59,0,6.8-2.21,6.8-6.8v-3.74c0-4.42-2.21-6.8-6.8-6.8H48.18V61.2h68c15.47,0,23.12,8.16,23.12,24.65v32c0,15.13-8,22.61-23.8,22.61H81.67c-4.42,0-6.63,2.21-6.63,6.8v10.71H139.3V190.4Z"/><path class="cls-3" d="M46,190.33V133.72c0-15.13,7.48-22.78,22.61-22.78h34.51c4.59,0,6.8-2.21,6.8-6.8V100.4c0-4.42-2.21-6.8-6.8-6.8H48.25V61.13h68c15.47,0,23.12,8.16,23.12,24.65v32c0,15.13-8,22.61-23.8,22.61H81.74c-4.42,0-6.63,2.21-6.63,6.8v10.71h64.26v32.47Z"/><path class="cls-3" d="M46.11,190.26V133.65c0-15.13,7.48-22.78,22.61-22.78h34.51c4.59,0,6.8-2.21,6.8-6.8v-3.74c0-4.42-2.21-6.8-6.8-6.8H48.32V61.06h68c15.47,0,23.12,8.16,23.12,24.65v32c0,15.13-8,22.61-23.8,22.61H81.81c-4.42,0-6.63,2.21-6.63,6.8v10.71h64.26v32.47Z"/><path class="cls-3" d="M46.19,190.19V133.58c0-15.13,7.48-22.78,22.61-22.78h34.51c4.58,0,6.79-2.21,6.79-6.8v-3.74c0-4.42-2.21-6.8-6.79-6.8H48.4V61h68c15.47,0,23.13,8.16,23.13,24.65v32c0,15.13-8,22.61-23.8,22.61H81.89c-4.42,0-6.63,2.21-6.63,6.8v10.71h64.26v32.47Z"/><path class="cls-3" d="M46.26,190.11V133.5c0-15.13,7.48-22.78,22.61-22.78h34.51c4.59,0,6.8-2.21,6.8-6.8v-3.74c0-4.42-2.21-6.8-6.8-6.8H48.47V60.91h68c15.47,0,23.12,8.17,23.12,24.65v32c0,15.13-8,22.61-23.8,22.61H82c-4.42,0-6.63,2.21-6.63,6.8v10.71h64.26v32.47Z"/><path class="cls-3" d="M46.33,190V133.43c0-15.13,7.48-22.78,22.61-22.78h34.51c4.59,0,6.8-2.21,6.8-6.8v-3.74c0-4.42-2.21-6.8-6.8-6.8H48.54V60.84h68c15.47,0,23.12,8.16,23.12,24.65v32c0,15.13-8,22.61-23.8,22.61H82c-4.42,0-6.63,2.21-6.63,6.8v10.71h64.26V190Z"/><path class="cls-3" d="M46.4,190V133.36c0-15.13,7.48-22.78,22.61-22.78h34.51c4.59,0,6.8-2.21,6.8-6.8V100c0-4.42-2.21-6.8-6.8-6.8H48.61V60.77h68c15.47,0,23.12,8.16,23.12,24.65v32c0,15.13-8,22.61-23.8,22.61H82.1c-4.42,0-6.63,2.21-6.63,6.8V157.5h64.26V190Z"/><path class="cls-3" d="M46.47,189.9V133.29c0-15.13,7.48-22.78,22.61-22.78h34.51c4.59,0,6.8-2.21,6.8-6.8V100c0-4.42-2.21-6.8-6.8-6.8H48.68V60.7h68c15.47,0,23.12,8.16,23.12,24.65v32c0,15.13-8,22.61-23.8,22.61H82.17c-4.42,0-6.63,2.21-6.63,6.8v10.71H139.8V189.9Z"/><path class="cls-3" d="M46.55,189.83V133.22c0-15.13,7.48-22.78,22.61-22.78h34.51c4.58,0,6.79-2.21,6.79-6.8V99.9c0-4.42-2.21-6.8-6.79-6.8H48.76V60.63h68c15.47,0,23.13,8.16,23.13,24.65v32c0,15.13-8,22.61-23.8,22.61H82.25c-4.42,0-6.63,2.21-6.63,6.8v10.71h64.26v32.47Z"/><path class="cls-3" d="M46.62,189.75V133.14c0-15.13,7.48-22.78,22.61-22.78h34.51c4.59,0,6.8-2.21,6.8-6.8V99.82c0-4.42-2.21-6.8-6.8-6.8H48.83V60.55h68C132.3,60.55,140,68.72,140,85.2v32c0,15.13-8,22.61-23.8,22.61H82.32c-4.42,0-6.63,2.21-6.63,6.8v10.71H140v32.47Z"/><path class="cls-3" d="M46.69,189.68V133.07c0-15.13,7.48-22.78,22.61-22.78h34.51c4.59,0,6.8-2.21,6.8-6.8V99.75c0-4.42-2.21-6.8-6.8-6.8H48.9V60.48h68c15.47,0,23.12,8.16,23.12,24.65v32c0,15.13-8,22.61-23.8,22.61H82.39c-4.42,0-6.63,2.21-6.63,6.8v10.71H140v32.47Z"/><path class="cls-3" d="M46.76,189.61V133c0-15.13,7.48-22.78,22.61-22.78h34.51c4.59,0,6.8-2.21,6.8-6.8V99.68c0-4.42-2.21-6.8-6.8-6.8H49V60.41h68c15.47,0,23.12,8.16,23.12,24.65v32c0,15.13-8,22.61-23.8,22.61H82.46c-4.42,0-6.63,2.21-6.63,6.8v10.71h64.26v32.47Z"/><path class="cls-3" d="M46.83,189.54V132.93c0-15.13,7.48-22.78,22.61-22.78H104c4.59,0,6.8-2.21,6.8-6.8V99.61c0-4.42-2.21-6.8-6.8-6.8H49V60.34h68c15.47,0,23.12,8.16,23.12,24.65v32c0,15.13-8,22.61-23.8,22.61H82.53c-4.42,0-6.63,2.21-6.63,6.8v10.71h64.26v32.47Z"/><path class="cls-3" d="M46.91,189.47V132.86c0-15.13,7.48-22.78,22.61-22.78H104c4.58,0,6.79-2.21,6.79-6.8V99.54c0-4.42-2.21-6.8-6.79-6.8H49.12V60.27h68c15.47,0,23.13,8.16,23.13,24.65v32c0,15.13-8,22.61-23.8,22.61H82.61c-4.42,0-6.63,2.21-6.63,6.8V157h64.26v32.47Z"/><path class="cls-3" d="M47,189.39V132.78C47,117.65,54.46,110,69.59,110H104.1c4.59,0,6.8-2.21,6.8-6.8V99.46c0-4.42-2.21-6.8-6.8-6.8H49.19V60.19h68c15.47,0,23.12,8.17,23.12,24.65v32c0,15.13-8,22.61-23.8,22.61H82.68c-4.42,0-6.63,2.21-6.63,6.8v10.71h64.26v32.47Z"/><path class="cls-3" d="M47.05,189.32V132.71c0-15.13,7.48-22.78,22.61-22.78h34.51c4.59,0,6.8-2.21,6.8-6.8V99.39c0-4.42-2.21-6.8-6.8-6.8H49.26V60.12h68c15.47,0,23.12,8.16,23.12,24.65v32c0,15.13-8,22.61-23.8,22.61H82.75c-4.42,0-6.63,2.21-6.63,6.8v10.71h64.26v32.47Z"/><path class="cls-3" d="M47.12,189.25V132.64c0-15.13,7.48-22.78,22.61-22.78h34.51c4.59,0,6.8-2.21,6.8-6.8V99.32c0-4.42-2.21-6.8-6.8-6.8H49.33V60.05h68c15.47,0,23.12,8.16,23.12,24.65v32c0,15.13-8,22.61-23.8,22.61H82.82c-4.42,0-6.63,2.21-6.63,6.8v10.71h64.26v32.47Z"/><path class="cls-3" d="M47.19,189.18V132.57c0-15.13,7.48-22.78,22.61-22.78h34.51c4.59,0,6.8-2.21,6.8-6.8V99.25c0-4.42-2.21-6.8-6.8-6.8H49.4V60h68c15.47,0,23.12,8.16,23.12,24.65v32c0,15.13-8,22.61-23.8,22.61H82.89c-4.42,0-6.63,2.21-6.63,6.8v10.71h64.26v32.47Z"/><path class="cls-3" d="M47.27,189.11V132.5c0-15.13,7.48-22.78,22.61-22.78h34.51c4.58,0,6.79-2.21,6.79-6.8V99.18c0-4.42-2.21-6.8-6.79-6.8H49.48V59.91h68c15.47,0,23.13,8.16,23.13,24.65v32c0,15.13-8,22.61-23.8,22.61H83c-4.42,0-6.63,2.21-6.63,6.8v10.71H140.6v32.47Z"/><path class="cls-3" d="M47.34,189V132.42c0-15.13,7.48-22.78,22.61-22.78h34.51c4.59,0,6.8-2.21,6.8-6.8V99.1c0-4.42-2.21-6.8-6.8-6.8H49.55V59.83h68c15.47,0,23.12,8.17,23.12,24.65v32c0,15.13-8,22.61-23.8,22.61H83c-4.42,0-6.63,2.21-6.63,6.8v10.71h64.26V189Z"/><path class="cls-3" d="M47.41,189V132.35c0-15.13,7.48-22.78,22.61-22.78h34.51c4.59,0,6.8-2.21,6.8-6.8V99c0-4.42-2.21-6.8-6.8-6.8H49.62V59.76h68c15.47,0,23.12,8.16,23.12,24.65v32c0,15.13-8,22.61-23.8,22.61H83.11c-4.42,0-6.63,2.21-6.63,6.8v10.71h64.26V189Z"/><path class="cls-3" d="M47.48,188.89V132.28c0-15.13,7.48-22.78,22.61-22.78H104.6c4.59,0,6.8-2.21,6.8-6.8V99c0-4.42-2.21-6.8-6.8-6.8H49.69V59.69h68c15.47,0,23.12,8.16,23.12,24.65v32c0,15.13-8,22.61-23.8,22.61H83.18c-4.42,0-6.63,2.21-6.63,6.8v10.71h64.26v32.47Z"/><path class="cls-3" d="M47.55,188.82V132.21c0-15.13,7.48-22.78,22.61-22.78h34.51c4.59,0,6.8-2.21,6.8-6.8V98.89c0-4.42-2.21-6.8-6.8-6.8H49.76V59.62h68c15.47,0,23.12,8.16,23.12,24.65v32c0,15.13-8,22.61-23.8,22.61H83.25c-4.42,0-6.63,2.21-6.63,6.8v10.71h64.26v32.47Z"/><path class="cls-3" d="M47.63,188.75V132.14c0-15.13,7.48-22.78,22.61-22.78h34.51c4.58,0,6.79-2.21,6.79-6.8V98.82c0-4.42-2.21-6.8-6.79-6.8H49.84V59.55h68C133.3,59.55,141,67.71,141,84.2v32c0,15.13-8,22.61-23.8,22.61H83.33c-4.42,0-6.63,2.21-6.63,6.8v10.71H141v32.47Z"/><path class="cls-3" d="M47.7,188.67V132.06c0-15.13,7.48-22.78,22.61-22.78h34.51c4.59,0,6.8-2.21,6.8-6.8V98.74c0-4.42-2.21-6.8-6.8-6.8H49.91V59.47h68c15.47,0,23.12,8.17,23.12,24.65v32c0,15.13-8,22.61-23.8,22.61H83.4c-4.42,0-6.63,2.21-6.63,6.8V156.2H141v32.47Z"/><path class="cls-3" d="M47.77,188.6V132c0-15.13,7.48-22.78,22.61-22.78h34.51c4.59,0,6.8-2.21,6.8-6.8V98.67c0-4.42-2.21-6.8-6.8-6.8H50V59.4h68c15.47,0,23.12,8.16,23.12,24.65v32c0,15.13-8,22.61-23.8,22.61H83.47c-4.42,0-6.63,2.21-6.63,6.8v10.71H141.1V188.6Z"/><path class="cls-3" d="M47.84,188.53V131.92c0-15.13,7.48-22.78,22.61-22.78H105c4.59,0,6.8-2.21,6.8-6.8V98.6c0-4.42-2.21-6.8-6.8-6.8H50.05V59.33h68c15.47,0,23.12,8.16,23.12,24.65v32c0,15.13-8,22.61-23.8,22.61H83.54c-4.42,0-6.63,2.21-6.63,6.8v10.71h64.26v32.47Z"/><path class="cls-3" d="M47.91,188.46V131.85c0-15.13,7.48-22.78,22.61-22.78H105c4.59,0,6.8-2.21,6.8-6.8V98.53c0-4.42-2.21-6.8-6.8-6.8H50.12V59.26h68c15.47,0,23.12,8.16,23.12,24.65v32c0,15.13-8,22.61-23.8,22.61H83.61c-4.42,0-6.63,2.21-6.63,6.8V156h64.26v32.47Z"/><path class="cls-3" d="M48,188.39V131.78C48,116.65,55.47,109,70.6,109h34.51c4.58,0,6.79-2.21,6.79-6.8V98.46c0-4.42-2.21-6.8-6.79-6.8H50.2V59.19h68c15.47,0,23.13,8.16,23.13,24.65v32c0,15.13-8,22.61-23.8,22.61H83.69c-4.42,0-6.63,2.21-6.63,6.8v10.71h64.26v32.47Z"/><path class="cls-3" d="M48.06,188.31V131.7c0-15.13,7.48-22.78,22.61-22.78h34.51c4.59,0,6.8-2.21,6.8-6.8V98.38c0-4.42-2.21-6.8-6.8-6.8H50.27V59.11h68c15.47,0,23.12,8.17,23.12,24.65v32c0,15.13-8,22.61-23.8,22.61H83.76c-4.42,0-6.63,2.21-6.63,6.8v10.71h64.26v32.47Z"/><path class="cls-3" d="M48.13,188.24V131.63c0-15.13,7.48-22.78,22.61-22.78h34.51c4.59,0,6.8-2.21,6.8-6.8V98.31c0-4.42-2.21-6.8-6.8-6.8H50.34V59h68c15.47,0,23.12,8.16,23.12,24.65v32c0,15.13-8,22.61-23.8,22.61H83.83c-4.42,0-6.63,2.21-6.63,6.8v10.71h64.26v32.47Z"/><path class="cls-3" d="M48.2,188.17V131.56c0-15.13,7.48-22.78,22.61-22.78h34.51c4.59,0,6.8-2.21,6.8-6.8V98.24c0-4.42-2.21-6.8-6.8-6.8H50.41V59h68c15.47,0,23.12,8.16,23.12,24.65v32c0,15.13-8,22.61-23.8,22.61H83.9c-4.42,0-6.63,2.21-6.63,6.8V155.7h64.26v32.47Z"/><path class="cls-3" d="M48.27,188.1V131.49c0-15.13,7.48-22.78,22.61-22.78h34.51c4.59,0,6.8-2.21,6.8-6.8V98.17c0-4.42-2.21-6.8-6.8-6.8H50.48V58.9h68c15.47,0,23.12,8.16,23.12,24.65v32c0,15.13-8,22.61-23.8,22.61H84c-4.42,0-6.63,2.21-6.63,6.8v10.71H141.6V188.1Z"/><path class="cls-3" d="M48.35,188V131.42c0-15.13,7.48-22.78,22.61-22.78h34.51c4.58,0,6.79-2.21,6.79-6.8V98.1c0-4.42-2.21-6.8-6.79-6.8H50.56V58.83h68c15.47,0,23.13,8.16,23.13,24.65v32c0,15.13-8,22.61-23.8,22.61H84.05c-4.42,0-6.63,2.21-6.63,6.8v10.71h64.26V188Z"/><path class="cls-3" d="M48.42,188V131.34c0-15.13,7.48-22.78,22.61-22.78h34.51c4.59,0,6.8-2.21,6.8-6.8V98c0-4.42-2.21-6.8-6.8-6.8H50.63V58.75h68c15.47,0,23.12,8.17,23.12,24.65v32c0,15.13-8,22.61-23.8,22.61H84.12c-4.42,0-6.63,2.21-6.63,6.8v10.71h64.26V188Z"/><path class="cls-3" d="M48.49,187.88V131.27c0-15.13,7.48-22.78,22.61-22.78h34.51c4.59,0,6.8-2.21,6.8-6.8V98c0-4.42-2.21-6.8-6.8-6.8H50.7V58.68h68c15.47,0,23.12,8.16,23.12,24.65v32c0,15.13-8,22.61-23.8,22.61H84.19c-4.42,0-6.63,2.21-6.63,6.8v10.71h64.26v32.47Z"/><path class="cls-3" d="M48.56,187.81V131.2c0-15.13,7.48-22.78,22.61-22.78h34.51c4.59,0,6.8-2.21,6.8-6.8V97.88c0-4.42-2.21-6.8-6.8-6.8H50.77V58.61h68c15.47,0,23.12,8.16,23.12,24.65v32c0,15.13-8,22.61-23.8,22.61H84.26c-4.42,0-6.63,2.21-6.63,6.8v10.71h64.26v32.47Z"/><path class="cls-3" d="M48.63,187.74V131.13c0-15.13,7.48-22.78,22.61-22.78h34.51c4.59,0,6.8-2.21,6.8-6.8V97.81c0-4.42-2.21-6.8-6.8-6.8H50.84V58.54h68c15.47,0,23.12,8.16,23.12,24.65v32c0,15.13-8,22.61-23.8,22.61H84.33c-4.42,0-6.63,2.21-6.63,6.8v10.71H142v32.47Z"/><path class="cls-3" d="M48.71,187.67V131.06c0-15.13,7.48-22.78,22.61-22.78h34.51c4.58,0,6.79-2.21,6.79-6.8V97.74c0-4.42-2.21-6.8-6.79-6.8H50.92V58.47h68c15.47,0,23.13,8.16,23.13,24.65v32c0,15.13-8,22.61-23.8,22.61H84.41c-4.42,0-6.63,2.21-6.63,6.8V155.2H142v32.47Z"/><path class="cls-3" d="M48.78,187.59V131c0-15.13,7.48-22.78,22.61-22.78H105.9c4.59,0,6.8-2.21,6.8-6.8V97.66c0-4.42-2.21-6.8-6.8-6.8H51V58.39h68c15.47,0,23.12,8.17,23.12,24.65v32c0,15.13-8,22.61-23.8,22.61H84.48c-4.42,0-6.63,2.21-6.63,6.8v10.71h64.26v32.47Z"/><path class="cls-3" d="M48.85,187.52V130.91c0-15.13,7.48-22.78,22.61-22.78H106c4.59,0,6.8-2.21,6.8-6.8V97.59c0-4.42-2.21-6.8-6.8-6.8H51.06V58.32h68c15.47,0,23.12,8.16,23.12,24.65v32c0,15.13-8,22.61-23.8,22.61H84.55c-4.42,0-6.63,2.21-6.63,6.8v10.71h64.26v32.47Z"/><path class="cls-3" d="M48.92,187.45V130.84c0-15.13,7.48-22.78,22.61-22.78H106c4.59,0,6.8-2.21,6.8-6.8V97.52c0-4.42-2.21-6.8-6.8-6.8H51.13V58.25h68c15.47,0,23.12,8.16,23.12,24.65v32c0,15.13-8,22.61-23.8,22.61H84.62c-4.42,0-6.63,2.21-6.63,6.8V155h64.26v32.47Z"/><path class="cls-3" d="M49,187.38V130.77C49,115.64,56.47,108,71.6,108h34.51c4.59,0,6.8-2.21,6.8-6.8V97.45c0-4.42-2.21-6.8-6.8-6.8H51.2V58.18h68c15.47,0,23.12,8.16,23.12,24.65v32c0,15.13-8,22.61-23.8,22.61H84.69c-4.42,0-6.63,2.21-6.63,6.8v10.71h64.26v32.47Z"/><path class="cls-3" d="M49.07,187.31V130.7c0-15.13,7.48-22.78,22.61-22.78h34.51c4.58,0,6.79-2.21,6.79-6.8V97.38c0-4.42-2.21-6.8-6.79-6.8H51.28V58.11h68c15.47,0,23.13,8.16,23.13,24.65v32c0,15.13-8,22.61-23.8,22.61H84.77c-4.42,0-6.63,2.21-6.63,6.8v10.71H142.4v32.47Z"/><path class="cls-3" d="M49.14,187.23V130.62c0-15.13,7.48-22.78,22.61-22.78h34.51c4.59,0,6.8-2.21,6.8-6.8V97.3c0-4.42-2.21-6.8-6.8-6.8H51.35V58h68c15.47,0,23.12,8.17,23.12,24.65v32c0,15.13-8,22.61-23.8,22.61H84.84c-4.42,0-6.63,2.21-6.63,6.8v10.71h64.26v32.47Z"/><path class="cls-3" d="M49.21,187.16V130.55c0-15.13,7.48-22.78,22.61-22.78h34.51c4.59,0,6.8-2.21,6.8-6.8V97.23c0-4.42-2.21-6.8-6.8-6.8H51.42V58h68c15.47,0,23.12,8.16,23.12,24.65v32c0,15.13-8,22.61-23.8,22.61H84.91c-4.42,0-6.63,2.21-6.63,6.8v10.71h64.26v32.47Z"/><path class="cls-3" d="M49.28,187.09V130.48c0-15.13,7.48-22.78,22.61-22.78H106.4c4.59,0,6.8-2.21,6.8-6.8V97.16c0-4.42-2.21-6.8-6.8-6.8H51.49V57.89h68c15.47,0,23.12,8.16,23.12,24.65v32c0,15.13-8,22.61-23.8,22.61H85c-4.42,0-6.63,2.21-6.63,6.8v10.71h64.26v32.47Z"/><path class="cls-3" d="M49.35,187V130.41c0-15.13,7.48-22.78,22.61-22.78h34.51c4.59,0,6.8-2.21,6.8-6.8V97.09c0-4.42-2.21-6.8-6.8-6.8H51.56V57.82h68c15.47,0,23.12,8.16,23.12,24.65v32c0,15.13-8,22.61-23.8,22.61H85.05c-4.42,0-6.63,2.21-6.63,6.8v10.71h64.26V187Z"/><path class="cls-3" d="M49.43,187V130.34c0-15.13,7.48-22.78,22.61-22.78h34.51c4.58,0,6.79-2.21,6.79-6.8V97c0-4.42-2.21-6.8-6.79-6.8H51.64V57.75h68c15.47,0,23.13,8.16,23.13,24.65v32c0,15.13-8,22.61-23.8,22.61H85.13c-4.42,0-6.63,2.21-6.63,6.8v10.71h64.26V187Z"/><path class="cls-3" d="M49.5,186.87V130.26c0-15.13,7.48-22.78,22.61-22.78h34.51c4.59,0,6.8-2.21,6.8-6.8V96.94c0-4.42-2.21-6.8-6.8-6.8H51.71V57.67h68c15.47,0,23.12,8.17,23.12,24.65v32c0,15.13-8,22.61-23.8,22.61H85.2c-4.42,0-6.63,2.21-6.63,6.8V154.4h64.26v32.47Z"/><path class="cls-3" d="M49.57,186.8V130.19c0-15.13,7.48-22.78,22.61-22.78h34.51c4.59,0,6.8-2.21,6.8-6.8V96.87c0-4.42-2.21-6.8-6.8-6.8H51.78V57.6h68c15.47,0,23.12,8.16,23.12,24.65v32c0,15.13-8,22.61-23.8,22.61H85.27c-4.42,0-6.63,2.21-6.63,6.8v10.71H142.9V186.8Z"/><path class="cls-3" d="M49.64,186.73V130.12c0-15.13,7.48-22.78,22.61-22.78h34.51c4.59,0,6.8-2.21,6.8-6.8V96.8c0-4.42-2.21-6.8-6.8-6.8H51.85V57.53h68c15.47,0,23.12,8.16,23.12,24.65v32c0,15.13-8,22.61-23.8,22.61H85.34c-4.42,0-6.63,2.21-6.63,6.8v10.71H143v32.47Z"/><path class="cls-3" d="M49.71,186.66V130.05c0-15.13,7.48-22.78,22.61-22.78h34.51c4.59,0,6.8-2.21,6.8-6.8V96.73c0-4.42-2.21-6.8-6.8-6.8H51.92V57.46h68c15.47,0,23.12,8.16,23.12,24.65v32c0,15.13-8,22.61-23.8,22.61H85.41c-4.42,0-6.63,2.21-6.63,6.8v10.71H143v32.47Z"/><path class="cls-3" d="M49.79,186.59V130c0-15.13,7.48-22.78,22.61-22.78h34.51c4.58,0,6.79-2.21,6.79-6.8V96.66c0-4.42-2.21-6.8-6.79-6.8H52V57.39h68c15.47,0,23.13,8.16,23.13,24.65v32c0,15.13-8,22.61-23.8,22.61H85.49c-4.42,0-6.63,2.21-6.63,6.8v10.71h64.26v32.47Z"/><path class="cls-3" d="M49.86,186.51V129.9c0-15.13,7.48-22.78,22.61-22.78H107c4.59,0,6.8-2.21,6.8-6.8V96.58c0-4.42-2.21-6.8-6.8-6.8H52.07V57.31h68c15.47,0,23.12,8.17,23.12,24.65v32c0,15.13-8,22.61-23.8,22.61H85.56c-4.42,0-6.63,2.21-6.63,6.8V154h64.26v32.47Z"/><path class="cls-3" d="M49.93,186.44V129.83c0-15.13,7.48-22.78,22.61-22.78h34.51c4.59,0,6.8-2.21,6.8-6.8V96.51c0-4.42-2.21-6.8-6.8-6.8H52.14V57.24h68c15.47,0,23.12,8.16,23.12,24.65v32c0,15.13-8,22.61-23.8,22.61H85.63c-4.42,0-6.63,2.21-6.63,6.8V154h64.26v32.47Z"/><path class="cls-3" d="M50,186.37V129.76C50,114.63,57.48,107,72.61,107h34.51c4.59,0,6.8-2.21,6.8-6.8V96.44c0-4.42-2.21-6.8-6.8-6.8H52.21V57.17h68c15.47,0,23.12,8.16,23.12,24.65v32c0,15.13-8,22.61-23.8,22.61H85.7c-4.42,0-6.63,2.21-6.63,6.8V153.9h64.26v32.47Z"/></g></svg>