<svg xmlns="http://www.w3.org/2000/svg" viewBox="0 0 180 252"><defs><style>.cls-1{fill:#f7f7f7;}.cls-2,.cls-3{fill:#ef4478;stroke:#822148;stroke-miterlimit:2;}.cls-2{stroke-width:2px;}.cls-3{stroke-width:4px;}</style></defs><g id="Card"><rect class="cls-1" width="180" height="252" rx="9.92"/></g><g id="_3" data-name="3"><path class="cls-2" d="M12.15,42.56V35.49H23c.74,0,1.07-.37,1.07-1.11v-2c0-.74-.33-1.11-1.07-1.11H12.52V25.65H23c.74,0,1.07-.37,1.07-1.11V22.61c0-.74-.33-1.11-1.07-1.11H12.41V14.43h13c3.36,0,5.07,1.74,5.07,5.26v4.44c0,2.55-1,4-3.11,4.36a3.66,3.66,0,0,1,3.18,4v4.81c0,3.48-1.7,5.22-5.07,5.22Z"/><path class="cls-2" d="M150.92,42.56V35.49H161.8c.74,0,1.08-.37,1.08-1.11v-2c0-.74-.34-1.11-1.08-1.11H151.29V25.65H161.8c.74,0,1.08-.37,1.08-1.11V22.61c0-.74-.34-1.11-1.08-1.11H151.18V14.43h12.95c3.37,0,5.07,1.74,5.07,5.26v4.44c0,2.55-1,4-3.1,4.36a3.66,3.66,0,0,1,3.18,4v4.81c0,3.48-1.7,5.22-5.07,5.22Z"/><path class="cls-2" d="M168.85,209.44v7.07H158c-.74,0-1.07.37-1.07,1.11v2c0,.74.33,1.11,1.07,1.11h10.51v5.66H158c-.74,0-1.07.37-1.07,1.11v1.93c0,.74.33,1.11,1.07,1.11h10.62v7.07h-13c-3.36,0-5.07-1.74-5.07-5.26v-4.44c0-2.55,1-4,3.11-4.36a3.66,3.66,0,0,1-3.18-4v-4.81c0-3.48,1.7-5.22,5.07-5.22Z"/><path class="cls-2" d="M30.08,209.44v7.07H19.2c-.74,0-1.08.37-1.08,1.11v2c0,.74.34,1.11,1.08,1.11H29.71v5.66H19.2c-.74,0-1.08.37-1.08,1.11v1.93c0,.74.34,1.11,1.08,1.11H29.82v7.07H16.87c-3.37,0-5.07-1.74-5.07-5.26v-4.44c0-2.55,1-4,3.1-4.36a3.66,3.66,0,0,1-3.18-4v-4.81c0-3.48,1.7-5.22,5.07-5.22Z"/><path class="cls-3" d="M44.69,197.17V164.7h50c3.4,0,4.93-1.7,4.93-5.1v-9c0-3.4-1.53-5.1-4.93-5.1H46.39v-26H94.67c3.4,0,4.93-1.7,4.93-5.1v-8.84c0-3.4-1.53-5.1-4.93-5.1H45.88V68h59.5c15.47,0,23.29,8,23.29,24.14v20.4c0,11.73-4.59,18.36-14.28,20.06,10.2,2.21,14.62,8.33,14.62,18.53v22.1c0,16-7.82,24-23.29,24Z"/><path class="cls-3" d="M44.76,197.1V164.63h50c3.4,0,4.93-1.7,4.93-5.1v-9c0-3.4-1.53-5.1-4.93-5.1H46.46v-26H94.74c3.4,0,4.93-1.7,4.93-5.1v-8.84c0-3.4-1.53-5.1-4.93-5.1H46V67.9h59.5c15.47,0,23.29,8,23.29,24.14v20.4c0,11.73-4.59,18.36-14.28,20.06,10.2,2.21,14.62,8.33,14.62,18.53v22.1c0,16-7.82,24-23.29,24Z"/><path class="cls-3" d="M44.83,197V164.56h50c3.4,0,4.93-1.7,4.93-5.1v-9c0-3.4-1.53-5.1-4.93-5.1H46.53v-26H94.81c3.4,0,4.93-1.7,4.93-5.1V105.4c0-3.4-1.53-5.1-4.93-5.1H46V67.83h59.5c15.47,0,23.29,8,23.29,24.14v20.4c0,11.73-4.59,18.36-14.28,20.06,10.2,2.21,14.62,8.33,14.62,18.53v22.1c0,16-7.82,24-23.29,24Z"/><path class="cls-3" d="M44.9,197V164.48h50c3.4,0,4.93-1.7,4.93-5.1v-9c0-3.4-1.53-5.1-4.93-5.1H46.6v-26H94.88c3.4,0,4.93-1.7,4.93-5.1v-8.84c0-3.4-1.53-5.1-4.93-5.1H46.09V67.75h59.5c15.47,0,23.29,8,23.29,24.14v20.4c0,11.73-4.59,18.36-14.28,20.06,10.2,2.21,14.62,8.33,14.62,18.53V173c0,16-7.82,24-23.29,24Z"/><path class="cls-3" d="M45,196.88V164.41H95c3.41,0,4.93-1.7,4.93-5.1v-9c0-3.4-1.52-5.1-4.93-5.1H46.68v-26H95c3.41,0,4.93-1.7,4.93-5.1v-8.84c0-3.4-1.52-5.1-4.93-5.1H46.16V67.68h59.5c15.47,0,23.29,8,23.29,24.14v20.4c0,11.73-4.59,18.36-14.28,20.06,10.2,2.21,14.62,8.33,14.62,18.53v22.1c0,16-7.82,24-23.29,24Z"/><path class="cls-3" d="M45.05,196.81V164.34H95c3.4,0,4.93-1.7,4.93-5.1v-9c0-3.4-1.53-5.1-4.93-5.1H46.75v-26H95c3.4,0,4.93-1.7,4.93-5.1v-8.84c0-3.4-1.53-5.1-4.93-5.1H46.24V67.61h59.5c15.47,0,23.29,8,23.29,24.14v20.4c0,11.73-4.59,18.36-14.28,20.06,10.2,2.21,14.62,8.33,14.62,18.53v22.1c0,16-7.82,24-23.29,24Z"/><path class="cls-3" d="M45.12,196.74V164.27h50c3.4,0,4.93-1.7,4.93-5.1v-9c0-3.4-1.53-5.1-4.93-5.1H46.82v-26H95.1c3.4,0,4.93-1.7,4.93-5.1v-8.84c0-3.4-1.53-5.1-4.93-5.1H46.31V67.54h59.5c15.47,0,23.29,8,23.29,24.14v20.4c0,11.73-4.59,18.36-14.28,20.06,10.2,2.21,14.62,8.33,14.62,18.53v22.1c0,16-7.82,24-23.29,24Z"/><path class="cls-3" d="M45.19,196.67V164.2h50c3.4,0,4.93-1.7,4.93-5.1v-9c0-3.4-1.53-5.1-4.93-5.1H46.89V119H95.17c3.4,0,4.93-1.7,4.93-5.1V105c0-3.4-1.53-5.1-4.93-5.1H46.38V67.47h59.5c15.47,0,23.29,8,23.29,24.14V112c0,11.73-4.59,18.36-14.28,20.06,10.2,2.21,14.62,8.33,14.62,18.53v22.1c0,16-7.82,24-23.29,24Z"/><path class="cls-3" d="M45.26,196.59V164.12h50c3.4,0,4.93-1.7,4.93-5.1v-9c0-3.4-1.53-5.1-4.93-5.1H47v-26H95.24c3.4,0,4.93-1.7,4.93-5.1V105c0-3.4-1.53-5.1-4.93-5.1H46.45V67.39H106c15.47,0,23.29,8,23.29,24.14v20.4c0,11.73-4.59,18.36-14.28,20.06,10.2,2.21,14.62,8.33,14.62,18.53v22.1c0,16-7.82,24-23.29,24Z"/><path class="cls-3" d="M45.34,196.52V164.05h50c3.41,0,4.93-1.7,4.93-5.1v-9c0-3.4-1.52-5.1-4.93-5.1H47v-26H95.31c3.41,0,4.93-1.7,4.93-5.1v-8.84c0-3.4-1.52-5.1-4.93-5.1H46.52V67.32H106c15.47,0,23.29,8,23.29,24.14v20.4c0,11.73-4.59,18.36-14.28,20.06,10.2,2.21,14.62,8.33,14.62,18.53v22.1c0,16-7.82,24-23.29,24Z"/><path class="cls-3" d="M45.41,196.45V164h50c3.4,0,4.93-1.7,4.93-5.1v-9c0-3.4-1.53-5.1-4.93-5.1H47.11v-26H95.39c3.4,0,4.93-1.7,4.93-5.1v-8.84c0-3.4-1.53-5.1-4.93-5.1H46.6V67.25h59.5c15.47,0,23.29,8,23.29,24.14v20.4c0,11.73-4.59,18.36-14.28,20.06,10.2,2.21,14.62,8.33,14.62,18.53v22.1c0,16-7.82,24-23.29,24Z"/><path class="cls-3" d="M45.48,196.38V163.91h50c3.4,0,4.93-1.7,4.93-5.1v-9c0-3.4-1.53-5.1-4.93-5.1H47.18v-26H95.46c3.4,0,4.93-1.7,4.93-5.1v-8.84c0-3.4-1.53-5.1-4.93-5.1H46.67V67.18h59.5c15.47,0,23.29,8,23.29,24.14v20.4c0,11.73-4.59,18.36-14.28,20.06,10.2,2.21,14.62,8.33,14.62,18.53v22.1c0,16-7.82,24-23.29,24Z"/><path class="cls-3" d="M45.55,196.31V163.84h50c3.4,0,4.93-1.7,4.93-5.1v-9c0-3.4-1.53-5.1-4.93-5.1H47.25v-26H95.53c3.4,0,4.93-1.7,4.93-5.1v-8.84c0-3.4-1.53-5.1-4.93-5.1H46.74V67.11h59.5c15.47,0,23.29,8,23.29,24.14v20.4c0,11.73-4.59,18.36-14.28,20.06,10.2,2.21,14.62,8.33,14.62,18.53v22.1c0,16-7.82,24-23.29,24Z"/><path class="cls-3" d="M45.62,196.23V163.76h50c3.4,0,4.93-1.7,4.93-5.1v-9c0-3.4-1.53-5.1-4.93-5.1H47.32v-26H95.6c3.4,0,4.93-1.7,4.93-5.1V104.6c0-3.4-1.53-5.1-4.93-5.1H46.81V67h59.5c15.47,0,23.29,8,23.29,24.14v20.4c0,11.73-4.59,18.36-14.28,20.06,10.2,2.21,14.62,8.33,14.62,18.53v22.1c0,16-7.82,24-23.29,24Z"/><path class="cls-3" d="M45.7,196.16V163.69h50c3.41,0,4.93-1.7,4.93-5.1v-9c0-3.4-1.52-5.1-4.93-5.1H47.4v-26H95.67c3.41,0,4.93-1.7,4.93-5.1v-8.84c0-3.4-1.52-5.1-4.93-5.1H46.88V67h59.5c15.47,0,23.29,8,23.29,24.14v20.4c0,11.73-4.59,18.36-14.28,20.06,10.2,2.21,14.62,8.33,14.62,18.53v22.1c0,16-7.82,24-23.29,24Z"/><path class="cls-3" d="M45.77,196.09V163.62h50c3.4,0,4.93-1.7,4.93-5.1v-9c0-3.4-1.53-5.1-4.93-5.1H47.47v-26H95.75c3.4,0,4.93-1.7,4.93-5.1v-8.84c0-3.4-1.53-5.1-4.93-5.1H47V66.89h59.5c15.47,0,23.29,8,23.29,24.14v20.4c0,11.73-4.59,18.36-14.28,20.06,10.2,2.21,14.62,8.33,14.62,18.53v22.1c0,16-7.82,24-23.29,24Z"/><path class="cls-3" d="M45.84,196V163.55h50c3.4,0,4.93-1.7,4.93-5.1v-9c0-3.4-1.53-5.1-4.93-5.1H47.54v-26H95.82c3.4,0,4.93-1.7,4.93-5.1v-8.84c0-3.4-1.53-5.1-4.93-5.1H47V66.82h59.5c15.47,0,23.29,8,23.29,24.14v20.4c0,11.73-4.59,18.36-14.28,20.06,10.2,2.21,14.62,8.33,14.62,18.53v22.1c0,16-7.82,24-23.29,24Z"/><path class="cls-3" d="M45.91,196V163.48h50c3.4,0,4.93-1.7,4.93-5.1v-9c0-3.4-1.53-5.1-4.93-5.1H47.61v-26H95.89c3.4,0,4.93-1.7,4.93-5.1v-8.84c0-3.4-1.53-5.1-4.93-5.1H47.1V66.75h59.5c15.47,0,23.29,8,23.29,24.14v20.4c0,11.73-4.59,18.36-14.28,20.06,10.2,2.21,14.62,8.33,14.62,18.53V172c0,16-7.82,24-23.29,24Z"/><path class="cls-3" d="M46,195.87V163.4H96c3.4,0,4.93-1.7,4.93-5.1v-9c0-3.4-1.53-5.1-4.93-5.1H47.68v-26H96c3.4,0,4.93-1.7,4.93-5.1v-8.84c0-3.4-1.53-5.1-4.93-5.1H47.17V66.67h59.5c15.47,0,23.29,8,23.29,24.14v20.4c0,11.73-4.59,18.36-14.28,20.06,10.2,2.21,14.62,8.33,14.62,18.53v22.1c0,16-7.82,24-23.29,24Z"/><path class="cls-3" d="M46.06,195.8V163.33H96c3.41,0,4.93-1.7,4.93-5.1v-9c0-3.4-1.52-5.1-4.93-5.1H47.76v-26H96c3.41,0,4.93-1.7,4.93-5.1v-8.84c0-3.4-1.52-5.1-4.93-5.1H47.24V66.6h59.5c15.47,0,23.29,8,23.29,24.14v20.4c0,11.73-4.59,18.36-14.28,20.06,10.2,2.21,14.62,8.33,14.62,18.53v22.1c0,16-7.82,24-23.29,24Z"/><path class="cls-3" d="M46.13,195.73V163.26h50c3.4,0,4.93-1.7,4.93-5.1v-9c0-3.4-1.53-5.1-4.93-5.1H47.83V118H96.11c3.4,0,4.93-1.7,4.93-5.1V104.1c0-3.4-1.53-5.1-4.93-5.1H47.32V66.53h59.5c15.47,0,23.29,8,23.29,24.14v20.4c0,11.73-4.59,18.36-14.28,20.06,10.2,2.21,14.62,8.33,14.62,18.53v22.1c0,16-7.82,24-23.29,24Z"/><path class="cls-3" d="M46.2,195.66V163.19h50c3.4,0,4.93-1.7,4.93-5.1v-9c0-3.4-1.53-5.1-4.93-5.1H47.9V118H96.18c3.4,0,4.93-1.7,4.93-5.1V104c0-3.4-1.53-5.1-4.93-5.1H47.39V66.46h59.5c15.47,0,23.29,8,23.29,24.14V111c0,11.73-4.59,18.36-14.28,20.06,10.2,2.21,14.62,8.33,14.62,18.53v22.1c0,16-7.82,24-23.29,24Z"/><path class="cls-3" d="M46.27,195.59V163.12h50c3.4,0,4.93-1.7,4.93-5.1v-9c0-3.4-1.53-5.1-4.93-5.1H48v-26H96.25c3.4,0,4.93-1.7,4.93-5.1V104c0-3.4-1.53-5.1-4.93-5.1H47.46V66.39H107c15.47,0,23.29,8,23.29,24.14v20.4c0,11.73-4.59,18.36-14.28,20.06,10.2,2.21,14.62,8.33,14.62,18.53v22.1c0,16-7.82,24-23.29,24Z"/><path class="cls-3" d="M46.34,195.51V163h50c3.4,0,4.93-1.7,4.93-5.1v-9c0-3.4-1.53-5.1-4.93-5.1H48v-26H96.32c3.4,0,4.93-1.7,4.93-5.1v-8.84c0-3.4-1.53-5.1-4.93-5.1H47.53V66.31H107c15.47,0,23.29,8,23.29,24.14v20.4c0,11.73-4.59,18.36-14.28,20.06,10.2,2.21,14.62,8.33,14.62,18.53v22.1c0,16-7.82,24-23.29,24Z"/><path class="cls-3" d="M46.42,195.44V163h50c3.41,0,4.93-1.7,4.93-5.1v-9c0-3.4-1.52-5.1-4.93-5.1H48.12v-26H96.39c3.41,0,4.93-1.7,4.93-5.1v-8.84c0-3.4-1.52-5.1-4.93-5.1H47.6V66.24h59.5c15.47,0,23.29,8,23.29,24.14v20.4c0,11.73-4.59,18.36-14.28,20.06,10.2,2.21,14.62,8.33,14.62,18.53v22.1c0,16-7.82,24-23.29,24Z"/><path class="cls-3" d="M46.49,195.37V162.9h50c3.4,0,4.93-1.7,4.93-5.1v-9c0-3.4-1.53-5.1-4.93-5.1H48.19v-26H96.47c3.4,0,4.93-1.7,4.93-5.1v-8.84c0-3.4-1.53-5.1-4.93-5.1H47.68V66.17h59.5c15.47,0,23.29,8,23.29,24.14v20.4c0,11.73-4.59,18.36-14.28,20.06,10.2,2.21,14.62,8.33,14.62,18.53v22.1c0,16-7.82,24-23.29,24Z"/><path class="cls-3" d="M46.56,195.3V162.83h50c3.4,0,4.93-1.7,4.93-5.1v-9c0-3.4-1.53-5.1-4.93-5.1H48.26v-26H96.54c3.4,0,4.93-1.7,4.93-5.1v-8.84c0-3.4-1.53-5.1-4.93-5.1H47.75V66.1h59.5c15.47,0,23.29,8,23.29,24.14v20.4c0,11.73-4.59,18.36-14.28,20.06,10.2,2.21,14.62,8.33,14.62,18.53v22.1c0,16-7.82,24-23.29,24Z"/><path class="cls-3" d="M46.63,195.23V162.76h50c3.4,0,4.93-1.7,4.93-5.1v-9c0-3.4-1.53-5.1-4.93-5.1H48.33v-26H96.61c3.4,0,4.93-1.7,4.93-5.1V103.6c0-3.4-1.53-5.1-4.93-5.1H47.82V66h59.5c15.47,0,23.29,8,23.29,24.14v20.4c0,11.73-4.59,18.36-14.28,20.06C126.53,132.84,131,139,131,149.16v22.1c0,16-7.82,24-23.29,24Z"/><path class="cls-3" d="M46.7,195.15V162.68h50c3.4,0,4.93-1.7,4.93-5.1v-9c0-3.4-1.53-5.1-4.93-5.1H48.4v-26H96.68c3.4,0,4.93-1.7,4.93-5.1v-8.84c0-3.4-1.53-5.1-4.93-5.1H47.89V66h59.5c15.47,0,23.29,8,23.29,24.14v20.4c0,11.73-4.59,18.36-14.28,20.06,10.2,2.21,14.62,8.33,14.62,18.53v22.1c0,16-7.82,24-23.29,24Z"/><path class="cls-3" d="M46.78,195.08V162.61h50c3.41,0,4.93-1.7,4.93-5.1v-9c0-3.4-1.52-5.1-4.93-5.1H48.48v-26H96.75c3.41,0,4.93-1.7,4.93-5.1v-8.84c0-3.4-1.52-5.1-4.93-5.1H48V65.88h59.5c15.47,0,23.29,8,23.29,24.14v20.4c0,11.73-4.59,18.36-14.28,20.06,10.2,2.21,14.62,8.33,14.62,18.53v22.1c0,16-7.82,24-23.29,24Z"/><path class="cls-3" d="M46.85,195V162.54h50c3.4,0,4.93-1.7,4.93-5.1v-9c0-3.4-1.53-5.1-4.93-5.1H48.55v-26H96.83c3.4,0,4.93-1.7,4.93-5.1v-8.84c0-3.4-1.53-5.1-4.93-5.1H48V65.81h59.5c15.47,0,23.29,8,23.29,24.14v20.4c0,11.73-4.59,18.36-14.28,20.06,10.2,2.21,14.62,8.33,14.62,18.53V171c0,16-7.82,24-23.29,24Z"/><path class="cls-3" d="M46.92,194.94V162.47h50c3.4,0,4.93-1.7,4.93-5.1v-9c0-3.4-1.53-5.1-4.93-5.1H48.62v-26H96.9c3.4,0,4.93-1.7,4.93-5.1v-8.84c0-3.4-1.53-5.1-4.93-5.1H48.11V65.74h59.5c15.47,0,23.29,8,23.29,24.14v20.4c0,11.73-4.59,18.36-14.28,20.06,10.2,2.21,14.62,8.33,14.62,18.53V171c0,16-7.82,24-23.29,24Z"/><path class="cls-3" d="M47,194.87V162.4H97c3.4,0,4.93-1.7,4.93-5.1v-9c0-3.4-1.53-5.1-4.93-5.1H48.69v-26H97c3.4,0,4.93-1.7,4.93-5.1v-8.84c0-3.4-1.53-5.1-4.93-5.1H48.18V65.67h59.5c15.47,0,23.29,8,23.29,24.14v20.4c0,11.73-4.59,18.36-14.28,20.06,10.2,2.21,14.62,8.33,14.62,18.53v22.1c0,16-7.82,24-23.29,24Z"/><path class="cls-3" d="M47.06,194.79V162.32H97c3.4,0,4.93-1.7,4.93-5.1v-9c0-3.4-1.53-5.1-4.93-5.1H48.76v-26H97c3.4,0,4.93-1.7,4.93-5.1v-8.84c0-3.4-1.53-5.1-4.93-5.1H48.25V65.59h59.5c15.47,0,23.29,8,23.29,24.14v20.4c0,11.73-4.59,18.36-14.28,20.06,10.2,2.21,14.62,8.33,14.62,18.53v22.1c0,16-7.82,24-23.29,24Z"/><path class="cls-3" d="M47.14,194.72V162.25h50c3.41,0,4.93-1.7,4.93-5.1v-9c0-3.4-1.52-5.1-4.93-5.1H48.84V117H97.11c3.41,0,4.93-1.7,4.93-5.1v-8.84c0-3.4-1.52-5.1-4.93-5.1H48.32V65.52h59.5c15.47,0,23.29,8,23.29,24.14v20.4c0,11.73-4.59,18.36-14.28,20.06,10.2,2.21,14.62,8.33,14.62,18.53v22.1c0,16-7.82,24-23.29,24Z"/><path class="cls-3" d="M47.21,194.65V162.18h50c3.4,0,4.93-1.7,4.93-5.1v-9c0-3.4-1.53-5.1-4.93-5.1H48.91V117H97.19c3.4,0,4.93-1.7,4.93-5.1V103c0-3.4-1.53-5.1-4.93-5.1H48.4V65.45h59.5c15.47,0,23.29,8,23.29,24.14V110c0,11.73-4.59,18.36-14.28,20.06,10.2,2.21,14.62,8.33,14.62,18.53v22.1c0,16-7.82,24-23.29,24Z"/><path class="cls-3" d="M47.28,194.58V162.11h50c3.4,0,4.93-1.7,4.93-5.1v-9c0-3.4-1.53-5.1-4.93-5.1H49v-26H97.26c3.4,0,4.93-1.7,4.93-5.1V103c0-3.4-1.53-5.1-4.93-5.1H48.47V65.38H108c15.47,0,23.29,8,23.29,24.14v20.4c0,11.73-4.59,18.36-14.28,20.06,10.2,2.21,14.62,8.33,14.62,18.53v22.1c0,16-7.82,24-23.29,24Z"/><path class="cls-3" d="M47.35,194.51V162h50c3.4,0,4.93-1.7,4.93-5.1v-9c0-3.4-1.53-5.1-4.93-5.1H49.05v-26H97.33c3.4,0,4.93-1.7,4.93-5.1v-8.84c0-3.4-1.53-5.1-4.93-5.1H48.54V65.31H108c15.47,0,23.29,8,23.29,24.14v20.4c0,11.73-4.59,18.36-14.28,20.06,10.2,2.21,14.62,8.33,14.62,18.53v22.1c0,16-7.82,24-23.29,24Z"/><path class="cls-3" d="M47.42,194.43V162h50c3.4,0,4.93-1.7,4.93-5.1v-9c0-3.4-1.53-5.1-4.93-5.1H49.12v-26H97.4c3.4,0,4.93-1.7,4.93-5.1V102.8c0-3.4-1.53-5.1-4.93-5.1H48.61V65.23h59.5c15.47,0,23.29,8,23.29,24.14v20.4c0,11.73-4.59,18.36-14.28,20.06,10.2,2.21,14.62,8.33,14.62,18.53v22.1c0,16-7.82,24-23.29,24Z"/><path class="cls-3" d="M47.5,194.36V161.89h50c3.41,0,4.93-1.7,4.93-5.1v-9c0-3.4-1.52-5.1-4.93-5.1H49.2v-26H97.47c3.41,0,4.93-1.7,4.93-5.1v-8.84c0-3.4-1.52-5.1-4.93-5.1H48.68V65.16h59.5c15.47,0,23.29,8,23.29,24.14v20.4c0,11.73-4.59,18.36-14.28,20.06,10.2,2.21,14.62,8.33,14.62,18.53v22.1c0,16-7.82,24-23.29,24Z"/><path class="cls-3" d="M47.57,194.29V161.82h50c3.4,0,4.93-1.7,4.93-5.1v-9c0-3.4-1.53-5.1-4.93-5.1H49.27v-26H97.55c3.4,0,4.93-1.7,4.93-5.1v-8.84c0-3.4-1.53-5.1-4.93-5.1H48.76V65.09h59.5c15.47,0,23.29,8,23.29,24.14v20.4c0,11.73-4.59,18.36-14.28,20.06,10.2,2.21,14.62,8.33,14.62,18.53v22.1c0,16-7.82,24-23.29,24Z"/><path class="cls-3" d="M47.64,194.22V161.75h50c3.4,0,4.93-1.7,4.93-5.1v-9c0-3.4-1.53-5.1-4.93-5.1H49.34v-26H97.62c3.4,0,4.93-1.7,4.93-5.1v-8.84c0-3.4-1.53-5.1-4.93-5.1H48.83V65h59.5c15.47,0,23.29,8,23.29,24.14v20.4c0,11.73-4.59,18.36-14.28,20.06C127.54,131.83,132,138,132,148.15v22.1c0,16-7.82,24-23.29,24Z"/><path class="cls-3" d="M47.71,194.15V161.68h50c3.4,0,4.93-1.7,4.93-5.1v-9c0-3.4-1.53-5.1-4.93-5.1H49.41v-26H97.69c3.4,0,4.93-1.7,4.93-5.1v-8.84c0-3.4-1.53-5.1-4.93-5.1H48.9V65h59.5c15.47,0,23.29,8,23.29,24.14v20.4c0,11.73-4.59,18.36-14.28,20.06,10.2,2.21,14.62,8.33,14.62,18.53v22.1c0,16-7.82,24-23.29,24Z"/><path class="cls-3" d="M47.78,194.07V161.6h50c3.4,0,4.93-1.7,4.93-5.1v-9c0-3.4-1.53-5.1-4.93-5.1H49.48v-26H97.76c3.4,0,4.93-1.7,4.93-5.1v-8.84c0-3.4-1.53-5.1-4.93-5.1H49V64.87h59.5c15.47,0,23.29,8,23.29,24.14v20.4c0,11.73-4.59,18.36-14.28,20.06,10.2,2.21,14.62,8.33,14.62,18.53v22.1c0,16-7.82,24-23.29,24Z"/><path class="cls-3" d="M47.86,194V161.53h50c3.41,0,4.93-1.7,4.93-5.1v-9c0-3.4-1.52-5.1-4.93-5.1H49.56v-26H97.83c3.41,0,4.93-1.7,4.93-5.1v-8.84c0-3.4-1.52-5.1-4.93-5.1H49V64.8h59.5c15.47,0,23.29,8,23.29,24.14v20.4c0,11.73-4.59,18.36-14.28,20.06,10.2,2.21,14.62,8.33,14.62,18.53V170c0,16-7.82,24-23.29,24Z"/><path class="cls-3" d="M47.93,193.93V161.46h50c3.4,0,4.93-1.7,4.93-5.1v-9c0-3.4-1.53-5.1-4.93-5.1H49.63v-26H97.91c3.4,0,4.93-1.7,4.93-5.1V102.3c0-3.4-1.53-5.1-4.93-5.1H49.12V64.73h59.5c15.47,0,23.29,8,23.29,24.14v20.4c0,11.73-4.59,18.36-14.28,20.06,10.2,2.21,14.62,8.33,14.62,18.53V170c0,16-7.82,24-23.29,24Z"/><path class="cls-3" d="M48,193.86V161.39H98c3.4,0,4.93-1.7,4.93-5.1v-9c0-3.4-1.53-5.1-4.93-5.1H49.7v-26H98c3.4,0,4.93-1.7,4.93-5.1v-8.84c0-3.4-1.53-5.1-4.93-5.1H49.19V64.66h59.5c15.47,0,23.29,8,23.29,24.14v20.4c0,11.73-4.59,18.36-14.28,20.06,10.2,2.21,14.62,8.33,14.62,18.53v22.1c0,16-7.82,24-23.29,24Z"/><path class="cls-3" d="M48.07,193.79V161.32h50c3.4,0,4.93-1.7,4.93-5.1v-9c0-3.4-1.53-5.1-4.93-5.1H49.77v-26H98.05c3.4,0,4.93-1.7,4.93-5.1v-8.84c0-3.4-1.53-5.1-4.93-5.1H49.26V64.59h59.5c15.47,0,23.29,8,23.29,24.14v20.4c0,11.73-4.59,18.36-14.28,20.06,10.2,2.21,14.62,8.33,14.62,18.53v22.1c0,16-7.82,24-23.29,24Z"/><path class="cls-3" d="M48.14,193.71V161.24h50c3.4,0,4.93-1.7,4.93-5.1v-9c0-3.4-1.53-5.1-4.93-5.1H49.84V116H98.12c3.4,0,4.93-1.7,4.93-5.1v-8.84c0-3.4-1.53-5.1-4.93-5.1H49.33V64.51h59.5c15.47,0,23.29,8,23.29,24.14v20.4c0,11.73-4.59,18.36-14.28,20.06,10.2,2.21,14.62,8.33,14.62,18.53v22.1c0,16-7.82,24-23.29,24Z"/><path class="cls-3" d="M48.22,193.64V161.17h50c3.41,0,4.93-1.7,4.93-5.1v-9c0-3.4-1.52-5.1-4.93-5.1H49.92V116H98.19c3.41,0,4.93-1.7,4.93-5.1V102c0-3.4-1.52-5.1-4.93-5.1H49.4V64.44h59.5c15.47,0,23.29,8,23.29,24.14V109c0,11.73-4.59,18.36-14.28,20.06,10.2,2.21,14.62,8.33,14.62,18.53v22.1c0,16-7.82,24-23.29,24Z"/><path class="cls-3" d="M48.29,193.57V161.1h50c3.4,0,4.93-1.7,4.93-5.1v-9c0-3.4-1.53-5.1-4.93-5.1H50v-26H98.27c3.4,0,4.93-1.7,4.93-5.1v-8.84c0-3.4-1.53-5.1-4.93-5.1H49.48V64.37H109c15.47,0,23.29,8,23.29,24.14v20.4c0,11.73-4.59,18.36-14.28,20.06,10.2,2.21,14.62,8.33,14.62,18.53v22.1c0,16-7.82,24-23.29,24Z"/><path class="cls-3" d="M48.36,193.5V161h50c3.4,0,4.93-1.7,4.93-5.1v-9c0-3.4-1.53-5.1-4.93-5.1H50.06v-26H98.34c3.4,0,4.93-1.7,4.93-5.1v-8.84c0-3.4-1.53-5.1-4.93-5.1H49.55V64.3h59.5c15.47,0,23.29,8,23.29,24.14v20.4c0,11.73-4.59,18.36-14.28,20.06,10.2,2.21,14.62,8.33,14.62,18.53v22.1c0,16-7.82,24-23.29,24Z"/><path class="cls-3" d="M48.43,193.43V161h50c3.4,0,4.93-1.7,4.93-5.1v-9c0-3.4-1.53-5.1-4.93-5.1H50.13v-26H98.41c3.4,0,4.93-1.7,4.93-5.1V101.8c0-3.4-1.53-5.1-4.93-5.1H49.62V64.23h59.5c15.47,0,23.29,8,23.29,24.14v20.4c0,11.73-4.59,18.36-14.28,20.06,10.2,2.21,14.62,8.33,14.62,18.53v22.1c0,16-7.82,24-23.29,24Z"/><path class="cls-3" d="M48.5,193.35V160.88h50c3.4,0,4.93-1.7,4.93-5.1v-9c0-3.4-1.53-5.1-4.93-5.1H50.2v-26H98.48c3.4,0,4.93-1.7,4.93-5.1v-8.84c0-3.4-1.53-5.1-4.93-5.1H49.69V64.15h59.5c15.47,0,23.29,8,23.29,24.14v20.4c0,11.73-4.59,18.36-14.28,20.06,10.2,2.21,14.62,8.33,14.62,18.53v22.1c0,16-7.82,24-23.29,24Z"/><path class="cls-3" d="M48.58,193.28V160.81h50c3.41,0,4.93-1.7,4.93-5.1v-9c0-3.4-1.52-5.1-4.93-5.1H50.28v-26H98.55c3.41,0,4.93-1.7,4.93-5.1v-8.84c0-3.4-1.52-5.1-4.93-5.1H49.76V64.08h59.5c15.47,0,23.29,8,23.29,24.14v20.4c0,11.73-4.59,18.36-14.28,20.06,10.2,2.21,14.62,8.33,14.62,18.53v22.1c0,16-7.82,24-23.29,24Z"/><path class="cls-3" d="M48.65,193.21V160.74h50c3.4,0,4.93-1.7,4.93-5.1v-9c0-3.4-1.53-5.1-4.93-5.1H50.35v-26H98.63c3.4,0,4.93-1.7,4.93-5.1v-8.84c0-3.4-1.53-5.1-4.93-5.1H49.84V64h59.5c15.47,0,23.29,8,23.29,24.14v20.4c0,11.73-4.59,18.36-14.28,20.06,10.2,2.21,14.62,8.33,14.62,18.53v22.1c0,16-7.82,24-23.29,24Z"/><path class="cls-3" d="M48.72,193.14V160.67h50c3.4,0,4.93-1.7,4.93-5.1v-9c0-3.4-1.53-5.1-4.93-5.1H50.42v-26H98.7c3.4,0,4.93-1.7,4.93-5.1v-8.84c0-3.4-1.53-5.1-4.93-5.1H49.91V63.94h59.5c15.47,0,23.29,8,23.29,24.14v20.4c0,11.73-4.59,18.36-14.28,20.06,10.2,2.21,14.62,8.33,14.62,18.53v22.1c0,16-7.82,24-23.29,24Z"/><path class="cls-3" d="M48.79,193.07V160.6h50c3.4,0,4.93-1.7,4.93-5.1v-9c0-3.4-1.53-5.1-4.93-5.1H50.49v-26H98.77c3.4,0,4.93-1.7,4.93-5.1v-8.84c0-3.4-1.53-5.1-4.93-5.1H50V63.87h59.5c15.47,0,23.29,8,23.29,24.14v20.4c0,11.73-4.59,18.36-14.28,20.06,10.2,2.21,14.62,8.33,14.62,18.53v22.1c0,16-7.82,24-23.29,24Z"/><path class="cls-3" d="M48.86,193V160.52h50c3.4,0,4.93-1.7,4.93-5.1v-9c0-3.4-1.53-5.1-4.93-5.1H50.56v-26H98.84c3.4,0,4.93-1.7,4.93-5.1v-8.84c0-3.4-1.53-5.1-4.93-5.1H50.05V63.79h59.5c15.47,0,23.29,8,23.29,24.14v20.4c0,11.73-4.59,18.36-14.28,20.06,10.2,2.21,14.62,8.33,14.62,18.53V169c0,16-7.82,24-23.29,24Z"/><path class="cls-3" d="M48.94,192.92V160.45h50c3.41,0,4.93-1.7,4.93-5.1v-9c0-3.4-1.52-5.1-4.93-5.1H50.64v-26H98.91c3.41,0,4.93-1.7,4.93-5.1v-8.84c0-3.4-1.52-5.1-4.93-5.1H50.12V63.72h59.5c15.47,0,23.29,8,23.29,24.14v20.4c0,11.73-4.59,18.36-14.28,20.06,10.2,2.21,14.62,8.33,14.62,18.53V169c0,16-7.82,24-23.29,24Z"/><path class="cls-3" d="M49,192.85V160.38H99c3.4,0,4.93-1.7,4.93-5.1v-9c0-3.4-1.53-5.1-4.93-5.1H50.71v-26H99c3.4,0,4.93-1.7,4.93-5.1v-8.84c0-3.4-1.53-5.1-4.93-5.1H50.2V63.65h59.5c15.47,0,23.29,8,23.29,24.14v20.4c0,11.73-4.59,18.36-14.28,20.06,10.2,2.21,14.62,8.33,14.62,18.53v22.1c0,16-7.82,24-23.29,24Z"/><path class="cls-3" d="M49.08,192.78V160.31h50c3.4,0,4.93-1.7,4.93-5.1v-9c0-3.4-1.53-5.1-4.93-5.1H50.78v-26H99.06c3.4,0,4.93-1.7,4.93-5.1v-8.84c0-3.4-1.53-5.1-4.93-5.1H50.27V63.58h59.5c15.47,0,23.29,8,23.29,24.14v20.4c0,11.73-4.59,18.36-14.28,20.06,10.2,2.21,14.62,8.33,14.62,18.53v22.1c0,16-7.82,24-23.29,24Z"/><path class="cls-3" d="M49.15,192.71V160.24h50c3.4,0,4.93-1.7,4.93-5.1v-9c0-3.4-1.53-5.1-4.93-5.1H50.85V115H99.13c3.4,0,4.93-1.7,4.93-5.1v-8.84c0-3.4-1.53-5.1-4.93-5.1H50.34V63.51h59.5c15.47,0,23.29,8,23.29,24.14v20.4c0,11.73-4.59,18.36-14.28,20.06,10.2,2.21,14.62,8.33,14.62,18.53v22.1c0,16-7.82,24-23.29,24Z"/><path class="cls-3" d="M49.22,192.63V160.16h50c3.4,0,4.93-1.7,4.93-5.1v-9c0-3.4-1.53-5.1-4.93-5.1H50.92v-26H99.2c3.4,0,4.93-1.7,4.93-5.1V101c0-3.4-1.53-5.1-4.93-5.1H50.41V63.43h59.5c15.47,0,23.29,8,23.29,24.14V108c0,11.73-4.59,18.36-14.28,20.06,10.2,2.21,14.62,8.33,14.62,18.53v22.1c0,16-7.82,24-23.29,24Z"/><path class="cls-3" d="M49.3,192.56V160.09h50c3.41,0,4.93-1.7,4.93-5.1v-9c0-3.4-1.52-5.1-4.93-5.1H51v-26H99.27c3.41,0,4.93-1.7,4.93-5.1v-8.84c0-3.4-1.52-5.1-4.93-5.1H50.48V63.36H110c15.47,0,23.29,8,23.29,24.14v20.4c0,11.73-4.59,18.36-14.28,20.06,10.2,2.21,14.62,8.33,14.62,18.53v22.1c0,16-7.82,24-23.29,24Z"/><path class="cls-3" d="M49.37,192.49V160h50c3.4,0,4.93-1.7,4.93-5.1v-9c0-3.4-1.53-5.1-4.93-5.1H51.07v-26H99.35c3.4,0,4.93-1.7,4.93-5.1v-8.84c0-3.4-1.53-5.1-4.93-5.1H50.56V63.29h59.5c15.47,0,23.29,8,23.29,24.14v20.4c0,11.73-4.59,18.36-14.28,20.06,10.2,2.21,14.62,8.33,14.62,18.53v22.1c0,16-7.82,24-23.29,24Z"/><path class="cls-3" d="M49.44,192.42V160h50c3.4,0,4.93-1.7,4.93-5.1v-9c0-3.4-1.53-5.1-4.93-5.1H51.14v-26H99.42c3.4,0,4.93-1.7,4.93-5.1v-8.84c0-3.4-1.53-5.1-4.93-5.1H50.63V63.22h59.5c15.47,0,23.29,8,23.29,24.14v20.4c0,11.73-4.59,18.36-14.28,20.06,10.2,2.21,14.62,8.33,14.62,18.53v22.1c0,16-7.82,24-23.29,24Z"/><path class="cls-3" d="M49.51,192.35V159.88h50c3.4,0,4.93-1.7,4.93-5.1v-9c0-3.4-1.53-5.1-4.93-5.1H51.21v-26H99.49c3.4,0,4.93-1.7,4.93-5.1v-8.84c0-3.4-1.53-5.1-4.93-5.1H50.7V63.15h59.5c15.47,0,23.29,8,23.29,24.14v20.4c0,11.73-4.59,18.36-14.28,20.06,10.2,2.21,14.62,8.33,14.62,18.53v22.1c0,16-7.82,24-23.29,24Z"/><path class="cls-3" d="M49.58,192.27V159.8h50c3.4,0,4.93-1.7,4.93-5.1v-9c0-3.4-1.53-5.1-4.93-5.1H51.28v-26H99.56c3.4,0,4.93-1.7,4.93-5.1v-8.84c0-3.4-1.53-5.1-4.93-5.1H50.77V63.07h59.5c15.47,0,23.29,8,23.29,24.14v20.4c0,11.73-4.59,18.36-14.28,20.06,10.2,2.21,14.62,8.33,14.62,18.53v22.1c0,16-7.82,24-23.29,24Z"/><path class="cls-3" d="M49.66,192.2V159.73h50c3.41,0,4.93-1.7,4.93-5.1v-9c0-3.4-1.52-5.1-4.93-5.1H51.36v-26H99.63c3.41,0,4.93-1.7,4.93-5.1v-8.84c0-3.4-1.52-5.1-4.93-5.1H50.84V63h59.5c15.47,0,23.29,8,23.29,24.14v20.4c0,11.73-4.59,18.36-14.28,20.06,10.2,2.21,14.62,8.33,14.62,18.53v22.1c0,16-7.82,24-23.29,24Z"/><path class="cls-3" d="M49.73,192.13V159.66h50c3.4,0,4.93-1.7,4.93-5.1v-9c0-3.4-1.53-5.1-4.93-5.1H51.43v-26H99.71c3.4,0,4.93-1.7,4.93-5.1V100.5c0-3.4-1.53-5.1-4.93-5.1H50.92V62.93h59.5c15.47,0,23.29,8,23.29,24.14v20.4c0,11.73-4.59,18.36-14.28,20.06,10.2,2.21,14.62,8.33,14.62,18.53v22.1c0,16-7.82,24-23.29,24Z"/><path class="cls-3" d="M49.8,192.06V159.59h50c3.4,0,4.93-1.7,4.93-5.1v-9c0-3.4-1.53-5.1-4.93-5.1H51.5v-26H99.78c3.4,0,4.93-1.7,4.93-5.1v-8.84c0-3.4-1.53-5.1-4.93-5.1H51V62.86h59.5c15.47,0,23.29,8,23.29,24.14v20.4c0,11.73-4.59,18.36-14.28,20.06,10.2,2.21,14.62,8.33,14.62,18.53v22.1c0,16-7.82,24-23.29,24Z"/><path class="cls-3" d="M49.87,192V159.52h50c3.4,0,4.93-1.7,4.93-5.1v-9c0-3.4-1.53-5.1-4.93-5.1H51.57v-26H99.85c3.4,0,4.93-1.7,4.93-5.1v-8.84c0-3.4-1.53-5.1-4.93-5.1H51.06V62.79h59.5c15.47,0,23.29,8,23.29,24.14v20.4c0,11.73-4.59,18.36-14.28,20.06,10.2,2.21,14.62,8.33,14.62,18.53V168c0,16-7.82,24-23.29,24Z"/><path class="cls-3" d="M49.94,191.91V159.44h50c3.4,0,4.93-1.7,4.93-5.1v-9c0-3.4-1.53-5.1-4.93-5.1H51.64v-26H99.92c3.4,0,4.93-1.7,4.93-5.1v-8.84c0-3.4-1.53-5.1-4.93-5.1H51.13V62.71h59.5c15.47,0,23.29,8,23.29,24.14v20.4c0,11.73-4.59,18.36-14.28,20.06,10.2,2.21,14.62,8.33,14.62,18.53v22.1c0,16-7.82,24-23.29,24Z"/><path class="cls-3" d="M50,191.84V159.37h50c3.41,0,4.93-1.7,4.93-5.1v-9c0-3.4-1.52-5.1-4.93-5.1H51.72v-26H100c3.41,0,4.93-1.7,4.93-5.1v-8.84c0-3.4-1.52-5.1-4.93-5.1H51.2V62.64h59.5c15.47,0,23.29,8,23.29,24.14v20.4c0,11.73-4.59,18.36-14.28,20.06,10.2,2.21,14.62,8.33,14.62,18.53v22.1c0,16-7.82,24-23.29,24Z"/><path class="cls-3" d="M50.09,191.77V159.3h50c3.4,0,4.93-1.7,4.93-5.1v-9c0-3.4-1.53-5.1-4.93-5.1H51.79v-26h48.28c3.4,0,4.93-1.7,4.93-5.1v-8.84c0-3.4-1.53-5.1-4.93-5.1H51.28V62.57h59.5c15.47,0,23.29,8,23.29,24.14v20.4c0,11.73-4.59,18.36-14.28,20.06,10.2,2.21,14.62,8.33,14.62,18.53v22.1c0,16-7.82,24-23.29,24Z"/><path class="cls-3" d="M50.16,191.7V159.23h50c3.4,0,4.93-1.7,4.93-5.1v-9c0-3.4-1.53-5.1-4.93-5.1H51.86V114h48.28c3.4,0,4.93-1.7,4.93-5.1v-8.84c0-3.4-1.53-5.1-4.93-5.1H51.35V62.5h59.5c15.47,0,23.29,8,23.29,24.14V107c0,11.73-4.59,18.36-14.28,20.06,10.2,2.21,14.62,8.33,14.62,18.53v22.1c0,16-7.82,24-23.29,24Z"/><path class="cls-3" d="M50.23,191.63V159.16h50c3.4,0,4.93-1.7,4.93-5.1v-9c0-3.4-1.53-5.1-4.93-5.1H51.93v-26h48.28c3.4,0,4.93-1.7,4.93-5.1V100c0-3.4-1.53-5.1-4.93-5.1H51.42V62.43h59.5c15.47,0,23.29,8,23.29,24.14V107c0,11.73-4.59,18.36-14.28,20.06,10.2,2.21,14.62,8.33,14.62,18.53v22.1c0,16-7.82,24-23.29,24Z"/><path class="cls-3" d="M50.3,191.55V159.08h50c3.4,0,4.93-1.7,4.93-5.1v-9c0-3.4-1.53-5.1-4.93-5.1H52v-26h48.28c3.4,0,4.93-1.7,4.93-5.1V99.92c0-3.4-1.53-5.1-4.93-5.1H51.49V62.35H111c15.47,0,23.29,8,23.29,24.14v20.4c0,11.73-4.59,18.36-14.28,20.06,10.2,2.21,14.62,8.33,14.62,18.53v22.1c0,16-7.82,24-23.29,24Z"/><path class="cls-3" d="M50.38,191.48V159h50c3.41,0,4.93-1.7,4.93-5.1v-9c0-3.4-1.52-5.1-4.93-5.1H52.08v-26h48.27c3.41,0,4.93-1.7,4.93-5.1V99.85c0-3.4-1.52-5.1-4.93-5.1H51.56V62.28h59.5c15.47,0,23.29,8,23.29,24.14v20.4c0,11.73-4.59,18.36-14.28,20.06,10.2,2.21,14.62,8.33,14.62,18.53v22.1c0,16-7.82,24-23.29,24Z"/><path class="cls-3" d="M50.45,191.41V158.94h50c3.4,0,4.93-1.7,4.93-5.1v-9c0-3.4-1.53-5.1-4.93-5.1H52.15v-26h48.28c3.4,0,4.93-1.7,4.93-5.1V99.78c0-3.4-1.53-5.1-4.93-5.1H51.64V62.21h59.5c15.47,0,23.29,8,23.29,24.14v20.4c0,11.73-4.59,18.36-14.28,20.06,10.2,2.21,14.62,8.33,14.62,18.53v22.1c0,16-7.82,24-23.29,24Z"/><path class="cls-3" d="M50.52,191.34V158.87h50c3.4,0,4.93-1.7,4.93-5.1v-9c0-3.4-1.53-5.1-4.93-5.1H52.22v-26H100.5c3.4,0,4.93-1.7,4.93-5.1V99.71c0-3.4-1.53-5.1-4.93-5.1H51.71V62.14h59.5c15.47,0,23.29,8,23.29,24.14v20.4c0,11.73-4.59,18.36-14.28,20.06,10.2,2.21,14.62,8.33,14.62,18.53v22.1c0,16-7.82,24-23.29,24Z"/><path class="cls-3" d="M50.59,191.27V158.8h50c3.4,0,4.93-1.7,4.93-5.1v-9c0-3.4-1.53-5.1-4.93-5.1H52.29v-26h48.28c3.4,0,4.93-1.7,4.93-5.1V99.64c0-3.4-1.53-5.1-4.93-5.1H51.78V62.07h59.5c15.47,0,23.29,8,23.29,24.14v20.4c0,11.73-4.59,18.36-14.28,20.06,10.2,2.21,14.62,8.33,14.62,18.53v22.1c0,16-7.82,24-23.29,24Z"/><path class="cls-3" d="M50.66,191.19V158.72h50c3.4,0,4.93-1.7,4.93-5.1v-9c0-3.4-1.53-5.1-4.93-5.1H52.36v-26h48.28c3.4,0,4.93-1.7,4.93-5.1V99.56c0-3.4-1.53-5.1-4.93-5.1H51.85V62h59.5c15.47,0,23.29,8,23.29,24.14v20.4c0,11.73-4.59,18.36-14.28,20.06,10.2,2.21,14.62,8.33,14.62,18.53v22.1c0,16-7.82,24-23.29,24Z"/><path class="cls-3" d="M50.74,191.12V158.65h50c3.41,0,4.93-1.7,4.93-5.1v-9c0-3.4-1.52-5.1-4.93-5.1H52.44v-26h48.27c3.41,0,4.93-1.7,4.93-5.1V99.49c0-3.4-1.52-5.1-4.93-5.1H51.92V61.92h59.5c15.47,0,23.29,8,23.29,24.14v20.4c0,11.73-4.59,18.36-14.28,20.06,10.2,2.21,14.62,8.33,14.62,18.53v22.1c0,16-7.82,24-23.29,24Z"/><path class="cls-3" d="M50.81,191.05V158.58h50c3.4,0,4.93-1.7,4.93-5.1v-9c0-3.4-1.53-5.1-4.93-5.1H52.51v-26h48.28c3.4,0,4.93-1.7,4.93-5.1V99.42c0-3.4-1.53-5.1-4.93-5.1H52V61.85h59.5c15.47,0,23.29,8,23.29,24.14v20.4c0,11.73-4.59,18.36-14.28,20.06,10.2,2.21,14.62,8.33,14.62,18.53v22.1c0,16-7.82,24-23.29,24Z"/><path class="cls-3" d="M50.88,191V158.51h50c3.4,0,4.93-1.7,4.93-5.1v-9c0-3.4-1.53-5.1-4.93-5.1H52.58v-26h48.28c3.4,0,4.93-1.7,4.93-5.1V99.35c0-3.4-1.53-5.1-4.93-5.1H52.07V61.78h59.5c15.47,0,23.29,8,23.29,24.14v20.4c0,11.73-4.59,18.36-14.28,20.06,10.2,2.21,14.62,8.33,14.62,18.53V167c0,16-7.82,24-23.29,24Z"/><path class="cls-3" d="M51,190.91V158.44h50c3.4,0,4.93-1.7,4.93-5.1v-9c0-3.4-1.53-5.1-4.93-5.1H52.65v-26h48.28c3.4,0,4.93-1.7,4.93-5.1V99.28c0-3.4-1.53-5.1-4.93-5.1H52.14V61.71h59.5c15.47,0,23.29,8,23.29,24.14v20.4c0,11.73-4.59,18.36-14.28,20.06,10.2,2.21,14.62,8.33,14.62,18.53v22.1c0,16-7.82,24-23.29,24Z"/><path class="cls-3" d="M51,190.83V158.36h50c3.4,0,4.93-1.7,4.93-5.1v-9c0-3.4-1.53-5.1-4.93-5.1H52.72v-26H101c3.4,0,4.93-1.7,4.93-5.1V99.2c0-3.4-1.53-5.1-4.93-5.1H52.21V61.63h59.5c15.47,0,23.29,8,23.29,24.14v20.4c0,11.73-4.59,18.36-14.28,20.06,10.2,2.21,14.62,8.33,14.62,18.53v22.1c0,16-7.82,24-23.29,24Z"/><path class="cls-3" d="M51.1,190.76V158.29h50c3.41,0,4.93-1.7,4.93-5.1v-9c0-3.4-1.52-5.1-4.93-5.1H52.8v-26h48.27c3.41,0,4.93-1.7,4.93-5.1V99.13c0-3.4-1.52-5.1-4.93-5.1H52.28V61.56h59.5c15.47,0,23.29,8,23.29,24.14v20.4c0,11.73-4.59,18.36-14.28,20.06,10.2,2.21,14.62,8.33,14.62,18.53v22.1c0,16-7.82,24-23.29,24Z"/><path class="cls-3" d="M51.17,190.69V158.22h50c3.4,0,4.93-1.7,4.93-5.1v-9c0-3.4-1.53-5.1-4.93-5.1H52.87V113h48.28c3.4,0,4.93-1.7,4.93-5.1V99.06c0-3.4-1.53-5.1-4.93-5.1H52.36V61.49h59.5c15.47,0,23.29,8,23.29,24.14V106c0,11.73-4.59,18.36-14.28,20.06,10.2,2.21,14.62,8.33,14.62,18.53v22.1c0,16-7.82,24-23.29,24Z"/><path class="cls-3" d="M51.24,190.62V158.15h50c3.4,0,4.93-1.7,4.93-5.1v-9c0-3.4-1.53-5.1-4.93-5.1H52.94v-26h48.28c3.4,0,4.93-1.7,4.93-5.1V99c0-3.4-1.53-5.1-4.93-5.1H52.43V61.42h59.5c15.47,0,23.29,8,23.29,24.14V106c0,11.73-4.59,18.36-14.28,20.06,10.2,2.21,14.62,8.33,14.62,18.53v22.1c0,16-7.82,24-23.29,24Z"/><path class="cls-3" d="M51.31,190.55V158.08h50c3.4,0,4.93-1.7,4.93-5.1v-9c0-3.4-1.53-5.1-4.93-5.1H53v-26h48.28c3.4,0,4.93-1.7,4.93-5.1V98.92c0-3.4-1.53-5.1-4.93-5.1H52.5V61.35H112c15.47,0,23.29,8,23.29,24.14v20.4c0,11.73-4.59,18.36-14.28,20.06,10.2,2.21,14.62,8.33,14.62,18.53v22.1c0,16-7.82,24-23.29,24Z"/><path class="cls-3" d="M51.38,190.47V158h50c3.4,0,4.93-1.7,4.93-5.1v-9c0-3.4-1.53-5.1-4.93-5.1H53.08v-26h48.28c3.4,0,4.93-1.7,4.93-5.1V98.84c0-3.4-1.53-5.1-4.93-5.1H52.57V61.27h59.5c15.47,0,23.29,8,23.29,24.14v20.4c0,11.73-4.59,18.36-14.28,20.06,10.2,2.21,14.62,8.33,14.62,18.53v22.1c0,16-7.82,24-23.29,24Z"/><path class="cls-3" d="M51.46,190.4V157.93h50c3.41,0,4.93-1.7,4.93-5.1v-9c0-3.4-1.52-5.1-4.93-5.1H53.16v-26h48.27c3.41,0,4.93-1.7,4.93-5.1V98.77c0-3.4-1.52-5.1-4.93-5.1H52.64V61.2h59.5c15.47,0,23.29,8,23.29,24.14v20.4c0,11.73-4.59,18.36-14.28,20.06,10.2,2.21,14.62,8.33,14.62,18.53v22.1c0,16-7.82,24-23.29,24Z"/><path class="cls-3" d="M51.53,190.33V157.86h50c3.4,0,4.93-1.7,4.93-5.1v-9c0-3.4-1.53-5.1-4.93-5.1H53.23v-26h48.28c3.4,0,4.93-1.7,4.93-5.1V98.7c0-3.4-1.53-5.1-4.93-5.1H52.72V61.13h59.5c15.47,0,23.29,8,23.29,24.14v20.4c0,11.73-4.59,18.36-14.28,20.06,10.2,2.21,14.62,8.33,14.62,18.53v22.1c0,16-7.82,24-23.29,24Z"/><path class="cls-3" d="M51.6,190.26V157.79h50c3.4,0,4.93-1.7,4.93-5.1v-9c0-3.4-1.53-5.1-4.93-5.1H53.3v-26h48.28c3.4,0,4.93-1.7,4.93-5.1V98.63c0-3.4-1.53-5.1-4.93-5.1H52.79V61.06h59.5c15.47,0,23.29,8,23.29,24.14v20.4c0,11.73-4.59,18.36-14.28,20.06,10.2,2.21,14.62,8.33,14.62,18.53v22.1c0,16-7.82,24-23.29,24Z"/><path class="cls-3" d="M51.67,190.19V157.72h50c3.4,0,4.93-1.7,4.93-5.1v-9c0-3.4-1.53-5.1-4.93-5.1H53.37v-26h48.28c3.4,0,4.93-1.7,4.93-5.1V98.56c0-3.4-1.53-5.1-4.93-5.1H52.86V61h59.5c15.47,0,23.29,8,23.29,24.14v20.4c0,11.73-4.59,18.36-14.28,20.06,10.2,2.21,14.62,8.33,14.62,18.53v22.1c0,16-7.82,24-23.29,24Z"/><path class="cls-3" d="M51.74,190.11V157.64h50c3.4,0,4.93-1.7,4.93-5.1v-9c0-3.4-1.53-5.1-4.93-5.1H53.44v-26h48.28c3.4,0,4.93-1.7,4.93-5.1V98.48c0-3.4-1.53-5.1-4.93-5.1H52.93V60.91h59.5c15.47,0,23.29,8,23.29,24.14v20.4c0,11.73-4.59,18.36-14.28,20.06,10.2,2.21,14.62,8.33,14.62,18.53v22.1c0,16-7.82,24-23.29,24Z"/><path class="cls-3" d="M51.82,190V157.57h50c3.41,0,4.93-1.7,4.93-5.1v-9c0-3.4-1.52-5.1-4.93-5.1H53.52v-26h48.27c3.41,0,4.93-1.7,4.93-5.1V98.41c0-3.4-1.52-5.1-4.93-5.1H53V60.84h59.5c15.47,0,23.29,8,23.29,24.14v20.4c0,11.73-4.59,18.36-14.28,20.06,10.2,2.21,14.62,8.33,14.62,18.53v22.1c0,16-7.82,24-23.29,24Z"/><path class="cls-3" d="M51.89,190V157.5h50c3.4,0,4.93-1.7,4.93-5.1v-9c0-3.4-1.53-5.1-4.93-5.1H53.59v-26h48.28c3.4,0,4.93-1.7,4.93-5.1V98.34c0-3.4-1.53-5.1-4.93-5.1H53.08V60.77h59.5c15.47,0,23.29,8,23.29,24.14v20.4c0,11.73-4.59,18.36-14.28,20.06,10.2,2.21,14.62,8.33,14.62,18.53V166c0,16-7.82,24-23.29,24Z"/><path class="cls-3" d="M52,189.9V157.43h50c3.4,0,4.93-1.7,4.93-5.1v-9c0-3.4-1.53-5.1-4.93-5.1H53.66v-26h48.28c3.4,0,4.93-1.7,4.93-5.1V98.27c0-3.4-1.53-5.1-4.93-5.1H53.15V60.7h59.5c15.47,0,23.29,8,23.29,24.14v20.4c0,11.73-4.59,18.36-14.28,20.06,10.2,2.21,14.62,8.33,14.62,18.53v22.1c0,16-7.82,24-23.29,24Z"/><path class="cls-3" d="M52,189.83V157.36h50c3.4,0,4.93-1.7,4.93-5.1v-9c0-3.4-1.53-5.1-4.93-5.1H53.73v-26H102c3.4,0,4.93-1.7,4.93-5.1V98.2c0-3.4-1.53-5.1-4.93-5.1H53.22V60.63h59.5c15.47,0,23.29,8,23.29,24.14v20.4c0,11.73-4.59,18.36-14.28,20.06,10.2,2.21,14.62,8.33,14.62,18.53v22.1c0,16-7.82,24-23.29,24Z"/><path class="cls-3" d="M52.1,189.75V157.28h50c3.4,0,4.93-1.7,4.93-5.1v-9c0-3.4-1.53-5.1-4.93-5.1H53.8v-26h48.28c3.4,0,4.93-1.7,4.93-5.1V98.12c0-3.4-1.53-5.1-4.93-5.1H53.29V60.55h59.5c15.47,0,23.29,8,23.29,24.14v20.4c0,11.73-4.59,18.36-14.28,20.06,10.2,2.21,14.62,8.33,14.62,18.53v22.1c0,16-7.82,24-23.29,24Z"/><path class="cls-3" d="M52.18,189.68V157.21h50c3.41,0,4.93-1.7,4.93-5.1v-9c0-3.4-1.52-5.1-4.93-5.1H53.88V112h48.27c3.41,0,4.93-1.7,4.93-5.1V98.05c0-3.4-1.52-5.1-4.93-5.1H53.36V60.48h59.5c15.47,0,23.29,8,23.29,24.14V105c0,11.73-4.59,18.36-14.28,20.06,10.2,2.21,14.62,8.33,14.62,18.53v22.1c0,16-7.82,24-23.29,24Z"/><path class="cls-3" d="M52.25,189.61V157.14h50c3.4,0,4.93-1.7,4.93-5.1v-9c0-3.4-1.53-5.1-4.93-5.1H54v-26h48.28c3.4,0,4.93-1.7,4.93-5.1V98c0-3.4-1.53-5.1-4.93-5.1H53.44V60.41h59.5c15.47,0,23.29,8,23.29,24.14V105c0,11.73-4.59,18.36-14.28,20.06,10.2,2.21,14.62,8.33,14.62,18.53v22.1c0,16-7.82,24-23.29,24Z"/><path class="cls-3" d="M52.32,189.54V157.07h50c3.4,0,4.93-1.7,4.93-5.1v-9c0-3.4-1.53-5.1-4.93-5.1H54v-26H102.3c3.4,0,4.93-1.7,4.93-5.1V97.91c0-3.4-1.53-5.1-4.93-5.1H53.51V60.34H113c15.47,0,23.29,8,23.29,24.14v20.4c0,11.73-4.59,18.36-14.28,20.06,10.2,2.21,14.62,8.33,14.62,18.53v22.1c0,16-7.82,24-23.29,24Z"/><path class="cls-3" d="M52.39,189.47V157h50c3.4,0,4.93-1.7,4.93-5.1v-9c0-3.4-1.53-5.1-4.93-5.1H54.09v-26h48.28c3.4,0,4.93-1.7,4.93-5.1V97.84c0-3.4-1.53-5.1-4.93-5.1H53.58V60.27h59.5c15.47,0,23.29,8,23.29,24.14v20.4c0,11.73-4.59,18.36-14.28,20.06,10.2,2.21,14.62,8.33,14.62,18.53v22.1c0,16-7.82,24-23.29,24Z"/><path class="cls-3" d="M52.46,189.39V156.92h50c3.4,0,4.93-1.7,4.93-5.1v-9c0-3.4-1.53-5.1-4.93-5.1H54.16v-26h48.28c3.4,0,4.93-1.7,4.93-5.1V97.76c0-3.4-1.53-5.1-4.93-5.1H53.65V60.19h59.5c15.47,0,23.29,8,23.29,24.14v20.4c0,11.73-4.59,18.36-14.28,20.06,10.2,2.21,14.62,8.33,14.62,18.53v22.1c0,16-7.82,24-23.29,24Z"/><path class="cls-3" d="M52.54,189.32V156.85h50c3.41,0,4.93-1.7,4.93-5.1v-9c0-3.4-1.52-5.1-4.93-5.1H54.24v-26h48.27c3.41,0,4.93-1.7,4.93-5.1V97.69c0-3.4-1.52-5.1-4.93-5.1H53.72V60.12h59.5c15.47,0,23.29,8,23.29,24.14v20.4c0,11.73-4.59,18.36-14.28,20.06,10.2,2.21,14.62,8.33,14.62,18.53v22.1c0,16-7.82,24-23.29,24Z"/><path class="cls-3" d="M52.61,189.25V156.78h50c3.4,0,4.93-1.7,4.93-5.1v-9c0-3.4-1.53-5.1-4.93-5.1H54.31v-26h48.28c3.4,0,4.93-1.7,4.93-5.1V97.62c0-3.4-1.53-5.1-4.93-5.1H53.8V60.05h59.5c15.47,0,23.29,8,23.29,24.14v20.4c0,11.73-4.59,18.36-14.28,20.06,10.2,2.21,14.62,8.33,14.62,18.53v22.1c0,16-7.82,24-23.29,24Z"/><path class="cls-3" d="M52.68,189.18V156.71h50c3.4,0,4.93-1.7,4.93-5.1v-9c0-3.4-1.53-5.1-4.93-5.1H54.38v-26h48.28c3.4,0,4.93-1.7,4.93-5.1V97.55c0-3.4-1.53-5.1-4.93-5.1H53.87V60h59.5c15.47,0,23.29,8,23.29,24.14v20.4c0,11.73-4.59,18.36-14.28,20.06,10.2,2.21,14.62,8.33,14.62,18.53v22.1c0,16-7.82,24-23.29,24Z"/><path class="cls-3" d="M52.75,189.11V156.64h50c3.4,0,4.93-1.7,4.93-5.1v-9c0-3.4-1.53-5.1-4.93-5.1H54.45v-26h48.28c3.4,0,4.93-1.7,4.93-5.1V97.48c0-3.4-1.53-5.1-4.93-5.1H53.94V59.91h59.5c15.47,0,23.29,8,23.29,24.14v20.4c0,11.73-4.59,18.36-14.28,20.06,10.2,2.21,14.62,8.33,14.62,18.53v22.1c0,16-7.82,24-23.29,24Z"/><path class="cls-3" d="M52.82,189V156.56h50c3.4,0,4.93-1.7,4.93-5.1v-9c0-3.4-1.53-5.1-4.93-5.1H54.52v-26H102.8c3.4,0,4.93-1.7,4.93-5.1V97.4c0-3.4-1.53-5.1-4.93-5.1H54V59.83h59.5c15.47,0,23.29,8,23.29,24.14v20.4c0,11.73-4.59,18.36-14.28,20.06,10.2,2.21,14.62,8.33,14.62,18.53v22.1c0,16-7.82,24-23.29,24Z"/><path class="cls-3" d="M52.9,189V156.49h50c3.41,0,4.93-1.7,4.93-5.1v-9c0-3.4-1.52-5.1-4.93-5.1H54.6v-26h48.27c3.41,0,4.93-1.7,4.93-5.1V97.33c0-3.4-1.52-5.1-4.93-5.1H54.08V59.76h59.5c15.47,0,23.29,8,23.29,24.14v20.4c0,11.73-4.59,18.36-14.28,20.06,10.2,2.21,14.62,8.33,14.62,18.53V165c0,16-7.82,24-23.29,24Z"/><path class="cls-3" d="M53,188.89V156.42h50c3.4,0,4.93-1.7,4.93-5.1v-9c0-3.4-1.53-5.1-4.93-5.1H54.67v-26H103c3.4,0,4.93-1.7,4.93-5.1V97.26c0-3.4-1.53-5.1-4.93-5.1H54.16V59.69h59.5c15.47,0,23.29,8,23.29,24.14v20.4c0,11.73-4.59,18.36-14.28,20.06,10.2,2.21,14.62,8.33,14.62,18.53v22.1c0,16-7.82,24-23.29,24Z"/><path class="cls-3" d="M53,188.82V156.35h50c3.4,0,4.93-1.7,4.93-5.1v-9c0-3.4-1.53-5.1-4.93-5.1H54.74v-26H103c3.4,0,4.93-1.7,4.93-5.1V97.19c0-3.4-1.53-5.1-4.93-5.1H54.23V59.62h59.5c15.47,0,23.29,8,23.29,24.14v20.4c0,11.73-4.59,18.36-14.28,20.06,10.2,2.21,14.62,8.33,14.62,18.53v22.1c0,16-7.82,24-23.29,24Z"/><path class="cls-3" d="M53.11,188.75V156.28h50c3.4,0,4.93-1.7,4.93-5.1v-9c0-3.4-1.53-5.1-4.93-5.1H54.81v-26h48.28c3.4,0,4.93-1.7,4.93-5.1V97.12c0-3.4-1.53-5.1-4.93-5.1H54.3V59.55h59.5c15.47,0,23.29,8,23.29,24.14v20.4c0,11.73-4.59,18.36-14.28,20.06,10.2,2.21,14.62,8.33,14.62,18.53v22.1c0,16-7.82,24-23.29,24Z"/><path class="cls-3" d="M53.18,188.67V156.2h50c3.4,0,4.93-1.7,4.93-5.1v-9c0-3.4-1.53-5.1-4.93-5.1H54.88V111h48.28c3.4,0,4.93-1.7,4.93-5.1V97c0-3.4-1.53-5.1-4.93-5.1H54.37V59.47h59.5c15.47,0,23.29,8,23.29,24.14V104c0,11.73-4.59,18.36-14.28,20.06,10.2,2.21,14.62,8.33,14.62,18.53v22.1c0,16-7.82,24-23.29,24Z"/><path class="cls-3" d="M53.26,188.6V156.13h50c3.41,0,4.93-1.7,4.93-5.1v-9c0-3.4-1.52-5.1-4.93-5.1H55v-26h48.27c3.41,0,4.93-1.7,4.93-5.1V97c0-3.4-1.52-5.1-4.93-5.1H54.44V59.4h59.5c15.47,0,23.29,8,23.29,24.14v20.4c0,11.73-4.59,18.36-14.28,20.06,10.2,2.21,14.62,8.33,14.62,18.53v22.1c0,16-7.82,24-23.29,24Z"/><path class="cls-3" d="M53.33,188.53V156.06h50c3.4,0,4.93-1.7,4.93-5.1v-9c0-3.4-1.53-5.1-4.93-5.1H55v-26h48.28c3.4,0,4.93-1.7,4.93-5.1V96.9c0-3.4-1.53-5.1-4.93-5.1H54.52V59.33H114c15.47,0,23.29,8,23.29,24.14v20.4c0,11.73-4.59,18.36-14.28,20.06,10.2,2.21,14.62,8.33,14.62,18.53v22.1c0,16-7.82,24-23.29,24Z"/><path class="cls-3" d="M53.4,188.46V156h50c3.4,0,4.93-1.7,4.93-5.1v-9c0-3.4-1.53-5.1-4.93-5.1H55.1v-26h48.28c3.4,0,4.93-1.7,4.93-5.1V96.83c0-3.4-1.53-5.1-4.93-5.1H54.59V59.26h59.5c15.47,0,23.29,8,23.29,24.14v20.4c0,11.73-4.59,18.36-14.28,20.06,10.2,2.21,14.62,8.33,14.62,18.53v22.1c0,16-7.82,24-23.29,24Z"/><path class="cls-3" d="M53.47,188.39V155.92h50c3.4,0,4.93-1.7,4.93-5.1v-9c0-3.4-1.53-5.1-4.93-5.1H55.17v-26h48.28c3.4,0,4.93-1.7,4.93-5.1V96.76c0-3.4-1.53-5.1-4.93-5.1H54.66V59.19h59.5c15.47,0,23.29,8,23.29,24.14v20.4c0,11.73-4.59,18.36-14.28,20.06,10.2,2.21,14.62,8.33,14.62,18.53v22.1c0,16-7.82,24-23.29,24Z"/><path class="cls-3" d="M53.54,188.31V155.84h50c3.4,0,4.93-1.7,4.93-5.1v-9c0-3.4-1.53-5.1-4.93-5.1H55.24v-26h48.28c3.4,0,4.93-1.7,4.93-5.1V96.68c0-3.4-1.53-5.1-4.93-5.1H54.73V59.11h59.5c15.47,0,23.29,8,23.29,24.14v20.4c0,11.73-4.59,18.36-14.28,20.06,10.2,2.21,14.62,8.33,14.62,18.53v22.1c0,16-7.82,24-23.29,24Z"/><path class="cls-3" d="M53.62,188.24V155.77h50c3.41,0,4.93-1.7,4.93-5.1v-9c0-3.4-1.52-5.1-4.93-5.1H55.32v-26h48.27c3.41,0,4.93-1.7,4.93-5.1V96.61c0-3.4-1.52-5.1-4.93-5.1H54.8V59h59.5c15.47,0,23.29,8,23.29,24.14v20.4c0,11.73-4.59,18.36-14.28,20.06,10.2,2.21,14.62,8.33,14.62,18.53v22.1c0,16-7.82,24-23.29,24Z"/><path class="cls-3" d="M53.69,188.17V155.7h50c3.4,0,4.93-1.7,4.93-5.1v-9c0-3.4-1.53-5.1-4.93-5.1H55.39v-26h48.28c3.4,0,4.93-1.7,4.93-5.1V96.54c0-3.4-1.53-5.1-4.93-5.1H54.88V59h59.5c15.47,0,23.29,8,23.29,24.14v20.4c0,11.73-4.59,18.36-14.28,20.06,10.2,2.21,14.62,8.33,14.62,18.53v22.1c0,16-7.82,24-23.29,24Z"/><path class="cls-3" d="M53.76,188.1V155.63h50c3.4,0,4.93-1.7,4.93-5.1v-9c0-3.4-1.53-5.1-4.93-5.1H55.46v-26h48.28c3.4,0,4.93-1.7,4.93-5.1V96.47c0-3.4-1.53-5.1-4.93-5.1H55V58.9h59.5c15.47,0,23.29,8,23.29,24.14v20.4c0,11.73-4.59,18.36-14.28,20.06,10.2,2.21,14.62,8.33,14.62,18.53v22.1c0,16-7.82,24-23.29,24Z"/><path class="cls-3" d="M53.83,188V155.56h50c3.4,0,4.93-1.7,4.93-5.1v-9c0-3.4-1.53-5.1-4.93-5.1H55.53v-26h48.28c3.4,0,4.93-1.7,4.93-5.1V96.4c0-3.4-1.53-5.1-4.93-5.1H55V58.83h59.5c15.47,0,23.29,8,23.29,24.14v20.4c0,11.73-4.59,18.36-14.28,20.06,10.2,2.21,14.62,8.33,14.62,18.53v22.1c0,16-7.82,24-23.29,24Z"/><path class="cls-3" d="M53.9,188V155.48h50c3.4,0,4.93-1.7,4.93-5.1v-9c0-3.4-1.53-5.1-4.93-5.1H55.6v-26h48.28c3.4,0,4.93-1.7,4.93-5.1V96.32c0-3.4-1.53-5.1-4.93-5.1H55.09V58.75h59.5c15.47,0,23.29,8,23.29,24.14v20.4c0,11.73-4.59,18.36-14.28,20.06,10.2,2.21,14.62,8.33,14.62,18.53V164c0,16-7.82,24-23.29,24Z"/><path class="cls-3" d="M54,187.88V155.41h50c3.41,0,4.93-1.7,4.93-5.1v-9c0-3.4-1.52-5.1-4.93-5.1H55.68v-26H104c3.41,0,4.93-1.7,4.93-5.1V96.25c0-3.4-1.52-5.1-4.93-5.1H55.16V58.68h59.5c15.47,0,23.29,8,23.29,24.14v20.4c0,11.73-4.59,18.36-14.28,20.06,10.2,2.21,14.62,8.33,14.62,18.53v22.1c0,16-7.82,24-23.29,24Z"/><path class="cls-3" d="M54.05,187.81V155.34h50c3.4,0,4.93-1.7,4.93-5.1v-9c0-3.4-1.53-5.1-4.93-5.1H55.75v-26H104c3.4,0,4.93-1.7,4.93-5.1V96.18c0-3.4-1.53-5.1-4.93-5.1H55.24V58.61h59.5c15.47,0,23.29,8,23.29,24.14v20.4c0,11.73-4.59,18.36-14.28,20.06,10.2,2.21,14.62,8.33,14.62,18.53v22.1c0,16-7.82,24-23.29,24Z"/><path class="cls-3" d="M54.12,187.74V155.27h50c3.4,0,4.93-1.7,4.93-5.1v-9c0-3.4-1.53-5.1-4.93-5.1H55.82v-26H104.1c3.4,0,4.93-1.7,4.93-5.1V96.11c0-3.4-1.53-5.1-4.93-5.1H55.31V58.54h59.5c15.47,0,23.29,8,23.29,24.14v20.4c0,11.73-4.59,18.36-14.28,20.06,10.2,2.21,14.62,8.33,14.62,18.53v22.1c0,16-7.82,24-23.29,24Z"/><path class="cls-3" d="M54.19,187.67V155.2h50c3.4,0,4.93-1.7,4.93-5.1v-9c0-3.4-1.53-5.1-4.93-5.1H55.89V110h48.28c3.4,0,4.93-1.7,4.93-5.1V96c0-3.4-1.53-5.1-4.93-5.1H55.38V58.47h59.5c15.47,0,23.29,8,23.29,24.14V103c0,11.73-4.59,18.36-14.28,20.06,10.2,2.21,14.62,8.33,14.62,18.53v22.1c0,16-7.82,24-23.29,24Z"/><path class="cls-3" d="M54.26,187.59V155.12h50c3.4,0,4.93-1.7,4.93-5.1v-9c0-3.4-1.53-5.1-4.93-5.1H56v-26h48.28c3.4,0,4.93-1.7,4.93-5.1V96c0-3.4-1.53-5.1-4.93-5.1H55.45V58.39H115c15.47,0,23.29,8,23.29,24.14v20.4c0,11.73-4.59,18.36-14.28,20.06,10.2,2.21,14.62,8.33,14.62,18.53v22.1c0,16-7.82,24-23.29,24Z"/><path class="cls-3" d="M54.34,187.52V155.05h50c3.41,0,4.93-1.7,4.93-5.1v-9c0-3.4-1.52-5.1-4.93-5.1H56v-26h48.27c3.41,0,4.93-1.7,4.93-5.1V95.89c0-3.4-1.52-5.1-4.93-5.1H55.52V58.32H115c15.47,0,23.29,8,23.29,24.14v20.4c0,11.73-4.59,18.36-14.28,20.06,10.2,2.21,14.62,8.33,14.62,18.53v22.1c0,16-7.82,24-23.29,24Z"/><path class="cls-3" d="M54.41,187.45V155h50c3.4,0,4.93-1.7,4.93-5.1v-9c0-3.4-1.53-5.1-4.93-5.1H56.11v-26h48.28c3.4,0,4.93-1.7,4.93-5.1V95.82c0-3.4-1.53-5.1-4.93-5.1H55.6V58.25h59.5c15.47,0,23.29,8,23.29,24.14v20.4c0,11.73-4.59,18.36-14.28,20.06,10.2,2.21,14.62,8.33,14.62,18.53v22.1c0,16-7.82,24-23.29,24Z"/><path class="cls-3" d="M54.48,187.38V154.91h50c3.4,0,4.93-1.7,4.93-5.1v-9c0-3.4-1.53-5.1-4.93-5.1H56.18v-26h48.28c3.4,0,4.93-1.7,4.93-5.1V95.75c0-3.4-1.53-5.1-4.93-5.1H55.67V58.18h59.5c15.47,0,23.29,8,23.29,24.14v20.4c0,11.73-4.59,18.36-14.28,20.06,10.2,2.21,14.62,8.33,14.62,18.53v22.1c0,16-7.82,24-23.29,24Z"/><path class="cls-3" d="M54.55,187.31V154.84h50c3.4,0,4.93-1.7,4.93-5.1v-9c0-3.4-1.53-5.1-4.93-5.1H56.25v-26h48.28c3.4,0,4.93-1.7,4.93-5.1V95.68c0-3.4-1.53-5.1-4.93-5.1H55.74V58.11h59.5c15.47,0,23.29,8,23.29,24.14v20.4c0,11.73-4.59,18.36-14.28,20.06,10.2,2.21,14.62,8.33,14.62,18.53v22.1c0,16-7.82,24-23.29,24Z"/><path class="cls-3" d="M54.62,187.23V154.76h50c3.4,0,4.93-1.7,4.93-5.1v-9c0-3.4-1.53-5.1-4.93-5.1H56.32v-26H104.6c3.4,0,4.93-1.7,4.93-5.1V95.6c0-3.4-1.53-5.1-4.93-5.1H55.81V58h59.5c15.47,0,23.29,8,23.29,24.14v20.4c0,11.73-4.59,18.36-14.28,20.06,10.2,2.21,14.62,8.33,14.62,18.53v22.1c0,16-7.82,24-23.29,24Z"/><path class="cls-3" d="M54.7,187.16V154.69h50c3.41,0,4.93-1.7,4.93-5.1v-9c0-3.4-1.52-5.1-4.93-5.1H56.4v-26h48.27c3.41,0,4.93-1.7,4.93-5.1V95.53c0-3.4-1.52-5.1-4.93-5.1H55.88V58h59.5c15.47,0,23.29,8,23.29,24.14v20.4c0,11.73-4.59,18.36-14.28,20.06,10.2,2.21,14.62,8.33,14.62,18.53v22.1c0,16-7.82,24-23.29,24Z"/><path class="cls-3" d="M54.77,187.09V154.62h50c3.4,0,4.93-1.7,4.93-5.1v-9c0-3.4-1.53-5.1-4.93-5.1H56.47v-26h48.28c3.4,0,4.93-1.7,4.93-5.1V95.46c0-3.4-1.53-5.1-4.93-5.1H56V57.89h59.5c15.47,0,23.29,8,23.29,24.14v20.4c0,11.73-4.59,18.36-14.28,20.06,10.2,2.21,14.62,8.33,14.62,18.53v22.1c0,16-7.82,24-23.29,24Z"/><path class="cls-3" d="M54.84,187V154.55h50c3.4,0,4.93-1.7,4.93-5.1v-9c0-3.4-1.53-5.1-4.93-5.1H56.54v-26h48.28c3.4,0,4.93-1.7,4.93-5.1V95.39c0-3.4-1.53-5.1-4.93-5.1H56V57.82h59.5c15.47,0,23.29,8,23.29,24.14v20.4c0,11.73-4.59,18.36-14.28,20.06,10.2,2.21,14.62,8.33,14.62,18.53v22.1c0,16-7.82,24-23.29,24Z"/><path class="cls-3" d="M54.91,187V154.48h50c3.4,0,4.93-1.7,4.93-5.1v-9c0-3.4-1.53-5.1-4.93-5.1H56.61v-26h48.28c3.4,0,4.93-1.7,4.93-5.1V95.32c0-3.4-1.53-5.1-4.93-5.1H56.1V57.75h59.5c15.47,0,23.29,8,23.29,24.14v20.4c0,11.73-4.59,18.36-14.28,20.06,10.2,2.21,14.62,8.33,14.62,18.53V163c0,16-7.82,24-23.29,24Z"/><path class="cls-3" d="M55,186.87V154.4h50c3.4,0,4.93-1.7,4.93-5.1v-9c0-3.4-1.53-5.1-4.93-5.1H56.68v-26H105c3.4,0,4.93-1.7,4.93-5.1V95.24c0-3.4-1.53-5.1-4.93-5.1H56.17V57.67h59.5c15.47,0,23.29,8,23.29,24.14v20.4c0,11.73-4.59,18.36-14.28,20.06,10.2,2.21,14.62,8.33,14.62,18.53v22.1c0,16-7.82,24-23.29,24Z"/><path class="cls-3" d="M55.06,186.8V154.33h50c3.41,0,4.93-1.7,4.93-5.1v-9c0-3.4-1.52-5.1-4.93-5.1H56.76v-26H105c3.41,0,4.93-1.7,4.93-5.1V95.17c0-3.4-1.52-5.1-4.93-5.1H56.24V57.6h59.5c15.47,0,23.29,8,23.29,24.14v20.4c0,11.73-4.59,18.36-14.28,20.06,10.2,2.21,14.62,8.33,14.62,18.53v22.1c0,16-7.82,24-23.29,24Z"/><path class="cls-3" d="M55.13,186.73V154.26h50c3.4,0,4.93-1.7,4.93-5.1v-9c0-3.4-1.53-5.1-4.93-5.1H56.83V109h48.28c3.4,0,4.93-1.7,4.93-5.1V95.1c0-3.4-1.53-5.1-4.93-5.1H56.32V57.53h59.5c15.47,0,23.29,8,23.29,24.14v20.4c0,11.73-4.59,18.36-14.28,20.06,10.2,2.21,14.62,8.33,14.62,18.53v22.1c0,16-7.82,24-23.29,24Z"/><path class="cls-3" d="M55.2,186.66V154.19h50c3.4,0,4.93-1.7,4.93-5.1v-9c0-3.4-1.53-5.1-4.93-5.1H56.9V109h48.28c3.4,0,4.93-1.7,4.93-5.1V95c0-3.4-1.53-5.1-4.93-5.1H56.39V57.46h59.5c15.47,0,23.29,8,23.29,24.14V102c0,11.73-4.59,18.36-14.28,20.06,10.2,2.21,14.62,8.33,14.62,18.53v22.1c0,16-7.82,24-23.29,24Z"/><path class="cls-3" d="M55.27,186.59V154.12h50c3.4,0,4.93-1.7,4.93-5.1v-9c0-3.4-1.53-5.1-4.93-5.1H57v-26h48.28c3.4,0,4.93-1.7,4.93-5.1V95c0-3.4-1.53-5.1-4.93-5.1H56.46V57.39H116c15.47,0,23.29,8,23.29,24.14v20.4c0,11.73-4.59,18.36-14.28,20.06,10.2,2.21,14.62,8.33,14.62,18.53v22.1c0,16-7.82,24-23.29,24Z"/><path class="cls-3" d="M55.34,186.51V154h50c3.4,0,4.93-1.7,4.93-5.1v-9c0-3.4-1.53-5.1-4.93-5.1H57v-26h48.28c3.4,0,4.93-1.7,4.93-5.1V94.88c0-3.4-1.53-5.1-4.93-5.1H56.53V57.31H116c15.47,0,23.29,8,23.29,24.14v20.4c0,11.73-4.59,18.36-14.28,20.06,10.2,2.21,14.62,8.33,14.62,18.53v22.1c0,16-7.82,24-23.29,24Z"/><path class="cls-3" d="M55.42,186.44V154h50c3.41,0,4.93-1.7,4.93-5.1v-9c0-3.4-1.52-5.1-4.93-5.1H57.12v-26h48.27c3.41,0,4.93-1.7,4.93-5.1V94.81c0-3.4-1.52-5.1-4.93-5.1H56.6V57.24h59.5c15.47,0,23.29,8,23.29,24.14v20.4c0,11.73-4.59,18.36-14.28,20.06,10.2,2.21,14.62,8.33,14.62,18.53v22.1c0,16-7.82,24-23.29,24Z"/><path class="cls-3" d="M55.49,186.37V153.9h50c3.4,0,4.93-1.7,4.93-5.1v-9c0-3.4-1.53-5.1-4.93-5.1H57.19v-26h48.28c3.4,0,4.93-1.7,4.93-5.1V94.74c0-3.4-1.53-5.1-4.93-5.1H56.68V57.17h59.5c15.47,0,23.29,8,23.29,24.14v20.4c0,11.73-4.59,18.36-14.28,20.06,10.2,2.21,14.62,8.33,14.62,18.53v22.1c0,16-7.82,24-23.29,24Z"/></g></svg>