<svg xmlns="http://www.w3.org/2000/svg" viewBox="0 0 180 252"><defs><style>.cls-1{fill:#f7f7f7;}.cls-2,.cls-3{fill:#f6c22d;stroke:#b77731;stroke-miterlimit:10;}.cls-2{stroke-width:2px;}.cls-3{stroke-width:4px;}</style></defs><g id="Card"><rect class="cls-1" width="180" height="252" rx="9.92"/></g><g id="_4" data-name="4"><path class="cls-2" d="M23,42.56v-6.7H11v-4.7l8.37-16.73h10V29.49h2.4v6.37h-2.4v6.7Zm0-21.65-4.22,8.58H23Z"/><path class="cls-2" d="M161.77,42.56v-6.7h-12v-4.7l8.36-16.73h10V29.49h2.41v6.37h-2.41v6.7Zm0-21.65-4.22,8.58h4.22Z"/><path class="cls-2" d="M160,209.44v6.7h12v4.7l-8.36,16.73h-10V222.51h-2.41v-6.37h2.41v-6.7Zm0,21.65,4.22-8.58H160Z"/><path class="cls-2" d="M21.23,209.44v6.7h12v4.7L24.9,237.57h-10V222.51H12.5v-6.37h2.41v-6.7Zm0,21.65,4.22-8.58H21.23Z"/><path class="cls-3" d="M91.43,197.17V166.4H36.18V144.81L74.6,68h45.9v69.19h11.05V166.4H120.5v30.77Zm0-99.45L72.05,137.16H91.43Z"/><path class="cls-3" d="M91.5,197.1V166.33H36.25V144.74L74.67,67.9h45.9v69.19h11.05v29.24H120.57V197.1Zm0-99.45L72.12,137.09H91.5Z"/><path class="cls-3" d="M91.58,197V166.26H36.33V144.67L74.75,67.83h45.9V137h11v29.24h-11V197Zm0-99.45L72.2,137H91.58Z"/><path class="cls-3" d="M91.65,197V166.18H36.4V144.59L74.82,67.75h45.9v69.19h11.05v29.24H120.72V197Zm0-99.45L72.27,136.94H91.65Z"/><path class="cls-3" d="M91.72,196.88V166.11H36.47V144.52L74.89,67.68h45.9v69.19h11v29.24h-11v30.77Zm0-99.45L72.34,136.87H91.72Z"/><path class="cls-3" d="M91.79,196.81V166H36.54V144.45L75,67.61h45.9V136.8h11V166h-11v30.77Zm0-99.45L72.41,136.8H91.79Z"/><path class="cls-3" d="M91.86,196.74V166H36.61V144.38L75,67.54h45.9v69.19h11V166h-11v30.77Zm0-99.45L72.48,136.73H91.86Z"/><path class="cls-3" d="M91.94,196.67V165.9H36.69V144.31L75.11,67.47H121v69.19h11V165.9H121v30.77Zm0-99.45L72.56,136.66H91.94Z"/><path class="cls-3" d="M92,196.59V165.82H36.76V144.23L75.18,67.39h45.9v69.19h11v29.24h-11v30.77Zm0-99.45L72.63,136.58H92Z"/><path class="cls-3" d="M92.08,196.52V165.75H36.83V144.16L75.25,67.32h45.9v69.19h11v29.24h-11v30.77Zm0-99.45L72.7,136.51H92.08Z"/><path class="cls-3" d="M92.15,196.45V165.68H36.9V144.09L75.32,67.25h45.9v69.19h11.05v29.24H121.22v30.77Zm0-99.45L72.77,136.44H92.15Z"/><path class="cls-3" d="M92.22,196.38V165.61H37V144L75.39,67.18h45.9v69.19h11v29.24h-11v30.77Zm0-99.45L72.84,136.37H92.22Z"/><path class="cls-3" d="M92.3,196.31V165.54H37.05V144L75.47,67.11h45.9V136.3h11v29.24h-11v30.77Zm0-99.45L72.92,136.3H92.3Z"/><path class="cls-3" d="M92.37,196.23V165.46H37.12V143.87L75.54,67h45.9v69.19h11.05v29.24H121.44v30.77Zm0-99.45L73,136.22H92.37Z"/><path class="cls-3" d="M92.44,196.16V165.39H37.19V143.8L75.61,67h45.9v69.19h11v29.24h-11v30.77Zm0-99.45L73.06,136.15H92.44Z"/><path class="cls-3" d="M92.51,196.09V165.32H37.26V143.73L75.68,66.89h45.9v69.19h11v29.24h-11v30.77Zm0-99.45L73.13,136.08H92.51Z"/><path class="cls-3" d="M92.58,196V165.25H37.33V143.66L75.75,66.82h45.9V136h11v29.24h-11V196Zm0-99.45L73.2,136H92.58Z"/><path class="cls-3" d="M92.66,196V165.18H37.41V143.59L75.83,66.75h45.9v69.19h11v29.24h-11V196Zm0-99.45L73.28,135.94H92.66Z"/><path class="cls-3" d="M92.73,195.87V165.1H37.48V143.51L75.9,66.67h45.9v69.19h11V165.1h-11v30.77Zm0-99.45L73.35,135.86H92.73Z"/><path class="cls-3" d="M92.8,195.8V165H37.55V143.44L76,66.6h45.9v69.19h11V165h-11V195.8Zm0-99.45L73.42,135.79H92.8Z"/><path class="cls-3" d="M92.87,195.73V165H37.62V143.37L76,66.53h45.9v69.19H133V165H121.94v30.77Zm0-99.45L73.49,135.72H92.87Z"/><path class="cls-3" d="M92.94,195.66V164.89H37.69V143.3L76.11,66.46H122v69.19h11v29.24H122v30.77Zm0-99.45L73.56,135.65H92.94Z"/><path class="cls-3" d="M93,195.59V164.82H37.77V143.23L76.19,66.39h45.9v69.19h11v29.24h-11v30.77Zm0-99.45L73.64,135.58H93Z"/><path class="cls-3" d="M93.09,195.51V164.74H37.84V143.15L76.26,66.31h45.9V135.5h11.05v29.24H122.16v30.77Zm0-99.45L73.71,135.5H93.09Z"/><path class="cls-3" d="M93.16,195.44V164.67H37.91V143.08L76.33,66.24h45.9v69.19h11v29.24h-11v30.77Zm0-99.45L73.78,135.43H93.16Z"/><path class="cls-3" d="M93.23,195.37V164.6H38V143L76.4,66.17h45.9v69.19h11V164.6h-11v30.77Zm0-99.45L73.85,135.36H93.23Z"/><path class="cls-3" d="M93.3,195.3V164.53H38.05V142.94L76.47,66.1h45.9v69.19h11v29.24h-11V195.3Zm0-99.45L73.92,135.29H93.3Z"/><path class="cls-3" d="M93.38,195.23V164.46H38.13V142.87L76.55,66h45.9v69.19h11v29.24h-11v30.77Zm0-99.45L74,135.22H93.38Z"/><path class="cls-3" d="M93.45,195.15V164.38H38.2V142.79L76.62,66h45.9v69.19h11v29.24h-11v30.77Zm0-99.45L74.07,135.14H93.45Z"/><path class="cls-3" d="M93.52,195.08V164.31H38.27V142.72L76.69,65.88h45.9v69.19h11v29.24h-11v30.77Zm0-99.45L74.14,135.07H93.52Z"/><path class="cls-3" d="M93.59,195V164.24H38.34V142.65L76.76,65.81h45.9V135h11.05v29.24H122.66V195Zm0-99.45L74.21,135H93.59Z"/><path class="cls-3" d="M93.66,194.94V164.17H38.41V142.58L76.83,65.74h45.9v69.19h11v29.24h-11v30.77Zm0-99.45L74.28,134.93H93.66Z"/><path class="cls-3" d="M93.74,194.87V164.1H38.49V142.51L76.91,65.67h45.9v69.19h11.05V164.1H122.81v30.77Zm0-99.45L74.36,134.86H93.74Z"/><path class="cls-3" d="M93.81,194.79V164H38.56V142.43L77,65.59h45.9v69.19h11.05V164H122.88v30.77Zm0-99.45L74.43,134.78H93.81Z"/><path class="cls-3" d="M93.88,194.72V164H38.63V142.36L77.05,65.52H123v69.19h11V164H123v30.77Zm0-99.45L74.5,134.71H93.88Z"/><path class="cls-3" d="M94,194.65V163.88H38.7V142.29L77.12,65.45H123v69.19h11v29.24H123v30.77ZM94,95.2,74.57,134.64H94Z"/><path class="cls-3" d="M94,194.58V163.81H38.77V142.22L77.19,65.38h45.9v69.19h11v29.24h-11v30.77Zm0-99.45L74.64,134.57H94Z"/><path class="cls-3" d="M94.1,194.51V163.74H38.85V142.15L77.27,65.31h45.9V134.5h11v29.24h-11v30.77Zm0-99.45L74.72,134.5H94.1Z"/><path class="cls-3" d="M94.17,194.43V163.66H38.92V142.07L77.34,65.23h45.9v69.19h11v29.24h-11v30.77Zm0-99.45L74.79,134.42H94.17Z"/><path class="cls-3" d="M94.24,194.36V163.59H39V142L77.41,65.16h45.9v69.19h11.05v29.24H123.31v30.77Zm0-99.45L74.86,134.35H94.24Z"/><path class="cls-3" d="M94.31,194.29V163.52H39.06V141.93L77.48,65.09h45.9v69.19h11.05v29.24H123.38v30.77Zm0-99.45L74.93,134.28H94.31Z"/><path class="cls-3" d="M94.38,194.22V163.45H39.13V141.86L77.55,65h45.9v69.19h11v29.24h-11v30.77Zm0-99.45L75,134.21H94.38Z"/><path class="cls-3" d="M94.46,194.15V163.38H39.21V141.79L77.63,65h45.9v69.19h11.05v29.24H123.53v30.77Zm0-99.45L75.08,134.14H94.46Z"/><path class="cls-3" d="M94.53,194.07V163.3H39.28V141.71L77.7,64.87h45.9v69.19h11.05V163.3H123.6v30.77Zm0-99.45L75.15,134.06H94.53Z"/><path class="cls-3" d="M94.6,194V163.23H39.35V141.64L77.77,64.8h45.9V134h11v29.24h-11V194Zm0-99.45L75.22,134H94.6Z"/><path class="cls-3" d="M94.67,193.93V163.16H39.42V141.57L77.84,64.73h45.9v69.19h11v29.24h-11v30.77Zm0-99.45L75.29,133.92H94.67Z"/><path class="cls-3" d="M94.74,193.86V163.09H39.49V141.5L77.91,64.66h45.9v69.19h11.05v29.24H123.81v30.77Zm0-99.45L75.36,133.85H94.74Z"/><path class="cls-3" d="M94.82,193.79V163H39.57V141.43L78,64.59h45.9v69.19h11V163h-11v30.77Zm0-99.45L75.44,133.78H94.82Z"/><path class="cls-3" d="M94.89,193.71V162.94H39.64V141.35L78.06,64.51H124V133.7h11v29.24H124v30.77Zm0-99.45L75.51,133.7H94.89Z"/><path class="cls-3" d="M95,193.64V162.87H39.71V141.28L78.13,64.44H124v69.19h11.05v29.24H124v30.77Zm0-99.45L75.58,133.63H95Z"/><path class="cls-3" d="M95,193.57V162.8H39.78V141.21L78.2,64.37h45.9v69.19h11.05V162.8H124.1v30.77Zm0-99.45L75.65,133.56H95Z"/><path class="cls-3" d="M95.1,193.5V162.73H39.85V141.14L78.27,64.3h45.9v69.19h11v29.24h-11V193.5Zm0-99.45L75.72,133.49H95.1Z"/><path class="cls-3" d="M95.18,193.43V162.66H39.93V141.07L78.35,64.23h45.9v69.19H135.3v29.24H124.25v30.77Zm0-99.45L75.8,133.42H95.18Z"/><path class="cls-3" d="M95.25,193.35V162.58H40V141L78.42,64.15h45.9v69.19h11.05v29.24H124.32v30.77Zm0-99.45L75.87,133.34H95.25Z"/><path class="cls-3" d="M95.32,193.28V162.51H40.07V140.92L78.49,64.08h45.9v69.19h11v29.24h-11v30.77Zm0-99.45L75.94,133.27H95.32Z"/><path class="cls-3" d="M95.39,193.21V162.44H40.14V140.85L78.56,64h45.9V133.2h11v29.24h-11v30.77Zm0-99.45L76,133.2H95.39Z"/><path class="cls-3" d="M95.46,193.14V162.37H40.21V140.78L78.63,63.94h45.9v69.19h11.05v29.24H124.53v30.77Zm0-99.45L76.08,133.13H95.46Z"/><path class="cls-3" d="M95.54,193.07V162.3H40.29V140.71L78.71,63.87h45.9v69.19h11V162.3h-11v30.77Zm0-99.45L76.16,133.06H95.54Z"/><path class="cls-3" d="M95.61,193V162.22H40.36V140.63L78.78,63.79h45.9V133h11v29.24h-11V193Zm0-99.45L76.23,133H95.61Z"/><path class="cls-3" d="M95.68,192.92V162.15H40.43V140.56L78.85,63.72h45.9v69.19H135.8v29.24H124.75v30.77Zm0-99.45L76.3,132.91H95.68Z"/><path class="cls-3" d="M95.75,192.85V162.08H40.5V140.49L78.92,63.65h45.9v69.19h11.05v29.24H124.82v30.77Zm0-99.45L76.37,132.84H95.75Z"/><path class="cls-3" d="M95.82,192.78V162H40.57V140.42L79,63.58h45.9v69.19h11V162h-11v30.77Zm0-99.45L76.44,132.77H95.82Z"/><path class="cls-3" d="M95.9,192.71V161.94H40.65V140.35L79.07,63.51H125V132.7H136v29.24H125v30.77Zm0-99.45L76.52,132.7H95.9Z"/><path class="cls-3" d="M96,192.63V161.86H40.72V140.27L79.14,63.43H125v69.19h11v29.24H125v30.77Zm0-99.45L76.59,132.62H96Z"/><path class="cls-3" d="M96,192.56V161.79H40.79V140.2L79.21,63.36h45.9v69.19h11v29.24h-11v30.77Zm0-99.45L76.66,132.55H96Z"/><path class="cls-3" d="M96.11,192.49V161.72H40.86V140.13L79.28,63.29h45.9v69.19h11v29.24h-11v30.77Zm0-99.45L76.73,132.48H96.11Z"/><path class="cls-3" d="M96.18,192.42V161.65H40.93V140.06L79.35,63.22h45.9v69.19H136.3v29.24H125.25v30.77Zm0-99.45L76.8,132.41H96.18Z"/><path class="cls-3" d="M96.26,192.35V161.58H41V140L79.43,63.15h45.9v69.19h11v29.24h-11v30.77Zm0-99.45L76.88,132.34H96.26Z"/><path class="cls-3" d="M96.33,192.27V161.5H41.08V139.91L79.5,63.07h45.9v69.19h11V161.5h-11v30.77Zm0-99.45L77,132.26H96.33Z"/><path class="cls-3" d="M96.4,192.2V161.43H41.15V139.84L79.57,63h45.9v69.19h11.05v29.24H125.47V192.2Zm0-99.45L77,132.19H96.4Z"/><path class="cls-3" d="M96.47,192.13V161.36H41.22V139.77L79.64,62.93h45.9v69.19h11v29.24h-11v30.77Zm0-99.45L77.09,132.12H96.47Z"/><path class="cls-3" d="M96.54,192.06V161.29H41.29V139.7L79.71,62.86h45.9v69.19h11v29.24h-11v30.77Zm0-99.45L77.16,132.05H96.54Z"/><path class="cls-3" d="M96.62,192V161.22H41.37V139.63L79.79,62.79h45.9V132h11.05v29.24H125.69V192Zm0-99.45L77.24,132H96.62Z"/><path class="cls-3" d="M96.69,191.91V161.14H41.44V139.55L79.86,62.71h45.9V131.9h11v29.24h-11v30.77Zm0-99.45L77.31,131.9H96.69Z"/><path class="cls-3" d="M96.76,191.84V161.07H41.51V139.48L79.93,62.64h45.9v69.19h11v29.24h-11v30.77Zm0-99.45L77.38,131.83H96.76Z"/><path class="cls-3" d="M96.83,191.77V161H41.58V139.41L80,62.57h45.9v69.19h11V161h-11v30.77Zm0-99.45L77.45,131.76H96.83Z"/><path class="cls-3" d="M96.9,191.7V160.93H41.65V139.34L80.07,62.5H126v69.19H137v29.24H126V191.7Zm0-99.45L77.52,131.69H96.9Z"/><path class="cls-3" d="M97,191.63V160.86H41.73V139.27L80.15,62.43h45.9v69.19h11v29.24h-11v30.77Zm0-99.45L77.6,131.62H97Z"/><path class="cls-3" d="M97.05,191.55V160.78H41.8V139.19L80.22,62.35h45.9v69.19h11v29.24h-11v30.77Zm0-99.45L77.67,131.54H97.05Z"/><path class="cls-3" d="M97.12,191.48V160.71H41.87V139.12L80.29,62.28h45.9v69.19h11.05v29.24H126.19v30.77Zm0-99.45L77.74,131.47H97.12Z"/><path class="cls-3" d="M97.19,191.41V160.64H41.94V139.05L80.36,62.21h45.9V131.4h11v29.24h-11v30.77Zm0-99.45L77.81,131.4H97.19Z"/><path class="cls-3" d="M97.26,191.34V160.57H42V139L80.43,62.14h45.9v69.19h11v29.24h-11v30.77Zm0-99.45L77.88,131.33H97.26Z"/><path class="cls-3" d="M97.34,191.27V160.5H42.09V138.91L80.51,62.07h45.9v69.19h11.05V160.5H126.41v30.77Zm0-99.45L78,131.26H97.34Z"/><path class="cls-3" d="M97.41,191.19V160.42H42.16V138.83L80.58,62h45.9v69.19h11v29.24h-11v30.77Zm0-99.45L78,131.18H97.41Z"/><path class="cls-3" d="M97.48,191.12V160.35H42.23V138.76L80.65,61.92h45.9v69.19h11v29.24h-11v30.77Zm0-99.45L78.1,131.11H97.48Z"/><path class="cls-3" d="M97.55,191.05V160.28H42.3V138.69L80.72,61.85h45.9V131h11v29.24h-11v30.77Zm0-99.45L78.17,131H97.55Z"/><path class="cls-3" d="M97.62,191V160.21H42.37V138.62L80.79,61.78h45.9V131h11.05v29.24H126.69V191Zm0-99.45L78.24,131H97.62Z"/><path class="cls-3" d="M97.7,190.91V160.14H42.45V138.55L80.87,61.71h45.9V130.9h11v29.24h-11v30.77Zm0-99.45L78.32,130.9H97.7Z"/><path class="cls-3" d="M97.77,190.83V160.06H42.52V138.47L80.94,61.63h45.9v69.19h11v29.24h-11v30.77Zm0-99.45L78.39,130.82H97.77Z"/><path class="cls-3" d="M97.84,190.76V160H42.59V138.4L81,61.56h45.9v69.19H138V160H126.91v30.77Zm0-99.45L78.46,130.75H97.84Z"/><path class="cls-3" d="M97.91,190.69V159.92H42.66V138.33L81.08,61.49H127v69.19h11v29.24H127v30.77Zm0-99.45L78.53,130.68H97.91Z"/><path class="cls-3" d="M98,190.62V159.85H42.73V138.26L81.15,61.42h45.9v69.19h11v29.24h-11v30.77Zm0-99.45L78.6,130.61H98Z"/><path class="cls-3" d="M98.06,190.55V159.78H42.81V138.19L81.23,61.35h45.9v69.19h11.05v29.24H127.13v30.77Zm0-99.45L78.68,130.54H98.06Z"/><path class="cls-3" d="M98.13,190.47V159.7H42.88V138.11L81.3,61.27h45.9v69.19h11V159.7h-11v30.77Zm0-99.45L78.75,130.46H98.13Z"/><path class="cls-3" d="M98.2,190.4V159.63H43V138L81.37,61.2h45.9v69.19h11v29.24h-11V190.4ZM98.2,91,78.82,130.39H98.2Z"/><path class="cls-3" d="M98.27,190.33V159.56H43V138L81.44,61.13h45.9v69.19h11v29.24h-11v30.77Zm0-99.45L78.89,130.32H98.27Z"/><path class="cls-3" d="M98.34,190.26V159.49H43.09V137.9L81.51,61.06h45.9v69.19h11.05v29.24H127.41v30.77Zm0-99.45L79,130.25H98.34Z"/><path class="cls-3" d="M98.42,190.19V159.42H43.17V137.83L81.59,61h45.9v69.19h11v29.24h-11v30.77Zm0-99.45L79,130.18H98.42Z"/><path class="cls-3" d="M98.49,190.11V159.34H43.24V137.75L81.66,60.91h45.9V130.1h11.05v29.24H127.56v30.77Zm0-99.45L79.11,130.1H98.49Z"/><path class="cls-3" d="M98.56,190V159.27H43.31V137.68L81.73,60.84h45.9V130h11.05v29.24H127.63V190Zm0-99.45L79.18,130H98.56Z"/><path class="cls-3" d="M98.63,190V159.2H43.38V137.61L81.8,60.77h45.9V130h11V159.2h-11V190Zm0-99.45L79.25,130H98.63Z"/><path class="cls-3" d="M98.7,189.9V159.13H43.45V137.54L81.87,60.7h45.9v69.19h11v29.24h-11V189.9Zm0-99.45L79.32,129.89H98.7Z"/><path class="cls-3" d="M98.78,189.83V159.06H43.53V137.47L82,60.63h45.9v69.19H138.9v29.24H127.85v30.77Zm0-99.45L79.4,129.82H98.78Z"/><path class="cls-3" d="M98.85,189.75V159H43.6V137.39L82,60.55h45.9v69.19h11V159h-11v30.77Zm0-99.45L79.47,129.74H98.85Z"/><path class="cls-3" d="M98.92,189.68V158.91H43.67V137.32L82.09,60.48H128v69.19h11v29.24H128v30.77Zm0-99.45L79.54,129.67H98.92Z"/><path class="cls-3" d="M99,189.61V158.84H43.74V137.25L82.16,60.41h45.9V129.6h11.05v29.24H128.06v30.77Zm0-99.45L79.61,129.6H99Z"/><path class="cls-3" d="M99.06,189.54V158.77H43.81V137.18L82.23,60.34h45.9v69.19h11.05v29.24H128.13v30.77Zm0-99.45L79.68,129.53H99.06Z"/><path class="cls-3" d="M99.14,189.47V158.7H43.89V137.11L82.31,60.27h45.9v69.19h11V158.7h-11v30.77Zm0-99.45L79.76,129.46H99.14Z"/><path class="cls-3" d="M99.21,189.39V158.62H44V137L82.38,60.19h45.9v69.19h11.05v29.24H128.28v30.77Zm0-99.45L79.83,129.38H99.21Z"/><path class="cls-3" d="M99.28,189.32V158.55H44V137L82.45,60.12h45.9v69.19H139.4v29.24H128.35v30.77Zm0-99.45L79.9,129.31H99.28Z"/><path class="cls-3" d="M99.35,189.25V158.48H44.1V136.89L82.52,60.05h45.9v69.19h11.05v29.24H128.42v30.77Zm0-99.45L80,129.24H99.35Z"/><path class="cls-3" d="M99.42,189.18V158.41H44.17V136.82L82.59,60h45.9v69.19h11v29.24h-11v30.77Zm0-99.45L80,129.17H99.42Z"/><path class="cls-3" d="M99.5,189.11V158.34H44.25V136.75L82.67,59.91h45.9V129.1h11.05v29.24H128.57v30.77Zm0-99.45L80.12,129.1H99.5Z"/><path class="cls-3" d="M99.57,189V158.26H44.32V136.67L82.74,59.83h45.9V129h11.05v29.24H128.64V189Zm0-99.45L80.19,129H99.57Z"/><path class="cls-3" d="M99.64,189V158.19H44.39V136.6L82.81,59.76h45.9V129h11v29.24h-11V189Zm0-99.45L80.26,129H99.64Z"/><path class="cls-3" d="M99.71,188.89V158.12H44.46V136.53L82.88,59.69h45.9v69.19h11.05v29.24H128.78v30.77Zm0-99.45L80.33,128.88H99.71Z"/><path class="cls-3" d="M99.78,188.82V158.05H44.53V136.46L83,59.62h45.9v69.19H139.9v29.24H128.85v30.77Zm0-99.45L80.4,128.81H99.78Z"/><path class="cls-3" d="M99.86,188.75V158H44.61V136.39L83,59.55h45.9v69.19h11V158h-11v30.77Zm0-99.45L80.48,128.74H99.86Z"/><path class="cls-3" d="M99.93,188.67V157.9H44.68V136.31L83.1,59.47H129v69.19h11.05V157.9H129v30.77Zm0-99.45L80.55,128.66H99.93Z"/><path class="cls-3" d="M100,188.6V157.83H44.75V136.24L83.17,59.4h45.9v69.19h11.05v29.24H129.07V188.6Zm0-99.45L80.62,128.59H100Z"/><path class="cls-3" d="M100.07,188.53V157.76H44.82V136.17L83.24,59.33h45.9v69.19h11.05v29.24H129.14v30.77Zm0-99.45L80.69,128.52h19.38Z"/><path class="cls-3" d="M100.14,188.46V157.69H44.89V136.1L83.31,59.26h45.9v69.19h11v29.24h-11v30.77Zm0-99.45L80.76,128.45h19.38Z"/><path class="cls-3" d="M100.22,188.39V157.62H45V136L83.39,59.19h45.9v69.19h11.05v29.24H129.29v30.77Zm0-99.45L80.84,128.38h19.38Z"/><path class="cls-3" d="M100.29,188.31V157.54H45V136L83.46,59.11h45.9V128.3h11v29.24h-11v30.77Zm0-99.45L80.91,128.3h19.38Z"/><path class="cls-3" d="M100.36,188.24V157.47H45.11V135.88L83.53,59h45.9v69.19h11v29.24h-11v30.77Zm0-99.45L81,128.23h19.38Z"/><path class="cls-3" d="M100.43,188.17V157.4H45.18V135.81L83.6,59h45.9v69.19h11.05V157.4H129.5v30.77Zm0-99.45L81.05,128.16h19.38Z"/><path class="cls-3" d="M100.5,188.1V157.33H45.25V135.74L83.67,58.9h45.9v69.19h11.05v29.24H129.57V188.1Zm0-99.45L81.12,128.09H100.5Z"/><path class="cls-3" d="M100.58,188V157.26H45.33V135.67L83.75,58.83h45.9V128h11v29.24h-11V188Zm0-99.45L81.2,128h19.38Z"/><path class="cls-3" d="M100.65,188V157.18H45.4V135.59L83.82,58.75h45.9v69.19h11.05v29.24H129.72V188Zm0-99.45L81.27,127.94h19.38Z"/><path class="cls-3" d="M100.72,187.88V157.11H45.47V135.52L83.89,58.68h45.9v69.19h11.05v29.24H129.79v30.77Zm0-99.45L81.34,127.87h19.38Z"/><path class="cls-3" d="M100.79,187.81V157H45.54V135.45L84,58.61h45.9V127.8h11V157h-11v30.77Zm0-99.45L81.41,127.8h19.38Z"/><path class="cls-3" d="M100.86,187.74V157H45.61V135.38L84,58.54h45.9v69.19h11V157h-11v30.77Zm0-99.45L81.48,127.73h19.38Z"/><path class="cls-3" d="M100.94,187.67V156.9H45.69V135.31L84.11,58.47H130v69.19h11.05V156.9H130v30.77Zm0-99.45L81.56,127.66h19.38Z"/><path class="cls-3" d="M101,187.59V156.82H45.76V135.23L84.18,58.39h45.9v69.19h11v29.24h-11v30.77Zm0-99.45L81.63,127.58H101Z"/><path class="cls-3" d="M101.08,187.52V156.75H45.83V135.16L84.25,58.32h45.9v69.19h11v29.24h-11v30.77Zm0-99.45L81.7,127.51h19.38Z"/><path class="cls-3" d="M101.15,187.45V156.68H45.9V135.09L84.32,58.25h45.9v69.19h11.05v29.24H130.22v30.77Zm0-99.45L81.77,127.44h19.38Z"/><path class="cls-3" d="M101.22,187.38V156.61H46V135L84.39,58.18h45.9v69.19h11.05v29.24H130.29v30.77Zm0-99.45L81.84,127.37h19.38Z"/><path class="cls-3" d="M101.3,187.31V156.54H46.05V135L84.47,58.11h45.9V127.3h11v29.24h-11v30.77Zm0-99.45L81.92,127.3H101.3Z"/><path class="cls-3" d="M101.37,187.23V156.46H46.12V134.87L84.54,58h45.9v69.19h11.05v29.24H130.44v30.77Zm0-99.45L82,127.22h19.38Z"/><path class="cls-3" d="M101.44,187.16V156.39H46.19V134.8L84.61,58h45.9v69.19h11.05v29.24H130.51v30.77Zm0-99.45L82.06,127.15h19.38Z"/><path class="cls-3" d="M101.51,187.09V156.32H46.26V134.73L84.68,57.89h45.9v69.19h11v29.24h-11v30.77Zm0-99.45L82.13,127.08h19.38Z"/><path class="cls-3" d="M101.58,187V156.25H46.33V134.66L84.75,57.82h45.9V127h11v29.24h-11V187Zm0-99.45L82.2,127h19.38Z"/><path class="cls-3" d="M101.66,187V156.18H46.41V134.59L84.83,57.75h45.9v69.19h11.05v29.24H130.73V187Zm0-99.45L82.28,126.94h19.38Z"/><path class="cls-3" d="M101.73,186.87V156.1H46.48V134.51L84.9,57.67h45.9v69.19h11V156.1h-11v30.77Zm0-99.45L82.35,126.86h19.38Z"/><path class="cls-3" d="M101.8,186.8V156H46.55V134.44L85,57.6h45.9v69.19h11V156h-11V186.8Zm0-99.45L82.42,126.79H101.8Z"/><path class="cls-3" d="M101.87,186.73V156H46.62V134.37L85,57.53h45.9v69.19H142V156H130.94v30.77Zm0-99.45L82.49,126.72h19.38Z"/><path class="cls-3" d="M101.94,186.66V155.89H46.69V134.3L85.11,57.46H131v69.19h11.05v29.24H131v30.77Zm0-99.45L82.56,126.65h19.38Z"/><path class="cls-3" d="M102,186.59V155.82H46.77V134.23L85.19,57.39h45.9v69.19h11v29.24h-11v30.77Zm0-99.45L82.64,126.58H102Z"/><path class="cls-3" d="M102.09,186.51V155.74H46.84V134.15L85.26,57.31h45.9V126.5h11.05v29.24H131.16v30.77Zm0-99.45L82.71,126.5h19.38Z"/><path class="cls-3" d="M102.16,186.44V155.67H46.91V134.08L85.33,57.24h45.9v69.19h11.05v29.24H131.23v30.77Zm0-99.45L82.78,126.43h19.38Z"/><path class="cls-3" d="M102.23,186.37V155.6H47V134L85.4,57.17h45.9v69.19h11V155.6h-11v30.77Zm0-99.45L82.85,126.36h19.38Z"/></g></svg>