<svg xmlns="http://www.w3.org/2000/svg" viewBox="0 0 180 252"><defs><style>.cls-1{fill:#f7f7f7;}.cls-2,.cls-3{fill:#f6c22d;stroke:#b77731;stroke-miterlimit:10;}.cls-2{stroke-width:2px;}.cls-3{stroke-width:4px;}</style></defs><g id="Card"><rect class="cls-1" width="180" height="252" rx="9.92"/></g><g id="_5" data-name="5"><path class="cls-2" d="M11.63,42.56V35.49H24.47a1,1,0,0,0,1.11-1.11v-2a1,1,0,0,0-1.11-1.11H11.85V14.43H31.46V21.5H18.25v3.41H27c3.29,0,4.92,1.66,4.92,4.95v7.22c0,3.66-1.77,5.48-5.36,5.48Z"/><path class="cls-2" d="M148.41,42.56V35.49h12.84a1,1,0,0,0,1.11-1.11v-2a1,1,0,0,0-1.11-1.11H148.63V14.43h19.61V21.5H155v3.41h8.77c3.29,0,4.92,1.66,4.92,4.95v7.22c0,3.66-1.78,5.48-5.37,5.48Z"/><path class="cls-2" d="M169.37,209.44v7.07H156.53a1,1,0,0,0-1.11,1.11v2a1,1,0,0,0,1.11,1.11h12.62v16.88H149.54V230.5h13.21v-3.41H154c-3.29,0-4.92-1.66-4.92-5v-7.22c0-3.66,1.77-5.48,5.36-5.48Z"/><path class="cls-2" d="M32.59,209.44v7.07H19.75a1,1,0,0,0-1.11,1.11v2a1,1,0,0,0,1.11,1.11H32.37v16.88H12.76V230.5H26v-3.41H17.2c-3.29,0-4.92-1.66-4.92-5v-7.22c0-3.66,1.78-5.48,5.37-5.48Z"/><path class="cls-3" d="M40.2,197.17V164.7h59q5.1,0,5.1-5.1v-9q0-5.1-5.1-5.1h-58V68h90.1v32.47H70.63v15.64h40.29c15.13,0,22.61,7.65,22.61,22.78V172c0,16.83-8.16,25.16-24.65,25.16Z"/><path class="cls-3" d="M40.27,197.1V164.63h59q5.1,0,5.1-5.1v-9q0-5.1-5.1-5.1h-58V67.9h90.1v32.47H70.7V116H111c15.13,0,22.61,7.65,22.61,22.78v33.15c0,16.83-8.16,25.16-24.65,25.16Z"/><path class="cls-3" d="M40.35,197V164.56h59q5.1,0,5.1-5.1v-9q0-5.1-5.1-5.1h-58V67.83h90.1V100.3H70.78v15.64h40.29c15.13,0,22.61,7.65,22.61,22.78v33.15c0,16.83-8.17,25.16-24.65,25.16Z"/><path class="cls-3" d="M40.42,197V164.48h59q5.1,0,5.1-5.1v-9q0-5.1-5.1-5.1h-58V67.75h90.1v32.47H70.85v15.64h40.29c15.13,0,22.61,7.65,22.61,22.78v33.15c0,16.83-8.16,25.16-24.65,25.16Z"/><path class="cls-3" d="M40.49,196.88V164.41h59q5.1,0,5.1-5.1v-9q0-5.1-5.1-5.1h-58V67.68h90.1v32.47H70.92v15.64h40.29c15.13,0,22.61,7.65,22.61,22.78v33.15c0,16.83-8.16,25.16-24.65,25.16Z"/><path class="cls-3" d="M40.56,196.81V164.34h59q5.1,0,5.1-5.1v-9q0-5.1-5.1-5.1h-58V67.61h90.1v32.47H71v15.64h40.29c15.13,0,22.61,7.65,22.61,22.78v33.15c0,16.83-8.16,25.16-24.65,25.16Z"/><path class="cls-3" d="M40.63,196.74V164.27h59q5.1,0,5.1-5.1v-9q0-5.1-5.1-5.1h-58V67.54h90.1V100H71.06v15.64h40.29c15.13,0,22.61,7.65,22.61,22.78v33.15c0,16.83-8.16,25.16-24.65,25.16Z"/><path class="cls-3" d="M40.71,196.67V164.2h59q5.1,0,5.1-5.1v-9q0-5.1-5.1-5.1h-58V67.47h90.1V99.94H71.14v15.64h40.29c15.13,0,22.61,7.65,22.61,22.78v33.15c0,16.83-8.17,25.16-24.65,25.16Z"/><path class="cls-3" d="M40.78,196.59V164.12h59q5.1,0,5.1-5.1v-9q0-5.1-5.1-5.1h-58V67.39h90.1V99.86H71.21V115.5H111.5c15.13,0,22.61,7.65,22.61,22.78v33.15c0,16.83-8.16,25.16-24.65,25.16Z"/><path class="cls-3" d="M40.85,196.52V164.05h59q5.1,0,5.1-5.1v-9q0-5.1-5.1-5.1h-58V67.32H132V99.79H71.28v15.64h40.29c15.13,0,22.61,7.65,22.61,22.78v33.15c0,16.83-8.16,25.16-24.65,25.16Z"/><path class="cls-3" d="M40.92,196.45V164h59q5.1,0,5.1-5.1v-9q0-5.1-5.1-5.1h-58V67.25H132V99.72H71.35v15.64h40.29c15.13,0,22.61,7.65,22.61,22.78v33.15c0,16.83-8.16,25.16-24.65,25.16Z"/><path class="cls-3" d="M41,196.38V163.91h59q5.1,0,5.1-5.1v-9q0-5.1-5.1-5.1H42V67.18h90.1V99.65H71.42v15.64h40.29c15.13,0,22.61,7.65,22.61,22.78v33.15c0,16.83-8.16,25.16-24.65,25.16Z"/><path class="cls-3" d="M41.07,196.31V163.84h59q5.1,0,5.1-5.1v-9q0-5.1-5.1-5.1h-58V67.11h90.1V99.58H71.5v15.64h40.29c15.13,0,22.61,7.65,22.61,22.78v33.15c0,16.83-8.17,25.16-24.65,25.16Z"/><path class="cls-3" d="M41.14,196.23V163.76h59q5.1,0,5.1-5.1v-9q0-5.1-5.1-5.1h-58V67h90.1V99.5H71.57v15.64h40.29c15.13,0,22.61,7.65,22.61,22.78v33.15c0,16.83-8.16,25.16-24.65,25.16Z"/><path class="cls-3" d="M41.21,196.16V163.69h59q5.1,0,5.1-5.1v-9q0-5.1-5.1-5.1h-58V67h90.1V99.43H71.64v15.64h40.29c15.13,0,22.61,7.65,22.61,22.78V171c0,16.83-8.16,25.16-24.65,25.16Z"/><path class="cls-3" d="M41.28,196.09V163.62h59q5.1,0,5.1-5.1v-9q0-5.1-5.1-5.1h-58V66.89h90.1V99.36H71.71V115H112c15.13,0,22.61,7.65,22.61,22.78v33.15c0,16.83-8.16,25.16-24.65,25.16Z"/><path class="cls-3" d="M41.35,196V163.55h59q5.1,0,5.1-5.1v-9q0-5.1-5.1-5.1h-58V66.82h90.1V99.29H71.78v15.64h40.29c15.13,0,22.61,7.65,22.61,22.78v33.15c0,16.83-8.16,25.16-24.65,25.16Z"/><path class="cls-3" d="M41.43,196V163.48h59q5.1,0,5.1-5.1v-9q0-5.1-5.1-5.1h-58V66.75h90.1V99.22H71.86v15.64h40.29c15.13,0,22.61,7.65,22.61,22.78v33.15c0,16.83-8.17,25.16-24.65,25.16Z"/><path class="cls-3" d="M41.5,195.87V163.4h59q5.1,0,5.1-5.1v-9q0-5.1-5.1-5.1h-58V66.67h90.1V99.14H71.93v15.64h40.29c15.13,0,22.61,7.65,22.61,22.78v33.15c0,16.83-8.16,25.16-24.65,25.16Z"/><path class="cls-3" d="M41.57,195.8V163.33h59q5.1,0,5.1-5.1v-9q0-5.1-5.1-5.1h-58V66.6h90.1V99.07H72v15.64h40.29c15.13,0,22.61,7.65,22.61,22.78v33.15c0,16.83-8.16,25.16-24.65,25.16Z"/><path class="cls-3" d="M41.64,195.73V163.26h59q5.1,0,5.1-5.1v-9q0-5.1-5.1-5.1h-58V66.53h90.1V99H72.07v15.64h40.29c15.13,0,22.61,7.65,22.61,22.78v33.15c0,16.83-8.16,25.16-24.65,25.16Z"/><path class="cls-3" d="M41.71,195.66V163.19h59q5.1,0,5.1-5.1v-9q0-5.1-5.1-5.1h-58V66.46h90.1V98.93H72.14v15.64h40.29c15.13,0,22.61,7.65,22.61,22.78V170.5c0,16.83-8.16,25.16-24.65,25.16Z"/><path class="cls-3" d="M41.79,195.59V163.12h59q5.1,0,5.1-5.1v-9q0-5.1-5.1-5.1h-58V66.39h90.1V98.86H72.22V114.5h40.29c15.13,0,22.61,7.65,22.61,22.78v33.15c0,16.83-8.17,25.16-24.65,25.16Z"/><path class="cls-3" d="M41.86,195.51V163h59q5.1,0,5.1-5.1v-9q0-5.1-5.1-5.1h-58V66.31H133V98.78H72.29v15.64h40.29c15.13,0,22.61,7.65,22.61,22.78v33.15c0,16.83-8.16,25.16-24.65,25.16Z"/><path class="cls-3" d="M41.93,195.44V163h59q5.1,0,5.1-5.1v-9q0-5.1-5.1-5.1H43V66.24h90.1V98.71H72.36v15.64h40.29c15.13,0,22.61,7.65,22.61,22.78v33.15c0,16.83-8.16,25.16-24.65,25.16Z"/><path class="cls-3" d="M42,195.37V162.9h59q5.1,0,5.1-5.1v-9q0-5.1-5.1-5.1H43V66.17h90.1V98.64H72.43v15.64h40.29c15.13,0,22.61,7.65,22.61,22.78v33.15c0,16.83-8.16,25.16-24.65,25.16Z"/><path class="cls-3" d="M42.07,195.3V162.83h59q5.1,0,5.1-5.1v-9q0-5.1-5.1-5.1h-58V66.1h90.1V98.57H72.5v15.64h40.29c15.13,0,22.61,7.65,22.61,22.78v33.15c0,16.83-8.16,25.16-24.65,25.16Z"/><path class="cls-3" d="M42.15,195.23V162.76h59q5.1,0,5.1-5.1v-9q0-5.1-5.1-5.1h-58V66h90.1V98.5H72.58v15.64h40.29c15.13,0,22.61,7.65,22.61,22.78v33.15c0,16.83-8.17,25.16-24.65,25.16Z"/><path class="cls-3" d="M42.22,195.15V162.68h59q5.1,0,5.1-5.1v-9q0-5.1-5.1-5.1h-58V66h90.1V98.42H72.65v15.64h40.29c15.13,0,22.61,7.65,22.61,22.78V170c0,16.83-8.16,25.16-24.65,25.16Z"/><path class="cls-3" d="M42.29,195.08V162.61h59q5.1,0,5.1-5.1v-9q0-5.1-5.1-5.1h-58V65.88h90.1V98.35H72.72V114H113c15.13,0,22.61,7.65,22.61,22.78v33.15c0,16.83-8.16,25.16-24.65,25.16Z"/><path class="cls-3" d="M42.36,195V162.54h59q5.1,0,5.1-5.1v-9q0-5.1-5.1-5.1h-58V65.81h90.1V98.28H72.79v15.64h40.29c15.13,0,22.61,7.65,22.61,22.78v33.15c0,16.83-8.16,25.16-24.65,25.16Z"/><path class="cls-3" d="M42.43,194.94V162.47h59q5.1,0,5.1-5.1v-9q0-5.1-5.1-5.1h-58V65.74h90.1V98.21H72.86v15.64h40.29c15.13,0,22.61,7.65,22.61,22.78v33.15c0,16.83-8.16,25.16-24.65,25.16Z"/><path class="cls-3" d="M42.51,194.87V162.4h59q5.1,0,5.1-5.1v-9q0-5.1-5.1-5.1h-58V65.67h90.1V98.14H72.94v15.64h40.29c15.13,0,22.61,7.65,22.61,22.78v33.15c0,16.83-8.17,25.16-24.65,25.16Z"/><path class="cls-3" d="M42.58,194.79V162.32h59q5.1,0,5.1-5.1v-9q0-5.1-5.1-5.1h-58V65.59h90.1V98.06H73V113.7H113.3c15.13,0,22.61,7.65,22.61,22.78v33.15c0,16.83-8.16,25.16-24.65,25.16Z"/><path class="cls-3" d="M42.65,194.72V162.25h59q5.1,0,5.1-5.1v-9q0-5.1-5.1-5.1h-58V65.52h90.1V98H73.08v15.64h40.29c15.13,0,22.61,7.65,22.61,22.78v33.15c0,16.83-8.16,25.16-24.65,25.16Z"/><path class="cls-3" d="M42.72,194.65V162.18h59q5.1,0,5.1-5.1v-9q0-5.1-5.1-5.1h-58V65.45h90.1V97.92H73.15v15.64h40.29c15.13,0,22.61,7.65,22.61,22.78v33.15c0,16.83-8.16,25.16-24.65,25.16Z"/><path class="cls-3" d="M42.79,194.58V162.11h59q5.1,0,5.1-5.1v-9q0-5.1-5.1-5.1h-58V65.38h90.1V97.85H73.22v15.64h40.29c15.13,0,22.61,7.65,22.61,22.78v33.15c0,16.83-8.16,25.16-24.65,25.16Z"/><path class="cls-3" d="M42.87,194.51V162h59q5.1,0,5.1-5.1v-9q0-5.1-5.1-5.1h-58V65.31H134V97.78H73.3v15.64h40.29c15.13,0,22.61,7.65,22.61,22.78v33.15c0,16.83-8.17,25.16-24.65,25.16Z"/><path class="cls-3" d="M42.94,194.43V162h59q5.1,0,5.1-5.1v-9q0-5.1-5.1-5.1H44V65.23h90.1V97.7H73.37v15.64h40.29c15.13,0,22.61,7.65,22.61,22.78v33.15c0,16.83-8.16,25.16-24.65,25.16Z"/><path class="cls-3" d="M43,194.36V161.89h59q5.1,0,5.1-5.1v-9q0-5.1-5.1-5.1H44V65.16h90.1V97.63H73.44v15.64h40.29c15.13,0,22.61,7.65,22.61,22.78V169.2c0,16.83-8.16,25.16-24.65,25.16Z"/><path class="cls-3" d="M43.08,194.29V161.82h59q5.1,0,5.1-5.1v-9q0-5.1-5.1-5.1h-58V65.09h90.1V97.56H73.51V113.2H113.8c15.13,0,22.61,7.65,22.61,22.78v33.15c0,16.83-8.16,25.16-24.65,25.16Z"/><path class="cls-3" d="M43.15,194.22V161.75h59q5.1,0,5.1-5.1v-9q0-5.1-5.1-5.1h-58V65h90.1V97.49H73.58v15.64h40.29c15.13,0,22.61,7.65,22.61,22.78v33.15c0,16.83-8.16,25.16-24.65,25.16Z"/><path class="cls-3" d="M43.23,194.15V161.68h59q5.1,0,5.1-5.1v-9q0-5.1-5.1-5.1h-58V65h90.1V97.42H73.66v15.64H114c15.13,0,22.61,7.65,22.61,22.78V169c0,16.83-8.17,25.16-24.65,25.16Z"/><path class="cls-3" d="M43.3,194.07V161.6h59q5.1,0,5.1-5.1v-9q0-5.1-5.1-5.1h-58V64.87h90.1V97.34H73.73V113H114c15.13,0,22.61,7.65,22.61,22.78v33.15c0,16.83-8.16,25.16-24.65,25.16Z"/><path class="cls-3" d="M43.37,194V161.53h59q5.1,0,5.1-5.1v-9q0-5.1-5.1-5.1h-58V64.8h90.1V97.27H73.8v15.64h40.29c15.13,0,22.61,7.65,22.61,22.78v33.15c0,16.83-8.16,25.16-24.65,25.16Z"/><path class="cls-3" d="M43.44,193.93V161.46h59q5.1,0,5.1-5.1v-9q0-5.1-5.1-5.1h-58V64.73h90.1V97.2H73.87v15.64h40.29c15.13,0,22.61,7.65,22.61,22.78v33.15c0,16.83-8.16,25.16-24.65,25.16Z"/><path class="cls-3" d="M43.51,193.86V161.39h59q5.1,0,5.1-5.1v-9q0-5.1-5.1-5.1h-58V64.66h90.1V97.13H73.94v15.64h40.29c15.13,0,22.61,7.65,22.61,22.78V168.7c0,16.83-8.16,25.16-24.65,25.16Z"/><path class="cls-3" d="M43.59,193.79V161.32h59q5.1,0,5.1-5.1v-9q0-5.1-5.1-5.1h-58V64.59h90.1V97.06H74V112.7h40.29c15.13,0,22.61,7.65,22.61,22.78v33.15c0,16.83-8.17,25.16-24.65,25.16Z"/><path class="cls-3" d="M43.66,193.71V161.24h59q5.1,0,5.1-5.1v-9q0-5.1-5.1-5.1h-58V64.51h90.1V97H74.09v15.64h40.29c15.13,0,22.61,7.65,22.61,22.78v33.15c0,16.83-8.16,25.16-24.65,25.16Z"/><path class="cls-3" d="M43.73,193.64V161.17h59q5.1,0,5.1-5.1v-9q0-5.1-5.1-5.1h-58V64.44h90.1V96.91H74.16v15.64h40.29c15.13,0,22.61,7.65,22.61,22.78v33.15c0,16.83-8.16,25.16-24.65,25.16Z"/><path class="cls-3" d="M43.8,193.57V161.1h59q5.1,0,5.1-5.1v-9q0-5.1-5.1-5.1h-58V64.37h90.1V96.84H74.23v15.64h40.29c15.13,0,22.61,7.65,22.61,22.78v33.15c0,16.83-8.16,25.16-24.65,25.16Z"/><path class="cls-3" d="M43.87,193.5V161h59q5.1,0,5.1-5.1v-9q0-5.1-5.1-5.1h-58V64.3H135V96.77H74.3v15.64h40.29c15.13,0,22.61,7.65,22.61,22.78v33.15c0,16.83-8.16,25.16-24.65,25.16Z"/><path class="cls-3" d="M44,193.43V161h59q5.1,0,5.1-5.1v-9q0-5.1-5.1-5.1H45V64.23h90.1V96.7H74.38v15.64h40.29c15.13,0,22.61,7.65,22.61,22.78v33.15c0,16.83-8.17,25.16-24.65,25.16Z"/><path class="cls-3" d="M44,193.35V160.88h59q5.1,0,5.1-5.1v-9q0-5.1-5.1-5.1H45V64.15h90.1V96.62H74.45v15.64h40.29c15.13,0,22.61,7.65,22.61,22.78v33.15c0,16.83-8.16,25.16-24.65,25.16Z"/><path class="cls-3" d="M44.09,193.28V160.81h59q5.1,0,5.1-5.1v-9q0-5.1-5.1-5.1h-58V64.08h90.1V96.55H74.52v15.64h40.29c15.13,0,22.61,7.65,22.61,22.78v33.15c0,16.83-8.16,25.16-24.65,25.16Z"/><path class="cls-3" d="M44.16,193.21V160.74h59q5.1,0,5.1-5.1v-9q0-5.1-5.1-5.1h-58V64h90.1V96.48H74.59v15.64h40.29c15.13,0,22.61,7.65,22.61,22.78v33.15c0,16.83-8.16,25.16-24.65,25.16Z"/><path class="cls-3" d="M44.23,193.14V160.67h59q5.1,0,5.1-5.1v-9q0-5.1-5.1-5.1h-58V63.94h90.1V96.41H74.66v15.64H115c15.13,0,22.61,7.65,22.61,22.78V168c0,16.83-8.16,25.16-24.65,25.16Z"/><path class="cls-3" d="M44.31,193.07V160.6h59q5.1,0,5.1-5.1v-9q0-5.1-5.1-5.1h-58V63.87h90.1V96.34H74.74V112H115c15.13,0,22.61,7.65,22.61,22.78v33.15c0,16.83-8.17,25.16-24.65,25.16Z"/><path class="cls-3" d="M44.38,193V160.52h59q5.1,0,5.1-5.1v-9q0-5.1-5.1-5.1h-58V63.79h90.1V96.26H74.81V111.9H115.1c15.13,0,22.61,7.65,22.61,22.78v33.15c0,16.83-8.16,25.16-24.65,25.16Z"/><path class="cls-3" d="M44.45,192.92V160.45h59q5.1,0,5.1-5.1v-9q0-5.1-5.1-5.1h-58V63.72h90.1V96.19H74.88v15.64h40.29c15.13,0,22.61,7.65,22.61,22.78v33.15c0,16.83-8.16,25.16-24.65,25.16Z"/><path class="cls-3" d="M44.52,192.85V160.38h59q5.1,0,5.1-5.1v-9q0-5.1-5.1-5.1h-58V63.65h90.1V96.12H75v15.64h40.29c15.13,0,22.61,7.65,22.61,22.78v33.15c0,16.83-8.16,25.16-24.65,25.16Z"/><path class="cls-3" d="M44.59,192.78V160.31h59q5.1,0,5.1-5.1v-9q0-5.1-5.1-5.1h-58V63.58h90.1V96.05H75v15.64h40.29c15.13,0,22.61,7.65,22.61,22.78v33.15c0,16.83-8.16,25.16-24.65,25.16Z"/><path class="cls-3" d="M44.67,192.71V160.24h59q5.1,0,5.1-5.1v-9q0-5.1-5.1-5.1h-58V63.51h90.1V96H75.1v15.64h40.29c15.13,0,22.61,7.65,22.61,22.78v33.15c0,16.83-8.17,25.16-24.65,25.16Z"/><path class="cls-3" d="M44.74,192.63V160.16h59q5.1,0,5.1-5.1v-9q0-5.1-5.1-5.1h-58V63.43h90.1V95.9H75.17v15.64h40.29c15.13,0,22.61,7.65,22.61,22.78v33.15c0,16.83-8.16,25.16-24.65,25.16Z"/><path class="cls-3" d="M44.81,192.56V160.09h59q5.1,0,5.1-5.1v-9q0-5.1-5.1-5.1h-58V63.36h90.1V95.83H75.24v15.64h40.29c15.13,0,22.61,7.65,22.61,22.78V167.4c0,16.83-8.16,25.16-24.65,25.16Z"/><path class="cls-3" d="M44.88,192.49V160h59q5.1,0,5.1-5.1v-9q0-5.1-5.1-5.1h-58V63.29H136V95.76H75.31V111.4H115.6c15.13,0,22.61,7.65,22.61,22.78v33.15c0,16.83-8.16,25.16-24.65,25.16Z"/><path class="cls-3" d="M45,192.42V160h59q5.1,0,5.1-5.1v-9q0-5.1-5.1-5.1H46V63.22h90.1V95.69H75.38v15.64h40.29c15.13,0,22.61,7.65,22.61,22.78v33.15c0,16.83-8.16,25.16-24.65,25.16Z"/><path class="cls-3" d="M45,192.35V159.88h59q5.1,0,5.1-5.1v-9q0-5.1-5.1-5.1h-58V63.15h90.1V95.62H75.46v15.64h40.29c15.13,0,22.61,7.65,22.61,22.78v33.15c0,16.83-8.17,25.16-24.65,25.16Z"/><path class="cls-3" d="M45.1,192.27V159.8h59q5.1,0,5.1-5.1v-9q0-5.1-5.1-5.1h-58V63.07h90.1V95.54H75.53v15.64h40.29c15.13,0,22.61,7.65,22.61,22.78v33.15c0,16.83-8.16,25.16-24.65,25.16Z"/><path class="cls-3" d="M45.17,192.2V159.73h59q5.1,0,5.1-5.1v-9q0-5.1-5.1-5.1h-58V63h90.1V95.47H75.6v15.64h40.29c15.13,0,22.61,7.65,22.61,22.78V167c0,16.83-8.16,25.16-24.65,25.16Z"/><path class="cls-3" d="M45.24,192.13V159.66h59q5.1,0,5.1-5.1v-9q0-5.1-5.1-5.1h-58V62.93h90.1V95.4H75.67V111H116c15.13,0,22.61,7.65,22.61,22.78V167c0,16.83-8.16,25.16-24.65,25.16Z"/><path class="cls-3" d="M45.31,192.06V159.59h59q5.1,0,5.1-5.1v-9q0-5.1-5.1-5.1h-58V62.86h90.1V95.33H75.74V111H116c15.13,0,22.61,7.65,22.61,22.78V166.9c0,16.83-8.16,25.16-24.65,25.16Z"/><path class="cls-3" d="M45.39,192V159.52h59q5.1,0,5.1-5.1v-9q0-5.1-5.1-5.1h-58V62.79h90.1V95.26H75.82V110.9h40.29c15.13,0,22.61,7.65,22.61,22.78v33.15c0,16.83-8.17,25.16-24.65,25.16Z"/><path class="cls-3" d="M45.46,191.91V159.44h59q5.1,0,5.1-5.1v-9q0-5.1-5.1-5.1h-58V62.71h90.1V95.18H75.89v15.64h40.29c15.13,0,22.61,7.65,22.61,22.78v33.15c0,16.83-8.16,25.16-24.65,25.16Z"/><path class="cls-3" d="M45.53,191.84V159.37h59q5.1,0,5.1-5.1v-9q0-5.1-5.1-5.1h-58V62.64h90.1V95.11H76v15.64h40.29c15.13,0,22.61,7.65,22.61,22.78v33.15c0,16.83-8.16,25.16-24.65,25.16Z"/><path class="cls-3" d="M45.6,191.77V159.3h59q5.1,0,5.1-5.1v-9q0-5.1-5.1-5.1h-58V62.57h90.1V95H76v15.64h40.29c15.13,0,22.61,7.65,22.61,22.78v33.15c0,16.83-8.16,25.16-24.65,25.16Z"/><path class="cls-3" d="M45.67,191.7V159.23h59q5.1,0,5.1-5.1v-9q0-5.1-5.1-5.1h-58V62.5h90.1V95H76.1v15.64h40.29c15.13,0,22.61,7.65,22.61,22.78v33.15c0,16.83-8.16,25.16-24.65,25.16Z"/><path class="cls-3" d="M45.75,191.63V159.16h59q5.1,0,5.1-5.1v-9q0-5.1-5.1-5.1h-58V62.43h90.1V94.9H76.18v15.64h40.29c15.13,0,22.61,7.65,22.61,22.78v33.15c0,16.83-8.17,25.16-24.65,25.16Z"/><path class="cls-3" d="M45.82,191.55V159.08h59q5.1,0,5.1-5.1v-9q0-5.1-5.1-5.1h-58V62.35h90.1V94.82H76.25v15.64h40.29c15.13,0,22.61,7.65,22.61,22.78v33.15c0,16.83-8.16,25.16-24.65,25.16Z"/><path class="cls-3" d="M45.89,191.48V159h59q5.1,0,5.1-5.1v-9q0-5.1-5.1-5.1h-58V62.28H137V94.75H76.32v15.64h40.29c15.13,0,22.61,7.65,22.61,22.78v33.15c0,16.83-8.16,25.16-24.65,25.16Z"/><path class="cls-3" d="M46,191.41V158.94h59q5.1,0,5.1-5.1v-9q0-5.1-5.1-5.1H47V62.21h90.1V94.68H76.39v15.64h40.29c15.13,0,22.61,7.65,22.61,22.78v33.15c0,16.83-8.16,25.16-24.65,25.16Z"/><path class="cls-3" d="M46,191.34V158.87h59q5.1,0,5.1-5.1v-9q0-5.1-5.1-5.1h-58V62.14h90.1V94.61H76.46v15.64h40.29c15.13,0,22.61,7.65,22.61,22.78v33.15c0,16.83-8.16,25.16-24.65,25.16Z"/><path class="cls-3" d="M46.11,191.27V158.8h59q5.1,0,5.1-5.1v-9q0-5.1-5.1-5.1h-58V62.07h90.1V94.54H76.54v15.64h40.29c15.13,0,22.61,7.65,22.61,22.78v33.15c0,16.83-8.17,25.16-24.65,25.16Z"/><path class="cls-3" d="M46.18,191.19V158.72h59q5.1,0,5.1-5.1v-9q0-5.1-5.1-5.1h-58V62h90.1V94.46H76.61V110.1H116.9c15.13,0,22.61,7.65,22.61,22.78V166c0,16.83-8.16,25.16-24.65,25.16Z"/><path class="cls-3" d="M46.25,191.12V158.65h59q5.1,0,5.1-5.1v-9q0-5.1-5.1-5.1h-58V61.92h90.1V94.39H76.68V110H117c15.13,0,22.61,7.65,22.61,22.78V166c0,16.83-8.16,25.16-24.65,25.16Z"/><path class="cls-3" d="M46.32,191.05V158.58h59q5.1,0,5.1-5.1v-9q0-5.1-5.1-5.1h-58V61.85h90.1V94.32H76.75V110H117c15.13,0,22.61,7.65,22.61,22.78v33.15c0,16.83-8.16,25.16-24.65,25.16Z"/><path class="cls-3" d="M46.39,191V158.51h59q5.1,0,5.1-5.1v-9q0-5.1-5.1-5.1h-58V61.78h90.1V94.25H76.82v15.64h40.29c15.13,0,22.61,7.65,22.61,22.78v33.15c0,16.83-8.16,25.16-24.65,25.16Z"/><path class="cls-3" d="M46.47,190.91V158.44h59q5.1,0,5.1-5.1v-9q0-5.1-5.1-5.1h-58V61.71h90.1V94.18H76.9v15.64h40.29c15.13,0,22.61,7.65,22.61,22.78v33.15c0,16.83-8.17,25.16-24.65,25.16Z"/><path class="cls-3" d="M46.54,190.83V158.36h59q5.1,0,5.1-5.1v-9q0-5.1-5.1-5.1h-58V61.63h90.1V94.1H77v15.64h40.29c15.13,0,22.61,7.65,22.61,22.78v33.15c0,16.83-8.16,25.16-24.65,25.16Z"/><path class="cls-3" d="M46.61,190.76V158.29h59q5.1,0,5.1-5.1v-9q0-5.1-5.1-5.1h-58V61.56h90.1V94H77v15.64h40.29c15.13,0,22.61,7.65,22.61,22.78V165.6c0,16.83-8.16,25.16-24.65,25.16Z"/><path class="cls-3" d="M46.68,190.69V158.22h59q5.1,0,5.1-5.1v-9q0-5.1-5.1-5.1h-58V61.49h90.1V94H77.11V109.6H117.4c15.13,0,22.61,7.65,22.61,22.78v33.15c0,16.83-8.16,25.16-24.65,25.16Z"/><path class="cls-3" d="M46.75,190.62V158.15h59q5.1,0,5.1-5.1v-9q0-5.1-5.1-5.1h-58V61.42h90.1V93.89H77.18v15.64h40.29c15.13,0,22.61,7.65,22.61,22.78v33.15c0,16.83-8.16,25.16-24.65,25.16Z"/><path class="cls-3" d="M46.83,190.55V158.08h59q5.1,0,5.1-5.1v-9q0-5.1-5.1-5.1h-58V61.35H138V93.82H77.26v15.64h40.29c15.13,0,22.61,7.65,22.61,22.78v33.15c0,16.83-8.17,25.16-24.65,25.16Z"/><path class="cls-3" d="M46.9,190.47V158h59q5.1,0,5.1-5.1v-9q0-5.1-5.1-5.1h-58V61.27H138V93.74H77.33v15.64h40.29c15.13,0,22.61,7.65,22.61,22.78v33.15c0,16.83-8.16,25.16-24.65,25.16Z"/><path class="cls-3" d="M47,190.4V157.93h59q5.1,0,5.1-5.1v-9q0-5.1-5.1-5.1H48V61.2h90.1V93.67H77.4v15.64h40.29c15.13,0,22.61,7.65,22.61,22.78v33.15c0,16.83-8.16,25.16-24.65,25.16Z"/><path class="cls-3" d="M47,190.33V157.86h59q5.1,0,5.1-5.1v-9q0-5.1-5.1-5.1h-58V61.13h90.1V93.6H77.47v15.64h40.29c15.13,0,22.61,7.65,22.61,22.78v33.15c0,16.83-8.16,25.16-24.65,25.16Z"/><path class="cls-3" d="M47.11,190.26V157.79h59q5.1,0,5.1-5.1v-9q0-5.1-5.1-5.1h-58V61.06h90.1V93.53H77.54v15.64h40.29c15.13,0,22.61,7.65,22.61,22.78V165.1c0,16.83-8.16,25.16-24.65,25.16Z"/><path class="cls-3" d="M47.19,190.19V157.72h59q5.1,0,5.1-5.1v-9q0-5.1-5.1-5.1h-58V61h90.1V93.46H77.62V109.1h40.29c15.13,0,22.61,7.65,22.61,22.78V165c0,16.83-8.17,25.16-24.65,25.16Z"/><path class="cls-3" d="M47.26,190.11V157.64h59q5.1,0,5.1-5.1v-9q0-5.1-5.1-5.1h-58V60.91h90.1V93.38H77.69V109H118c15.13,0,22.61,7.65,22.61,22.78V165c0,16.83-8.16,25.16-24.65,25.16Z"/><path class="cls-3" d="M47.33,190V157.57h59q5.1,0,5.1-5.1v-9q0-5.1-5.1-5.1h-58V60.84h90.1V93.31H77.76V109h40.29c15.13,0,22.61,7.65,22.61,22.78v33.15c0,16.83-8.16,25.16-24.65,25.16Z"/><path class="cls-3" d="M47.4,190V157.5h59q5.1,0,5.1-5.1v-9q0-5.1-5.1-5.1h-58V60.77h90.1V93.24H77.83v15.64h40.29c15.13,0,22.61,7.65,22.61,22.78v33.15c0,16.83-8.16,25.16-24.65,25.16Z"/><path class="cls-3" d="M47.47,189.9V157.43h59q5.1,0,5.1-5.1v-9q0-5.1-5.1-5.1h-58V60.7h90.1V93.17H77.9v15.64h40.29c15.13,0,22.61,7.65,22.61,22.78v33.15c0,16.83-8.16,25.16-24.65,25.16Z"/><path class="cls-3" d="M47.55,189.83V157.36h59q5.1,0,5.1-5.1v-9q0-5.1-5.1-5.1h-58V60.63h90.1V93.1H78v15.64h40.29c15.13,0,22.61,7.65,22.61,22.78v33.15c0,16.83-8.17,25.16-24.65,25.16Z"/><path class="cls-3" d="M47.62,189.75V157.28h59q5.1,0,5.1-5.1v-9q0-5.1-5.1-5.1h-58V60.55h90.1V93H78.05v15.64h40.29c15.13,0,22.61,7.65,22.61,22.78v33.15c0,16.83-8.16,25.16-24.65,25.16Z"/><path class="cls-3" d="M47.69,189.68V157.21h59q5.1,0,5.1-5.1v-9q0-5.1-5.1-5.1h-58V60.48h90.1V93H78.12v15.64h40.29c15.13,0,22.61,7.65,22.61,22.78v33.15c0,16.83-8.16,25.16-24.65,25.16Z"/><path class="cls-3" d="M47.76,189.61V157.14h59q5.1,0,5.1-5.1v-9q0-5.1-5.1-5.1h-58V60.41h90.1V92.88H78.19v15.64h40.29c15.13,0,22.61,7.65,22.61,22.78v33.15c0,16.83-8.16,25.16-24.65,25.16Z"/><path class="cls-3" d="M47.83,189.54V157.07h59q5.1,0,5.1-5.1v-9q0-5.1-5.1-5.1h-58V60.34H139V92.81H78.26v15.64h40.29c15.13,0,22.61,7.65,22.61,22.78v33.15c0,16.83-8.16,25.16-24.65,25.16Z"/><path class="cls-3" d="M47.91,189.47V157h59q5.1,0,5.1-5.1v-9q0-5.1-5.1-5.1h-58V60.27H139V92.74H78.34v15.64h40.29c15.13,0,22.61,7.65,22.61,22.78v33.15c0,16.83-8.17,25.16-24.65,25.16Z"/><path class="cls-3" d="M48,189.39V156.92h59q5.1,0,5.1-5.1v-9q0-5.1-5.1-5.1H49V60.19h90.1V92.66H78.41V108.3H118.7c15.13,0,22.61,7.65,22.61,22.78v33.15c0,16.83-8.16,25.16-24.65,25.16Z"/><path class="cls-3" d="M48.05,189.32V156.85h59q5.1,0,5.1-5.1v-9q0-5.1-5.1-5.1h-58V60.12h90.1V92.59H78.48v15.64h40.29c15.13,0,22.61,7.65,22.61,22.78v33.15c0,16.83-8.16,25.16-24.65,25.16Z"/><path class="cls-3" d="M48.12,189.25V156.78h59q5.1,0,5.1-5.1v-9q0-5.1-5.1-5.1h-58V60.05h90.1V92.52H78.55v15.64h40.29c15.13,0,22.61,7.65,22.61,22.78v33.15c0,16.83-8.16,25.16-24.65,25.16Z"/><path class="cls-3" d="M48.19,189.18V156.71h59q5.1,0,5.1-5.1v-9q0-5.1-5.1-5.1h-58V60h90.1V92.45H78.62v15.64h40.29c15.13,0,22.61,7.65,22.61,22.78V164c0,16.83-8.16,25.16-24.65,25.16Z"/><path class="cls-3" d="M48.27,189.11V156.64h59q5.1,0,5.1-5.1v-9q0-5.1-5.1-5.1h-58V59.91h90.1V92.38H78.7V108H119c15.13,0,22.61,7.65,22.61,22.78V164c0,16.83-8.17,25.16-24.65,25.16Z"/><path class="cls-3" d="M48.34,189V156.56h59q5.1,0,5.1-5.1v-9q0-5.1-5.1-5.1h-58V59.83h90.1V92.3H78.77v15.64h40.29c15.13,0,22.61,7.65,22.61,22.78v33.15c0,16.83-8.16,25.16-24.65,25.16Z"/><path class="cls-3" d="M48.41,189V156.49h59q5.1,0,5.1-5.1v-9q0-5.1-5.1-5.1h-58V59.76h90.1V92.23H78.84v15.64h40.29c15.13,0,22.61,7.65,22.61,22.78V163.8c0,16.83-8.16,25.16-24.65,25.16Z"/><path class="cls-3" d="M48.48,188.89V156.42h59q5.1,0,5.1-5.1v-9q0-5.1-5.1-5.1h-58V59.69h90.1V92.16H78.91V107.8H119.2c15.13,0,22.61,7.65,22.61,22.78v33.15c0,16.83-8.16,25.16-24.65,25.16Z"/><path class="cls-3" d="M48.55,188.82V156.35h59q5.1,0,5.1-5.1v-9q0-5.1-5.1-5.1h-58V59.62h90.1V92.09H79v15.64h40.29c15.13,0,22.61,7.65,22.61,22.78v33.15c0,16.83-8.16,25.16-24.65,25.16Z"/><path class="cls-3" d="M48.63,188.75V156.28h59q5.1,0,5.1-5.1v-9q0-5.1-5.1-5.1h-58V59.55h90.1V92H79.06v15.64h40.29c15.13,0,22.61,7.65,22.61,22.78v33.15c0,16.83-8.17,25.16-24.65,25.16Z"/><path class="cls-3" d="M48.7,188.67V156.2h59q5.1,0,5.1-5.1v-9q0-5.1-5.1-5.1h-58V59.47h90.1V91.94H79.13v15.64h40.29c15.13,0,22.61,7.65,22.61,22.78v33.15c0,16.83-8.16,25.16-24.65,25.16Z"/><path class="cls-3" d="M48.77,188.6V156.13h59q5.1,0,5.1-5.1v-9q0-5.1-5.1-5.1h-58V59.4h90.1V91.87H79.2v15.64h40.29c15.13,0,22.61,7.65,22.61,22.78v33.15c0,16.83-8.16,25.16-24.65,25.16Z"/><path class="cls-3" d="M48.84,188.53V156.06h59q5.1,0,5.1-5.1v-9q0-5.1-5.1-5.1h-58V59.33H140V91.8H79.27v15.64h40.29c15.13,0,22.61,7.65,22.61,22.78v33.15c0,16.83-8.16,25.16-24.65,25.16Z"/><path class="cls-3" d="M48.91,188.46V156h59q5.1,0,5.1-5.1v-9q0-5.1-5.1-5.1h-58V59.26H140V91.73H79.34v15.64h40.29c15.13,0,22.61,7.65,22.61,22.78V163.3c0,16.83-8.16,25.16-24.65,25.16Z"/><path class="cls-3" d="M49,188.39V155.92h59q5.1,0,5.1-5.1v-9q0-5.1-5.1-5.1H50V59.19h90.1V91.66H79.42V107.3h40.29c15.13,0,22.61,7.65,22.61,22.78v33.15c0,16.83-8.17,25.16-24.65,25.16Z"/><path class="cls-3" d="M49.06,188.31V155.84h59q5.1,0,5.1-5.1v-9q0-5.1-5.1-5.1h-58V59.11h90.1V91.58H79.49v15.64h40.29c15.13,0,22.61,7.65,22.61,22.78v33.15c0,16.83-8.16,25.16-24.65,25.16Z"/><path class="cls-3" d="M49.13,188.24V155.77h59q5.1,0,5.1-5.1v-9q0-5.1-5.1-5.1h-58V59h90.1V91.51H79.56v15.64h40.29c15.13,0,22.61,7.65,22.61,22.78v33.15c0,16.83-8.16,25.16-24.65,25.16Z"/><path class="cls-3" d="M49.2,188.17V155.7h59q5.1,0,5.1-5.1v-9q0-5.1-5.1-5.1h-58V59h90.1V91.44H79.63v15.64h40.29c15.13,0,22.61,7.65,22.61,22.78V163c0,16.83-8.16,25.16-24.65,25.16Z"/><path class="cls-3" d="M49.27,188.1V155.63h59q5.1,0,5.1-5.1v-9q0-5.1-5.1-5.1h-58V58.9h90.1V91.37H79.7V107H120c15.13,0,22.61,7.65,22.61,22.78v33.15c0,16.83-8.16,25.16-24.65,25.16Z"/><path class="cls-3" d="M49.35,188V155.56h59q5.1,0,5.1-5.1v-9q0-5.1-5.1-5.1h-58V58.83h90.1V91.3H79.78v15.64h40.29c15.13,0,22.61,7.65,22.61,22.78v33.15c0,16.83-8.17,25.16-24.65,25.16Z"/><path class="cls-3" d="M49.42,188V155.48h59q5.1,0,5.1-5.1v-9q0-5.1-5.1-5.1h-58V58.75h90.1V91.22H79.85v15.64h40.29c15.13,0,22.61,7.65,22.61,22.78v33.15c0,16.83-8.16,25.16-24.65,25.16Z"/><path class="cls-3" d="M49.49,187.88V155.41h59q5.1,0,5.1-5.1v-9q0-5.1-5.1-5.1h-58V58.68h90.1V91.15H79.92v15.64h40.29c15.13,0,22.61,7.65,22.61,22.78v33.15c0,16.83-8.16,25.16-24.65,25.16Z"/><path class="cls-3" d="M49.56,187.81V155.34h59q5.1,0,5.1-5.1v-9q0-5.1-5.1-5.1h-58V58.61h90.1V91.08H80v15.64h40.29c15.13,0,22.61,7.65,22.61,22.78v33.15c0,16.83-8.16,25.16-24.65,25.16Z"/><path class="cls-3" d="M49.63,187.74V155.27h59q5.1,0,5.1-5.1v-9q0-5.1-5.1-5.1h-58V58.54h90.1V91H80.06v15.64h40.29c15.13,0,22.61,7.65,22.61,22.78v33.15c0,16.83-8.16,25.16-24.65,25.16Z"/><path class="cls-3" d="M49.71,187.67V155.2h59q5.1,0,5.1-5.1v-9q0-5.1-5.1-5.1h-58V58.47h90.1V90.94H80.14v15.64h40.29c15.13,0,22.61,7.65,22.61,22.78v33.15c0,16.83-8.17,25.16-24.65,25.16Z"/><path class="cls-3" d="M49.78,187.59V155.12h59q5.1,0,5.1-5.1v-9q0-5.1-5.1-5.1h-58V58.39h90.1V90.86H80.21V106.5H120.5c15.13,0,22.61,7.65,22.61,22.78v33.15c0,16.83-8.16,25.16-24.65,25.16Z"/><path class="cls-3" d="M49.85,187.52V155.05h59q5.1,0,5.1-5.1v-9q0-5.1-5.1-5.1h-58V58.32H141V90.79H80.28v15.64h40.29c15.13,0,22.61,7.65,22.61,22.78v33.15c0,16.83-8.16,25.16-24.65,25.16Z"/><path class="cls-3" d="M49.92,187.45V155h59q5.1,0,5.1-5.1v-9q0-5.1-5.1-5.1h-58V58.25H141V90.72H80.35v15.64h40.29c15.13,0,22.61,7.65,22.61,22.78v33.15c0,16.83-8.16,25.16-24.65,25.16Z"/><path class="cls-3" d="M50,187.38V154.91h59q5.1,0,5.1-5.1v-9q0-5.1-5.1-5.1H51V58.18h90.1V90.65H80.42v15.64h40.29c15.13,0,22.61,7.65,22.61,22.78v33.15c0,16.83-8.16,25.16-24.65,25.16Z"/><path class="cls-3" d="M50.07,187.31V154.84h59q5.1,0,5.1-5.1v-9q0-5.1-5.1-5.1h-58V58.11h90.1V90.58H80.5v15.64h40.29c15.13,0,22.61,7.65,22.61,22.78v33.15c0,16.83-8.17,25.16-24.65,25.16Z"/><path class="cls-3" d="M50.14,187.23V154.76h59q5.1,0,5.1-5.1v-9q0-5.1-5.1-5.1h-58V58h90.1V90.5H80.57v15.64h40.29c15.13,0,22.61,7.65,22.61,22.78v33.15c0,16.83-8.16,25.16-24.65,25.16Z"/><path class="cls-3" d="M50.21,187.16V154.69h59q5.1,0,5.1-5.1v-9q0-5.1-5.1-5.1h-58V58h90.1V90.43H80.64v15.64h40.29c15.13,0,22.61,7.65,22.61,22.78V162c0,16.83-8.16,25.16-24.65,25.16Z"/><path class="cls-3" d="M50.28,187.09V154.62h59q5.1,0,5.1-5.1v-9q0-5.1-5.1-5.1h-58V57.89h90.1V90.36H80.71V106H121c15.13,0,22.61,7.65,22.61,22.78v33.15c0,16.83-8.16,25.16-24.65,25.16Z"/><path class="cls-3" d="M50.35,187V154.55h59q5.1,0,5.1-5.1v-9q0-5.1-5.1-5.1h-58V57.82h90.1V90.29H80.78v15.64h40.29c15.13,0,22.61,7.65,22.61,22.78v33.15c0,16.83-8.16,25.16-24.65,25.16Z"/><path class="cls-3" d="M50.43,187V154.48h59q5.1,0,5.1-5.1v-9q0-5.1-5.1-5.1h-58V57.75h90.1V90.22H80.86v15.64h40.29c15.13,0,22.61,7.65,22.61,22.78v33.15c0,16.83-8.17,25.16-24.65,25.16Z"/><path class="cls-3" d="M50.5,186.87V154.4h59q5.1,0,5.1-5.1v-9q0-5.1-5.1-5.1h-58V57.67h90.1V90.14H80.93v15.64h40.29c15.13,0,22.61,7.65,22.61,22.78v33.15c0,16.83-8.16,25.16-24.65,25.16Z"/><path class="cls-3" d="M50.57,186.8V154.33h59q5.1,0,5.1-5.1v-9q0-5.1-5.1-5.1h-58V57.6h90.1V90.07H81v15.64h40.29c15.13,0,22.61,7.65,22.61,22.78v33.15c0,16.83-8.16,25.16-24.65,25.16Z"/><path class="cls-3" d="M50.64,186.73V154.26h59q5.1,0,5.1-5.1v-9q0-5.1-5.1-5.1h-58V57.53h90.1V90H81.07v15.64h40.29c15.13,0,22.61,7.65,22.61,22.78v33.15c0,16.83-8.16,25.16-24.65,25.16Z"/><path class="cls-3" d="M50.71,186.66V154.19h59q5.1,0,5.1-5.1v-9q0-5.1-5.1-5.1h-58V57.46h90.1V89.93H81.14v15.64h40.29c15.13,0,22.61,7.65,22.61,22.78V161.5c0,16.83-8.16,25.16-24.65,25.16Z"/><path class="cls-3" d="M50.79,186.59V154.12h59q5.1,0,5.1-5.1v-9q0-5.1-5.1-5.1h-58V57.39h90.1V89.86H81.22V105.5h40.29c15.13,0,22.61,7.65,22.61,22.78v33.15c0,16.83-8.17,25.16-24.65,25.16Z"/><path class="cls-3" d="M50.86,186.51V154h59q5.1,0,5.1-5.1v-9q0-5.1-5.1-5.1h-58V57.31H142V89.78H81.29v15.64h40.29c15.13,0,22.61,7.65,22.61,22.78v33.15c0,16.83-8.16,25.16-24.65,25.16Z"/><path class="cls-3" d="M50.93,186.44V154h59q5.1,0,5.1-5.1v-9q0-5.1-5.1-5.1H52V57.24h90.1V89.71H81.36v15.64h40.29c15.13,0,22.61,7.65,22.61,22.78v33.15c0,16.83-8.16,25.16-24.65,25.16Z"/><path class="cls-3" d="M51,186.37V153.9h59q5.1,0,5.1-5.1v-9q0-5.1-5.1-5.1H52V57.17h90.1V89.64H81.43v15.64h40.29c15.13,0,22.61,7.65,22.61,22.78v33.15c0,16.83-8.16,25.16-24.65,25.16Z"/></g></svg>