<svg xmlns="http://www.w3.org/2000/svg" viewBox="0 0 180 252"><defs><style>.cls-1{fill:#f7f7f7;}.cls-2{fill:#3d95ba;stroke:#354e73;stroke-width:2px;}.cls-2,.cls-3{stroke-miterlimit:10;}.cls-3{fill:#3e95ba;stroke:#344e73;stroke-width:4px;}</style></defs><g id="_7" data-name="7"><rect class="cls-1" width="180" height="252" rx="9.92"/><path class="cls-2" d="M12.59,42.56,22.73,21.5H10.85V14.43H31.91v4.78L21,42.56Z"/><path class="cls-2" d="M150.37,42.56,160.51,21.5H148.63V14.43h21.05v4.78L158.8,42.56Z"/><path class="cls-2" d="M169.41,209.44,159.27,230.5h11.88v7.07H150.09v-4.78L161,209.44Z"/><path class="cls-2" d="M31.63,209.44,21.49,230.5H33.37v7.07h-21v-4.78L23.2,209.44Z"/><path class="cls-3" d="M45.58,197.17l46.58-96.73H37.59V68h96.73V89.9l-50,107.27Z"/><path class="cls-3" d="M45.65,197.1l46.58-96.73H37.66V67.9h96.73V89.83l-50,107.27Z"/><path class="cls-3" d="M45.72,197,92.3,100.3H37.73V67.83h96.73V89.76L84.48,197Z"/><path class="cls-3" d="M45.79,197l46.58-96.73H37.8V67.75h96.73V89.68L84.55,197Z"/><path class="cls-3" d="M45.87,196.88l46.58-96.73H37.88V67.68h96.73V89.61l-50,107.27Z"/><path class="cls-3" d="M45.94,196.81l46.58-96.73H38V67.61h96.73V89.54l-50,107.27Z"/><path class="cls-3" d="M46,196.74,92.59,100H38V67.54h96.73V89.47l-50,107.27Z"/><path class="cls-3" d="M46.08,196.67,92.66,99.94H38.09V67.47h96.73V89.4l-50,107.27Z"/><path class="cls-3" d="M46.15,196.59,92.73,99.86H38.16V67.39h96.73V89.32l-50,107.27Z"/><path class="cls-3" d="M46.23,196.52,92.81,99.79H38.24V67.32H135V89.25L85,196.52Z"/><path class="cls-3" d="M46.3,196.45,92.88,99.72H38.31V67.25H135V89.18l-50,107.27Z"/><path class="cls-3" d="M46.37,196.38,93,99.65H38.38V67.18h96.73V89.11l-50,107.27Z"/><path class="cls-3" d="M46.44,196.31,93,99.58H38.45V67.11h96.73V89l-50,107.27Z"/><path class="cls-3" d="M46.51,196.23,93.09,99.5H38.52V67h96.73V89l-50,107.27Z"/><path class="cls-3" d="M46.59,196.16,93.17,99.43H38.6V67h96.73V88.89l-50,107.27Z"/><path class="cls-3" d="M46.66,196.09,93.24,99.36H38.67V66.89H135.4V88.82l-50,107.27Z"/><path class="cls-3" d="M46.73,196,93.31,99.29H38.74V66.82h96.73V88.75L85.49,196Z"/><path class="cls-3" d="M46.8,196,93.38,99.22H38.81V66.75h96.73V88.68L85.56,196Z"/><path class="cls-3" d="M46.87,195.87,93.45,99.14H38.88V66.67h96.73V88.6l-50,107.27Z"/><path class="cls-3" d="M47,195.8,93.53,99.07H39V66.6h96.73V88.53l-50,107.27Z"/><path class="cls-3" d="M47,195.73,93.6,99H39V66.53h96.73V88.46l-50,107.27Z"/><path class="cls-3" d="M47.09,195.66,93.67,98.93H39.1V66.46h96.73V88.39l-50,107.27Z"/><path class="cls-3" d="M47.16,195.59,93.74,98.86H39.17V66.39H135.9V88.32l-50,107.27Z"/><path class="cls-3" d="M47.23,195.51,93.81,98.78H39.24V66.31H136V88.24L86,195.51Z"/><path class="cls-3" d="M47.31,195.44,93.89,98.71H39.32V66.24h96.73V88.17l-50,107.27Z"/><path class="cls-3" d="M47.38,195.37,94,98.64H39.39V66.17h96.73V88.1l-50,107.27Z"/><path class="cls-3" d="M47.45,195.3,94,98.57H39.46V66.1h96.73V88l-50,107.27Z"/><path class="cls-3" d="M47.52,195.23,94.1,98.5H39.53V66h96.73V88l-50,107.27Z"/><path class="cls-3" d="M47.59,195.15,94.17,98.42H39.6V66h96.73V87.88l-50,107.27Z"/><path class="cls-3" d="M47.67,195.08,94.25,98.35H39.68V65.88h96.73V87.81l-50,107.27Z"/><path class="cls-3" d="M47.74,195,94.32,98.28H39.75V65.81h96.73V87.74L86.5,195Z"/><path class="cls-3" d="M47.81,194.94,94.39,98.21H39.82V65.74h96.73V87.67l-50,107.27Z"/><path class="cls-3" d="M47.88,194.87,94.46,98.14H39.89V65.67h96.73V87.6l-50,107.27Z"/><path class="cls-3" d="M48,194.79,94.53,98.06H40V65.59h96.73V87.52l-50,107.27Z"/><path class="cls-3" d="M48,194.72,94.61,98H40V65.52h96.73V87.45l-50,107.27Z"/><path class="cls-3" d="M48.1,194.65,94.68,97.92H40.11V65.45h96.73V87.38l-50,107.27Z"/><path class="cls-3" d="M48.17,194.58,94.75,97.85H40.18V65.38h96.73V87.31l-50,107.27Z"/><path class="cls-3" d="M48.24,194.51,94.82,97.78H40.25V65.31H137V87.24L87,194.51Z"/><path class="cls-3" d="M48.31,194.43,94.89,97.7H40.32V65.23h96.73V87.16l-50,107.27Z"/><path class="cls-3" d="M48.39,194.36,95,97.63H40.4V65.16h96.73V87.09l-50,107.27Z"/><path class="cls-3" d="M48.46,194.29,95,97.56H40.47V65.09H137.2V87l-50,107.27Z"/><path class="cls-3" d="M48.53,194.22,95.11,97.49H40.54V65h96.73V87l-50,107.27Z"/><path class="cls-3" d="M48.6,194.15,95.18,97.42H40.61V65h96.73V86.88l-50,107.27Z"/><path class="cls-3" d="M48.67,194.07,95.25,97.34H40.68V64.87h96.73V86.8l-50,107.27Z"/><path class="cls-3" d="M48.75,194,95.33,97.27H40.76V64.8h96.73V86.73L87.51,194Z"/><path class="cls-3" d="M48.82,193.93,95.4,97.2H40.83V64.73h96.73V86.66l-50,107.27Z"/><path class="cls-3" d="M48.89,193.86,95.47,97.13H40.9V64.66h96.73V86.59l-50,107.27Z"/><path class="cls-3" d="M49,193.79,95.54,97.06H41V64.59H137.7V86.52l-50,107.27Z"/><path class="cls-3" d="M49,193.71,95.61,97H41V64.51h96.73V86.44l-50,107.27Z"/><path class="cls-3" d="M49.11,193.64,95.69,96.91H41.12V64.44h96.73V86.37l-50,107.27Z"/><path class="cls-3" d="M49.18,193.57,95.76,96.84H41.19V64.37h96.73V86.3l-50,107.27Z"/><path class="cls-3" d="M49.25,193.5,95.83,96.77H41.26V64.3H138V86.23L88,193.5Z"/><path class="cls-3" d="M49.32,193.43,95.9,96.7H41.33V64.23h96.73V86.16l-50,107.27Z"/><path class="cls-3" d="M49.39,193.35,96,96.62H41.4V64.15h96.73V86.08l-50,107.27Z"/><path class="cls-3" d="M49.47,193.28,96.05,96.55H41.48V64.08h96.73V86l-50,107.27Z"/><path class="cls-3" d="M49.54,193.21,96.12,96.48H41.55V64h96.73V85.94l-50,107.27Z"/><path class="cls-3" d="M49.61,193.14,96.19,96.41H41.62V63.94h96.73V85.87l-50,107.27Z"/><path class="cls-3" d="M49.68,193.07,96.26,96.34H41.69V63.87h96.73V85.8l-50,107.27Z"/><path class="cls-3" d="M49.75,193,96.33,96.26H41.76V63.79h96.73V85.72L88.51,193Z"/><path class="cls-3" d="M49.83,192.92,96.41,96.19H41.84V63.72h96.73V85.65l-50,107.27Z"/><path class="cls-3" d="M49.9,192.85,96.48,96.12H41.91V63.65h96.73V85.58l-50,107.27Z"/><path class="cls-3" d="M50,192.78,96.55,96.05H42V63.58h96.73V85.51l-50,107.27Z"/><path class="cls-3" d="M50,192.71,96.62,96H42.05V63.51h96.73V85.44l-50,107.27Z"/><path class="cls-3" d="M50.11,192.63,96.69,95.9H42.12V63.43h96.73V85.36l-50,107.27Z"/><path class="cls-3" d="M50.19,192.56,96.77,95.83H42.2V63.36h96.73V85.29L89,192.56Z"/><path class="cls-3" d="M50.26,192.49,96.84,95.76H42.27V63.29H139V85.22L89,192.49Z"/><path class="cls-3" d="M50.33,192.42,96.91,95.69H42.34V63.22h96.73V85.15l-50,107.27Z"/><path class="cls-3" d="M50.4,192.35,97,95.62H42.41V63.15h96.73V85.08l-50,107.27Z"/><path class="cls-3" d="M50.47,192.27,97.05,95.54H42.48V63.07h96.73V85l-50,107.27Z"/><path class="cls-3" d="M50.55,192.2,97.13,95.47H42.56V63h96.73V84.93l-50,107.27Z"/><path class="cls-3" d="M50.62,192.13,97.2,95.4H42.63V62.93h96.73V84.86l-50,107.27Z"/><path class="cls-3" d="M50.69,192.06,97.27,95.33H42.7V62.86h96.73V84.79l-50,107.27Z"/><path class="cls-3" d="M50.76,192,97.34,95.26H42.77V62.79H139.5V84.72L89.52,192Z"/><path class="cls-3" d="M50.83,191.91,97.41,95.18H42.84V62.71h96.73V84.64l-50,107.27Z"/><path class="cls-3" d="M50.91,191.84,97.49,95.11H42.92V62.64h96.73V84.57l-50,107.27Z"/><path class="cls-3" d="M51,191.77,97.56,95H43V62.57h96.73V84.5l-50,107.27Z"/><path class="cls-3" d="M51.05,191.7,97.63,95H43.06V62.5h96.73V84.43l-50,107.27Z"/><path class="cls-3" d="M51.12,191.63,97.7,94.9H43.13V62.43h96.73V84.36l-50,107.27Z"/><path class="cls-3" d="M51.19,191.55,97.77,94.82H43.2V62.35h96.73V84.28L90,191.55Z"/><path class="cls-3" d="M51.27,191.48,97.85,94.75H43.28V62.28H140V84.21L90,191.48Z"/><path class="cls-3" d="M51.34,191.41,97.92,94.68H43.35V62.21h96.73V84.14l-50,107.27Z"/><path class="cls-3" d="M51.41,191.34,98,94.61H43.42V62.14h96.73V84.07l-50,107.27Z"/><path class="cls-3" d="M51.48,191.27,98.06,94.54H43.49V62.07h96.73V84l-50,107.27Z"/><path class="cls-3" d="M51.55,191.19,98.13,94.46H43.56V62h96.73V83.92l-50,107.27Z"/><path class="cls-3" d="M51.63,191.12,98.21,94.39H43.64V61.92h96.73V83.85l-50,107.27Z"/><path class="cls-3" d="M51.7,191.05,98.28,94.32H43.71V61.85h96.73V83.78l-50,107.27Z"/><path class="cls-3" d="M51.77,191,98.35,94.25H43.78V61.78h96.73V83.71L90.53,191Z"/><path class="cls-3" d="M51.84,190.91,98.42,94.18H43.85V61.71h96.73V83.64l-50,107.27Z"/><path class="cls-3" d="M51.91,190.83,98.49,94.1H43.92V61.63h96.73V83.56l-50,107.27Z"/><path class="cls-3" d="M52,190.76,98.57,94H44V61.56h96.73V83.49l-50,107.27Z"/><path class="cls-3" d="M52.06,190.69,98.64,94H44.07V61.49H140.8V83.42l-50,107.27Z"/><path class="cls-3" d="M52.13,190.62,98.71,93.89H44.14V61.42h96.73V83.35l-50,107.27Z"/><path class="cls-3" d="M52.2,190.55,98.78,93.82H44.21V61.35h96.73V83.28L91,190.55Z"/><path class="cls-3" d="M52.27,190.47,98.85,93.74H44.28V61.27H141V83.2L91,190.47Z"/><path class="cls-3" d="M52.35,190.4,98.93,93.67H44.36V61.2h96.73V83.13l-50,107.27Z"/><path class="cls-3" d="M52.42,190.33,99,93.6H44.43V61.13h96.73V83.06l-50,107.27Z"/><path class="cls-3" d="M52.49,190.26,99.07,93.53H44.5V61.06h96.73V83l-50,107.27Z"/><path class="cls-3" d="M52.56,190.19,99.14,93.46H44.57V61H141.3V82.92l-50,107.27Z"/><path class="cls-3" d="M52.63,190.11,99.21,93.38H44.64V60.91h96.73V82.84l-50,107.27Z"/><path class="cls-3" d="M52.71,190,99.29,93.31H44.72V60.84h96.73V82.77L91.47,190Z"/><path class="cls-3" d="M52.78,190,99.36,93.24H44.79V60.77h96.73V82.7L91.54,190Z"/><path class="cls-3" d="M52.85,189.9,99.43,93.17H44.86V60.7h96.73V82.63l-50,107.27Z"/><path class="cls-3" d="M52.92,189.83,99.5,93.1H44.93V60.63h96.73V82.56l-50,107.27Z"/><path class="cls-3" d="M53,189.75,99.57,93H45V60.55h96.73V82.48l-50,107.27Z"/><path class="cls-3" d="M53.07,189.68,99.65,93H45.08V60.48h96.73V82.41l-50,107.27Z"/><path class="cls-3" d="M53.14,189.61,99.72,92.88H45.15V60.41h96.73V82.34l-50,107.27Z"/><path class="cls-3" d="M53.21,189.54,99.79,92.81H45.22V60.34H142V82.27L92,189.54Z"/><path class="cls-3" d="M53.28,189.47,99.86,92.74H45.29V60.27H142V82.2L92,189.47Z"/><path class="cls-3" d="M53.35,189.39,99.93,92.66H45.36V60.19h96.73V82.12l-50,107.27Z"/><path class="cls-3" d="M53.43,189.32,100,92.59H45.44V60.12h96.73V82.05l-50,107.27Z"/><path class="cls-3" d="M53.5,189.25l46.58-96.73H45.51V60.05h96.73V82l-50,107.27Z"/><path class="cls-3" d="M53.57,189.18l46.58-96.73H45.58V60h96.73V81.91l-50,107.27Z"/><path class="cls-3" d="M53.64,189.11l46.58-96.73H45.65V59.91h96.73V81.84l-50,107.27Z"/><path class="cls-3" d="M53.71,189,100.29,92.3H45.72V59.83h96.73V81.76L92.47,189Z"/><path class="cls-3" d="M53.79,189l46.58-96.73H45.8V59.76h96.73V81.69L92.55,189Z"/><path class="cls-3" d="M53.86,188.89l46.58-96.73H45.87V59.69H142.6V81.62l-50,107.27Z"/><path class="cls-3" d="M53.93,188.82l46.58-96.73H45.94V59.62h96.73V81.55l-50,107.27Z"/><path class="cls-3" d="M54,188.75,100.58,92H46V59.55h96.73V81.48l-50,107.27Z"/><path class="cls-3" d="M54.07,188.67l46.58-96.73H46.08V59.47h96.73V81.4l-50,107.27Z"/><path class="cls-3" d="M54.15,188.6l46.58-96.73H46.16V59.4h96.73V81.33l-50,107.27Z"/><path class="cls-3" d="M54.22,188.53,100.8,91.8H46.23V59.33H143V81.26L93,188.53Z"/><path class="cls-3" d="M54.29,188.46l46.58-96.73H46.3V59.26H143V81.19l-50,107.27Z"/><path class="cls-3" d="M54.36,188.39l46.58-96.73H46.37V59.19H143.1V81.12l-50,107.27Z"/><path class="cls-3" d="M54.43,188.31,101,91.58H46.44V59.11h96.73V81l-50,107.27Z"/><path class="cls-3" d="M54.51,188.24l46.58-96.73H46.52V59h96.73V81l-50,107.27Z"/><path class="cls-3" d="M54.58,188.17l46.58-96.73H46.59V59h96.73V80.9l-50,107.27Z"/><path class="cls-3" d="M54.65,188.1l46.58-96.73H46.66V58.9h96.73V80.83l-50,107.27Z"/><path class="cls-3" d="M54.72,188,101.3,91.3H46.73V58.83h96.73V80.76L93.48,188Z"/><path class="cls-3" d="M54.79,188l46.58-96.73H46.8V58.75h96.73V80.68L93.55,188Z"/><path class="cls-3" d="M54.87,187.88l46.58-96.73H46.88V58.68h96.73V80.61l-50,107.27Z"/><path class="cls-3" d="M54.94,187.81l46.58-96.73H47V58.61h96.73V80.54l-50,107.27Z"/><path class="cls-3" d="M55,187.74,101.59,91H47V58.54h96.73V80.47l-50,107.27Z"/><path class="cls-3" d="M55.08,187.67l46.58-96.73H47.09V58.47h96.73V80.4l-50,107.27Z"/><path class="cls-3" d="M55.15,187.59l46.58-96.73H47.16V58.39h96.73V80.32l-50,107.27Z"/><path class="cls-3" d="M55.23,187.52l46.58-96.73H47.24V58.32H144V80.25L94,187.52Z"/><path class="cls-3" d="M55.3,187.45l46.58-96.73H47.31V58.25H144V80.18l-50,107.27Z"/><path class="cls-3" d="M55.37,187.38,102,90.65H47.38V58.18h96.73V80.11l-50,107.27Z"/><path class="cls-3" d="M55.44,187.31,102,90.58H47.45V58.11h96.73V80l-50,107.27Z"/><path class="cls-3" d="M55.51,187.23,102.09,90.5H47.52V58h96.73V80l-50,107.27Z"/><path class="cls-3" d="M55.59,187.16l46.58-96.73H47.6V58h96.73V79.89l-50,107.27Z"/><path class="cls-3" d="M55.66,187.09l46.58-96.73H47.67V57.89H144.4V79.82l-50,107.27Z"/><path class="cls-3" d="M55.73,187l46.58-96.73H47.74V57.82h96.73V79.75L94.49,187Z"/><path class="cls-3" d="M55.8,187l46.58-96.73H47.81V57.75h96.73V79.68L94.56,187Z"/><path class="cls-3" d="M55.87,186.87l46.58-96.73H47.88V57.67h96.73V79.6l-50,107.27Z"/><path class="cls-3" d="M56,186.8l46.58-96.73H48V57.6h96.73V79.53l-50,107.27Z"/><path class="cls-3" d="M56,186.73,102.6,90H48V57.53h96.73V79.46l-50,107.27Z"/><path class="cls-3" d="M56.09,186.66l46.58-96.73H48.1V57.46h96.73V79.39l-50,107.27Z"/><path class="cls-3" d="M56.16,186.59l46.58-96.73H48.17V57.39H144.9V79.32l-50,107.27Z"/><path class="cls-3" d="M56.23,186.51l46.58-96.73H48.24V57.31H145V79.24L95,186.51Z"/><path class="cls-3" d="M56.31,186.44l46.58-96.73H48.32V57.24h96.73V79.17l-50,107.27Z"/><path class="cls-3" d="M56.38,186.37,103,89.64H48.39V57.17h96.73V79.1l-50,107.27Z"/></g></svg>