<svg xmlns="http://www.w3.org/2000/svg" viewBox="0 0 180 252"><defs><style>.cls-1{fill:#f7f7f7;}.cls-2,.cls-3{fill:#f6c22d;stroke:#b77731;stroke-miterlimit:2;}.cls-2{stroke-width:2px;}.cls-3{stroke-width:4px;}</style></defs><g id="Card"><rect class="cls-1" width="180" height="252" rx="9.92"/></g><g id="_8" data-name="8"><path class="cls-2" d="M15.66,42.56c-3.37,0-5.07-1.74-5.07-5.22V32.53a3.66,3.66,0,0,1,3.18-4c-2.11-.37-3.1-1.81-3.1-4.36V19.69c0-3.52,1.7-5.26,5.06-5.26H25.8c3.4,0,5.11,1.74,5.11,5.26v4.44c0,2.55-1,4-3.11,4.36a3.66,3.66,0,0,1,3.18,4v4.81q0,5.22-5.11,5.22Zm9-20.13a1,1,0,0,0-1.12-1.11H18.07A1,1,0,0,0,17,22.43v2.22a1,1,0,0,0,1.11,1.14H23.5a1,1,0,0,0,1.12-1.14Zm0,9.88A1,1,0,0,0,23.5,31.2H18.07A1,1,0,0,0,17,32.31v2.25a1,1,0,0,0,1.11,1.11H23.5a1,1,0,0,0,1.12-1.11Z"/><path class="cls-2" d="M153.44,42.56c-3.37,0-5.07-1.74-5.07-5.22V32.53a3.66,3.66,0,0,1,3.18-4c-2.11-.37-3.11-1.81-3.11-4.36V19.69c0-3.52,1.7-5.26,5.07-5.26h10.07c3.4,0,5.1,1.74,5.1,5.26v4.44c0,2.55-1,4-3.11,4.36a3.67,3.67,0,0,1,3.19,4v4.81c0,3.48-1.71,5.22-5.11,5.22Zm8.95-20.13a1,1,0,0,0-1.11-1.11h-5.44a1,1,0,0,0-1.11,1.11v2.22a1,1,0,0,0,1.11,1.14h5.44a1,1,0,0,0,1.11-1.14Zm0,9.88a1,1,0,0,0-1.11-1.11h-5.44a1,1,0,0,0-1.11,1.11v2.25a1,1,0,0,0,1.11,1.11h5.44a1,1,0,0,0,1.11-1.11Z"/><path class="cls-2" d="M164.34,209.44c3.37,0,5.07,1.74,5.07,5.22v4.81a3.66,3.66,0,0,1-3.18,4c2.11.37,3.1,1.81,3.1,4.36v4.44c0,3.52-1.7,5.26-5.06,5.26H154.2c-3.4,0-5.11-1.74-5.11-5.26v-4.44c0-2.55,1-4,3.11-4.36a3.66,3.66,0,0,1-3.18-4v-4.81q0-5.22,5.11-5.22Zm-9,10.25a1,1,0,0,0,1.12,1.11h5.43a1,1,0,0,0,1.11-1.11v-2.25a1,1,0,0,0-1.11-1.11H156.5a1,1,0,0,0-1.12,1.11Zm0,9.88a1,1,0,0,0,1.12,1.11h5.43a1,1,0,0,0,1.11-1.11v-2.22a1,1,0,0,0-1.11-1.14H156.5a1,1,0,0,0-1.12,1.14Z"/><path class="cls-2" d="M26.56,209.44c3.37,0,5.07,1.74,5.07,5.22v4.81a3.66,3.66,0,0,1-3.18,4c2.11.37,3.11,1.81,3.11,4.36v4.44c0,3.52-1.7,5.26-5.07,5.26H16.42c-3.4,0-5.1-1.74-5.1-5.26v-4.44c0-2.55,1-4,3.11-4.36a3.67,3.67,0,0,1-3.19-4v-4.81c0-3.48,1.71-5.22,5.11-5.22Zm-8.95,10.25a1,1,0,0,0,1.11,1.11h5.44a1,1,0,0,0,1.11-1.11v-2.25a1,1,0,0,0-1.11-1.11H18.72a1,1,0,0,0-1.11,1.11Zm0,9.88a1,1,0,0,0,1.11,1.11h5.44a1,1,0,0,0,1.11-1.11v-2.22a1,1,0,0,0-1.11-1.14H18.72a1,1,0,0,0-1.11,1.14Z"/><path class="cls-3" d="M62.32,197.17c-15.47,0-23.29-8-23.29-24V151.1c0-10.2,4.42-16.32,14.62-18.53-9.69-1.7-14.28-8.33-14.28-20.06V92.11C39.37,76,47.19,68,62.66,68H108.9c15.64,0,23.46,8,23.46,24.14v20.4c0,11.73-4.59,18.36-14.28,20.06,10.2,2.21,14.62,8.33,14.62,18.53v22.1q0,24-23.46,24Zm41.14-92.48q0-5.1-5.1-5.1h-25q-5.1,0-5.1,5.1v10.2c0,3.4,1.7,5.27,5.1,5.27h25c3.4,0,5.1-1.87,5.1-5.27Zm0,45.39q0-5.1-5.1-5.1h-25q-5.1,0-5.1,5.1v10.37q0,5.1,5.1,5.1h25q5.1,0,5.1-5.1Z"/><path class="cls-3" d="M62.39,197.1c-15.47,0-23.29-8-23.29-24V151c0-10.2,4.42-16.32,14.62-18.53-9.69-1.7-14.28-8.33-14.28-20.06V92c0-16.15,7.82-24.14,23.29-24.14H109c15.64,0,23.46,8,23.46,24.14v20.4c0,11.73-4.59,18.36-14.28,20.06,10.2,2.21,14.62,8.33,14.62,18.53v22.1q0,24-23.46,24Zm41.14-92.48q0-5.1-5.1-5.1h-25q-5.1,0-5.1,5.1v10.2c0,3.4,1.7,5.27,5.1,5.27h25c3.4,0,5.1-1.87,5.1-5.27Zm0,45.39q0-5.1-5.1-5.1h-25q-5.1,0-5.1,5.1v10.37q0,5.1,5.1,5.1h25q5.1,0,5.1-5.1Z"/><path class="cls-3" d="M62.47,197c-15.47,0-23.29-8-23.29-24V151c0-10.2,4.42-16.32,14.62-18.53-9.69-1.7-14.28-8.33-14.28-20.06V92c0-16.15,7.82-24.14,23.29-24.14h46.24c15.63,0,23.46,8,23.46,24.14v20.4c0,11.73-4.59,18.36-14.29,20.06,10.21,2.21,14.62,8.33,14.62,18.53v22.1q0,24-23.45,24Zm41.14-92.48q0-5.1-5.1-5.1h-25q-5.1,0-5.1,5.1v10.2c0,3.4,1.7,5.27,5.1,5.27h25c3.4,0,5.1-1.87,5.1-5.27Zm0,45.39q0-5.1-5.1-5.1h-25q-5.1,0-5.1,5.1v10.37q0,5.1,5.1,5.1h25q5.1,0,5.1-5.1Z"/><path class="cls-3" d="M62.54,197c-15.47,0-23.29-8-23.29-24v-22.1c0-10.2,4.42-16.32,14.62-18.53-9.69-1.7-14.28-8.33-14.28-20.06V91.89c0-16.14,7.82-24.14,23.29-24.14h46.24c15.64,0,23.46,8,23.46,24.14v20.4c0,11.73-4.59,18.36-14.28,20.06,10.2,2.21,14.62,8.33,14.62,18.53V173q0,24-23.46,24Zm41.14-92.48q0-5.1-5.1-5.1h-25q-5.1,0-5.1,5.1v10.2c0,3.4,1.7,5.27,5.1,5.27h25c3.4,0,5.1-1.87,5.1-5.27Zm0,45.39q0-5.1-5.1-5.1h-25q-5.1,0-5.1,5.1v10.37q0,5.1,5.1,5.1h25q5.1,0,5.1-5.1Z"/><path class="cls-3" d="M62.61,196.88c-15.47,0-23.29-8-23.29-24v-22.1c0-10.2,4.42-16.32,14.62-18.53-9.69-1.7-14.28-8.33-14.28-20.06V91.82c0-16.15,7.82-24.14,23.29-24.14h46.24c15.64,0,23.46,8,23.46,24.14v20.4c0,11.73-4.59,18.36-14.28,20.06,10.2,2.21,14.62,8.33,14.62,18.53v22.1q0,24-23.46,24Zm41.14-92.48q0-5.1-5.1-5.1h-25q-5.1,0-5.1,5.1v10.2c0,3.4,1.7,5.27,5.1,5.27h25c3.4,0,5.1-1.87,5.1-5.27Zm0,45.39q0-5.1-5.1-5.1h-25q-5.1,0-5.1,5.1v10.37q0,5.1,5.1,5.1h25q5.1,0,5.1-5.1Z"/><path class="cls-3" d="M62.68,196.81c-15.47,0-23.29-8-23.29-24v-22.1c0-10.2,4.42-16.32,14.62-18.53-9.69-1.7-14.28-8.33-14.28-20.06V91.75c0-16.15,7.82-24.14,23.29-24.14h46.24c15.64,0,23.46,8,23.46,24.14v20.4c0,11.73-4.59,18.36-14.28,20.06,10.2,2.21,14.62,8.33,14.62,18.53v22.1q0,24-23.46,24Zm41.14-92.48q0-5.1-5.1-5.1h-25q-5.1,0-5.1,5.1v10.2c0,3.4,1.7,5.27,5.1,5.27h25c3.4,0,5.1-1.87,5.1-5.27Zm0,45.39q0-5.1-5.1-5.1h-25q-5.1,0-5.1,5.1v10.37q0,5.1,5.1,5.1h25q5.1,0,5.1-5.1Z"/><path class="cls-3" d="M62.75,196.74c-15.47,0-23.29-8-23.29-24v-22.1c0-10.2,4.42-16.32,14.62-18.53-9.69-1.7-14.28-8.33-14.28-20.06V91.68c0-16.15,7.82-24.14,23.29-24.14h46.24c15.64,0,23.46,8,23.46,24.14v20.4c0,11.73-4.59,18.36-14.28,20.06,10.2,2.21,14.62,8.33,14.62,18.53v22.1q0,24-23.46,24Zm41.14-92.48q0-5.1-5.1-5.1h-25q-5.1,0-5.1,5.1v10.2c0,3.4,1.7,5.27,5.1,5.27h25c3.4,0,5.1-1.87,5.1-5.27Zm0,45.39q0-5.1-5.1-5.1h-25q-5.1,0-5.1,5.1V160q0,5.1,5.1,5.1h25q5.1,0,5.1-5.1Z"/><path class="cls-3" d="M62.83,196.67c-15.47,0-23.29-8-23.29-24V150.6c0-10.2,4.42-16.32,14.62-18.53-9.69-1.7-14.28-8.33-14.28-20.06V91.61c0-16.15,7.82-24.14,23.29-24.14h46.24c15.63,0,23.46,8,23.46,24.14V112c0,11.73-4.59,18.36-14.29,20.06,10.21,2.21,14.62,8.33,14.62,18.53v22.1q0,24-23.45,24ZM104,104.19q0-5.1-5.1-5.1h-25q-5.1,0-5.1,5.1v10.2c0,3.4,1.7,5.27,5.1,5.27h25c3.4,0,5.1-1.87,5.1-5.27Zm0,45.39q0-5.1-5.1-5.1h-25q-5.1,0-5.1,5.1V160q0,5.1,5.1,5.1h25q5.1,0,5.1-5.1Z"/><path class="cls-3" d="M62.9,196.59c-15.47,0-23.29-8-23.29-24v-22.1c0-10.2,4.42-16.32,14.62-18.53C44.54,130.29,40,123.66,40,111.93V91.53c0-16.14,7.82-24.14,23.29-24.14h46.24c15.64,0,23.46,8,23.46,24.14v20.4c0,11.73-4.59,18.36-14.28,20.06,10.2,2.21,14.62,8.33,14.62,18.53v22.1q0,24-23.46,24ZM104,104.11q0-5.1-5.1-5.1H74q-5.1,0-5.1,5.1v10.2c0,3.4,1.7,5.27,5.1,5.27h25c3.4,0,5.1-1.87,5.1-5.27Zm0,45.39q0-5.1-5.1-5.1H74q-5.1,0-5.1,5.1v10.37q0,5.1,5.1,5.1h25q5.1,0,5.1-5.1Z"/><path class="cls-3" d="M63,196.52c-15.47,0-23.29-8-23.29-24v-22.1c0-10.2,4.42-16.32,14.62-18.53C44.61,130.22,40,123.59,40,111.86V91.46c0-16.15,7.82-24.14,23.29-24.14h46.24c15.64,0,23.46,8,23.46,24.14v20.4c0,11.73-4.59,18.36-14.28,20.06,10.2,2.21,14.62,8.33,14.62,18.53v22.1q0,24-23.46,24ZM104.11,104q0-5.1-5.1-5.1H74q-5.1,0-5.1,5.1v10.2c0,3.4,1.7,5.27,5.1,5.27H99c3.4,0,5.1-1.87,5.1-5.27Zm0,45.39q0-5.1-5.1-5.1H74q-5.1,0-5.1,5.1V159.8q0,5.1,5.1,5.1H99q5.1,0,5.1-5.1Z"/><path class="cls-3" d="M63,196.45c-15.47,0-23.29-8-23.29-24v-22.1c0-10.2,4.42-16.32,14.62-18.53-9.69-1.7-14.28-8.33-14.28-20.06V91.39c0-16.15,7.82-24.14,23.29-24.14h46.24c15.64,0,23.46,8,23.46,24.14v20.4c0,11.73-4.59,18.36-14.28,20.06,10.2,2.21,14.62,8.33,14.62,18.53v22.1q0,24-23.46,24ZM104.18,104q0-5.1-5.1-5.1h-25q-5.1,0-5.1,5.1v10.2c0,3.4,1.7,5.27,5.1,5.27h25c3.4,0,5.1-1.87,5.1-5.27Zm0,45.39q0-5.1-5.1-5.1h-25q-5.1,0-5.1,5.1v10.37q0,5.1,5.1,5.1h25q5.1,0,5.1-5.1Z"/><path class="cls-3" d="M63.11,196.38c-15.47,0-23.29-8-23.29-24v-22.1c0-10.2,4.42-16.32,14.62-18.53-9.69-1.7-14.28-8.33-14.28-20.06V91.32c0-16.15,7.82-24.14,23.29-24.14h46.24c15.64,0,23.46,8,23.46,24.14v20.4c0,11.73-4.59,18.36-14.28,20.06,10.2,2.21,14.62,8.33,14.62,18.53v22.1q0,24-23.46,24Zm41.14-92.48q0-5.1-5.1-5.1h-25q-5.1,0-5.1,5.1v10.2c0,3.4,1.7,5.27,5.1,5.27h25c3.4,0,5.1-1.87,5.1-5.27Zm0,45.39q0-5.1-5.1-5.1h-25q-5.1,0-5.1,5.1v10.37q0,5.1,5.1,5.1h25q5.1,0,5.1-5.1Z"/><path class="cls-3" d="M63.19,196.31c-15.47,0-23.29-8-23.29-24v-22.1c0-10.2,4.42-16.32,14.62-18.53-9.69-1.7-14.28-8.33-14.28-20.06V91.25c0-16.15,7.82-24.14,23.29-24.14h46.24c15.63,0,23.46,8,23.46,24.14v20.4c0,11.73-4.59,18.36-14.29,20.06,10.21,2.21,14.62,8.33,14.62,18.53v22.1q0,24-23.45,24Zm41.14-92.48q0-5.1-5.1-5.1h-25q-5.1,0-5.1,5.1V114c0,3.4,1.7,5.27,5.1,5.27h25c3.4,0,5.1-1.87,5.1-5.27Zm0,45.39q0-5.1-5.1-5.1h-25q-5.1,0-5.1,5.1v10.37q0,5.1,5.1,5.1h25q5.1,0,5.1-5.1Z"/><path class="cls-3" d="M63.26,196.23c-15.47,0-23.29-8-23.29-24v-22.1c0-10.2,4.42-16.32,14.62-18.53-9.69-1.7-14.28-8.33-14.28-20.06V91.17C40.31,75,48.13,67,63.6,67h46.24c15.64,0,23.46,8,23.46,24.14v20.4c0,11.73-4.59,18.36-14.28,20.06,10.2,2.21,14.62,8.33,14.62,18.53v22.1q0,24-23.46,24Zm41.14-92.48q0-5.1-5.1-5.1h-25q-5.1,0-5.1,5.1V114c0,3.4,1.7,5.27,5.1,5.27h25c3.4,0,5.1-1.87,5.1-5.27Zm0,45.39q0-5.1-5.1-5.1h-25q-5.1,0-5.1,5.1v10.37q0,5.1,5.1,5.1h25q5.1,0,5.1-5.1Z"/><path class="cls-3" d="M63.33,196.16c-15.47,0-23.29-8-23.29-24v-22.1c0-10.2,4.42-16.32,14.62-18.53-9.69-1.7-14.28-8.33-14.28-20.06V91.1C40.38,75,48.2,67,63.67,67h46.24c15.64,0,23.46,8,23.46,24.14v20.4c0,11.73-4.59,18.36-14.28,20.06,10.2,2.21,14.62,8.33,14.62,18.53v22.1q0,24-23.46,24Zm41.14-92.48q0-5.1-5.1-5.1h-25q-5.1,0-5.1,5.1v10.2c0,3.4,1.7,5.27,5.1,5.27h25c3.4,0,5.1-1.87,5.1-5.27Zm0,45.39q0-5.1-5.1-5.1h-25q-5.1,0-5.1,5.1v10.37q0,5.1,5.1,5.1h25q5.1,0,5.1-5.1Z"/><path class="cls-3" d="M63.4,196.09c-15.47,0-23.29-8-23.29-24V150c0-10.2,4.42-16.32,14.62-18.53-9.69-1.7-14.28-8.33-14.28-20.06V91c0-16.15,7.82-24.14,23.29-24.14H110c15.64,0,23.46,8,23.46,24.14v20.4c0,11.73-4.59,18.36-14.28,20.06,10.2,2.21,14.62,8.33,14.62,18.53v22.1q0,24-23.46,24Zm41.14-92.48q0-5.1-5.1-5.1h-25q-5.1,0-5.1,5.1v10.2c0,3.4,1.7,5.27,5.1,5.27h25c3.4,0,5.1-1.87,5.1-5.27Zm0,45.39q0-5.1-5.1-5.1h-25q-5.1,0-5.1,5.1v10.37q0,5.1,5.1,5.1h25q5.1,0,5.1-5.1Z"/><path class="cls-3" d="M63.47,196c-15.47,0-23.29-8-23.29-24V150c0-10.2,4.42-16.32,14.62-18.53-9.69-1.7-14.28-8.33-14.28-20.06V91c0-16.15,7.82-24.14,23.29-24.14h46.24c15.64,0,23.46,8,23.46,24.14v20.4c0,11.73-4.59,18.36-14.28,20.06,10.2,2.21,14.62,8.33,14.62,18.53v22.1q0,24-23.46,24Zm41.14-92.48q0-5.1-5.1-5.1h-25q-5.1,0-5.1,5.1v10.2c0,3.4,1.7,5.27,5.1,5.27h25c3.4,0,5.1-1.87,5.1-5.27Zm0,45.39q0-5.1-5.1-5.1h-25q-5.1,0-5.1,5.1V159.3q0,5.1,5.1,5.1h25q5.1,0,5.1-5.1Z"/><path class="cls-3" d="M63.55,196c-15.47,0-23.29-8-23.29-24v-22.1c0-10.2,4.42-16.32,14.62-18.53-9.69-1.7-14.28-8.33-14.28-20.06V90.89c0-16.15,7.82-24.14,23.29-24.14h46.24c15.63,0,23.46,8,23.46,24.14v20.4c0,11.73-4.59,18.36-14.29,20.06,10.21,2.21,14.62,8.33,14.62,18.53V172q0,24-23.45,24Zm41.14-92.48q0-5.1-5.1-5.1h-25q-5.1,0-5.1,5.1v10.2c0,3.4,1.7,5.27,5.1,5.27h25c3.4,0,5.1-1.87,5.1-5.27Zm0,45.39q0-5.1-5.1-5.1h-25q-5.1,0-5.1,5.1v10.37q0,5.1,5.1,5.1h25q5.1,0,5.1-5.1Z"/><path class="cls-3" d="M63.62,195.87c-15.47,0-23.29-8-23.29-24V149.8c0-10.2,4.42-16.32,14.62-18.53-9.69-1.7-14.28-8.33-14.28-20.06V90.81c0-16.14,7.82-24.14,23.29-24.14H110.2c15.64,0,23.46,8,23.46,24.14v20.4c0,11.73-4.59,18.36-14.28,20.06,10.2,2.21,14.62,8.33,14.62,18.53v22.1q0,24-23.46,24Zm41.14-92.48q0-5.1-5.1-5.1h-25q-5.1,0-5.1,5.1v10.2c0,3.4,1.7,5.27,5.1,5.27h25c3.4,0,5.1-1.87,5.1-5.27Zm0,45.39q0-5.1-5.1-5.1h-25q-5.1,0-5.1,5.1v10.37q0,5.1,5.1,5.1h25q5.1,0,5.1-5.1Z"/><path class="cls-3" d="M63.69,195.8c-15.47,0-23.29-8-23.29-24v-22.1c0-10.2,4.42-16.32,14.62-18.53-9.69-1.7-14.28-8.33-14.28-20.06V90.74C40.74,74.59,48.56,66.6,64,66.6h46.24c15.64,0,23.46,8,23.46,24.14v20.4c0,11.73-4.59,18.36-14.28,20.06,10.2,2.21,14.62,8.33,14.62,18.53v22.1q0,24-23.46,24Zm41.14-92.48q0-5.1-5.1-5.1h-25q-5.1,0-5.1,5.1v10.2c0,3.4,1.7,5.27,5.1,5.27h25c3.4,0,5.1-1.87,5.1-5.27Zm0,45.39q0-5.1-5.1-5.1h-25q-5.1,0-5.1,5.1v10.37q0,5.1,5.1,5.1h25q5.1,0,5.1-5.1Z"/><path class="cls-3" d="M63.76,195.73c-15.47,0-23.29-8-23.29-24v-22.1c0-10.2,4.42-16.32,14.62-18.53-9.69-1.7-14.28-8.33-14.28-20.06V90.67c0-16.15,7.82-24.14,23.29-24.14h46.24c15.64,0,23.46,8,23.46,24.14v20.4c0,11.73-4.59,18.36-14.28,20.06,10.2,2.21,14.62,8.33,14.62,18.53v22.1q0,24-23.46,24Zm41.14-92.48q0-5.1-5.1-5.1h-25q-5.1,0-5.1,5.1v10.2c0,3.4,1.7,5.27,5.1,5.27h25c3.4,0,5.1-1.87,5.1-5.27Zm0,45.39q0-5.1-5.1-5.1h-25q-5.1,0-5.1,5.1V159q0,5.1,5.1,5.1h25q5.1,0,5.1-5.1Z"/><path class="cls-3" d="M63.83,195.66c-15.47,0-23.29-8-23.29-24v-22.1c0-10.2,4.42-16.32,14.62-18.53-9.69-1.7-14.28-8.33-14.28-20.06V90.6c0-16.15,7.82-24.14,23.29-24.14h46.24c15.64,0,23.46,8,23.46,24.14V111c0,11.73-4.59,18.36-14.28,20.06,10.2,2.21,14.62,8.33,14.62,18.53v22.1q0,24-23.46,24ZM105,103.18q0-5.1-5.1-5.1h-25q-5.1,0-5.1,5.1v10.2c0,3.4,1.7,5.27,5.1,5.27h25c3.4,0,5.1-1.87,5.1-5.27Zm0,45.39q0-5.1-5.1-5.1h-25q-5.1,0-5.1,5.1v10.37q0,5.1,5.1,5.1h25q5.1,0,5.1-5.1Z"/><path class="cls-3" d="M63.91,195.59c-15.47,0-23.29-8-23.29-24v-22.1c0-10.2,4.42-16.32,14.62-18.53C45.55,129.29,41,122.66,41,110.93V90.53c0-16.15,7.82-24.14,23.29-24.14h46.24c15.63,0,23.46,8,23.46,24.14v20.4c0,11.73-4.59,18.36-14.29,20.06,10.21,2.21,14.62,8.33,14.62,18.53v22.1q0,24-23.45,24Zm41.14-92.48q0-5.1-5.1-5.1H75q-5.1,0-5.1,5.1v10.2c0,3.4,1.7,5.27,5.1,5.27h25c3.4,0,5.1-1.87,5.1-5.27Zm0,45.39q0-5.1-5.1-5.1H75q-5.1,0-5.1,5.1v10.37q0,5.1,5.1,5.1h25q5.1,0,5.1-5.1Z"/><path class="cls-3" d="M64,195.51c-15.47,0-23.29-8-23.29-24v-22.1c0-10.2,4.42-16.32,14.62-18.53C45.62,129.21,41,122.58,41,110.85V90.45c0-16.14,7.82-24.14,23.29-24.14h46.24c15.64,0,23.46,8,23.46,24.14v20.4c0,11.73-4.59,18.36-14.28,20.06,10.2,2.21,14.62,8.33,14.62,18.53v22.1q0,24-23.46,24ZM105.12,103q0-5.1-5.1-5.1H75q-5.1,0-5.1,5.1v10.2c0,3.4,1.7,5.27,5.1,5.27h25c3.4,0,5.1-1.87,5.1-5.27Zm0,45.39q0-5.1-5.1-5.1H75q-5.1,0-5.1,5.1v10.37q0,5.1,5.1,5.1h25q5.1,0,5.1-5.1Z"/><path class="cls-3" d="M64.05,195.44c-15.47,0-23.29-8-23.29-24v-22.1c0-10.2,4.42-16.32,14.62-18.53-9.69-1.7-14.28-8.33-14.28-20.06V90.38c0-16.15,7.82-24.14,23.29-24.14h46.24c15.64,0,23.46,8,23.46,24.14v20.4c0,11.73-4.59,18.36-14.28,20.06,10.2,2.21,14.62,8.33,14.62,18.53v22.1q0,24-23.46,24ZM105.19,103q0-5.1-5.1-5.1h-25q-5.1,0-5.1,5.1v10.2c0,3.4,1.7,5.27,5.1,5.27h25c3.4,0,5.1-1.87,5.1-5.27Zm0,45.39q0-5.1-5.1-5.1h-25q-5.1,0-5.1,5.1v10.37q0,5.1,5.1,5.1h25q5.1,0,5.1-5.1Z"/><path class="cls-3" d="M64.12,195.37c-15.47,0-23.29-8-23.29-24V149.3c0-10.2,4.42-16.32,14.62-18.53-9.69-1.7-14.28-8.33-14.28-20.06V90.31c0-16.15,7.82-24.14,23.29-24.14H110.7c15.64,0,23.46,8,23.46,24.14v20.4c0,11.73-4.59,18.36-14.28,20.06,10.2,2.21,14.62,8.33,14.62,18.53v22.1q0,24-23.46,24Zm41.14-92.48q0-5.1-5.1-5.1h-25q-5.1,0-5.1,5.1v10.2c0,3.4,1.7,5.27,5.1,5.27h25c3.4,0,5.1-1.87,5.1-5.27Zm0,45.39q0-5.1-5.1-5.1h-25q-5.1,0-5.1,5.1v10.37q0,5.1,5.1,5.1h25q5.1,0,5.1-5.1Z"/><path class="cls-3" d="M64.19,195.3c-15.47,0-23.29-8-23.29-24v-22.1c0-10.2,4.42-16.32,14.62-18.53-9.69-1.7-14.28-8.33-14.28-20.06V90.24c0-16.15,7.82-24.14,23.29-24.14h46.24c15.64,0,23.46,8,23.46,24.14v20.4c0,11.73-4.59,18.36-14.28,20.06,10.2,2.21,14.62,8.33,14.62,18.53v22.1q0,24-23.46,24Zm41.14-92.48q0-5.1-5.1-5.1h-25q-5.1,0-5.1,5.1V113c0,3.4,1.7,5.27,5.1,5.27h25c3.4,0,5.1-1.87,5.1-5.27Zm0,45.39q0-5.1-5.1-5.1h-25q-5.1,0-5.1,5.1v10.37q0,5.1,5.1,5.1h25q5.1,0,5.1-5.1Z"/><path class="cls-3" d="M64.27,195.23c-15.47,0-23.29-8-23.29-24v-22.1c0-10.2,4.42-16.32,14.62-18.53-9.69-1.7-14.28-8.33-14.28-20.06V90.17C41.32,74,49.14,66,64.61,66h46.24c15.63,0,23.46,8,23.46,24.14v20.4c0,11.73-4.59,18.36-14.29,20.06,10.21,2.21,14.62,8.33,14.62,18.53v22.1q0,24-23.45,24Zm41.14-92.48q0-5.1-5.1-5.1h-25q-5.1,0-5.1,5.1V113c0,3.4,1.7,5.27,5.1,5.27h25c3.4,0,5.1-1.87,5.1-5.27Zm0,45.39q0-5.1-5.1-5.1h-25q-5.1,0-5.1,5.1v10.37q0,5.1,5.1,5.1h25q5.1,0,5.1-5.1Z"/><path class="cls-3" d="M64.34,195.15c-15.47,0-23.29-8-23.29-24v-22.1c0-10.2,4.42-16.32,14.62-18.53-9.69-1.7-14.28-8.33-14.28-20.06V90.09C41.39,74,49.21,66,64.68,66h46.24c15.64,0,23.46,8,23.46,24.14v20.4c0,11.73-4.59,18.36-14.28,20.06,10.2,2.21,14.62,8.33,14.62,18.53v22.1q0,24-23.46,24Zm41.14-92.48q0-5.1-5.1-5.1h-25q-5.1,0-5.1,5.1v10.2c0,3.4,1.7,5.27,5.1,5.27h25c3.4,0,5.1-1.87,5.1-5.27Zm0,45.39q0-5.1-5.1-5.1h-25q-5.1,0-5.1,5.1v10.37q0,5.1,5.1,5.1h25q5.1,0,5.1-5.1Z"/><path class="cls-3" d="M64.41,195.08c-15.47,0-23.29-8-23.29-24V149c0-10.2,4.42-16.32,14.62-18.53-9.69-1.7-14.28-8.33-14.28-20.06V90c0-16.15,7.82-24.14,23.29-24.14H111c15.64,0,23.46,8,23.46,24.14v20.4c0,11.73-4.59,18.36-14.28,20.06,10.2,2.21,14.62,8.33,14.62,18.53v22.1q0,24-23.46,24Zm41.14-92.48q0-5.1-5.1-5.1h-25q-5.1,0-5.1,5.1v10.2c0,3.4,1.7,5.27,5.1,5.27h25c3.4,0,5.1-1.87,5.1-5.27Zm0,45.39q0-5.1-5.1-5.1h-25q-5.1,0-5.1,5.1v10.37q0,5.1,5.1,5.1h25q5.1,0,5.1-5.1Z"/><path class="cls-3" d="M64.48,195c-15.47,0-23.29-8-23.29-24v-22.1c0-10.2,4.42-16.32,14.62-18.53-9.69-1.7-14.28-8.33-14.28-20.06V90c0-16.15,7.82-24.14,23.29-24.14h46.24c15.64,0,23.46,8,23.46,24.14v20.4c0,11.73-4.59,18.36-14.28,20.06,10.2,2.21,14.62,8.33,14.62,18.53V171q0,24-23.46,24Zm41.14-92.48q0-5.1-5.1-5.1h-25q-5.1,0-5.1,5.1v10.2c0,3.4,1.7,5.27,5.1,5.27h25c3.4,0,5.1-1.87,5.1-5.27Zm0,45.39q0-5.1-5.1-5.1h-25q-5.1,0-5.1,5.1v10.37q0,5.1,5.1,5.1h25q5.1,0,5.1-5.1Z"/><path class="cls-3" d="M64.55,194.94c-15.47,0-23.29-8-23.29-24v-22.1c0-10.2,4.42-16.32,14.62-18.53-9.69-1.7-14.28-8.33-14.28-20.06V89.88c0-16.15,7.82-24.14,23.29-24.14h46.24c15.64,0,23.46,8,23.46,24.14v20.4c0,11.73-4.59,18.36-14.28,20.06,10.2,2.21,14.62,8.33,14.62,18.53V171q0,24-23.46,24Zm41.14-92.48q0-5.1-5.1-5.1h-25q-5.1,0-5.1,5.1v10.2c0,3.4,1.7,5.27,5.1,5.27h25c3.4,0,5.1-1.87,5.1-5.27Zm0,45.39q0-5.1-5.1-5.1h-25q-5.1,0-5.1,5.1v10.37q0,5.1,5.1,5.1h25q5.1,0,5.1-5.1Z"/><path class="cls-3" d="M64.63,194.87c-15.47,0-23.29-8-23.29-24V148.8c0-10.2,4.42-16.32,14.62-18.53-9.69-1.7-14.28-8.33-14.28-20.06V89.81c0-16.15,7.82-24.14,23.29-24.14h46.24c15.63,0,23.46,8,23.46,24.14v20.4c0,11.73-4.59,18.36-14.29,20.06C130.59,132.48,135,138.6,135,148.8v22.1q0,24-23.45,24Zm41.14-92.48q0-5.1-5.1-5.1h-25q-5.1,0-5.1,5.1v10.2c0,3.4,1.7,5.27,5.1,5.27h25c3.4,0,5.1-1.87,5.1-5.27Zm0,45.39q0-5.1-5.1-5.1h-25q-5.1,0-5.1,5.1v10.37q0,5.1,5.1,5.1h25q5.1,0,5.1-5.1Z"/><path class="cls-3" d="M64.7,194.79c-15.47,0-23.29-8-23.29-24v-22.1c0-10.2,4.42-16.32,14.62-18.53-9.69-1.7-14.28-8.33-14.28-20.06V89.73c0-16.14,7.82-24.14,23.29-24.14h46.24c15.64,0,23.46,8,23.46,24.14v20.4c0,11.73-4.59,18.36-14.28,20.06,10.2,2.21,14.62,8.33,14.62,18.53v22.1q0,24-23.46,24Zm41.14-92.48q0-5.1-5.1-5.1h-25q-5.1,0-5.1,5.1v10.2c0,3.4,1.7,5.27,5.1,5.27h25c3.4,0,5.1-1.87,5.1-5.27Zm0,45.39q0-5.1-5.1-5.1h-25q-5.1,0-5.1,5.1v10.37q0,5.1,5.1,5.1h25q5.1,0,5.1-5.1Z"/><path class="cls-3" d="M64.77,194.72c-15.47,0-23.29-8-23.29-24v-22.1c0-10.2,4.42-16.32,14.62-18.53-9.69-1.7-14.28-8.33-14.28-20.06V89.66c0-16.15,7.82-24.14,23.29-24.14h46.24c15.64,0,23.46,8,23.46,24.14v20.4c0,11.73-4.59,18.36-14.28,20.06,10.2,2.21,14.62,8.33,14.62,18.53v22.1q0,24-23.46,24Zm41.14-92.48q0-5.1-5.1-5.1h-25q-5.1,0-5.1,5.1v10.2c0,3.4,1.7,5.27,5.1,5.27h25c3.4,0,5.1-1.87,5.1-5.27Zm0,45.39q0-5.1-5.1-5.1h-25q-5.1,0-5.1,5.1V158q0,5.1,5.1,5.1h25q5.1,0,5.1-5.1Z"/><path class="cls-3" d="M64.84,194.65c-15.47,0-23.29-8-23.29-24v-22.1c0-10.2,4.42-16.32,14.62-18.53-9.69-1.7-14.28-8.33-14.28-20.06V89.59c0-16.15,7.82-24.14,23.29-24.14h46.24c15.64,0,23.46,8,23.46,24.14V110c0,11.73-4.59,18.36-14.28,20.06,10.2,2.21,14.62,8.33,14.62,18.53v22.1q0,24-23.46,24ZM106,102.17q0-5.1-5.1-5.1h-25q-5.1,0-5.1,5.1v10.2c0,3.4,1.7,5.27,5.1,5.27h25c3.4,0,5.1-1.87,5.1-5.27Zm0,45.39q0-5.1-5.1-5.1h-25q-5.1,0-5.1,5.1v10.37q0,5.1,5.1,5.1h25q5.1,0,5.1-5.1Z"/><path class="cls-3" d="M64.91,194.58c-15.47,0-23.29-8-23.29-24v-22.1c0-10.2,4.42-16.32,14.62-18.53C46.55,128.28,42,121.65,42,109.92V89.52c0-16.15,7.82-24.14,23.29-24.14h46.24c15.64,0,23.46,8,23.46,24.14v20.4c0,11.73-4.59,18.36-14.28,20.06,10.2,2.21,14.62,8.33,14.62,18.53v22.1q0,24-23.46,24Zm41.14-92.48q0-5.1-5.1-5.1H76q-5.1,0-5.1,5.1v10.2c0,3.4,1.7,5.27,5.1,5.27h25c3.4,0,5.1-1.87,5.1-5.27Zm0,45.39q0-5.1-5.1-5.1H76q-5.1,0-5.1,5.1v10.37q0,5.1,5.1,5.1h25q5.1,0,5.1-5.1Z"/><path class="cls-3" d="M65,194.51c-15.47,0-23.29-8-23.29-24v-22.1c0-10.2,4.42-16.32,14.62-18.53C46.63,128.21,42,121.58,42,109.85V89.45c0-16.15,7.82-24.14,23.29-24.14h46.24c15.63,0,23.46,8,23.46,24.14v20.4c0,11.73-4.59,18.36-14.29,20.06,10.21,2.21,14.62,8.33,14.62,18.53v22.1q0,24-23.45,24ZM106.13,102q0-5.1-5.1-5.1H76q-5.1,0-5.1,5.1v10.2c0,3.4,1.7,5.27,5.1,5.27h25c3.4,0,5.1-1.87,5.1-5.27Zm0,45.39q0-5.1-5.1-5.1H76q-5.1,0-5.1,5.1v10.37q0,5.1,5.1,5.1h25q5.1,0,5.1-5.1Z"/><path class="cls-3" d="M65.06,194.43c-15.47,0-23.29-8-23.29-24v-22.1c0-10.2,4.42-16.32,14.62-18.53-9.69-1.7-14.28-8.33-14.28-20.06V89.37c0-16.14,7.82-24.14,23.29-24.14h46.24c15.64,0,23.46,8,23.46,24.14v20.4c0,11.73-4.59,18.36-14.28,20.06,10.2,2.21,14.62,8.33,14.62,18.53v22.1q0,24-23.46,24ZM106.2,102q0-5.1-5.1-5.1h-25q-5.1,0-5.1,5.1v10.2c0,3.4,1.7,5.27,5.1,5.27h25c3.4,0,5.1-1.87,5.1-5.27Zm0,45.39q0-5.1-5.1-5.1h-25q-5.1,0-5.1,5.1v10.37q0,5.1,5.1,5.1h25q5.1,0,5.1-5.1Z"/><path class="cls-3" d="M65.13,194.36c-15.47,0-23.29-8-23.29-24v-22.1c0-10.2,4.42-16.32,14.62-18.53-9.69-1.7-14.28-8.33-14.28-20.06V89.3c0-16.15,7.82-24.14,23.29-24.14h46.24c15.64,0,23.46,8,23.46,24.14v20.4c0,11.73-4.59,18.36-14.28,20.06,10.2,2.21,14.62,8.33,14.62,18.53v22.1q0,24-23.46,24Zm41.14-92.48q0-5.1-5.1-5.1h-25q-5.1,0-5.1,5.1v10.2c0,3.4,1.7,5.27,5.1,5.27h25c3.4,0,5.1-1.87,5.1-5.27Zm0,45.39q0-5.1-5.1-5.1h-25q-5.1,0-5.1,5.1v10.37q0,5.1,5.1,5.1h25q5.1,0,5.1-5.1Z"/><path class="cls-3" d="M65.2,194.29c-15.47,0-23.29-8-23.29-24v-22.1c0-10.2,4.42-16.32,14.62-18.53-9.69-1.7-14.28-8.33-14.28-20.06V89.23c0-16.15,7.82-24.14,23.29-24.14h46.24c15.64,0,23.46,8,23.46,24.14v20.4c0,11.73-4.59,18.36-14.28,20.06,10.2,2.21,14.62,8.33,14.62,18.53v22.1q0,24-23.46,24Zm41.14-92.48q0-5.1-5.1-5.1h-25q-5.1,0-5.1,5.1V112c0,3.4,1.7,5.27,5.1,5.27h25c3.4,0,5.1-1.87,5.1-5.27Zm0,45.39q0-5.1-5.1-5.1h-25q-5.1,0-5.1,5.1v10.37q0,5.1,5.1,5.1h25q5.1,0,5.1-5.1Z"/><path class="cls-3" d="M65.27,194.22c-15.47,0-23.29-8-23.29-24v-22.1c0-10.2,4.42-16.32,14.62-18.53-9.69-1.7-14.28-8.33-14.28-20.06V89.16C42.32,73,50.14,65,65.61,65h46.24c15.64,0,23.46,8,23.46,24.14v20.4c0,11.73-4.59,18.36-14.28,20.06,10.2,2.21,14.62,8.33,14.62,18.53v22.1q0,24-23.46,24Zm41.14-92.48q0-5.1-5.1-5.1h-25q-5.1,0-5.1,5.1v10.2c0,3.4,1.7,5.27,5.1,5.27h25c3.4,0,5.1-1.87,5.1-5.27Zm0,45.39q0-5.1-5.1-5.1h-25q-5.1,0-5.1,5.1V157.5q0,5.1,5.1,5.1h25q5.1,0,5.1-5.1Z"/><path class="cls-3" d="M65.35,194.15c-15.47,0-23.29-8-23.29-24v-22.1c0-10.2,4.42-16.32,14.62-18.53-9.69-1.7-14.28-8.33-14.28-20.06V89.09C42.4,72.94,50.22,65,65.69,65h46.24c15.63,0,23.46,8,23.46,24.14v20.4c0,11.73-4.59,18.36-14.29,20.06,10.21,2.21,14.62,8.33,14.62,18.53v22.1q0,24-23.45,24Zm41.14-92.48q0-5.1-5.1-5.1h-25q-5.1,0-5.1,5.1v10.2c0,3.4,1.7,5.27,5.1,5.27h25c3.4,0,5.1-1.87,5.1-5.27Zm0,45.39q0-5.1-5.1-5.1h-25q-5.1,0-5.1,5.1v10.37q0,5.1,5.1,5.1h25q5.1,0,5.1-5.1Z"/><path class="cls-3" d="M65.42,194.07c-15.47,0-23.29-8-23.29-24V148c0-10.2,4.42-16.32,14.62-18.53-9.69-1.7-14.28-8.33-14.28-20.06V89c0-16.14,7.82-24.14,23.29-24.14H112c15.64,0,23.46,8,23.46,24.14v20.4c0,11.73-4.59,18.36-14.28,20.06,10.2,2.21,14.62,8.33,14.62,18.53v22.1q0,24-23.46,24Zm41.14-92.48q0-5.1-5.1-5.1h-25q-5.1,0-5.1,5.1v10.2c0,3.4,1.7,5.27,5.1,5.27h25c3.4,0,5.1-1.87,5.1-5.27Zm0,45.39q0-5.1-5.1-5.1h-25q-5.1,0-5.1,5.1v10.37q0,5.1,5.1,5.1h25q5.1,0,5.1-5.1Z"/><path class="cls-3" d="M65.49,194C50,194,42.2,186,42.2,170v-22.1c0-10.2,4.42-16.32,14.62-18.53-9.69-1.7-14.28-8.33-14.28-20.06V88.94c0-16.15,7.82-24.14,23.29-24.14h46.24c15.64,0,23.46,8,23.46,24.14v20.4c0,11.73-4.59,18.36-14.28,20.06,10.2,2.21,14.62,8.33,14.62,18.53V170q0,24-23.46,24Zm41.14-92.48q0-5.1-5.1-5.1h-25q-5.1,0-5.1,5.1v10.2c0,3.4,1.7,5.27,5.1,5.27h25c3.4,0,5.1-1.87,5.1-5.27Zm0,45.39q0-5.1-5.1-5.1h-25q-5.1,0-5.1,5.1v10.37q0,5.1,5.1,5.1h25q5.1,0,5.1-5.1Z"/><path class="cls-3" d="M65.56,193.93c-15.47,0-23.29-8-23.29-24v-22.1c0-10.2,4.42-16.32,14.62-18.53-9.69-1.7-14.28-8.33-14.28-20.06V88.87c0-16.15,7.82-24.14,23.29-24.14h46.24c15.64,0,23.46,8,23.46,24.14v20.4c0,11.73-4.59,18.36-14.28,20.06,10.2,2.21,14.62,8.33,14.62,18.53V170q0,24-23.46,24Zm41.14-92.48q0-5.1-5.1-5.1h-25q-5.1,0-5.1,5.1v10.2c0,3.4,1.7,5.27,5.1,5.27h25c3.4,0,5.1-1.87,5.1-5.27Zm0,45.39q0-5.1-5.1-5.1h-25q-5.1,0-5.1,5.1v10.37q0,5.1,5.1,5.1h25q5.1,0,5.1-5.1Z"/><path class="cls-3" d="M65.63,193.86c-15.47,0-23.29-8-23.29-24v-22.1c0-10.2,4.42-16.32,14.62-18.53-9.69-1.7-14.28-8.33-14.28-20.06V88.8c0-16.15,7.82-24.14,23.29-24.14h46.24c15.64,0,23.46,8,23.46,24.14v20.4c0,11.73-4.59,18.36-14.28,20.06,10.2,2.21,14.62,8.33,14.62,18.53v22.1q0,24-23.46,24Zm41.14-92.48q0-5.1-5.1-5.1h-25q-5.1,0-5.1,5.1v10.2c0,3.4,1.7,5.27,5.1,5.27h25c3.4,0,5.1-1.87,5.1-5.27Zm0,45.39q0-5.1-5.1-5.1h-25q-5.1,0-5.1,5.1v10.37q0,5.1,5.1,5.1h25q5.1,0,5.1-5.1Z"/><path class="cls-3" d="M65.71,193.79c-15.47,0-23.29-8-23.29-24v-22.1c0-10.2,4.42-16.32,14.62-18.53-9.69-1.7-14.28-8.33-14.28-20.06V88.73c0-16.15,7.82-24.14,23.29-24.14h46.24c15.63,0,23.46,8,23.46,24.14v20.4c0,11.73-4.59,18.36-14.29,20.06,10.21,2.21,14.62,8.33,14.62,18.53v22.1q0,24-23.45,24Zm41.14-92.48q0-5.1-5.1-5.1h-25q-5.1,0-5.1,5.1v10.2c0,3.4,1.7,5.27,5.1,5.27h25c3.4,0,5.1-1.87,5.1-5.27Zm0,45.39q0-5.1-5.1-5.1h-25q-5.1,0-5.1,5.1v10.37q0,5.1,5.1,5.1h25q5.1,0,5.1-5.1Z"/><path class="cls-3" d="M65.78,193.71c-15.47,0-23.29-8-23.29-24v-22.1c0-10.2,4.42-16.32,14.62-18.53-9.69-1.7-14.28-8.33-14.28-20.06V88.65c0-16.14,7.82-24.14,23.29-24.14h46.24c15.64,0,23.46,8,23.46,24.14v20.4c0,11.73-4.59,18.36-14.28,20.06,10.2,2.21,14.62,8.33,14.62,18.53v22.1q0,24-23.46,24Zm41.14-92.48q0-5.1-5.1-5.1h-25q-5.1,0-5.1,5.1v10.2c0,3.4,1.7,5.27,5.1,5.27h25c3.4,0,5.1-1.87,5.1-5.27Zm0,45.39q0-5.1-5.1-5.1h-25q-5.1,0-5.1,5.1V157q0,5.1,5.1,5.1h25q5.1,0,5.1-5.1Z"/><path class="cls-3" d="M65.85,193.64c-15.47,0-23.29-8-23.29-24v-22.1c0-10.2,4.42-16.32,14.62-18.53-9.69-1.7-14.28-8.33-14.28-20.06V88.58c0-16.15,7.82-24.14,23.29-24.14h46.24c15.64,0,23.46,8,23.46,24.14V109c0,11.73-4.59,18.36-14.28,20.06,10.2,2.21,14.62,8.33,14.62,18.53v22.1q0,24-23.46,24ZM107,101.16q0-5.1-5.1-5.1h-25q-5.1,0-5.1,5.1v10.2c0,3.4,1.7,5.27,5.1,5.27h25c3.4,0,5.1-1.87,5.1-5.27Zm0,45.39q0-5.1-5.1-5.1h-25q-5.1,0-5.1,5.1v10.37q0,5.1,5.1,5.1h25q5.1,0,5.1-5.1Z"/><path class="cls-3" d="M65.92,193.57c-15.47,0-23.29-8-23.29-24V147.5c0-10.2,4.42-16.32,14.62-18.53C47.56,127.27,43,120.64,43,108.91V88.51c0-16.15,7.82-24.14,23.29-24.14H112.5c15.64,0,23.46,8,23.46,24.14v20.4c0,11.73-4.59,18.36-14.28,20.06,10.2,2.21,14.62,8.33,14.62,18.53v22.1q0,24-23.46,24Zm41.14-92.48q0-5.1-5.1-5.1H77q-5.1,0-5.1,5.1v10.2c0,3.4,1.7,5.27,5.1,5.27h25c3.4,0,5.1-1.87,5.1-5.27Zm0,45.39q0-5.1-5.1-5.1H77q-5.1,0-5.1,5.1v10.37q0,5.1,5.1,5.1h25q5.1,0,5.1-5.1Z"/><path class="cls-3" d="M66,193.5c-15.47,0-23.29-8-23.29-24v-22.1c0-10.2,4.42-16.32,14.62-18.53C47.63,127.2,43,120.57,43,108.84V88.44C43,72.29,50.86,64.3,66.33,64.3h46.24c15.64,0,23.46,8,23.46,24.14v20.4c0,11.73-4.59,18.36-14.28,20.06,10.2,2.21,14.62,8.33,14.62,18.53v22.1q0,24-23.46,24ZM107.13,101q0-5.1-5.1-5.1H77q-5.1,0-5.1,5.1v10.2c0,3.4,1.7,5.27,5.1,5.27h25c3.4,0,5.1-1.87,5.1-5.27Zm0,45.39q0-5.1-5.1-5.1H77q-5.1,0-5.1,5.1v10.37q0,5.1,5.1,5.1h25q5.1,0,5.1-5.1Z"/><path class="cls-3" d="M66.07,193.43c-15.47,0-23.29-8-23.29-24v-22.1c0-10.2,4.42-16.32,14.62-18.53-9.69-1.7-14.28-8.33-14.28-20.06V88.37c0-16.15,7.82-24.14,23.29-24.14h46.24c15.63,0,23.46,8,23.46,24.14v20.4c0,11.73-4.59,18.36-14.29,20.06,10.21,2.21,14.62,8.33,14.62,18.53v22.1q0,24-23.45,24ZM107.21,101q0-5.1-5.1-5.1h-25q-5.1,0-5.1,5.1v10.2c0,3.4,1.7,5.27,5.1,5.27h25c3.4,0,5.1-1.87,5.1-5.27Zm0,45.39q0-5.1-5.1-5.1h-25q-5.1,0-5.1,5.1v10.37q0,5.1,5.1,5.1h25q5.1,0,5.1-5.1Z"/><path class="cls-3" d="M66.14,193.35c-15.47,0-23.29-8-23.29-24v-22.1c0-10.2,4.42-16.32,14.62-18.53-9.69-1.7-14.28-8.33-14.28-20.06V88.29c0-16.14,7.82-24.14,23.29-24.14h46.24c15.64,0,23.46,8,23.46,24.14v20.4c0,11.73-4.59,18.36-14.28,20.06,10.2,2.21,14.62,8.33,14.62,18.53v22.1q0,24-23.46,24Zm41.14-92.48q0-5.1-5.1-5.1h-25q-5.1,0-5.1,5.1v10.2c0,3.4,1.7,5.27,5.1,5.27h25c3.4,0,5.1-1.87,5.1-5.27Zm0,45.39q0-5.1-5.1-5.1h-25q-5.1,0-5.1,5.1v10.37q0,5.1,5.1,5.1h25q5.1,0,5.1-5.1Z"/><path class="cls-3" d="M66.21,193.28c-15.47,0-23.29-8-23.29-24v-22.1c0-10.2,4.42-16.32,14.62-18.53-9.69-1.7-14.28-8.33-14.28-20.06V88.22c0-16.15,7.82-24.14,23.29-24.14h46.24c15.64,0,23.46,8,23.46,24.14v20.4c0,11.73-4.59,18.36-14.28,20.06,10.2,2.21,14.62,8.33,14.62,18.53v22.1q0,24-23.46,24Zm41.14-92.48q0-5.1-5.1-5.1h-25q-5.1,0-5.1,5.1V111c0,3.4,1.7,5.27,5.1,5.27h25c3.4,0,5.1-1.87,5.1-5.27Zm0,45.39q0-5.1-5.1-5.1h-25q-5.1,0-5.1,5.1v10.37q0,5.1,5.1,5.1h25q5.1,0,5.1-5.1Z"/><path class="cls-3" d="M66.28,193.21c-15.47,0-23.29-8-23.29-24v-22.1c0-10.2,4.42-16.32,14.62-18.53-9.69-1.7-14.28-8.33-14.28-20.06V88.15C43.33,72,51.15,64,66.62,64h46.24c15.64,0,23.46,8,23.46,24.14v20.4c0,11.73-4.59,18.36-14.28,20.06,10.2,2.21,14.62,8.33,14.62,18.53v22.1q0,24-23.46,24Zm41.14-92.48q0-5.1-5.1-5.1h-25q-5.1,0-5.1,5.1v10.2c0,3.4,1.7,5.27,5.1,5.27h25c3.4,0,5.1-1.87,5.1-5.27Zm0,45.39q0-5.1-5.1-5.1h-25q-5.1,0-5.1,5.1v10.37q0,5.1,5.1,5.1h25q5.1,0,5.1-5.1Z"/><path class="cls-3" d="M66.35,193.14c-15.47,0-23.29-8-23.29-24v-22.1c0-10.2,4.42-16.32,14.62-18.53-9.69-1.7-14.28-8.33-14.28-20.06V88.08c0-16.15,7.82-24.14,23.29-24.14h46.24c15.64,0,23.46,8,23.46,24.14v20.4c0,11.73-4.59,18.36-14.28,20.06,10.2,2.21,14.62,8.33,14.62,18.53v22.1q0,24-23.46,24Zm41.14-92.48q0-5.1-5.1-5.1h-25q-5.1,0-5.1,5.1v10.2c0,3.4,1.7,5.27,5.1,5.27h25c3.4,0,5.1-1.87,5.1-5.27Zm0,45.39q0-5.1-5.1-5.1h-25q-5.1,0-5.1,5.1v10.37q0,5.1,5.1,5.1h25q5.1,0,5.1-5.1Z"/><path class="cls-3" d="M66.43,193.07c-15.47,0-23.29-8-23.29-24V147c0-10.2,4.42-16.32,14.62-18.53-9.69-1.7-14.28-8.33-14.28-20.06V88c0-16.15,7.82-24.14,23.29-24.14H113c15.63,0,23.46,8,23.46,24.14v20.4c0,11.73-4.59,18.36-14.29,20.06,10.21,2.21,14.62,8.33,14.62,18.53v22.1q0,24-23.45,24Zm41.14-92.48q0-5.1-5.1-5.1h-25q-5.1,0-5.1,5.1v10.2c0,3.4,1.7,5.27,5.1,5.27h25c3.4,0,5.1-1.87,5.1-5.27Zm0,45.39q0-5.1-5.1-5.1h-25q-5.1,0-5.1,5.1v10.37q0,5.1,5.1,5.1h25q5.1,0,5.1-5.1Z"/><path class="cls-3" d="M66.5,193c-15.47,0-23.29-8-23.29-24v-22.1c0-10.2,4.42-16.32,14.62-18.53-9.69-1.7-14.28-8.33-14.28-20.06V87.93c0-16.14,7.82-24.14,23.29-24.14h46.24c15.64,0,23.46,8,23.46,24.14v20.4c0,11.73-4.59,18.36-14.28,20.06,10.2,2.21,14.62,8.33,14.62,18.53V169q0,24-23.46,24Zm41.14-92.48q0-5.1-5.1-5.1h-25q-5.1,0-5.1,5.1v10.2c0,3.4,1.7,5.27,5.1,5.27h25c3.4,0,5.1-1.87,5.1-5.27Zm0,45.39q0-5.1-5.1-5.1h-25q-5.1,0-5.1,5.1v10.37q0,5.1,5.1,5.1h25q5.1,0,5.1-5.1Z"/><path class="cls-3" d="M66.57,192.92c-15.47,0-23.29-8-23.29-24v-22.1c0-10.2,4.42-16.32,14.62-18.53-9.69-1.7-14.28-8.33-14.28-20.06V87.86c0-16.15,7.82-24.14,23.29-24.14h46.24c15.64,0,23.46,8,23.46,24.14v20.4c0,11.73-4.59,18.36-14.28,20.06,10.2,2.21,14.62,8.33,14.62,18.53V169q0,24-23.46,24Zm41.14-92.48q0-5.1-5.1-5.1h-25q-5.1,0-5.1,5.1v10.2c0,3.4,1.7,5.27,5.1,5.27h25c3.4,0,5.1-1.87,5.1-5.27Zm0,45.39q0-5.1-5.1-5.1h-25q-5.1,0-5.1,5.1V156.2q0,5.1,5.1,5.1h25q5.1,0,5.1-5.1Z"/><path class="cls-3" d="M66.64,192.85c-15.47,0-23.29-8-23.29-24v-22.1c0-10.2,4.42-16.32,14.62-18.53-9.69-1.7-14.28-8.33-14.28-20.06V87.79c0-16.15,7.82-24.14,23.29-24.14h46.24c15.64,0,23.46,8,23.46,24.14v20.4c0,11.73-4.59,18.36-14.28,20.06,10.2,2.21,14.62,8.33,14.62,18.53v22.1q0,24-23.46,24Zm41.14-92.48q0-5.1-5.1-5.1h-25q-5.1,0-5.1,5.1v10.2c0,3.4,1.7,5.27,5.1,5.27h25c3.4,0,5.1-1.87,5.1-5.27Zm0,45.39q0-5.1-5.1-5.1h-25q-5.1,0-5.1,5.1v10.37q0,5.1,5.1,5.1h25q5.1,0,5.1-5.1Z"/><path class="cls-3" d="M66.71,192.78c-15.47,0-23.29-8-23.29-24v-22.1c0-10.2,4.42-16.32,14.62-18.53-9.69-1.7-14.28-8.33-14.28-20.06V87.72c0-16.15,7.82-24.14,23.29-24.14h46.24c15.64,0,23.46,8,23.46,24.14v20.4c0,11.73-4.59,18.36-14.28,20.06,10.2,2.21,14.62,8.33,14.62,18.53v22.1q0,24-23.46,24Zm41.14-92.48q0-5.1-5.1-5.1h-25q-5.1,0-5.1,5.1v10.2c0,3.4,1.7,5.27,5.1,5.27h25c3.4,0,5.1-1.87,5.1-5.27Zm0,45.39q0-5.1-5.1-5.1h-25q-5.1,0-5.1,5.1v10.37q0,5.1,5.1,5.1h25q5.1,0,5.1-5.1Z"/><path class="cls-3" d="M66.79,192.71c-15.47,0-23.29-8-23.29-24v-22.1c0-10.2,4.42-16.32,14.62-18.53-9.69-1.7-14.28-8.33-14.28-20.06V87.65c0-16.15,7.82-24.14,23.29-24.14h46.24c15.63,0,23.46,8,23.46,24.14v20.4c0,11.73-4.59,18.36-14.29,20.06,10.21,2.21,14.62,8.33,14.62,18.53v22.1q0,24-23.45,24Zm41.14-92.48q0-5.1-5.1-5.1h-25q-5.1,0-5.1,5.1v10.2c0,3.4,1.7,5.27,5.1,5.27h25c3.4,0,5.1-1.87,5.1-5.27Zm0,45.39q0-5.1-5.1-5.1h-25q-5.1,0-5.1,5.1V156q0,5.1,5.1,5.1h25q5.1,0,5.1-5.1Z"/><path class="cls-3" d="M66.86,192.63c-15.47,0-23.29-8-23.29-24v-22.1c0-10.2,4.42-16.32,14.62-18.53-9.69-1.7-14.28-8.33-14.28-20.06V87.57c0-16.14,7.82-24.14,23.29-24.14h46.24c15.64,0,23.46,8,23.46,24.14V108c0,11.73-4.59,18.36-14.28,20.06,10.2,2.21,14.62,8.33,14.62,18.53v22.1q0,24-23.46,24ZM108,100.15q0-5.1-5.1-5.1h-25q-5.1,0-5.1,5.1v10.2c0,3.4,1.7,5.27,5.1,5.27h25c3.4,0,5.1-1.87,5.1-5.27Zm0,45.39q0-5.1-5.1-5.1h-25q-5.1,0-5.1,5.1v10.37q0,5.1,5.1,5.1h25q5.1,0,5.1-5.1Z"/><path class="cls-3" d="M66.93,192.56c-15.47,0-23.29-8-23.29-24v-22.1c0-10.2,4.42-16.32,14.62-18.53C48.57,126.26,44,119.63,44,107.9V87.5c0-16.15,7.82-24.14,23.29-24.14h46.24c15.64,0,23.46,8,23.46,24.14v20.4c0,11.73-4.59,18.36-14.28,20.06,10.2,2.21,14.62,8.33,14.62,18.53v22.1q0,24-23.46,24Zm41.14-92.48q0-5.1-5.1-5.1H78q-5.1,0-5.1,5.1v10.2c0,3.4,1.7,5.27,5.1,5.27h25c3.4,0,5.1-1.87,5.1-5.27Zm0,45.39q0-5.1-5.1-5.1H78q-5.1,0-5.1,5.1v10.37q0,5.1,5.1,5.1h25q5.1,0,5.1-5.1Z"/><path class="cls-3" d="M67,192.49c-15.47,0-23.29-8-23.29-24v-22.1c0-10.2,4.42-16.32,14.62-18.53-9.69-1.7-14.28-8.33-14.28-20.06V87.43c0-16.15,7.82-24.14,23.29-24.14h46.24c15.64,0,23.46,8,23.46,24.14v20.4c0,11.73-4.59,18.36-14.28,20.06,10.2,2.21,14.62,8.33,14.62,18.53v22.1q0,24-23.46,24ZM108.14,100q0-5.1-5.1-5.1h-25q-5.1,0-5.1,5.1v10.2c0,3.4,1.7,5.27,5.1,5.27h25c3.4,0,5.1-1.87,5.1-5.27Zm0,45.39q0-5.1-5.1-5.1h-25q-5.1,0-5.1,5.1v10.37q0,5.1,5.1,5.1h25q5.1,0,5.1-5.1Z"/><path class="cls-3" d="M67.07,192.42c-15.47,0-23.29-8-23.29-24v-22.1c0-10.2,4.42-16.32,14.62-18.53-9.69-1.7-14.28-8.33-14.28-20.06V87.36c0-16.15,7.82-24.14,23.29-24.14h46.24c15.64,0,23.46,8,23.46,24.14v20.4c0,11.73-4.59,18.36-14.28,20.06,10.2,2.21,14.62,8.33,14.62,18.53v22.1q0,24-23.46,24Zm41.14-92.48q0-5.1-5.1-5.1h-25q-5.1,0-5.1,5.1v10.2c0,3.4,1.7,5.27,5.1,5.27h25c3.4,0,5.1-1.87,5.1-5.27Zm0,45.39q0-5.1-5.1-5.1h-25q-5.1,0-5.1,5.1V155.7q0,5.1,5.1,5.1h25q5.1,0,5.1-5.1Z"/><path class="cls-3" d="M67.15,192.35c-15.47,0-23.29-8-23.29-24v-22.1c0-10.2,4.42-16.32,14.62-18.53-9.69-1.7-14.28-8.33-14.28-20.06V87.29c0-16.15,7.82-24.14,23.29-24.14h46.24c15.63,0,23.46,8,23.46,24.14v20.4c0,11.73-4.59,18.36-14.29,20.06,10.21,2.21,14.62,8.33,14.62,18.53v22.1q0,24-23.45,24Zm41.14-92.48q0-5.1-5.1-5.1h-25q-5.1,0-5.1,5.1v10.2c0,3.4,1.7,5.27,5.1,5.27h25c3.4,0,5.1-1.87,5.1-5.27Zm0,45.39q0-5.1-5.1-5.1h-25q-5.1,0-5.1,5.1v10.37q0,5.1,5.1,5.1h25q5.1,0,5.1-5.1Z"/><path class="cls-3" d="M67.22,192.27c-15.47,0-23.29-8-23.29-24V146.2c0-10.2,4.42-16.32,14.62-18.53-9.69-1.7-14.28-8.33-14.28-20.06V87.21c0-16.14,7.82-24.14,23.29-24.14H113.8c15.64,0,23.46,8,23.46,24.14v20.4c0,11.73-4.59,18.36-14.28,20.06,10.2,2.21,14.62,8.33,14.62,18.53v22.1q0,24-23.46,24Zm41.14-92.48q0-5.1-5.1-5.1h-25q-5.1,0-5.1,5.1V110c0,3.4,1.7,5.27,5.1,5.27h25c3.4,0,5.1-1.87,5.1-5.27Zm0,45.39q0-5.1-5.1-5.1h-25q-5.1,0-5.1,5.1v10.37q0,5.1,5.1,5.1h25q5.1,0,5.1-5.1Z"/><path class="cls-3" d="M67.29,192.2c-15.47,0-23.29-8-23.29-24v-22.1c0-10.2,4.42-16.32,14.62-18.53-9.69-1.7-14.28-8.33-14.28-20.06V87.14C44.34,71,52.16,63,67.63,63h46.24c15.64,0,23.46,8,23.46,24.14v20.4c0,11.73-4.59,18.36-14.28,20.06,10.2,2.21,14.62,8.33,14.62,18.53v22.1q0,24-23.46,24Zm41.14-92.48q0-5.1-5.1-5.1h-25q-5.1,0-5.1,5.1v10.2c0,3.4,1.7,5.27,5.1,5.27h25c3.4,0,5.1-1.87,5.1-5.27Zm0,45.39q0-5.1-5.1-5.1h-25q-5.1,0-5.1,5.1v10.37q0,5.1,5.1,5.1h25q5.1,0,5.1-5.1Z"/><path class="cls-3" d="M67.36,192.13c-15.47,0-23.29-8-23.29-24v-22.1c0-10.2,4.42-16.32,14.62-18.53-9.69-1.7-14.28-8.33-14.28-20.06V87.07c0-16.15,7.82-24.14,23.29-24.14h46.24c15.64,0,23.46,8,23.46,24.14v20.4c0,11.73-4.59,18.36-14.28,20.06,10.2,2.21,14.62,8.33,14.62,18.53v22.1q0,24-23.46,24ZM108.5,99.65q0-5.1-5.1-5.1h-25q-5.1,0-5.1,5.1v10.2c0,3.4,1.7,5.27,5.1,5.27h25c3.4,0,5.1-1.87,5.1-5.27Zm0,45.39q0-5.1-5.1-5.1h-25q-5.1,0-5.1,5.1v10.37q0,5.1,5.1,5.1h25q5.1,0,5.1-5.1Z"/><path class="cls-3" d="M67.43,192.06c-15.47,0-23.29-8-23.29-24V146c0-10.2,4.42-16.32,14.62-18.53-9.69-1.7-14.28-8.33-14.28-20.06V87c0-16.15,7.82-24.14,23.29-24.14H114c15.64,0,23.46,8,23.46,24.14v20.4c0,11.73-4.59,18.36-14.28,20.06,10.2,2.21,14.62,8.33,14.62,18.53v22.1q0,24-23.46,24Zm41.14-92.48q0-5.1-5.1-5.1h-25q-5.1,0-5.1,5.1v10.2c0,3.4,1.7,5.27,5.1,5.27h25c3.4,0,5.1-1.87,5.1-5.27Zm0,45.39q0-5.1-5.1-5.1h-25q-5.1,0-5.1,5.1v10.37q0,5.1,5.1,5.1h25q5.1,0,5.1-5.1Z"/><path class="cls-3" d="M67.51,192c-15.47,0-23.29-8-23.29-24v-22.1c0-10.2,4.42-16.32,14.62-18.53-9.69-1.7-14.28-8.33-14.28-20.06V86.93c0-16.15,7.82-24.14,23.29-24.14h46.24c15.63,0,23.46,8,23.46,24.14v20.4c0,11.73-4.59,18.36-14.29,20.06,10.21,2.21,14.62,8.33,14.62,18.53V168q0,24-23.45,24Zm41.14-92.48q0-5.1-5.1-5.1h-25q-5.1,0-5.1,5.1v10.2c0,3.4,1.7,5.27,5.1,5.27h25c3.4,0,5.1-1.87,5.1-5.27Zm0,45.39q0-5.1-5.1-5.1h-25q-5.1,0-5.1,5.1v10.37q0,5.1,5.1,5.1h25q5.1,0,5.1-5.1Z"/><path class="cls-3" d="M67.58,191.91c-15.47,0-23.29-8-23.29-24v-22.1c0-10.2,4.42-16.32,14.62-18.53-9.69-1.7-14.28-8.33-14.28-20.06V86.85c0-16.14,7.82-24.14,23.29-24.14h46.24c15.64,0,23.46,8,23.46,24.14v20.4c0,11.73-4.59,18.36-14.28,20.06,10.2,2.21,14.62,8.33,14.62,18.53v22.1q0,24-23.46,24Zm41.14-92.48q0-5.1-5.1-5.1h-25q-5.1,0-5.1,5.1v10.2c0,3.4,1.7,5.27,5.1,5.27h25c3.4,0,5.1-1.87,5.1-5.27Zm0,45.39q0-5.1-5.1-5.1h-25q-5.1,0-5.1,5.1v10.37q0,5.1,5.1,5.1h25q5.1,0,5.1-5.1Z"/><path class="cls-3" d="M67.65,191.84c-15.47,0-23.29-8-23.29-24v-22.1c0-10.2,4.42-16.32,14.62-18.53-9.69-1.7-14.28-8.33-14.28-20.06V86.78c0-16.15,7.82-24.14,23.29-24.14h46.24c15.64,0,23.46,8,23.46,24.14v20.4c0,11.73-4.59,18.36-14.28,20.06,10.2,2.21,14.62,8.33,14.62,18.53v22.1q0,24-23.46,24Zm41.14-92.48q0-5.1-5.1-5.1h-25q-5.1,0-5.1,5.1v10.2c0,3.4,1.7,5.27,5.1,5.27h25c3.4,0,5.1-1.87,5.1-5.27Zm0,45.39q0-5.1-5.1-5.1h-25q-5.1,0-5.1,5.1v10.37q0,5.1,5.1,5.1h25q5.1,0,5.1-5.1Z"/><path class="cls-3" d="M67.72,191.77c-15.47,0-23.29-8-23.29-24V145.7c0-10.2,4.42-16.32,14.62-18.53-9.69-1.7-14.28-8.33-14.28-20.06V86.71c0-16.15,7.82-24.14,23.29-24.14H114.3c15.64,0,23.46,8,23.46,24.14v20.4c0,11.73-4.59,18.36-14.28,20.06,10.2,2.21,14.62,8.33,14.62,18.53v22.1q0,24-23.46,24Zm41.14-92.48q0-5.1-5.1-5.1h-25q-5.1,0-5.1,5.1v10.2c0,3.4,1.7,5.27,5.1,5.27h25c3.4,0,5.1-1.87,5.1-5.27Zm0,45.39q0-5.1-5.1-5.1h-25q-5.1,0-5.1,5.1v10.37q0,5.1,5.1,5.1h25q5.1,0,5.1-5.1Z"/><path class="cls-3" d="M67.79,191.7c-15.47,0-23.29-8-23.29-24v-22.1c0-10.2,4.42-16.32,14.62-18.53-9.69-1.7-14.28-8.33-14.28-20.06V86.64c0-16.15,7.82-24.14,23.29-24.14h46.24c15.64,0,23.46,8,23.46,24.14V107c0,11.73-4.59,18.36-14.28,20.06,10.2,2.21,14.62,8.33,14.62,18.53v22.1q0,24-23.46,24Zm41.14-92.48q0-5.1-5.1-5.1h-25q-5.1,0-5.1,5.1v10.2c0,3.4,1.7,5.27,5.1,5.27h25c3.4,0,5.1-1.87,5.1-5.27Zm0,45.39q0-5.1-5.1-5.1h-25q-5.1,0-5.1,5.1V155q0,5.1,5.1,5.1h25q5.1,0,5.1-5.1Z"/><path class="cls-3" d="M67.87,191.63c-15.47,0-23.29-8-23.29-24v-22.1c0-10.2,4.42-16.32,14.62-18.53-9.69-1.7-14.28-8.33-14.28-20.06V86.57c0-16.15,7.82-24.14,23.29-24.14h46.24c15.63,0,23.46,8,23.46,24.14V107c0,11.73-4.59,18.36-14.29,20.06,10.21,2.21,14.62,8.33,14.62,18.53v22.1q0,24-23.45,24ZM109,99.15q0-5.1-5.1-5.1h-25q-5.1,0-5.1,5.1v10.2c0,3.4,1.7,5.27,5.1,5.27h25c3.4,0,5.1-1.87,5.1-5.27Zm0,45.39q0-5.1-5.1-5.1h-25q-5.1,0-5.1,5.1v10.37q0,5.1,5.1,5.1h25q5.1,0,5.1-5.1Z"/><path class="cls-3" d="M67.94,191.55c-15.47,0-23.29-8-23.29-24v-22.1c0-10.2,4.42-16.32,14.62-18.53C49.58,125.25,45,118.62,45,106.89V86.49c0-16.14,7.82-24.14,23.29-24.14h46.24c15.64,0,23.46,8,23.46,24.14v20.4c0,11.73-4.59,18.36-14.28,20.06,10.2,2.21,14.62,8.33,14.62,18.53v22.1q0,24-23.46,24Zm41.14-92.48q0-5.1-5.1-5.1H79q-5.1,0-5.1,5.1v10.2c0,3.4,1.7,5.27,5.1,5.27h25c3.4,0,5.1-1.87,5.1-5.27Zm0,45.39q0-5.1-5.1-5.1H79q-5.1,0-5.1,5.1v10.37q0,5.1,5.1,5.1h25q5.1,0,5.1-5.1Z"/><path class="cls-3" d="M68,191.48c-15.47,0-23.29-8-23.29-24v-22.1c0-10.2,4.42-16.32,14.62-18.53-9.69-1.7-14.28-8.33-14.28-20.06V86.42c0-16.15,7.82-24.14,23.29-24.14h46.24c15.64,0,23.46,8,23.46,24.14v20.4c0,11.73-4.59,18.36-14.28,20.06,10.2,2.21,14.62,8.33,14.62,18.53v22.1q0,24-23.46,24ZM109.15,99q0-5.1-5.1-5.1h-25Q74,93.9,74,99v10.2c0,3.4,1.7,5.27,5.1,5.27h25c3.4,0,5.1-1.87,5.1-5.27Zm0,45.39q0-5.1-5.1-5.1h-25q-5.1,0-5.1,5.1v10.37q0,5.1,5.1,5.1h25q5.1,0,5.1-5.1Z"/><path class="cls-3" d="M68.08,191.41c-15.47,0-23.29-8-23.29-24v-22.1c0-10.2,4.42-16.32,14.62-18.53-9.69-1.7-14.28-8.33-14.28-20.06V86.35c0-16.15,7.82-24.14,23.29-24.14h46.24c15.64,0,23.46,8,23.46,24.14v20.4c0,11.73-4.59,18.36-14.28,20.06,10.2,2.21,14.62,8.33,14.62,18.53v22.1q0,24-23.46,24Zm41.14-92.48q0-5.1-5.1-5.1h-25q-5.1,0-5.1,5.1v10.2c0,3.4,1.7,5.27,5.1,5.27h25c3.4,0,5.1-1.87,5.1-5.27Zm0,45.39q0-5.1-5.1-5.1h-25q-5.1,0-5.1,5.1v10.37q0,5.1,5.1,5.1h25q5.1,0,5.1-5.1Z"/><path class="cls-3" d="M68.15,191.34c-15.47,0-23.29-8-23.29-24v-22.1c0-10.2,4.42-16.32,14.62-18.53-9.69-1.7-14.28-8.33-14.28-20.06V86.28c0-16.15,7.82-24.14,23.29-24.14h46.24c15.64,0,23.46,8,23.46,24.14v20.4c0,11.73-4.59,18.36-14.28,20.06,10.2,2.21,14.62,8.33,14.62,18.53v22.1q0,24-23.46,24Zm41.14-92.48q0-5.1-5.1-5.1h-25q-5.1,0-5.1,5.1v10.2c0,3.4,1.7,5.27,5.1,5.27h25c3.4,0,5.1-1.87,5.1-5.27Zm0,45.39q0-5.1-5.1-5.1h-25q-5.1,0-5.1,5.1v10.37q0,5.1,5.1,5.1h25q5.1,0,5.1-5.1Z"/><path class="cls-3" d="M68.23,191.27c-15.47,0-23.29-8-23.29-24V145.2c0-10.2,4.42-16.32,14.62-18.53-9.69-1.7-14.28-8.33-14.28-20.06V86.21c0-16.15,7.82-24.14,23.29-24.14h46.24c15.63,0,23.46,8,23.46,24.14v20.4c0,11.73-4.59,18.36-14.29,20.06,10.21,2.21,14.62,8.33,14.62,18.53v22.1q0,24-23.45,24Zm41.14-92.48q0-5.1-5.1-5.1h-25q-5.1,0-5.1,5.1V109c0,3.4,1.7,5.27,5.1,5.27h25c3.4,0,5.1-1.87,5.1-5.27Zm0,45.39q0-5.1-5.1-5.1h-25q-5.1,0-5.1,5.1v10.37q0,5.1,5.1,5.1h25q5.1,0,5.1-5.1Z"/><path class="cls-3" d="M68.3,191.19c-15.47,0-23.29-8-23.29-24v-22.1c0-10.2,4.42-16.32,14.62-18.53-9.69-1.7-14.28-8.33-14.28-20.06V86.13C45.35,70,53.17,62,68.64,62h46.24c15.64,0,23.46,8,23.46,24.14v20.4c0,11.73-4.59,18.36-14.28,20.06,10.2,2.21,14.62,8.33,14.62,18.53v22.1q0,24-23.46,24Zm41.14-92.48q0-5.1-5.1-5.1h-25q-5.1,0-5.1,5.1v10.2c0,3.4,1.7,5.27,5.1,5.27h25c3.4,0,5.1-1.87,5.1-5.27Zm0,45.39q0-5.1-5.1-5.1h-25q-5.1,0-5.1,5.1v10.37q0,5.1,5.1,5.1h25q5.1,0,5.1-5.1Z"/><path class="cls-3" d="M68.37,191.12c-15.47,0-23.29-8-23.29-24v-22.1c0-10.2,4.42-16.32,14.62-18.53-9.69-1.7-14.28-8.33-14.28-20.06V86.06c0-16.15,7.82-24.14,23.29-24.14H115c15.64,0,23.46,8,23.46,24.14v20.4c0,11.73-4.59,18.36-14.28,20.06,10.2,2.21,14.62,8.33,14.62,18.53v22.1q0,24-23.46,24Zm41.14-92.48q0-5.1-5.1-5.1h-25q-5.1,0-5.1,5.1v10.2c0,3.4,1.7,5.27,5.1,5.27h25c3.4,0,5.1-1.87,5.1-5.27Zm0,45.39q0-5.1-5.1-5.1h-25q-5.1,0-5.1,5.1V154.4q0,5.1,5.1,5.1h25q5.1,0,5.1-5.1Z"/><path class="cls-3" d="M68.44,191.05c-15.47,0-23.29-8-23.29-24V145c0-10.2,4.42-16.32,14.62-18.53-9.69-1.7-14.28-8.33-14.28-20.06V86c0-16.15,7.82-24.14,23.29-24.14H115c15.64,0,23.46,8,23.46,24.14v20.4c0,11.73-4.59,18.36-14.28,20.06,10.2,2.21,14.62,8.33,14.62,18.53v22.1q0,24-23.46,24Zm41.14-92.48q0-5.1-5.1-5.1h-25q-5.1,0-5.1,5.1v10.2c0,3.4,1.7,5.27,5.1,5.27h25c3.4,0,5.1-1.87,5.1-5.27Zm0,45.39q0-5.1-5.1-5.1h-25q-5.1,0-5.1,5.1v10.37q0,5.1,5.1,5.1h25q5.1,0,5.1-5.1Z"/><path class="cls-3" d="M68.51,191c-15.47,0-23.29-8-23.29-24v-22.1c0-10.2,4.42-16.32,14.62-18.53-9.69-1.7-14.28-8.33-14.28-20.06V85.92c0-16.15,7.82-24.14,23.29-24.14h46.24c15.64,0,23.46,8,23.46,24.14v20.4c0,11.73-4.59,18.36-14.28,20.06,10.2,2.21,14.62,8.33,14.62,18.53V167q0,24-23.46,24ZM109.65,98.5q0-5.1-5.1-5.1h-25q-5.1,0-5.1,5.1v10.2c0,3.4,1.7,5.27,5.1,5.27h25c3.4,0,5.1-1.87,5.1-5.27Zm0,45.39q0-5.1-5.1-5.1h-25q-5.1,0-5.1,5.1v10.37q0,5.1,5.1,5.1h25q5.1,0,5.1-5.1Z"/><path class="cls-3" d="M68.59,190.91c-15.47,0-23.29-8-23.29-24v-22.1c0-10.2,4.42-16.32,14.62-18.53-9.69-1.7-14.28-8.33-14.28-20.06V85.85c0-16.15,7.82-24.14,23.29-24.14h46.24c15.63,0,23.46,8,23.46,24.14v20.4c0,11.73-4.59,18.36-14.29,20.06,10.21,2.21,14.62,8.33,14.62,18.53v22.1q0,24-23.45,24Zm41.14-92.48q0-5.1-5.1-5.1h-25q-5.1,0-5.1,5.1v10.2c0,3.4,1.7,5.27,5.1,5.27h25c3.4,0,5.1-1.87,5.1-5.27Zm0,45.39q0-5.1-5.1-5.1h-25q-5.1,0-5.1,5.1v10.37q0,5.1,5.1,5.1h25q5.1,0,5.1-5.1Z"/><path class="cls-3" d="M68.66,190.83c-15.47,0-23.29-8-23.29-24v-22.1c0-10.2,4.42-16.32,14.62-18.53-9.69-1.7-14.28-8.33-14.28-20.06V85.77c0-16.14,7.82-24.14,23.29-24.14h46.24c15.64,0,23.46,8,23.46,24.14v20.4c0,11.73-4.59,18.36-14.28,20.06,10.2,2.21,14.62,8.33,14.62,18.53v22.1q0,24-23.46,24ZM109.8,98.35q0-5.1-5.1-5.1h-25q-5.1,0-5.1,5.1v10.2c0,3.4,1.7,5.27,5.1,5.27h25c3.4,0,5.1-1.87,5.1-5.27Zm0,45.39q0-5.1-5.1-5.1h-25q-5.1,0-5.1,5.1v10.37q0,5.1,5.1,5.1h25q5.1,0,5.1-5.1Z"/><path class="cls-3" d="M68.73,190.76c-15.47,0-23.29-8-23.29-24v-22.1c0-10.2,4.42-16.32,14.62-18.53-9.69-1.7-14.28-8.33-14.28-20.06V85.7c0-16.15,7.82-24.14,23.29-24.14h46.24c15.64,0,23.46,8,23.46,24.14v20.4c0,11.73-4.59,18.36-14.28,20.06,10.2,2.21,14.62,8.33,14.62,18.53v22.1q0,24-23.46,24Zm41.14-92.48q0-5.1-5.1-5.1h-25q-5.1,0-5.1,5.1v10.2c0,3.4,1.7,5.27,5.1,5.27h25c3.4,0,5.1-1.87,5.1-5.27Zm0,45.39q0-5.1-5.1-5.1h-25q-5.1,0-5.1,5.1V154q0,5.1,5.1,5.1h25q5.1,0,5.1-5.1Z"/><path class="cls-3" d="M68.8,190.69c-15.47,0-23.29-8-23.29-24v-22.1c0-10.2,4.42-16.32,14.62-18.53-9.69-1.7-14.28-8.33-14.28-20.06V85.63c0-16.15,7.82-24.14,23.29-24.14h46.24c15.64,0,23.46,8,23.46,24.14V106c0,11.73-4.59,18.36-14.28,20.06,10.2,2.21,14.62,8.33,14.62,18.53v22.1q0,24-23.46,24Zm41.14-92.48q0-5.1-5.1-5.1h-25q-5.1,0-5.1,5.1v10.2c0,3.4,1.7,5.27,5.1,5.27h25c3.4,0,5.1-1.87,5.1-5.27Zm0,45.39q0-5.1-5.1-5.1h-25q-5.1,0-5.1,5.1V154q0,5.1,5.1,5.1h25q5.1,0,5.1-5.1Z"/><path class="cls-3" d="M68.87,190.62c-15.47,0-23.29-8-23.29-24v-22.1c0-10.2,4.42-16.32,14.62-18.53-9.69-1.7-14.28-8.33-14.28-20.06V85.56c0-16.15,7.82-24.14,23.29-24.14h46.24c15.64,0,23.46,8,23.46,24.14V106c0,11.73-4.59,18.36-14.28,20.06,10.2,2.21,14.62,8.33,14.62,18.53v22.1q0,24-23.46,24ZM110,98.14q0-5.1-5.1-5.1h-25q-5.1,0-5.1,5.1v10.2c0,3.4,1.7,5.27,5.1,5.27h25c3.4,0,5.1-1.87,5.1-5.27Zm0,45.39q0-5.1-5.1-5.1h-25q-5.1,0-5.1,5.1V153.9q0,5.1,5.1,5.1h25q5.1,0,5.1-5.1Z"/><path class="cls-3" d="M69,190.55c-15.47,0-23.29-8-23.29-24v-22.1c0-10.2,4.42-16.32,14.62-18.53C50.59,124.25,46,117.62,46,105.89V85.49c0-16.15,7.82-24.14,23.29-24.14h46.24c15.63,0,23.46,8,23.46,24.14v20.4c0,11.73-4.59,18.36-14.29,20.06,10.21,2.21,14.62,8.33,14.62,18.53v22.1q0,24-23.45,24Zm41.14-92.48q0-5.1-5.1-5.1H80q-5.1,0-5.1,5.1v10.2c0,3.4,1.7,5.27,5.1,5.27h25c3.4,0,5.1-1.87,5.1-5.27Zm0,45.39q0-5.1-5.1-5.1H80q-5.1,0-5.1,5.1v10.37q0,5.1,5.1,5.1h25q5.1,0,5.1-5.1Z"/><path class="cls-3" d="M69,190.47c-15.47,0-23.29-8-23.29-24V144.4c0-10.2,4.42-16.32,14.62-18.53-9.69-1.7-14.28-8.33-14.28-20.06V85.41c0-16.14,7.82-24.14,23.29-24.14H115.6c15.64,0,23.46,8,23.46,24.14v20.4c0,11.73-4.59,18.36-14.28,20.06,10.2,2.21,14.62,8.33,14.62,18.53v22.1q0,24-23.46,24ZM110.16,98q0-5.1-5.1-5.1h-25Q75,92.89,75,98v10.2c0,3.4,1.7,5.27,5.1,5.27h25c3.4,0,5.1-1.87,5.1-5.27Zm0,45.39q0-5.1-5.1-5.1h-25q-5.1,0-5.1,5.1v10.37q0,5.1,5.1,5.1h25q5.1,0,5.1-5.1Z"/><path class="cls-3" d="M69.09,190.4c-15.47,0-23.29-8-23.29-24v-22.1c0-10.2,4.42-16.32,14.62-18.53-9.69-1.7-14.28-8.33-14.28-20.06V85.34C46.14,69.19,54,61.2,69.43,61.2h46.24c15.64,0,23.46,8,23.46,24.14v20.4c0,11.73-4.59,18.36-14.28,20.06,10.2,2.21,14.62,8.33,14.62,18.53v22.1q0,24-23.46,24Zm41.14-92.48q0-5.1-5.1-5.1h-25q-5.1,0-5.1,5.1v10.2c0,3.4,1.7,5.27,5.1,5.27h25c3.4,0,5.1-1.87,5.1-5.27Zm0,45.39q0-5.1-5.1-5.1h-25q-5.1,0-5.1,5.1v10.37q0,5.1,5.1,5.1h25q5.1,0,5.1-5.1Z"/><path class="cls-3" d="M69.16,190.33c-15.47,0-23.29-8-23.29-24v-22.1c0-10.2,4.42-16.32,14.62-18.53-9.69-1.7-14.28-8.33-14.28-20.06V85.27c0-16.15,7.82-24.14,23.29-24.14h46.24c15.64,0,23.46,8,23.46,24.14v20.4c0,11.73-4.59,18.36-14.28,20.06,10.2,2.21,14.62,8.33,14.62,18.53v22.1q0,24-23.46,24ZM110.3,97.85q0-5.1-5.1-5.1h-25q-5.1,0-5.1,5.1v10.2c0,3.4,1.7,5.27,5.1,5.27h25c3.4,0,5.1-1.87,5.1-5.27Zm0,45.39q0-5.1-5.1-5.1h-25q-5.1,0-5.1,5.1v10.37q0,5.1,5.1,5.1h25q5.1,0,5.1-5.1Z"/><path class="cls-3" d="M69.23,190.26c-15.47,0-23.29-8-23.29-24v-22.1c0-10.2,4.42-16.32,14.62-18.53-9.69-1.7-14.28-8.33-14.28-20.06V85.2c0-16.15,7.82-24.14,23.29-24.14h46.24c15.64,0,23.46,8,23.46,24.14v20.4c0,11.73-4.59,18.36-14.28,20.06,10.2,2.21,14.62,8.33,14.62,18.53v22.1q0,24-23.46,24Zm41.14-92.48q0-5.1-5.1-5.1h-25q-5.1,0-5.1,5.1V108c0,3.4,1.7,5.27,5.1,5.27h25c3.4,0,5.1-1.87,5.1-5.27Zm0,45.39q0-5.1-5.1-5.1h-25q-5.1,0-5.1,5.1v10.37q0,5.1,5.1,5.1h25q5.1,0,5.1-5.1Z"/><path class="cls-3" d="M69.31,190.19c-15.47,0-23.29-8-23.29-24v-22.1c0-10.2,4.42-16.32,14.62-18.53-9.69-1.7-14.28-8.33-14.28-20.06V85.13C46.36,69,54.18,61,69.65,61h46.24c15.63,0,23.46,8,23.46,24.14v20.4c0,11.73-4.59,18.36-14.29,20.06,10.21,2.21,14.62,8.33,14.62,18.53v22.1q0,24-23.45,24Zm41.14-92.48q0-5.1-5.1-5.1h-25q-5.1,0-5.1,5.1v10.2c0,3.4,1.7,5.27,5.1,5.27h25c3.4,0,5.1-1.87,5.1-5.27Zm0,45.39q0-5.1-5.1-5.1h-25q-5.1,0-5.1,5.1v10.37q0,5.1,5.1,5.1h25q5.1,0,5.1-5.1Z"/><path class="cls-3" d="M69.38,190.11c-15.47,0-23.29-8-23.29-24V144c0-10.2,4.42-16.32,14.62-18.53-9.69-1.7-14.28-8.33-14.28-20.06V85.05c0-16.14,7.82-24.14,23.29-24.14H116c15.64,0,23.46,8,23.46,24.14v20.4c0,11.73-4.59,18.36-14.28,20.06,10.2,2.21,14.62,8.33,14.62,18.53v22.1q0,24-23.46,24Zm41.14-92.48q0-5.1-5.1-5.1h-25q-5.1,0-5.1,5.1v10.2c0,3.4,1.7,5.27,5.1,5.27h25c3.4,0,5.1-1.87,5.1-5.27Zm0,45.39q0-5.1-5.1-5.1h-25q-5.1,0-5.1,5.1v10.37q0,5.1,5.1,5.1h25q5.1,0,5.1-5.1Z"/><path class="cls-3" d="M69.45,190c-15.47,0-23.29-8-23.29-24V144c0-10.2,4.42-16.32,14.62-18.53-9.69-1.7-14.28-8.33-14.28-20.06V85c0-16.15,7.82-24.14,23.29-24.14H116c15.64,0,23.46,8,23.46,24.14v20.4c0,11.73-4.59,18.36-14.28,20.06,10.2,2.21,14.62,8.33,14.62,18.53v22.1q0,24-23.46,24Zm41.14-92.48q0-5.1-5.1-5.1h-25q-5.1,0-5.1,5.1v10.2c0,3.4,1.7,5.27,5.1,5.27h25c3.4,0,5.1-1.87,5.1-5.27Zm0,45.39q0-5.1-5.1-5.1h-25q-5.1,0-5.1,5.1v10.37q0,5.1,5.1,5.1h25q5.1,0,5.1-5.1Z"/><path class="cls-3" d="M69.52,190c-15.47,0-23.29-8-23.29-24V143.9c0-10.2,4.42-16.32,14.62-18.53-9.69-1.7-14.28-8.33-14.28-20.06V84.91c0-16.15,7.82-24.14,23.29-24.14H116.1c15.64,0,23.46,8,23.46,24.14v20.4c0,11.73-4.59,18.36-14.28,20.06,10.2,2.21,14.62,8.33,14.62,18.53V166q0,24-23.46,24Zm41.14-92.48q0-5.1-5.1-5.1h-25q-5.1,0-5.1,5.1v10.2c0,3.4,1.7,5.27,5.1,5.27h25c3.4,0,5.1-1.87,5.1-5.27Zm0,45.39q0-5.1-5.1-5.1h-25q-5.1,0-5.1,5.1v10.37q0,5.1,5.1,5.1h25q5.1,0,5.1-5.1Z"/><path class="cls-3" d="M69.59,189.9c-15.47,0-23.29-8-23.29-24v-22.1c0-10.2,4.42-16.32,14.62-18.53-9.69-1.7-14.28-8.33-14.28-20.06V84.84c0-16.15,7.82-24.14,23.29-24.14h46.24c15.64,0,23.46,8,23.46,24.14v20.4c0,11.73-4.59,18.36-14.28,20.06,10.2,2.21,14.62,8.33,14.62,18.53v22.1q0,24-23.46,24Zm41.14-92.48q0-5.1-5.1-5.1h-25q-5.1,0-5.1,5.1v10.2c0,3.4,1.7,5.27,5.1,5.27h25c3.4,0,5.1-1.87,5.1-5.27Zm0,45.39q0-5.1-5.1-5.1h-25q-5.1,0-5.1,5.1v10.37q0,5.1,5.1,5.1h25q5.1,0,5.1-5.1Z"/><path class="cls-3" d="M69.67,189.83c-15.47,0-23.29-8-23.29-24v-22.1c0-10.2,4.42-16.32,14.62-18.53-9.69-1.7-14.28-8.33-14.28-20.06V84.77c0-16.15,7.82-24.14,23.29-24.14h46.24c15.63,0,23.46,8,23.46,24.14v20.4c0,11.73-4.59,18.36-14.29,20.06,10.21,2.21,14.62,8.33,14.62,18.53v22.1q0,24-23.45,24Zm41.14-92.48q0-5.1-5.1-5.1h-25q-5.1,0-5.1,5.1v10.2c0,3.4,1.7,5.27,5.1,5.27h25c3.4,0,5.1-1.87,5.1-5.27Zm0,45.39q0-5.1-5.1-5.1h-25q-5.1,0-5.1,5.1v10.37q0,5.1,5.1,5.1h25q5.1,0,5.1-5.1Z"/><path class="cls-3" d="M69.74,189.75c-15.47,0-23.29-8-23.29-24v-22.1c0-10.2,4.42-16.32,14.62-18.53-9.69-1.7-14.28-8.33-14.28-20.06V84.69c0-16.14,7.82-24.14,23.29-24.14h46.24c15.64,0,23.46,8,23.46,24.14v20.4c0,11.73-4.59,18.36-14.28,20.06,10.2,2.21,14.62,8.33,14.62,18.53v22.1q0,24-23.46,24Zm41.14-92.48q0-5.1-5.1-5.1h-25q-5.1,0-5.1,5.1v10.2c0,3.4,1.7,5.27,5.1,5.27h25c3.4,0,5.1-1.87,5.1-5.27Zm0,45.39q0-5.1-5.1-5.1h-25q-5.1,0-5.1,5.1V153q0,5.1,5.1,5.1h25q5.1,0,5.1-5.1Z"/><path class="cls-3" d="M69.81,189.68c-15.47,0-23.29-8-23.29-24v-22.1c0-10.2,4.42-16.32,14.62-18.53-9.69-1.7-14.28-8.33-14.28-20.06V84.62c0-16.15,7.82-24.14,23.29-24.14h46.24c15.64,0,23.46,8,23.46,24.14V105c0,11.73-4.59,18.36-14.28,20.06,10.2,2.21,14.62,8.33,14.62,18.53v22.1q0,24-23.46,24ZM111,97.2q0-5.1-5.1-5.1h-25q-5.1,0-5.1,5.1v10.2c0,3.4,1.7,5.27,5.1,5.27h25c3.4,0,5.1-1.87,5.1-5.27Zm0,45.39q0-5.1-5.1-5.1h-25q-5.1,0-5.1,5.1V153q0,5.1,5.1,5.1h25q5.1,0,5.1-5.1Z"/><path class="cls-3" d="M69.88,189.61c-15.47,0-23.29-8-23.29-24v-22.1c0-10.2,4.42-16.32,14.62-18.53-9.69-1.7-14.28-8.33-14.28-20.06V84.55c0-16.15,7.82-24.14,23.29-24.14h46.24c15.64,0,23.46,8,23.46,24.14V105c0,11.73-4.59,18.36-14.28,20.06,10.2,2.21,14.62,8.33,14.62,18.53v22.1q0,24-23.46,24ZM111,97.13q0-5.1-5.1-5.1h-25q-5.1,0-5.1,5.1v10.2c0,3.4,1.7,5.27,5.1,5.27h25c3.4,0,5.1-1.87,5.1-5.27Zm0,45.39q0-5.1-5.1-5.1h-25q-5.1,0-5.1,5.1v10.37q0,5.1,5.1,5.1h25q5.1,0,5.1-5.1Z"/><path class="cls-3" d="M70,189.54c-15.47,0-23.29-8-23.29-24v-22.1c0-10.2,4.42-16.32,14.62-18.53C51.59,123.24,47,116.61,47,104.88V84.48c0-16.15,7.82-24.14,23.29-24.14h46.24c15.64,0,23.46,8,23.46,24.14v20.4c0,11.73-4.59,18.36-14.28,20.06,10.2,2.21,14.62,8.33,14.62,18.53v22.1q0,24-23.46,24Zm41.14-92.48q0-5.1-5.1-5.1H81q-5.1,0-5.1,5.1v10.2c0,3.4,1.7,5.27,5.1,5.27h25c3.4,0,5.1-1.87,5.1-5.27Zm0,45.39q0-5.1-5.1-5.1H81q-5.1,0-5.1,5.1v10.37q0,5.1,5.1,5.1h25q5.1,0,5.1-5.1Z"/><path class="cls-3" d="M70,189.47c-15.47,0-23.29-8-23.29-24V143.4c0-10.2,4.42-16.32,14.62-18.53-9.69-1.7-14.28-8.33-14.28-20.06V84.41c0-16.15,7.82-24.14,23.29-24.14h46.24c15.63,0,23.46,8,23.46,24.14v20.4c0,11.73-4.59,18.36-14.29,20.06,10.21,2.21,14.62,8.33,14.62,18.53v22.1q0,24-23.45,24ZM111.17,97q0-5.1-5.1-5.1h-25Q76,91.89,76,97v10.2c0,3.4,1.7,5.27,5.1,5.27h25c3.4,0,5.1-1.87,5.1-5.27Zm0,45.39q0-5.1-5.1-5.1h-25q-5.1,0-5.1,5.1v10.37q0,5.1,5.1,5.1h25q5.1,0,5.1-5.1Z"/><path class="cls-3" d="M70.1,189.39c-15.47,0-23.29-8-23.29-24v-22.1c0-10.2,4.42-16.32,14.62-18.53-9.69-1.7-14.28-8.33-14.28-20.06V84.33c0-16.14,7.82-24.14,23.29-24.14h46.24c15.64,0,23.46,8,23.46,24.14v20.4c0,11.73-4.59,18.36-14.28,20.06,10.2,2.21,14.62,8.33,14.62,18.53v22.1q0,24-23.46,24Zm41.14-92.48q0-5.1-5.1-5.1h-25q-5.1,0-5.1,5.1v10.2c0,3.4,1.7,5.27,5.1,5.27h25c3.4,0,5.1-1.87,5.1-5.27Zm0,45.39q0-5.1-5.1-5.1h-25q-5.1,0-5.1,5.1v10.37q0,5.1,5.1,5.1h25q5.1,0,5.1-5.1Z"/><path class="cls-3" d="M70.17,189.32c-15.47,0-23.29-8-23.29-24v-22.1c0-10.2,4.42-16.32,14.62-18.53-9.69-1.7-14.28-8.33-14.28-20.06V84.26c0-16.15,7.82-24.14,23.29-24.14h46.24c15.64,0,23.46,8,23.46,24.14v20.4c0,11.73-4.59,18.36-14.28,20.06,10.2,2.21,14.62,8.33,14.62,18.53v22.1q0,24-23.46,24Zm41.14-92.48q0-5.1-5.1-5.1h-25q-5.1,0-5.1,5.1V107c0,3.4,1.7,5.27,5.1,5.27h25c3.4,0,5.1-1.87,5.1-5.27Zm0,45.39q0-5.1-5.1-5.1h-25q-5.1,0-5.1,5.1V152.6q0,5.1,5.1,5.1h25q5.1,0,5.1-5.1Z"/><path class="cls-3" d="M70.24,189.25c-15.47,0-23.29-8-23.29-24v-22.1c0-10.2,4.42-16.32,14.62-18.53-9.69-1.7-14.28-8.33-14.28-20.06V84.19c0-16.15,7.82-24.14,23.29-24.14h46.24c15.64,0,23.46,8,23.46,24.14v20.4c0,11.73-4.59,18.36-14.28,20.06,10.2,2.21,14.62,8.33,14.62,18.53v22.1q0,24-23.46,24Zm41.14-92.48q0-5.1-5.1-5.1h-25q-5.1,0-5.1,5.1V107c0,3.4,1.7,5.27,5.1,5.27h25c3.4,0,5.1-1.87,5.1-5.27Zm0,45.39q0-5.1-5.1-5.1h-25q-5.1,0-5.1,5.1v10.37q0,5.1,5.1,5.1h25q5.1,0,5.1-5.1Z"/><path class="cls-3" d="M70.31,189.18c-15.47,0-23.29-8-23.29-24v-22.1c0-10.2,4.42-16.32,14.62-18.53-9.69-1.7-14.28-8.33-14.28-20.06V84.12C47.36,68,55.18,60,70.65,60h46.24c15.64,0,23.46,8,23.46,24.14v20.4c0,11.73-4.59,18.36-14.28,20.06,10.2,2.21,14.62,8.33,14.62,18.53v22.1q0,24-23.46,24ZM111.45,96.7q0-5.1-5.1-5.1h-25q-5.1,0-5.1,5.1v10.2c0,3.4,1.7,5.27,5.1,5.27h25c3.4,0,5.1-1.87,5.1-5.27Zm0,45.39q0-5.1-5.1-5.1h-25q-5.1,0-5.1,5.1v10.37q0,5.1,5.1,5.1h25q5.1,0,5.1-5.1Z"/><path class="cls-3" d="M70.39,189.11c-15.47,0-23.29-8-23.29-24V143c0-10.2,4.42-16.32,14.62-18.53-9.69-1.7-14.28-8.33-14.28-20.06V84.05c0-16.15,7.82-24.14,23.29-24.14H117c15.63,0,23.46,8,23.46,24.14v20.4c0,11.73-4.59,18.36-14.29,20.06,10.21,2.21,14.62,8.33,14.62,18.53v22.1q0,24-23.45,24Zm41.14-92.48q0-5.1-5.1-5.1h-25q-5.1,0-5.1,5.1v10.2c0,3.4,1.7,5.27,5.1,5.27h25c3.4,0,5.1-1.87,5.1-5.27Zm0,45.39q0-5.1-5.1-5.1h-25q-5.1,0-5.1,5.1v10.37q0,5.1,5.1,5.1h25q5.1,0,5.1-5.1Z"/><path class="cls-3" d="M70.46,189c-15.47,0-23.29-8-23.29-24V143c0-10.2,4.42-16.32,14.62-18.53-9.69-1.7-14.28-8.33-14.28-20.06V84c0-16.14,7.82-24.14,23.29-24.14H117c15.64,0,23.46,8,23.46,24.14v20.4c0,11.73-4.59,18.36-14.28,20.06,10.2,2.21,14.62,8.33,14.62,18.53v22.1q0,24-23.46,24ZM111.6,96.55q0-5.1-5.1-5.1h-25q-5.1,0-5.1,5.1v10.2c0,3.4,1.7,5.27,5.1,5.27h25c3.4,0,5.1-1.87,5.1-5.27Zm0,45.39q0-5.1-5.1-5.1h-25q-5.1,0-5.1,5.1v10.37q0,5.1,5.1,5.1h25q5.1,0,5.1-5.1Z"/><path class="cls-3" d="M70.53,189c-15.47,0-23.29-8-23.29-24v-22.1c0-10.2,4.42-16.32,14.62-18.53-9.69-1.7-14.28-8.33-14.28-20.06V83.9c0-16.15,7.82-24.14,23.29-24.14h46.24c15.64,0,23.46,8,23.46,24.14v20.4c0,11.73-4.59,18.36-14.28,20.06,10.2,2.21,14.62,8.33,14.62,18.53V165q0,24-23.46,24Zm41.14-92.48q0-5.1-5.1-5.1h-25q-5.1,0-5.1,5.1v10.2c0,3.4,1.7,5.27,5.1,5.27h25c3.4,0,5.1-1.87,5.1-5.27Zm0,45.39q0-5.1-5.1-5.1h-25q-5.1,0-5.1,5.1v10.37q0,5.1,5.1,5.1h25q5.1,0,5.1-5.1Z"/><path class="cls-3" d="M70.6,188.89c-15.47,0-23.29-8-23.29-24v-22.1c0-10.2,4.42-16.32,14.62-18.53-9.69-1.7-14.28-8.33-14.28-20.06V83.83c0-16.15,7.82-24.14,23.29-24.14h46.24c15.64,0,23.46,8,23.46,24.14v20.4c0,11.73-4.59,18.36-14.28,20.06,10.2,2.21,14.62,8.33,14.62,18.53v22.1q0,24-23.46,24Zm41.14-92.48q0-5.1-5.1-5.1h-25q-5.1,0-5.1,5.1v10.2c0,3.4,1.7,5.27,5.1,5.27h25c3.4,0,5.1-1.87,5.1-5.27Zm0,45.39q0-5.1-5.1-5.1h-25q-5.1,0-5.1,5.1v10.37q0,5.1,5.1,5.1h25q5.1,0,5.1-5.1Z"/><path class="cls-3" d="M70.67,188.82c-15.47,0-23.29-8-23.29-24v-22.1c0-10.2,4.42-16.32,14.62-18.53-9.69-1.7-14.28-8.33-14.28-20.06V83.76c0-16.15,7.82-24.14,23.29-24.14h46.24c15.64,0,23.46,8,23.46,24.14v20.4c0,11.73-4.59,18.36-14.28,20.06,10.2,2.21,14.62,8.33,14.62,18.53v22.1q0,24-23.46,24Zm41.14-92.48q0-5.1-5.1-5.1h-25q-5.1,0-5.1,5.1v10.2c0,3.4,1.7,5.27,5.1,5.27h25c3.4,0,5.1-1.87,5.1-5.27Zm0,45.39q0-5.1-5.1-5.1h-25q-5.1,0-5.1,5.1V152.1q0,5.1,5.1,5.1h25q5.1,0,5.1-5.1Z"/><path class="cls-3" d="M70.75,188.75c-15.47,0-23.29-8-23.29-24v-22.1c0-10.2,4.42-16.32,14.62-18.53-9.69-1.7-14.28-8.33-14.28-20.06V83.69c0-16.15,7.82-24.14,23.29-24.14h46.24c15.63,0,23.46,8,23.46,24.14v20.4c0,11.73-4.59,18.36-14.29,20.06,10.21,2.21,14.62,8.33,14.62,18.53v22.1q0,24-23.45,24Zm41.14-92.48q0-5.1-5.1-5.1h-25q-5.1,0-5.1,5.1v10.2c0,3.4,1.7,5.27,5.1,5.27h25c3.4,0,5.1-1.87,5.1-5.27Zm0,45.39q0-5.1-5.1-5.1h-25q-5.1,0-5.1,5.1V152q0,5.1,5.1,5.1h25q5.1,0,5.1-5.1Z"/><path class="cls-3" d="M70.82,188.67c-15.47,0-23.29-8-23.29-24V142.6c0-10.2,4.42-16.32,14.62-18.53-9.69-1.7-14.28-8.33-14.28-20.06V83.61c0-16.14,7.82-24.14,23.29-24.14H117.4c15.64,0,23.46,8,23.46,24.14V104c0,11.73-4.59,18.36-14.28,20.06,10.2,2.21,14.62,8.33,14.62,18.53v22.1q0,24-23.46,24ZM112,96.19q0-5.1-5.1-5.1h-25q-5.1,0-5.1,5.1v10.2c0,3.4,1.7,5.27,5.1,5.27h25c3.4,0,5.1-1.87,5.1-5.27Zm0,45.39q0-5.1-5.1-5.1h-25q-5.1,0-5.1,5.1V152q0,5.1,5.1,5.1h25q5.1,0,5.1-5.1Z"/><path class="cls-3" d="M70.89,188.6c-15.47,0-23.29-8-23.29-24v-22.1c0-10.2,4.42-16.32,14.62-18.53-9.69-1.7-14.28-8.33-14.28-20.06V83.54c0-16.15,7.82-24.14,23.29-24.14h46.24c15.64,0,23.46,8,23.46,24.14v20.4c0,11.73-4.59,18.36-14.28,20.06,10.2,2.21,14.62,8.33,14.62,18.53v22.1q0,24-23.46,24ZM112,96.12q0-5.1-5.1-5.1h-25q-5.1,0-5.1,5.1v10.2c0,3.4,1.7,5.27,5.1,5.27h25c3.4,0,5.1-1.87,5.1-5.27Zm0,45.39q0-5.1-5.1-5.1h-25q-5.1,0-5.1,5.1v10.37q0,5.1,5.1,5.1h25q5.1,0,5.1-5.1Z"/><path class="cls-3" d="M71,188.53c-15.47,0-23.29-8-23.29-24v-22.1c0-10.2,4.42-16.32,14.62-18.53C52.6,122.23,48,115.6,48,103.87V83.47c0-16.15,7.82-24.14,23.29-24.14h46.24c15.64,0,23.46,8,23.46,24.14v20.4c0,11.73-4.59,18.36-14.28,20.06,10.2,2.21,14.62,8.33,14.62,18.53v22.1q0,24-23.46,24ZM112.1,96.05q0-5.1-5.1-5.1H82q-5.1,0-5.1,5.1v10.2c0,3.4,1.7,5.27,5.1,5.27h25c3.4,0,5.1-1.87,5.1-5.27Zm0,45.39q0-5.1-5.1-5.1H82q-5.1,0-5.1,5.1v10.37q0,5.1,5.1,5.1h25q5.1,0,5.1-5.1Z"/><path class="cls-3" d="M71,188.46c-15.47,0-23.29-8-23.29-24v-22.1c0-10.2,4.42-16.32,14.62-18.53-9.69-1.7-14.28-8.33-14.28-20.06V83.4c0-16.15,7.82-24.14,23.29-24.14h46.24c15.64,0,23.46,8,23.46,24.14v20.4c0,11.73-4.59,18.36-14.28,20.06,10.2,2.21,14.62,8.33,14.62,18.53v22.1q0,24-23.46,24ZM112.17,96q0-5.1-5.1-5.1h-25Q77,90.88,77,96v10.2c0,3.4,1.7,5.27,5.1,5.27h25c3.4,0,5.1-1.87,5.1-5.27Zm0,45.39q0-5.1-5.1-5.1h-25q-5.1,0-5.1,5.1v10.37q0,5.1,5.1,5.1h25q5.1,0,5.1-5.1Z"/><path class="cls-3" d="M71.11,188.39c-15.47,0-23.29-8-23.29-24v-22.1c0-10.2,4.42-16.32,14.62-18.53-9.69-1.7-14.28-8.33-14.28-20.06V83.33c0-16.15,7.82-24.14,23.29-24.14h46.24c15.63,0,23.46,8,23.46,24.14v20.4c0,11.73-4.59,18.36-14.29,20.06,10.21,2.21,14.62,8.33,14.62,18.53v22.1q0,24-23.45,24Zm41.14-92.48q0-5.1-5.1-5.1h-25q-5.1,0-5.1,5.1v10.2c0,3.4,1.7,5.27,5.1,5.27h25c3.4,0,5.1-1.87,5.1-5.27Zm0,45.39q0-5.1-5.1-5.1h-25q-5.1,0-5.1,5.1v10.37q0,5.1,5.1,5.1h25q5.1,0,5.1-5.1Z"/><path class="cls-3" d="M71.18,188.31c-15.47,0-23.29-8-23.29-24v-22.1c0-10.2,4.42-16.32,14.62-18.53-9.69-1.7-14.28-8.33-14.28-20.06V83.25c0-16.14,7.82-24.14,23.29-24.14h46.24c15.64,0,23.46,8,23.46,24.14v20.4c0,11.73-4.59,18.36-14.28,20.06,10.2,2.21,14.62,8.33,14.62,18.53v22.1q0,24-23.46,24Zm41.14-92.48q0-5.1-5.1-5.1h-25q-5.1,0-5.1,5.1V106c0,3.4,1.7,5.27,5.1,5.27h25c3.4,0,5.1-1.87,5.1-5.27Zm0,45.39q0-5.1-5.1-5.1h-25q-5.1,0-5.1,5.1v10.37q0,5.1,5.1,5.1h25q5.1,0,5.1-5.1Z"/><path class="cls-3" d="M71.25,188.24c-15.47,0-23.29-8-23.29-24v-22.1c0-10.2,4.42-16.32,14.62-18.53-9.69-1.7-14.28-8.33-14.28-20.06V83.18C48.3,67,56.12,59,71.59,59h46.24c15.64,0,23.46,8,23.46,24.14v20.4c0,11.73-4.59,18.36-14.28,20.06,10.2,2.21,14.62,8.33,14.62,18.53v22.1q0,24-23.46,24Zm41.14-92.48q0-5.1-5.1-5.1h-25q-5.1,0-5.1,5.1V106c0,3.4,1.7,5.27,5.1,5.27h25c3.4,0,5.1-1.87,5.1-5.27Zm0,45.39q0-5.1-5.1-5.1h-25q-5.1,0-5.1,5.1v10.37q0,5.1,5.1,5.1h25q5.1,0,5.1-5.1Z"/><path class="cls-3" d="M71.32,188.17c-15.47,0-23.29-8-23.29-24V142.1c0-10.2,4.42-16.32,14.62-18.53-9.69-1.7-14.28-8.33-14.28-20.06V83.11C48.37,67,56.19,59,71.66,59H117.9c15.64,0,23.46,8,23.46,24.14v20.4c0,11.73-4.59,18.36-14.28,20.06,10.2,2.21,14.62,8.33,14.62,18.53v22.1q0,24-23.46,24Zm41.14-92.48q0-5.1-5.1-5.1h-25q-5.1,0-5.1,5.1v10.2c0,3.4,1.7,5.27,5.1,5.27h25c3.4,0,5.1-1.87,5.1-5.27Zm0,45.39q0-5.1-5.1-5.1h-25q-5.1,0-5.1,5.1v10.37q0,5.1,5.1,5.1h25q5.1,0,5.1-5.1Z"/><path class="cls-3" d="M71.39,188.1c-15.47,0-23.29-8-23.29-24V142c0-10.2,4.42-16.32,14.62-18.53-9.69-1.7-14.28-8.33-14.28-20.06V83c0-16.15,7.82-24.14,23.29-24.14H118c15.64,0,23.46,8,23.46,24.14v20.4c0,11.73-4.59,18.36-14.28,20.06,10.2,2.21,14.62,8.33,14.62,18.53v22.1q0,24-23.46,24Zm41.14-92.48q0-5.1-5.1-5.1h-25q-5.1,0-5.1,5.1v10.2c0,3.4,1.7,5.27,5.1,5.27h25c3.4,0,5.1-1.87,5.1-5.27Zm0,45.39q0-5.1-5.1-5.1h-25q-5.1,0-5.1,5.1v10.37q0,5.1,5.1,5.1h25q5.1,0,5.1-5.1Z"/><path class="cls-3" d="M71.47,188c-15.47,0-23.29-8-23.29-24V142c0-10.2,4.42-16.32,14.62-18.53-9.69-1.7-14.28-8.33-14.28-20.06V83c0-16.15,7.82-24.14,23.29-24.14h46.24c15.63,0,23.46,8,23.46,24.14v20.4c0,11.73-4.59,18.36-14.29,20.06,10.21,2.21,14.62,8.33,14.62,18.53v22.1q0,24-23.45,24Zm41.14-92.48q0-5.1-5.1-5.1h-25q-5.1,0-5.1,5.1v10.2c0,3.4,1.7,5.27,5.1,5.27h25c3.4,0,5.1-1.87,5.1-5.27Zm0,45.39q0-5.1-5.1-5.1h-25q-5.1,0-5.1,5.1v10.37q0,5.1,5.1,5.1h25q5.1,0,5.1-5.1Z"/><path class="cls-3" d="M71.54,188c-15.47,0-23.29-8-23.29-24v-22.1c0-10.2,4.42-16.32,14.62-18.53-9.69-1.7-14.28-8.33-14.28-20.06V82.89c0-16.14,7.82-24.14,23.29-24.14h46.24c15.64,0,23.46,8,23.46,24.14v20.4c0,11.73-4.59,18.36-14.28,20.06,10.2,2.21,14.62,8.33,14.62,18.53V164q0,24-23.46,24Zm41.14-92.48q0-5.1-5.1-5.1h-25q-5.1,0-5.1,5.1v10.2c0,3.4,1.7,5.27,5.1,5.27h25c3.4,0,5.1-1.87,5.1-5.27Zm0,45.39q0-5.1-5.1-5.1h-25q-5.1,0-5.1,5.1v10.37q0,5.1,5.1,5.1h25q5.1,0,5.1-5.1Z"/><path class="cls-3" d="M71.61,187.88c-15.47,0-23.29-8-23.29-24v-22.1c0-10.2,4.42-16.32,14.62-18.53-9.69-1.7-14.28-8.33-14.28-20.06V82.82c0-16.15,7.82-24.14,23.29-24.14h46.24c15.64,0,23.46,8,23.46,24.14v20.4c0,11.73-4.59,18.36-14.28,20.06,10.2,2.21,14.62,8.33,14.62,18.53v22.1q0,24-23.46,24ZM112.75,95.4q0-5.1-5.1-5.1h-25q-5.1,0-5.1,5.1v10.2c0,3.4,1.7,5.27,5.1,5.27h25c3.4,0,5.1-1.87,5.1-5.27Zm0,45.39q0-5.1-5.1-5.1h-25q-5.1,0-5.1,5.1v10.37q0,5.1,5.1,5.1h25q5.1,0,5.1-5.1Z"/><path class="cls-3" d="M71.68,187.81c-15.47,0-23.29-8-23.29-24v-22.1c0-10.2,4.42-16.32,14.62-18.53-9.69-1.7-14.28-8.33-14.28-20.06V82.75c0-16.15,7.82-24.14,23.29-24.14h46.24c15.64,0,23.46,8,23.46,24.14v20.4c0,11.73-4.59,18.36-14.28,20.06,10.2,2.21,14.62,8.33,14.62,18.53v22.1q0,24-23.46,24Zm41.14-92.48q0-5.1-5.1-5.1h-25q-5.1,0-5.1,5.1v10.2c0,3.4,1.7,5.27,5.1,5.27h25c3.4,0,5.1-1.87,5.1-5.27Zm0,45.39q0-5.1-5.1-5.1h-25q-5.1,0-5.1,5.1v10.37q0,5.1,5.1,5.1h25q5.1,0,5.1-5.1Z"/><path class="cls-3" d="M71.75,187.74c-15.47,0-23.29-8-23.29-24v-22.1c0-10.2,4.42-16.32,14.62-18.53-9.69-1.7-14.28-8.33-14.28-20.06V82.68c0-16.15,7.82-24.14,23.29-24.14h46.24c15.64,0,23.46,8,23.46,24.14v20.4c0,11.73-4.59,18.36-14.28,20.06,10.2,2.21,14.62,8.33,14.62,18.53v22.1q0,24-23.46,24Zm41.14-92.48q0-5.1-5.1-5.1h-25q-5.1,0-5.1,5.1v10.2c0,3.4,1.7,5.27,5.1,5.27h25c3.4,0,5.1-1.87,5.1-5.27Zm0,45.39q0-5.1-5.1-5.1h-25q-5.1,0-5.1,5.1V151q0,5.1,5.1,5.1h25q5.1,0,5.1-5.1Z"/><path class="cls-3" d="M71.83,187.67c-15.47,0-23.29-8-23.29-24V141.6c0-10.2,4.42-16.32,14.62-18.53-9.69-1.7-14.28-8.33-14.28-20.06V82.61c0-16.15,7.82-24.14,23.29-24.14h46.24c15.63,0,23.46,8,23.46,24.14V103c0,11.73-4.59,18.36-14.29,20.06,10.21,2.21,14.62,8.33,14.62,18.53v22.1q0,24-23.45,24ZM113,95.19q0-5.1-5.1-5.1h-25q-5.1,0-5.1,5.1v10.2c0,3.4,1.7,5.27,5.1,5.27h25c3.4,0,5.1-1.87,5.1-5.27Zm0,45.39q0-5.1-5.1-5.1h-25q-5.1,0-5.1,5.1V151q0,5.1,5.1,5.1h25q5.1,0,5.1-5.1Z"/><path class="cls-3" d="M71.9,187.59c-15.47,0-23.29-8-23.29-24v-22.1c0-10.2,4.42-16.32,14.62-18.53C53.54,121.29,49,114.66,49,102.93V82.53c0-16.14,7.82-24.14,23.29-24.14h46.24c15.64,0,23.46,8,23.46,24.14v20.4c0,11.73-4.59,18.36-14.28,20.06,10.2,2.21,14.62,8.33,14.62,18.53v22.1q0,24-23.46,24ZM113,95.11q0-5.1-5.1-5.1H83q-5.1,0-5.1,5.1v10.2c0,3.4,1.7,5.27,5.1,5.27h25c3.4,0,5.1-1.87,5.1-5.27Zm0,45.39q0-5.1-5.1-5.1H83q-5.1,0-5.1,5.1v10.37q0,5.1,5.1,5.1h25q5.1,0,5.1-5.1Z"/><path class="cls-3" d="M72,187.52c-15.47,0-23.29-8-23.29-24v-22.1c0-10.2,4.42-16.32,14.62-18.53C53.61,121.22,49,114.59,49,102.86V82.46c0-16.15,7.82-24.14,23.29-24.14h46.24c15.64,0,23.46,8,23.46,24.14v20.4c0,11.73-4.59,18.36-14.28,20.06,10.2,2.21,14.62,8.33,14.62,18.53v22.1q0,24-23.46,24ZM113.11,95q0-5.1-5.1-5.1H83q-5.1,0-5.1,5.1v10.2c0,3.4,1.7,5.27,5.1,5.27h25c3.4,0,5.1-1.87,5.1-5.27Zm0,45.39q0-5.1-5.1-5.1H83q-5.1,0-5.1,5.1V150.8q0,5.1,5.1,5.1h25q5.1,0,5.1-5.1Z"/><path class="cls-3" d="M72,187.45c-15.47,0-23.29-8-23.29-24v-22.1c0-10.2,4.42-16.32,14.62-18.53-9.69-1.7-14.28-8.33-14.28-20.06V82.39c0-16.15,7.82-24.14,23.29-24.14h46.24c15.64,0,23.46,8,23.46,24.14v20.4c0,11.73-4.59,18.36-14.28,20.06,10.2,2.21,14.62,8.33,14.62,18.53v22.1q0,24-23.46,24ZM113.18,95q0-5.1-5.1-5.1h-25Q78,89.87,78,95v10.2c0,3.4,1.7,5.27,5.1,5.27h25c3.4,0,5.1-1.87,5.1-5.27Zm0,45.39q0-5.1-5.1-5.1h-25q-5.1,0-5.1,5.1v10.37q0,5.1,5.1,5.1h25q5.1,0,5.1-5.1Z"/><path class="cls-3" d="M72.11,187.38c-15.47,0-23.29-8-23.29-24v-22.1c0-10.2,4.42-16.32,14.62-18.53-9.69-1.7-14.28-8.33-14.28-20.06V82.32c0-16.15,7.82-24.14,23.29-24.14h46.24c15.64,0,23.46,8,23.46,24.14v20.4c0,11.73-4.59,18.36-14.28,20.06,10.2,2.21,14.62,8.33,14.62,18.53v22.1q0,24-23.46,24ZM113.25,94.9q0-5.1-5.1-5.1h-25q-5.1,0-5.1,5.1v10.2c0,3.4,1.7,5.27,5.1,5.27h25c3.4,0,5.1-1.87,5.1-5.27Zm0,45.39q0-5.1-5.1-5.1h-25q-5.1,0-5.1,5.1v10.37q0,5.1,5.1,5.1h25q5.1,0,5.1-5.1Z"/><path class="cls-3" d="M72.19,187.31c-15.47,0-23.29-8-23.29-24v-22.1c0-10.2,4.42-16.32,14.62-18.53-9.69-1.7-14.28-8.33-14.28-20.06V82.25c0-16.15,7.82-24.14,23.29-24.14h46.24c15.63,0,23.46,8,23.46,24.14v20.4c0,11.73-4.59,18.36-14.29,20.06,10.21,2.21,14.62,8.33,14.62,18.53v22.1q0,24-23.45,24Zm41.14-92.48q0-5.1-5.1-5.1h-25q-5.1,0-5.1,5.1V105c0,3.4,1.7,5.27,5.1,5.27h25c3.4,0,5.1-1.87,5.1-5.27Zm0,45.39q0-5.1-5.1-5.1h-25q-5.1,0-5.1,5.1v10.37q0,5.1,5.1,5.1h25q5.1,0,5.1-5.1Z"/><path class="cls-3" d="M72.26,187.23c-15.47,0-23.29-8-23.29-24v-22.1c0-10.2,4.42-16.32,14.62-18.53-9.69-1.7-14.28-8.33-14.28-20.06V82.17C49.31,66,57.13,58,72.6,58h46.24c15.64,0,23.46,8,23.46,24.14v20.4c0,11.73-4.59,18.36-14.28,20.06,10.2,2.21,14.62,8.33,14.62,18.53v22.1q0,24-23.46,24ZM113.4,94.75q0-5.1-5.1-5.1h-25q-5.1,0-5.1,5.1V105c0,3.4,1.7,5.27,5.1,5.27h25c3.4,0,5.1-1.87,5.1-5.27Zm0,45.39q0-5.1-5.1-5.1h-25q-5.1,0-5.1,5.1v10.37q0,5.1,5.1,5.1h25q5.1,0,5.1-5.1Z"/><path class="cls-3" d="M72.33,187.16c-15.47,0-23.29-8-23.29-24v-22.1c0-10.2,4.42-16.32,14.62-18.53-9.69-1.7-14.28-8.33-14.28-20.06V82.1C49.38,66,57.2,58,72.67,58h46.24c15.64,0,23.46,8,23.46,24.14v20.4c0,11.73-4.59,18.36-14.28,20.06,10.2,2.21,14.62,8.33,14.62,18.53v22.1q0,24-23.46,24Zm41.14-92.48q0-5.1-5.1-5.1h-25q-5.1,0-5.1,5.1v10.2c0,3.4,1.7,5.27,5.1,5.27h25c3.4,0,5.1-1.87,5.1-5.27Zm0,45.39q0-5.1-5.1-5.1h-25q-5.1,0-5.1,5.1v10.37q0,5.1,5.1,5.1h25q5.1,0,5.1-5.1Z"/><path class="cls-3" d="M72.4,187.09c-15.47,0-23.29-8-23.29-24V141c0-10.2,4.42-16.32,14.62-18.53-9.69-1.7-14.28-8.33-14.28-20.06V82c0-16.15,7.82-24.14,23.29-24.14H119c15.64,0,23.46,8,23.46,24.14v20.4c0,11.73-4.59,18.36-14.28,20.06,10.2,2.21,14.62,8.33,14.62,18.53v22.1q0,24-23.46,24Zm41.14-92.48q0-5.1-5.1-5.1h-25q-5.1,0-5.1,5.1v10.2c0,3.4,1.7,5.27,5.1,5.27h25c3.4,0,5.1-1.87,5.1-5.27Zm0,45.39q0-5.1-5.1-5.1h-25q-5.1,0-5.1,5.1v10.37q0,5.1,5.1,5.1h25q5.1,0,5.1-5.1Z"/><path class="cls-3" d="M72.47,187c-15.47,0-23.29-8-23.29-24V141c0-10.2,4.42-16.32,14.62-18.53-9.69-1.7-14.28-8.33-14.28-20.06V82c0-16.15,7.82-24.14,23.29-24.14h46.24c15.64,0,23.46,8,23.46,24.14v20.4c0,11.73-4.59,18.36-14.28,20.06,10.2,2.21,14.62,8.33,14.62,18.53v22.1q0,24-23.46,24Zm41.14-92.48q0-5.1-5.1-5.1h-25q-5.1,0-5.1,5.1v10.2c0,3.4,1.7,5.27,5.1,5.27h25c3.4,0,5.1-1.87,5.1-5.27Zm0,45.39q0-5.1-5.1-5.1h-25q-5.1,0-5.1,5.1V150.3q0,5.1,5.1,5.1h25q5.1,0,5.1-5.1Z"/><path class="cls-3" d="M72.55,187c-15.47,0-23.29-8-23.29-24v-22.1c0-10.2,4.42-16.32,14.62-18.53-9.69-1.7-14.28-8.33-14.28-20.06V81.89c0-16.15,7.82-24.14,23.29-24.14h46.24c15.63,0,23.46,8,23.46,24.14v20.4c0,11.73-4.59,18.36-14.29,20.06,10.21,2.21,14.62,8.33,14.62,18.53V163q0,24-23.45,24Zm41.14-92.48q0-5.1-5.1-5.1h-25q-5.1,0-5.1,5.1v10.2c0,3.4,1.7,5.27,5.1,5.27h25c3.4,0,5.1-1.87,5.1-5.27Zm0,45.39q0-5.1-5.1-5.1h-25q-5.1,0-5.1,5.1v10.37q0,5.1,5.1,5.1h25q5.1,0,5.1-5.1Z"/><path class="cls-3" d="M72.62,186.87c-15.47,0-23.29-8-23.29-24V140.8c0-10.2,4.42-16.32,14.62-18.53-9.69-1.7-14.28-8.33-14.28-20.06V81.81c0-16.14,7.82-24.14,23.29-24.14H119.2c15.64,0,23.46,8,23.46,24.14v20.4c0,11.73-4.59,18.36-14.28,20.06,10.2,2.21,14.62,8.33,14.62,18.53v22.1q0,24-23.46,24Zm41.14-92.48q0-5.1-5.1-5.1h-25q-5.1,0-5.1,5.1v10.2c0,3.4,1.7,5.27,5.1,5.27h25c3.4,0,5.1-1.87,5.1-5.27Zm0,45.39q0-5.1-5.1-5.1h-25q-5.1,0-5.1,5.1v10.37q0,5.1,5.1,5.1h25q5.1,0,5.1-5.1Z"/><path class="cls-3" d="M72.69,186.8c-15.47,0-23.29-8-23.29-24v-22.1c0-10.2,4.42-16.32,14.62-18.53-9.69-1.7-14.28-8.33-14.28-20.06V81.74C49.74,65.59,57.56,57.6,73,57.6h46.24c15.64,0,23.46,8,23.46,24.14v20.4c0,11.73-4.59,18.36-14.28,20.06,10.2,2.21,14.62,8.33,14.62,18.53v22.1q0,24-23.46,24Zm41.14-92.48q0-5.1-5.1-5.1h-25q-5.1,0-5.1,5.1v10.2c0,3.4,1.7,5.27,5.1,5.27h25c3.4,0,5.1-1.87,5.1-5.27Zm0,45.39q0-5.1-5.1-5.1h-25q-5.1,0-5.1,5.1v10.37q0,5.1,5.1,5.1h25q5.1,0,5.1-5.1Z"/><path class="cls-3" d="M72.76,186.73c-15.47,0-23.29-8-23.29-24v-22.1c0-10.2,4.42-16.32,14.62-18.53-9.69-1.7-14.28-8.33-14.28-20.06V81.67c0-16.15,7.82-24.14,23.29-24.14h46.24c15.64,0,23.46,8,23.46,24.14v20.4c0,11.73-4.59,18.36-14.28,20.06,10.2,2.21,14.62,8.33,14.62,18.53v22.1q0,24-23.46,24ZM113.9,94.25q0-5.1-5.1-5.1h-25q-5.1,0-5.1,5.1v10.2c0,3.4,1.7,5.27,5.1,5.27h25c3.4,0,5.1-1.87,5.1-5.27Zm0,45.39q0-5.1-5.1-5.1h-25q-5.1,0-5.1,5.1V150q0,5.1,5.1,5.1h25q5.1,0,5.1-5.1Z"/><path class="cls-3" d="M72.83,186.66c-15.47,0-23.29-8-23.29-24v-22.1c0-10.2,4.42-16.32,14.62-18.53-9.69-1.7-14.28-8.33-14.28-20.06V81.6c0-16.15,7.82-24.14,23.29-24.14h46.24c15.64,0,23.46,8,23.46,24.14V102c0,11.73-4.59,18.36-14.28,20.06,10.2,2.21,14.62,8.33,14.62,18.53v22.1q0,24-23.46,24ZM114,94.18q0-5.1-5.1-5.1h-25q-5.1,0-5.1,5.1v10.2c0,3.4,1.7,5.27,5.1,5.27h25c3.4,0,5.1-1.87,5.1-5.27Zm0,45.39q0-5.1-5.1-5.1h-25q-5.1,0-5.1,5.1v10.37q0,5.1,5.1,5.1h25q5.1,0,5.1-5.1Z"/><path class="cls-3" d="M72.91,186.59c-15.47,0-23.29-8-23.29-24v-22.1c0-10.2,4.42-16.32,14.62-18.53C54.55,120.29,50,113.66,50,101.93V81.53c0-16.15,7.82-24.14,23.29-24.14h46.24c15.63,0,23.46,8,23.46,24.14v20.4c0,11.73-4.59,18.36-14.29,20.06,10.21,2.21,14.62,8.33,14.62,18.53v22.1q0,24-23.45,24Zm41.14-92.48q0-5.1-5.1-5.1H84q-5.1,0-5.1,5.1v10.2c0,3.4,1.7,5.27,5.1,5.27h25c3.4,0,5.1-1.87,5.1-5.27Zm0,45.39q0-5.1-5.1-5.1H84q-5.1,0-5.1,5.1v10.37q0,5.1,5.1,5.1h25q5.1,0,5.1-5.1Z"/><path class="cls-3" d="M73,186.51c-15.47,0-23.29-8-23.29-24v-22.1c0-10.2,4.42-16.32,14.62-18.53C54.62,120.21,50,113.58,50,101.85V81.45c0-16.14,7.82-24.14,23.29-24.14h46.24c15.64,0,23.46,8,23.46,24.14v20.4c0,11.73-4.59,18.36-14.28,20.06,10.2,2.21,14.62,8.33,14.62,18.53v22.1q0,24-23.46,24ZM114.12,94q0-5.1-5.1-5.1H84q-5.1,0-5.1,5.1v10.2c0,3.4,1.7,5.27,5.1,5.27h25c3.4,0,5.1-1.87,5.1-5.27Zm0,45.39q0-5.1-5.1-5.1H84q-5.1,0-5.1,5.1v10.37q0,5.1,5.1,5.1h25q5.1,0,5.1-5.1Z"/><path class="cls-3" d="M73.05,186.44c-15.47,0-23.29-8-23.29-24v-22.1c0-10.2,4.42-16.32,14.62-18.53-9.69-1.7-14.28-8.33-14.28-20.06V81.38c0-16.15,7.82-24.14,23.29-24.14h46.24c15.64,0,23.46,8,23.46,24.14v20.4c0,11.73-4.59,18.36-14.28,20.06,10.2,2.21,14.62,8.33,14.62,18.53v22.1q0,24-23.46,24ZM114.19,94q0-5.1-5.1-5.1h-25Q79,88.86,79,94v10.2c0,3.4,1.7,5.27,5.1,5.27h25c3.4,0,5.1-1.87,5.1-5.27Zm0,45.39q0-5.1-5.1-5.1h-25q-5.1,0-5.1,5.1v10.37q0,5.1,5.1,5.1h25q5.1,0,5.1-5.1Z"/><path class="cls-3" d="M73.12,186.37c-15.47,0-23.29-8-23.29-24V140.3c0-10.2,4.42-16.32,14.62-18.53-9.69-1.7-14.28-8.33-14.28-20.06V81.31c0-16.15,7.82-24.14,23.29-24.14H119.7c15.64,0,23.46,8,23.46,24.14v20.4c0,11.73-4.59,18.36-14.28,20.06,10.2,2.21,14.62,8.33,14.62,18.53v22.1q0,24-23.46,24Zm41.14-92.48q0-5.1-5.1-5.1h-25q-5.1,0-5.1,5.1v10.2c0,3.4,1.7,5.27,5.1,5.27h25c3.4,0,5.1-1.87,5.1-5.27Zm0,45.39q0-5.1-5.1-5.1h-25q-5.1,0-5.1,5.1v10.37q0,5.1,5.1,5.1h25q5.1,0,5.1-5.1Z"/></g></svg>